%TF.GenerationSoftware,KiCad,Pcbnew,10.0.0*%
%TF.CreationDate,2026-04-06T13:30:36-04:00*%
%TF.ProjectId,phaser1,70686173-6572-4312-9e6b-696361645f70,1.0*%
%TF.SameCoordinates,Original*%
%TF.FileFunction,Soldermask,Bot*%
%TF.FilePolarity,Negative*%
%FSLAX46Y46*%
G04 Gerber Fmt 4.6, Leading zero omitted, Abs format (unit mm)*
G04 Created by KiCad (PCBNEW 10.0.0) date 2026-04-06 13:30:36*
%MOMM*%
%LPD*%
G01*
G04 APERTURE LIST*
G04 Aperture macros list*
%AMRoundRect*
0 Rectangle with rounded corners*
0 $1 Rounding radius*
0 $2 $3 $4 $5 $6 $7 $8 $9 X,Y pos of 4 corners*
0 Add a 4 corners polygon primitive as box body*
4,1,4,$2,$3,$4,$5,$6,$7,$8,$9,$2,$3,0*
0 Add four circle primitives for the rounded corners*
1,1,$1+$1,$2,$3*
1,1,$1+$1,$4,$5*
1,1,$1+$1,$6,$7*
1,1,$1+$1,$8,$9*
0 Add four rect primitives between the rounded corners*
20,1,$1+$1,$2,$3,$4,$5,0*
20,1,$1+$1,$4,$5,$6,$7,0*
20,1,$1+$1,$6,$7,$8,$9,0*
20,1,$1+$1,$8,$9,$2,$3,0*%
G04 Aperture macros list end*
%ADD10RoundRect,0.250001X-1.149999X1.149999X-1.149999X-1.149999X1.149999X-1.149999X1.149999X1.149999X0*%
%ADD11C,2.800000*%
%ADD12R,1.700000X1.700000*%
%ADD13C,1.700000*%
%ADD14C,5.000000*%
%ADD15C,3.000000*%
%ADD16RoundRect,0.250000X-1.050000X-0.550000X1.050000X-0.550000X1.050000X0.550000X-1.050000X0.550000X0*%
%ADD17O,2.600000X1.600000*%
%ADD18O,1.600000X2.600000*%
%ADD19RoundRect,0.102000X-0.889000X-0.889000X0.889000X-0.889000X0.889000X0.889000X-0.889000X0.889000X0*%
%ADD20C,1.982000*%
%ADD21C,3.404000*%
%ADD22RoundRect,0.250001X-0.949999X0.949999X-0.949999X-0.949999X0.949999X-0.949999X0.949999X0.949999X0*%
%ADD23C,2.400000*%
G04 APERTURE END LIST*
D10*
%TO.C,J3*%
X172000000Y-90000000D03*
D11*
X172000000Y-95000000D03*
X172000000Y-100000000D03*
X172000000Y-105000000D03*
X172000000Y-110000000D03*
X172000000Y-115000000D03*
X172000000Y-120000000D03*
X172000000Y-125000000D03*
%TD*%
D12*
%TO.C,U7*%
X93000000Y-84250000D03*
D13*
X93000000Y-86790000D03*
X93000000Y-89330000D03*
X93000000Y-91870000D03*
X93000000Y-94410000D03*
X93000000Y-96950000D03*
X93000000Y-99490000D03*
X93000000Y-102030000D03*
X93000000Y-104570000D03*
X93000000Y-107110000D03*
X93000000Y-109650000D03*
X93000000Y-112190000D03*
X93000000Y-114730000D03*
X93000000Y-117270000D03*
X93000000Y-119810000D03*
D14*
X110000000Y-85750000D03*
X110000000Y-118250000D03*
%TD*%
D15*
%TO.C,L1*%
X85000000Y-91500000D03*
X79000000Y-99000000D03*
%TD*%
D16*
%TO.C,A1*%
X117247500Y-86950000D03*
D17*
X117247500Y-89490000D03*
X117247500Y-92030000D03*
X117247500Y-94570000D03*
X117247500Y-97110000D03*
X117247500Y-99650000D03*
X117247500Y-102190000D03*
X117247500Y-104730000D03*
X117247500Y-107270000D03*
X117247500Y-109810000D03*
X117247500Y-112350000D03*
X117247500Y-114890000D03*
X117247500Y-117430000D03*
X117247500Y-119970000D03*
X117247500Y-122510000D03*
X117247500Y-125050000D03*
X136967500Y-125050000D03*
X136967500Y-122510000D03*
X136967500Y-119970000D03*
X136967500Y-117430000D03*
X136967500Y-114890000D03*
X136967500Y-112350000D03*
X136967500Y-109810000D03*
X136967500Y-107270000D03*
X136967500Y-104730000D03*
X136967500Y-102190000D03*
X136967500Y-99650000D03*
X136967500Y-97110000D03*
D18*
X120757500Y-129830000D03*
X128377500Y-129830000D03*
X130917500Y-129830000D03*
X133457500Y-129830000D03*
%TD*%
D19*
%TO.C,U8*%
X78760000Y-128500000D03*
D20*
X81260000Y-128500000D03*
X83760000Y-128500000D03*
X86260000Y-128500000D03*
D21*
X83000000Y-116500000D03*
%TD*%
D22*
%TO.C,J1*%
X84000000Y-107000000D03*
D23*
X84000000Y-110500000D03*
%TD*%
M02*
