%TF.GenerationSoftware,KiCad,Pcbnew,10.0.0*%
%TF.CreationDate,2026-04-06T13:30:36-04:00*%
%TF.ProjectId,phaser1,70686173-6572-4312-9e6b-696361645f70,1.0*%
%TF.SameCoordinates,Original*%
%TF.FileFunction,Copper,L2,Bot*%
%TF.FilePolarity,Positive*%
%FSLAX46Y46*%
G04 Gerber Fmt 4.6, Leading zero omitted, Abs format (unit mm)*
G04 Created by KiCad (PCBNEW 10.0.0) date 2026-04-06 13:30:36*
%MOMM*%
%LPD*%
G01*
G04 APERTURE LIST*
G04 Aperture macros list*
%AMRoundRect*
0 Rectangle with rounded corners*
0 $1 Rounding radius*
0 $2 $3 $4 $5 $6 $7 $8 $9 X,Y pos of 4 corners*
0 Add a 4 corners polygon primitive as box body*
4,1,4,$2,$3,$4,$5,$6,$7,$8,$9,$2,$3,0*
0 Add four circle primitives for the rounded corners*
1,1,$1+$1,$2,$3*
1,1,$1+$1,$4,$5*
1,1,$1+$1,$6,$7*
1,1,$1+$1,$8,$9*
0 Add four rect primitives between the rounded corners*
20,1,$1+$1,$2,$3,$4,$5,0*
20,1,$1+$1,$4,$5,$6,$7,0*
20,1,$1+$1,$6,$7,$8,$9,0*
20,1,$1+$1,$8,$9,$2,$3,0*%
G04 Aperture macros list end*
%TA.AperFunction,ComponentPad*%
%ADD10RoundRect,0.250001X-1.149999X1.149999X-1.149999X-1.149999X1.149999X-1.149999X1.149999X1.149999X0*%
%TD*%
%TA.AperFunction,ComponentPad*%
%ADD11C,2.800000*%
%TD*%
%TA.AperFunction,ComponentPad*%
%ADD12R,1.700000X1.700000*%
%TD*%
%TA.AperFunction,ComponentPad*%
%ADD13C,1.700000*%
%TD*%
%TA.AperFunction,ComponentPad*%
%ADD14C,5.000000*%
%TD*%
%TA.AperFunction,ComponentPad*%
%ADD15C,3.000000*%
%TD*%
%TA.AperFunction,ComponentPad*%
%ADD16RoundRect,0.250000X-1.050000X-0.550000X1.050000X-0.550000X1.050000X0.550000X-1.050000X0.550000X0*%
%TD*%
%TA.AperFunction,ComponentPad*%
%ADD17O,2.600000X1.600000*%
%TD*%
%TA.AperFunction,ComponentPad*%
%ADD18O,1.600000X2.600000*%
%TD*%
%TA.AperFunction,ComponentPad*%
%ADD19R,1.778000X1.778000*%
%TD*%
%TA.AperFunction,ComponentPad*%
%ADD20C,1.778000*%
%TD*%
%TA.AperFunction,ComponentPad*%
%ADD21C,3.200000*%
%TD*%
%TA.AperFunction,ComponentPad*%
%ADD22RoundRect,0.250001X-0.949999X0.949999X-0.949999X-0.949999X0.949999X-0.949999X0.949999X0.949999X0*%
%TD*%
%TA.AperFunction,ComponentPad*%
%ADD23C,2.400000*%
%TD*%
%TA.AperFunction,ViaPad*%
%ADD24C,0.600000*%
%TD*%
%TA.AperFunction,ViaPad*%
%ADD25C,0.700000*%
%TD*%
%TA.AperFunction,Conductor*%
%ADD26C,0.200000*%
%TD*%
%TA.AperFunction,Conductor*%
%ADD27C,0.500000*%
%TD*%
G04 APERTURE END LIST*
D10*
%TO.P,J3,1,Pin_1_1*%
%TO.N,Net-(J3-Pin_1)*%
X172000000Y-90000000D03*
D11*
%TO.P,J3,2,Pin_2_2*%
%TO.N,Net-(J3-Pin_2)*%
X172000000Y-95000000D03*
%TO.P,J3,3,Pin_3_3*%
%TO.N,Net-(J3-Pin_3)*%
X172000000Y-100000000D03*
%TO.P,J3,4,Pin_4_4*%
%TO.N,Net-(J3-Pin_4)*%
X172000000Y-105000000D03*
%TO.P,J3,5,Pin_5_5*%
%TO.N,Net-(J3-Pin_5)*%
X172000000Y-110000000D03*
%TO.P,J3,6,Pin_6_6*%
%TO.N,Net-(J3-Pin_6)*%
X172000000Y-115000000D03*
%TO.P,J3,7,Pin_7_7*%
%TO.N,Net-(J3-Pin_7)*%
X172000000Y-120000000D03*
%TO.P,J3,8,Pin_8_8*%
%TO.N,GND*%
X172000000Y-125000000D03*
%TD*%
D12*
%TO.P,U7,1,VCC_1*%
%TO.N,/+3V3*%
X93000000Y-84250000D03*
D13*
%TO.P,U7,2,GND_2*%
%TO.N,GND*%
X93000000Y-86790000D03*
%TO.P,U7,3,SCL_3*%
%TO.N,Net-(A1-SCL{slash}D21)*%
X93000000Y-89330000D03*
%TO.P,U7,4,SDA_4*%
%TO.N,Net-(A1-SDA{slash}D20)*%
X93000000Y-91870000D03*
%TO.P,U7,5,VIN3_+_5*%
%TO.N,unconnected-(U7-VIN3_+-Pad5)*%
X93000000Y-94410000D03*
%TO.P,U7,6,VIN3-_6*%
%TO.N,unconnected-(U7-VIN3--Pad6)*%
X93000000Y-96950000D03*
%TO.P,U7,7,VIN2+_7*%
%TO.N,Net-(U7-VIN2+)*%
X93000000Y-99490000D03*
%TO.P,U7,8,VIN2-_8*%
%TO.N,/+5V*%
X93000000Y-102030000D03*
%TO.P,U7,9,VIN1+_9*%
%TO.N,Net-(U7-VIN1+)*%
X93000000Y-104570000D03*
%TO.P,U7,10,VIN1-_10*%
%TO.N,+12V*%
X93000000Y-107110000D03*
%TO.P,U7,11,WRN_11*%
%TO.N,unconnected-(U7-WRN-Pad11)*%
X93000000Y-109650000D03*
%TO.P,U7,12,CRI_12*%
%TO.N,unconnected-(U7-CRI-Pad12)*%
X93000000Y-112190000D03*
%TO.P,U7,13,TC_13*%
%TO.N,unconnected-(U7-TC-Pad13)*%
X93000000Y-114730000D03*
%TO.P,U7,14,VALID_14*%
%TO.N,unconnected-(U7-VALID-Pad14)*%
X93000000Y-117270000D03*
%TO.P,U7,15,VPU_15*%
%TO.N,/+3V3*%
X93000000Y-119810000D03*
D14*
%TO.P,U7,SH1,SH1_SH1*%
%TO.N,GND*%
X110000000Y-85750000D03*
%TO.P,U7,SH2,SH2_SH2*%
X110000000Y-118250000D03*
%TD*%
D15*
%TO.P,L1,1,1_1*%
%TO.N,Net-(J1-Pin_1)*%
X85000000Y-91500000D03*
%TO.P,L1,2,2_2*%
%TO.N,Net-(U7-VIN1+)*%
X79000000Y-99000000D03*
%TD*%
D16*
%TO.P,A1,1,~{RESET}_1*%
%TO.N,unconnected-(A1-~{RESET}-Pad1)*%
X117247500Y-86950000D03*
D17*
%TO.P,A1,2,3V3_2*%
%TO.N,/+3V3*%
X117247500Y-89490000D03*
%TO.P,A1,3,AREF_3*%
%TO.N,unconnected-(A1-AREF-Pad3)*%
X117247500Y-92030000D03*
%TO.P,A1,4,GND_4*%
%TO.N,GND*%
X117247500Y-94570000D03*
%TO.P,A1,5,DAC0/A0_5*%
%TO.N,unconnected-(A1-DAC0{slash}A0-Pad5)*%
X117247500Y-97110000D03*
%TO.P,A1,6,A1_6*%
%TO.N,Net-(A1-A1)*%
X117247500Y-99650000D03*
%TO.P,A1,7,A2_7*%
%TO.N,Net-(A1-A2)*%
X117247500Y-102190000D03*
%TO.P,A1,8,A3_8*%
%TO.N,unconnected-(A1-A3-Pad8)*%
X117247500Y-104730000D03*
%TO.P,A1,9,A4_9*%
%TO.N,unconnected-(A1-A4-Pad9)*%
X117247500Y-107270000D03*
%TO.P,A1,10,A5_10*%
%TO.N,unconnected-(A1-A5-Pad10)*%
X117247500Y-109810000D03*
%TO.P,A1,11,SCK/D24_11*%
%TO.N,unconnected-(A1-SCK{slash}D24-Pad11)*%
X117247500Y-112350000D03*
%TO.P,A1,12,MOSI/D23_12*%
%TO.N,unconnected-(A1-MOSI{slash}D23-Pad12)*%
X117247500Y-114890000D03*
%TO.P,A1,13,MISO/D22_13*%
%TO.N,unconnected-(A1-MISO{slash}D22-Pad13)*%
X117247500Y-117430000D03*
%TO.P,A1,14,RX/D0_14*%
%TO.N,unconnected-(A1-RX{slash}D0-Pad14)*%
X117247500Y-119970000D03*
%TO.P,A1,15,TX/D1_15*%
%TO.N,unconnected-(A1-TX{slash}D1-Pad15)*%
X117247500Y-122510000D03*
%TO.P,A1,16,DIO1_16*%
%TO.N,unconnected-(A1-DIO1-Pad16)*%
X117247500Y-125050000D03*
%TO.P,A1,17,SDA/D20_17*%
%TO.N,Net-(A1-SDA{slash}D20)*%
X136967500Y-125050000D03*
%TO.P,A1,18,SCL/D21_18*%
%TO.N,Net-(A1-SCL{slash}D21)*%
X136967500Y-122510000D03*
%TO.P,A1,19,D5_19*%
%TO.N,Net-(A1-D5)*%
X136967500Y-119970000D03*
%TO.P,A1,20,D6_20*%
%TO.N,Net-(A1-D6)*%
X136967500Y-117430000D03*
%TO.P,A1,21,D9_21*%
%TO.N,unconnected-(A1-D9-Pad21)*%
X136967500Y-114890000D03*
%TO.P,A1,22,D10_22*%
%TO.N,Net-(A1-D10)*%
X136967500Y-112350000D03*
%TO.P,A1,23,D11_23*%
%TO.N,Net-(A1-D11)*%
X136967500Y-109810000D03*
%TO.P,A1,24,D12_24*%
%TO.N,Net-(A1-D12)*%
X136967500Y-107270000D03*
%TO.P,A1,25,D13_25*%
%TO.N,unconnected-(A1-D13-Pad25)*%
X136967500Y-104730000D03*
%TO.P,A1,26,USB_26*%
%TO.N,unconnected-(A1-USB-Pad26)*%
X136967500Y-102190000D03*
%TO.P,A1,27,EN_27*%
%TO.N,unconnected-(A1-EN-Pad27)*%
X136967500Y-99650000D03*
%TO.P,A1,28,VBAT_28*%
%TO.N,/+5V*%
X136967500Y-97110000D03*
D18*
%TO.P,A1,29,ANT_29*%
%TO.N,unconnected-(A1-ANT-Pad29)*%
X120757500Y-129830000D03*
%TO.P,A1,30,DIO5_30*%
%TO.N,unconnected-(A1-DIO5-Pad30)*%
X128377500Y-129830000D03*
%TO.P,A1,31,DIO3_31*%
%TO.N,unconnected-(A1-DIO3-Pad31)*%
X130917500Y-129830000D03*
%TO.P,A1,32,DIO2_32*%
%TO.N,unconnected-(A1-DIO2-Pad32)*%
X133457500Y-129830000D03*
%TD*%
D19*
%TO.P,U8,1,GND_1*%
%TO.N,GND*%
X78760000Y-128500000D03*
D20*
%TO.P,U8,2,5V_2*%
%TO.N,Net-(U7-VIN2+)*%
X81260000Y-128500000D03*
%TO.P,U8,3,VIN_3*%
%TO.N,+12V*%
X83760000Y-128500000D03*
%TO.P,U8,4,EN_4*%
%TO.N,unconnected-(U8-EN-Pad4)*%
X86260000Y-128500000D03*
D21*
%TO.P,U8,SH1,SHIELD_SH1*%
%TO.N,GND*%
X83000000Y-116500000D03*
%TD*%
D22*
%TO.P,J1,1,Pin_1_1*%
%TO.N,Net-(J1-Pin_1)*%
X84000000Y-107000000D03*
D23*
%TO.P,J1,2,Pin_2_2*%
%TO.N,GND*%
X84000000Y-110500000D03*
%TD*%
D24*
%TO.N,Net-(J3-Pin_5)*%
X166452500Y-123825500D03*
%TO.N,Net-(J3-Pin_6)*%
X168000000Y-132056291D03*
%TO.N,Net-(J3-Pin_7)*%
X154500000Y-138000000D03*
%TO.N,Net-(A1-D10)*%
X148714400Y-110352800D03*
X153228300Y-99928500D03*
%TO.N,Net-(A1-SCL{slash}D21)*%
X96317300Y-120860200D03*
%TO.N,Net-(A1-SDA{slash}D20)*%
X134307200Y-94172500D03*
%TO.N,Net-(A1-D5)*%
X152654800Y-91579500D03*
%TO.N,Net-(A1-D12)*%
X144319400Y-117601800D03*
%TO.N,Net-(A1-A2)*%
X105993000Y-123288600D03*
%TO.N,Net-(A1-D6)*%
X142392400Y-82716700D03*
%TO.N,Net-(A1-A1)*%
X119695700Y-132721400D03*
%TO.N,Net-(A1-D11)*%
X147777100Y-109180200D03*
X148910400Y-106394600D03*
D25*
%TO.N,Net-(J1-Pin_1)*%
X87550400Y-79346000D03*
%TO.N,Net-(U7-VIN1+)*%
X85500000Y-85478400D03*
%TD*%
%TO.N,GND*%
D26*
X78760000Y-128500000D02*
X78760000Y-127309300D01*
X83000000Y-116500000D02*
X83000000Y-123069300D01*
X115645800Y-94570000D02*
X110000000Y-100215800D01*
X83000000Y-111500000D02*
X83000000Y-116500000D01*
X110000000Y-88924200D02*
X115645800Y-94570000D01*
X84000000Y-110500000D02*
X83000000Y-111500000D01*
X83000000Y-123069300D02*
X78760000Y-127309300D01*
X110000000Y-85750000D02*
X110000000Y-88924200D01*
X110000000Y-100215800D02*
X110000000Y-118250000D01*
X116947500Y-94570000D02*
X115645800Y-94570000D01*
%TO.N,Net-(J3-Pin_5)*%
D27*
X166452500Y-123825500D02*
X166452500Y-115547500D01*
X166452500Y-115547500D02*
X172000000Y-110000000D01*
%TO.N,Net-(J3-Pin_6)*%
X168000000Y-132056291D02*
X169487800Y-117512200D01*
X169487800Y-117512200D02*
X172000000Y-115000000D01*
%TO.N,Net-(J3-Pin_7)*%
D26*
X154500000Y-138000000D02*
X169000000Y-132758900D01*
X169000000Y-131500000D02*
X170104000Y-121896000D01*
X170104000Y-121896000D02*
X172000000Y-120000000D01*
X169000000Y-132758900D02*
X169000000Y-131500000D01*
%TO.N,Net-(A1-D10)*%
X150182400Y-108639600D02*
X150082300Y-108539500D01*
X150082300Y-108539500D02*
X150082300Y-108456900D01*
X150082300Y-108456900D02*
X152772200Y-105767000D01*
X153228300Y-105452300D02*
X153228300Y-99928500D01*
X148714400Y-110352800D02*
X148752300Y-110352800D01*
X152772200Y-105767000D02*
X152913600Y-105767000D01*
X152913600Y-105767000D02*
X153228300Y-105452300D01*
X148752300Y-110352800D02*
X150182400Y-108922700D01*
X150182400Y-108922700D02*
X150182400Y-108639600D01*
%TO.N,+12V*%
D27*
X93000000Y-107110000D02*
X88145400Y-111964600D01*
X88145400Y-124114600D02*
X83760000Y-128500000D01*
X88145400Y-111964600D02*
X88145400Y-124114600D01*
%TO.N,/+3V3*%
D26*
X91848300Y-97434600D02*
X91848300Y-86265400D01*
X92633700Y-98220000D02*
X91848300Y-97434600D01*
X91848300Y-86265400D02*
X92712000Y-85401700D01*
X93000000Y-84250000D02*
X93000000Y-85401700D01*
X93000000Y-119810000D02*
X94178800Y-118631200D01*
X94178800Y-118631200D02*
X94178800Y-98981200D01*
X93417600Y-98220000D02*
X92633700Y-98220000D01*
X92712000Y-85401700D02*
X93000000Y-85401700D01*
X94178800Y-98981200D02*
X93417600Y-98220000D01*
%TO.N,Net-(A1-SCL{slash}D21)*%
X96317300Y-120860200D02*
X96317300Y-92647300D01*
X96317300Y-92647300D02*
X93000000Y-89330000D01*
%TO.N,Net-(A1-SDA{slash}D20)*%
X134307200Y-123991400D02*
X135365800Y-125050000D01*
X137267500Y-125050000D02*
X135365800Y-125050000D01*
X134307200Y-94172500D02*
X134307200Y-123991400D01*
%TO.N,Net-(U7-VIN2+)*%
D27*
X81260000Y-128500000D02*
X85501200Y-124258800D01*
X85501200Y-112523500D02*
X91610200Y-106414500D01*
X91610200Y-100879800D02*
X93000000Y-99490000D01*
X91610200Y-106414500D02*
X91610200Y-100879800D01*
X85501200Y-124258800D02*
X85501200Y-112523500D01*
%TO.N,Net-(A1-D5)*%
D26*
X148786000Y-109751100D02*
X148465300Y-109751100D01*
X138569200Y-119647200D02*
X138569200Y-119970000D01*
X137267500Y-119970000D02*
X138569200Y-119970000D01*
X149755900Y-108781200D02*
X148786000Y-109751100D01*
X152606000Y-105365300D02*
X152605900Y-105365300D01*
X152606000Y-91628300D02*
X152606000Y-105365300D01*
X148465300Y-109751100D02*
X138569200Y-119647200D01*
X152605900Y-105365300D02*
X149639300Y-108331900D01*
X152654800Y-91579500D02*
X152606000Y-91628300D01*
X149755900Y-108781100D02*
X149755900Y-108781200D01*
X149639300Y-108664500D02*
X149755900Y-108781100D01*
X149639300Y-108331900D02*
X149639300Y-108664500D01*
%TO.N,Net-(A1-D12)*%
X137267500Y-107270000D02*
X135365800Y-107270000D01*
X136029000Y-121098000D02*
X135365800Y-120434800D01*
X135365800Y-120434800D02*
X135365800Y-107270000D01*
X144319400Y-117601800D02*
X140823200Y-121098000D01*
X140823200Y-121098000D02*
X136029000Y-121098000D01*
%TO.N,Net-(A1-A2)*%
X116947500Y-102190000D02*
X115645800Y-102190000D01*
X115645800Y-102190000D02*
X115645800Y-116579400D01*
X105651400Y-123630200D02*
X105993000Y-123288600D01*
X108936600Y-123288600D02*
X105993000Y-123288600D01*
X115645800Y-116579400D02*
X108936600Y-123288600D01*
X105993000Y-123288600D02*
X105651400Y-123630200D01*
%TO.N,Net-(A1-D6)*%
X137267500Y-117430000D02*
X138569200Y-117430000D01*
X138569200Y-117430000D02*
X138569200Y-86539900D01*
X138569200Y-86539900D02*
X142392400Y-82716700D01*
%TO.N,Net-(A1-A1)*%
X121129600Y-134155300D02*
X119695700Y-132721400D01*
X118849200Y-99650000D02*
X118849200Y-131874900D01*
X118849200Y-131874900D02*
X119695700Y-132721400D01*
X116947500Y-99650000D02*
X118849200Y-99650000D01*
X119695700Y-132721400D02*
X121129600Y-134155300D01*
%TO.N,Net-(A1-D11)*%
X148910400Y-108046900D02*
X147777100Y-109180200D01*
X148910400Y-106394600D02*
X148910400Y-108046900D01*
%TO.N,Net-(J1-Pin_1)*%
D27*
X87550400Y-88949600D02*
X85000000Y-91500000D01*
X87550400Y-79346000D02*
X87550400Y-88949600D01*
D26*
X85000000Y-106000000D02*
X84000000Y-107000000D01*
D27*
X85000000Y-91500000D02*
X85000000Y-106000000D01*
%TO.N,Net-(U7-VIN1+)*%
X85500000Y-85478400D02*
X79000000Y-88184200D01*
X79000000Y-88184200D02*
X79000000Y-99000000D01*
%TD*%
%TA.AperFunction,Conductor*%
%TO.N,GND*%
G36*
X178942539Y-75520185D02*
G01*
X178988294Y-75572989D01*
X178999500Y-75624500D01*
X178999500Y-142375500D01*
X178979815Y-142442539D01*
X178927011Y-142488294D01*
X178875500Y-142499500D01*
X75124500Y-142499500D01*
X75057461Y-142479815D01*
X75011706Y-142427011D01*
X75000500Y-142375500D01*
X75000500Y-135818209D01*
X77299500Y-135818209D01*
X77299500Y-136181790D01*
X77335137Y-136543630D01*
X77406064Y-136900212D01*
X77406067Y-136900223D01*
X77511614Y-137248165D01*
X77650754Y-137584078D01*
X77650756Y-137584083D01*
X77822140Y-137904720D01*
X77822151Y-137904738D01*
X78024140Y-138207035D01*
X78024150Y-138207049D01*
X78254807Y-138488106D01*
X78511893Y-138745192D01*
X78511898Y-138745196D01*
X78511899Y-138745197D01*
X78792956Y-138975854D01*
X79095268Y-139177853D01*
X79095277Y-139177858D01*
X79095279Y-139177859D01*
X79415916Y-139349243D01*
X79415918Y-139349243D01*
X79415924Y-139349247D01*
X79751836Y-139488386D01*
X80099767Y-139593930D01*
X80099773Y-139593931D01*
X80099776Y-139593932D01*
X80099787Y-139593935D01*
X80456369Y-139664862D01*
X80818206Y-139700500D01*
X80818209Y-139700500D01*
X81181791Y-139700500D01*
X81181794Y-139700500D01*
X81543631Y-139664862D01*
X81613045Y-139651054D01*
X81900212Y-139593935D01*
X81900223Y-139593932D01*
X81900223Y-139593931D01*
X81900233Y-139593930D01*
X82248164Y-139488386D01*
X82584076Y-139349247D01*
X82904732Y-139177853D01*
X83207044Y-138975854D01*
X83488101Y-138745197D01*
X83745197Y-138488101D01*
X83975854Y-138207044D01*
X84166881Y-137921153D01*
X153699500Y-137921153D01*
X153699500Y-138078846D01*
X153730261Y-138233489D01*
X153730264Y-138233501D01*
X153790602Y-138379172D01*
X153790609Y-138379185D01*
X153878210Y-138510288D01*
X153878213Y-138510292D01*
X153989707Y-138621786D01*
X153989711Y-138621789D01*
X154120814Y-138709390D01*
X154120827Y-138709397D01*
X154266498Y-138769735D01*
X154266503Y-138769737D01*
X154421153Y-138800499D01*
X154421156Y-138800500D01*
X154421158Y-138800500D01*
X154578844Y-138800500D01*
X154578845Y-138800499D01*
X154733497Y-138769737D01*
X154879179Y-138709394D01*
X155010289Y-138621789D01*
X155121789Y-138510289D01*
X155184178Y-138416916D01*
X155237788Y-138372113D01*
X155245114Y-138369197D01*
X162302667Y-135818209D01*
X169299500Y-135818209D01*
X169299500Y-136181790D01*
X169335137Y-136543630D01*
X169406064Y-136900212D01*
X169406067Y-136900223D01*
X169511614Y-137248165D01*
X169650754Y-137584078D01*
X169650756Y-137584083D01*
X169822140Y-137904720D01*
X169822151Y-137904738D01*
X170024140Y-138207035D01*
X170024150Y-138207049D01*
X170254807Y-138488106D01*
X170511893Y-138745192D01*
X170511898Y-138745196D01*
X170511899Y-138745197D01*
X170792956Y-138975854D01*
X171095268Y-139177853D01*
X171095277Y-139177858D01*
X171095279Y-139177859D01*
X171415916Y-139349243D01*
X171415918Y-139349243D01*
X171415924Y-139349247D01*
X171751836Y-139488386D01*
X172099767Y-139593930D01*
X172099773Y-139593931D01*
X172099776Y-139593932D01*
X172099787Y-139593935D01*
X172456369Y-139664862D01*
X172818206Y-139700500D01*
X172818209Y-139700500D01*
X173181791Y-139700500D01*
X173181794Y-139700500D01*
X173543631Y-139664862D01*
X173613045Y-139651054D01*
X173900212Y-139593935D01*
X173900223Y-139593932D01*
X173900223Y-139593931D01*
X173900233Y-139593930D01*
X174248164Y-139488386D01*
X174584076Y-139349247D01*
X174904732Y-139177853D01*
X175207044Y-138975854D01*
X175488101Y-138745197D01*
X175745197Y-138488101D01*
X175975854Y-138207044D01*
X176177853Y-137904732D01*
X176349247Y-137584076D01*
X176488386Y-137248164D01*
X176593930Y-136900233D01*
X176593932Y-136900223D01*
X176593935Y-136900212D01*
X176664862Y-136543630D01*
X176700500Y-136181790D01*
X176700500Y-135818209D01*
X176664862Y-135456369D01*
X176593935Y-135099787D01*
X176593932Y-135099776D01*
X176593931Y-135099773D01*
X176593930Y-135099767D01*
X176488386Y-134751836D01*
X176349247Y-134415924D01*
X176333832Y-134387085D01*
X176177859Y-134095279D01*
X176177858Y-134095277D01*
X176177853Y-134095268D01*
X175975854Y-133792956D01*
X175745197Y-133511899D01*
X175745196Y-133511898D01*
X175745192Y-133511893D01*
X175488106Y-133254807D01*
X175207049Y-133024150D01*
X175207048Y-133024149D01*
X175207044Y-133024146D01*
X174904732Y-132822147D01*
X174904727Y-132822144D01*
X174904720Y-132822140D01*
X174584083Y-132650756D01*
X174584078Y-132650754D01*
X174565959Y-132643249D01*
X174380864Y-132566580D01*
X174248165Y-132511614D01*
X173900223Y-132406067D01*
X173900212Y-132406064D01*
X173543630Y-132335137D01*
X173271111Y-132308296D01*
X173181794Y-132299500D01*
X172818206Y-132299500D01*
X172735679Y-132307628D01*
X172456369Y-132335137D01*
X172099787Y-132406064D01*
X172099776Y-132406067D01*
X171751834Y-132511614D01*
X171415921Y-132650754D01*
X171415916Y-132650756D01*
X171095279Y-132822140D01*
X171095261Y-132822151D01*
X170792964Y-133024140D01*
X170792950Y-133024150D01*
X170511893Y-133254807D01*
X170254807Y-133511893D01*
X170024150Y-133792950D01*
X170024140Y-133792964D01*
X169822151Y-134095261D01*
X169822140Y-134095279D01*
X169650756Y-134415916D01*
X169650754Y-134415921D01*
X169511614Y-134751834D01*
X169406067Y-135099776D01*
X169406064Y-135099787D01*
X169335137Y-135456369D01*
X169299500Y-135818209D01*
X162302667Y-135818209D01*
X169180106Y-133332324D01*
X169231784Y-133318477D01*
X169254166Y-133305554D01*
X169278478Y-133296767D01*
X169318057Y-133269183D01*
X169326948Y-133263534D01*
X169342071Y-133254803D01*
X169368716Y-133239420D01*
X169386994Y-133221141D01*
X169408199Y-133206364D01*
X169442682Y-133165453D01*
X169480520Y-133127616D01*
X169487950Y-133114744D01*
X169500520Y-133096834D01*
X169510103Y-133085467D01*
X169532826Y-133037017D01*
X169559577Y-132990684D01*
X169566265Y-132965720D01*
X169577243Y-132942316D01*
X169586652Y-132889637D01*
X169600500Y-132837957D01*
X169600500Y-132812109D01*
X169605045Y-132786664D01*
X169600948Y-132738603D01*
X169600500Y-132728071D01*
X169600500Y-131541505D01*
X169601311Y-131527344D01*
X170219378Y-126150610D01*
X170246589Y-126086260D01*
X170304273Y-126046835D01*
X170374114Y-126044854D01*
X170433939Y-126080947D01*
X170440942Y-126089287D01*
X170491400Y-126155045D01*
X171398958Y-125247487D01*
X171423978Y-125307890D01*
X171495112Y-125414351D01*
X171585649Y-125504888D01*
X171692110Y-125576022D01*
X171752511Y-125601041D01*
X170844953Y-126508598D01*
X170942150Y-126583180D01*
X170942158Y-126583186D01*
X171157840Y-126707711D01*
X171157851Y-126707716D01*
X171387950Y-126803026D01*
X171628536Y-126867491D01*
X171875466Y-126900000D01*
X172124534Y-126900000D01*
X172371463Y-126867491D01*
X172612049Y-126803026D01*
X172842148Y-126707716D01*
X172842159Y-126707711D01*
X173057855Y-126583178D01*
X173155045Y-126508600D01*
X173155045Y-126508597D01*
X172247488Y-125601041D01*
X172307890Y-125576022D01*
X172414351Y-125504888D01*
X172504888Y-125414351D01*
X172576022Y-125307890D01*
X172601041Y-125247489D01*
X173508597Y-126155045D01*
X173508600Y-126155045D01*
X173583178Y-126057855D01*
X173707711Y-125842159D01*
X173707716Y-125842148D01*
X173803026Y-125612049D01*
X173867491Y-125371463D01*
X173900000Y-125124533D01*
X173900000Y-124875466D01*
X173867491Y-124628536D01*
X173803026Y-124387950D01*
X173707716Y-124157851D01*
X173707711Y-124157840D01*
X173583186Y-123942158D01*
X173583180Y-123942150D01*
X173508598Y-123844953D01*
X172601041Y-124752510D01*
X172576022Y-124692110D01*
X172504888Y-124585649D01*
X172414351Y-124495112D01*
X172307890Y-124423978D01*
X172247487Y-124398957D01*
X173155045Y-123491400D01*
X173057849Y-123416819D01*
X173057841Y-123416813D01*
X172842159Y-123292288D01*
X172842148Y-123292283D01*
X172612049Y-123196973D01*
X172371463Y-123132508D01*
X172124534Y-123100000D01*
X171875466Y-123100000D01*
X171628536Y-123132508D01*
X171387950Y-123196973D01*
X171157851Y-123292283D01*
X171157847Y-123292285D01*
X170942143Y-123416823D01*
X170844953Y-123491399D01*
X170844953Y-123491400D01*
X171752511Y-124398958D01*
X171692110Y-124423978D01*
X171585649Y-124495112D01*
X171495112Y-124585649D01*
X171423978Y-124692110D01*
X171398958Y-124752511D01*
X170527484Y-123881036D01*
X170493999Y-123819713D01*
X170491976Y-123779202D01*
X170671725Y-122215518D01*
X170698936Y-122151168D01*
X170707222Y-122142011D01*
X171087334Y-121761899D01*
X171148655Y-121728416D01*
X171218347Y-121733400D01*
X171222455Y-121735016D01*
X171387793Y-121803502D01*
X171628435Y-121867982D01*
X171875435Y-121900500D01*
X171875442Y-121900500D01*
X172124558Y-121900500D01*
X172124565Y-121900500D01*
X172371565Y-121867982D01*
X172612207Y-121803502D01*
X172842373Y-121708164D01*
X173058127Y-121583599D01*
X173255776Y-121431938D01*
X173431938Y-121255776D01*
X173583599Y-121058127D01*
X173708164Y-120842373D01*
X173803502Y-120612207D01*
X173867982Y-120371565D01*
X173900500Y-120124565D01*
X173900500Y-119875435D01*
X173867982Y-119628435D01*
X173803502Y-119387793D01*
X173708164Y-119157627D01*
X173681660Y-119111721D01*
X173583599Y-118941873D01*
X173431939Y-118744225D01*
X173431933Y-118744218D01*
X173255781Y-118568066D01*
X173255774Y-118568060D01*
X173058126Y-118416400D01*
X172842376Y-118291837D01*
X172842361Y-118291830D01*
X172612207Y-118196498D01*
X172443302Y-118151240D01*
X172371565Y-118132018D01*
X172371564Y-118132017D01*
X172371561Y-118132017D01*
X172124575Y-118099501D01*
X172124570Y-118099500D01*
X172124565Y-118099500D01*
X171875435Y-118099500D01*
X171875429Y-118099500D01*
X171875424Y-118099501D01*
X171628438Y-118132017D01*
X171387792Y-118196498D01*
X171157638Y-118291830D01*
X171157623Y-118291837D01*
X170941873Y-118416400D01*
X170744225Y-118568060D01*
X170744218Y-118568066D01*
X170568066Y-118744218D01*
X170568060Y-118744225D01*
X170416400Y-118941873D01*
X170316672Y-119114608D01*
X170266105Y-119162824D01*
X170197498Y-119176047D01*
X170132633Y-119150079D01*
X170092105Y-119093164D01*
X170085929Y-119039991D01*
X170202750Y-117898001D01*
X170229153Y-117833316D01*
X170238415Y-117822951D01*
X171237335Y-116824031D01*
X171298656Y-116790548D01*
X171368348Y-116795532D01*
X171372431Y-116797138D01*
X171387793Y-116803502D01*
X171628435Y-116867982D01*
X171875435Y-116900500D01*
X171875442Y-116900500D01*
X172124558Y-116900500D01*
X172124565Y-116900500D01*
X172371565Y-116867982D01*
X172612207Y-116803502D01*
X172842373Y-116708164D01*
X173058127Y-116583599D01*
X173255776Y-116431938D01*
X173431938Y-116255776D01*
X173583599Y-116058127D01*
X173708164Y-115842373D01*
X173803502Y-115612207D01*
X173867982Y-115371565D01*
X173900500Y-115124565D01*
X173900500Y-114875435D01*
X173867982Y-114628435D01*
X173803502Y-114387793D01*
X173749253Y-114256825D01*
X173708169Y-114157638D01*
X173708162Y-114157623D01*
X173583599Y-113941873D01*
X173431939Y-113744225D01*
X173431933Y-113744218D01*
X173255781Y-113568066D01*
X173255774Y-113568060D01*
X173058126Y-113416400D01*
X172842376Y-113291837D01*
X172842361Y-113291830D01*
X172612207Y-113196498D01*
X172371561Y-113132017D01*
X172124575Y-113099501D01*
X172124570Y-113099500D01*
X172124565Y-113099500D01*
X171875435Y-113099500D01*
X171875429Y-113099500D01*
X171875424Y-113099501D01*
X171628438Y-113132017D01*
X171387792Y-113196498D01*
X171157638Y-113291830D01*
X171157623Y-113291837D01*
X170941873Y-113416400D01*
X170744225Y-113568060D01*
X170744218Y-113568066D01*
X170568066Y-113744218D01*
X170568060Y-113744225D01*
X170416400Y-113941873D01*
X170291837Y-114157623D01*
X170291830Y-114157638D01*
X170196498Y-114387792D01*
X170132017Y-114628438D01*
X170099501Y-114875424D01*
X170099500Y-114875441D01*
X170099500Y-115124563D01*
X170130851Y-115362705D01*
X170132018Y-115371565D01*
X170195849Y-115609786D01*
X170196499Y-115612209D01*
X170196503Y-115612222D01*
X170202845Y-115627532D01*
X170210314Y-115697001D01*
X170179038Y-115759480D01*
X170175965Y-115762665D01*
X168988656Y-116949974D01*
X168988656Y-116949975D01*
X168984184Y-116954447D01*
X168956561Y-116976944D01*
X168932056Y-117006573D01*
X168927911Y-117010719D01*
X168927908Y-117010720D01*
X168904852Y-117033778D01*
X168904845Y-117033787D01*
X168888558Y-117058161D01*
X168888557Y-117058160D01*
X168885036Y-117063429D01*
X168862346Y-117090868D01*
X168844095Y-117124704D01*
X168840832Y-117129588D01*
X168840833Y-117129588D01*
X168822716Y-117156704D01*
X168811502Y-117183776D01*
X168806082Y-117195180D01*
X168792166Y-117220983D01*
X168792165Y-117220986D01*
X168782580Y-117252159D01*
X168782579Y-117252159D01*
X168780853Y-117257769D01*
X168766142Y-117293288D01*
X168759195Y-117328204D01*
X168757340Y-117334240D01*
X168757335Y-117334261D01*
X168748718Y-117362288D01*
X168748718Y-117362291D01*
X168745398Y-117394738D01*
X168745397Y-117394737D01*
X168744799Y-117400576D01*
X168737300Y-117438283D01*
X168737300Y-117473902D01*
X168736656Y-117480199D01*
X168736656Y-117480203D01*
X167284174Y-131679038D01*
X167275380Y-131713870D01*
X167230262Y-131822797D01*
X167230260Y-131822802D01*
X167199500Y-131977444D01*
X167199500Y-132135137D01*
X167230261Y-132289780D01*
X167230264Y-132289792D01*
X167290602Y-132435463D01*
X167290609Y-132435476D01*
X167365575Y-132547670D01*
X167386453Y-132614348D01*
X167367968Y-132681728D01*
X167315990Y-132728418D01*
X167304624Y-132733177D01*
X154839049Y-137238923D01*
X154769311Y-137243199D01*
X154749449Y-137236870D01*
X154733499Y-137230264D01*
X154733497Y-137230263D01*
X154733495Y-137230262D01*
X154733494Y-137230262D01*
X154733493Y-137230261D01*
X154578845Y-137199500D01*
X154578842Y-137199500D01*
X154421158Y-137199500D01*
X154421155Y-137199500D01*
X154266510Y-137230261D01*
X154266498Y-137230264D01*
X154120827Y-137290602D01*
X154120814Y-137290609D01*
X153989711Y-137378210D01*
X153989707Y-137378213D01*
X153878213Y-137489707D01*
X153878210Y-137489711D01*
X153790609Y-137620814D01*
X153790602Y-137620827D01*
X153730264Y-137766498D01*
X153730261Y-137766510D01*
X153699500Y-137921153D01*
X84166881Y-137921153D01*
X84177853Y-137904732D01*
X84349247Y-137584076D01*
X84488386Y-137248164D01*
X84593930Y-136900233D01*
X84593932Y-136900223D01*
X84593935Y-136900212D01*
X84664862Y-136543630D01*
X84700500Y-136181790D01*
X84700500Y-135818209D01*
X84664862Y-135456369D01*
X84593935Y-135099787D01*
X84593932Y-135099776D01*
X84593931Y-135099773D01*
X84593930Y-135099767D01*
X84488386Y-134751836D01*
X84349247Y-134415924D01*
X84333832Y-134387085D01*
X84177859Y-134095279D01*
X84177858Y-134095277D01*
X84177853Y-134095268D01*
X83975854Y-133792956D01*
X83745197Y-133511899D01*
X83745196Y-133511898D01*
X83745192Y-133511893D01*
X83488106Y-133254807D01*
X83207049Y-133024150D01*
X83207048Y-133024149D01*
X83207044Y-133024146D01*
X82904732Y-132822147D01*
X82904727Y-132822144D01*
X82904720Y-132822140D01*
X82584083Y-132650756D01*
X82584078Y-132650754D01*
X82565959Y-132643249D01*
X82380864Y-132566580D01*
X82248165Y-132511614D01*
X81900223Y-132406067D01*
X81900212Y-132406064D01*
X81543630Y-132335137D01*
X81271111Y-132308296D01*
X81181794Y-132299500D01*
X80818206Y-132299500D01*
X80735679Y-132307628D01*
X80456369Y-132335137D01*
X80099787Y-132406064D01*
X80099776Y-132406067D01*
X79751834Y-132511614D01*
X79415921Y-132650754D01*
X79415916Y-132650756D01*
X79095279Y-132822140D01*
X79095261Y-132822151D01*
X78792964Y-133024140D01*
X78792950Y-133024150D01*
X78511893Y-133254807D01*
X78254807Y-133511893D01*
X78024150Y-133792950D01*
X78024140Y-133792964D01*
X77822151Y-134095261D01*
X77822140Y-134095279D01*
X77650756Y-134415916D01*
X77650754Y-134415921D01*
X77511614Y-134751834D01*
X77406067Y-135099776D01*
X77406064Y-135099787D01*
X77335137Y-135456369D01*
X77299500Y-135818209D01*
X75000500Y-135818209D01*
X75000500Y-127563155D01*
X77371000Y-127563155D01*
X77371000Y-128250000D01*
X78326988Y-128250000D01*
X78294075Y-128307007D01*
X78260000Y-128434174D01*
X78260000Y-128565826D01*
X78294075Y-128692993D01*
X78326988Y-128750000D01*
X77371000Y-128750000D01*
X77371000Y-129436844D01*
X77377401Y-129496372D01*
X77377403Y-129496379D01*
X77427645Y-129631086D01*
X77427649Y-129631093D01*
X77513809Y-129746187D01*
X77513812Y-129746190D01*
X77628906Y-129832350D01*
X77628913Y-129832354D01*
X77763620Y-129882596D01*
X77763627Y-129882598D01*
X77823155Y-129888999D01*
X77823172Y-129889000D01*
X78510000Y-129889000D01*
X78510000Y-128933012D01*
X78567007Y-128965925D01*
X78694174Y-129000000D01*
X78825826Y-129000000D01*
X78952993Y-128965925D01*
X79010000Y-128933012D01*
X79010000Y-129889000D01*
X79696828Y-129889000D01*
X79696844Y-129888999D01*
X79756372Y-129882598D01*
X79756379Y-129882596D01*
X79891086Y-129832354D01*
X79891093Y-129832350D01*
X80006187Y-129746190D01*
X80006190Y-129746187D01*
X80092350Y-129631093D01*
X80092352Y-129631090D01*
X80115571Y-129568835D01*
X80157442Y-129512901D01*
X80222906Y-129488483D01*
X80291179Y-129503334D01*
X80319435Y-129524486D01*
X80354806Y-129559857D01*
X80520374Y-129680147D01*
X80531743Y-129688407D01*
X80645142Y-129746187D01*
X80726616Y-129787701D01*
X80726619Y-129787702D01*
X80830621Y-129821493D01*
X80934625Y-129855286D01*
X81034672Y-129871132D01*
X81150639Y-129889500D01*
X81150644Y-129889500D01*
X81369361Y-129889500D01*
X81474082Y-129872912D01*
X81585375Y-129855286D01*
X81793383Y-129787701D01*
X81988257Y-129688407D01*
X82087601Y-129616229D01*
X82165193Y-129559857D01*
X82165195Y-129559854D01*
X82165199Y-129559852D01*
X82319852Y-129405199D01*
X82409682Y-129281556D01*
X82465011Y-129238892D01*
X82534624Y-129232913D01*
X82596420Y-129265518D01*
X82610313Y-129281552D01*
X82700144Y-129405193D01*
X82700148Y-129405199D01*
X82854806Y-129559857D01*
X83020374Y-129680147D01*
X83031743Y-129688407D01*
X83145142Y-129746187D01*
X83226616Y-129787701D01*
X83226619Y-129787702D01*
X83330621Y-129821493D01*
X83434625Y-129855286D01*
X83534672Y-129871132D01*
X83650639Y-129889500D01*
X83650644Y-129889500D01*
X83869361Y-129889500D01*
X83974082Y-129872912D01*
X84085375Y-129855286D01*
X84293383Y-129787701D01*
X84488257Y-129688407D01*
X84587601Y-129616229D01*
X84665193Y-129559857D01*
X84665195Y-129559854D01*
X84665199Y-129559852D01*
X84819852Y-129405199D01*
X84909682Y-129281556D01*
X84965011Y-129238892D01*
X85034624Y-129232913D01*
X85096420Y-129265518D01*
X85110313Y-129281552D01*
X85200144Y-129405193D01*
X85200148Y-129405199D01*
X85354806Y-129559857D01*
X85520374Y-129680147D01*
X85531743Y-129688407D01*
X85645142Y-129746187D01*
X85726616Y-129787701D01*
X85726619Y-129787702D01*
X85830621Y-129821493D01*
X85934625Y-129855286D01*
X86034672Y-129871132D01*
X86150639Y-129889500D01*
X86150644Y-129889500D01*
X86369361Y-129889500D01*
X86474082Y-129872912D01*
X86585375Y-129855286D01*
X86793383Y-129787701D01*
X86988257Y-129688407D01*
X87087601Y-129616229D01*
X87165193Y-129559857D01*
X87165195Y-129559854D01*
X87165199Y-129559852D01*
X87319852Y-129405199D01*
X87319854Y-129405195D01*
X87319857Y-129405193D01*
X87376229Y-129327601D01*
X87448407Y-129228257D01*
X87547701Y-129033383D01*
X87615286Y-128825375D01*
X87643318Y-128648390D01*
X87649500Y-128609361D01*
X87649500Y-128390638D01*
X87627224Y-128250000D01*
X87615286Y-128174625D01*
X87547701Y-127966617D01*
X87547701Y-127966616D01*
X87513315Y-127899132D01*
X87448407Y-127771743D01*
X87440147Y-127760374D01*
X87319857Y-127594806D01*
X87165193Y-127440142D01*
X86988260Y-127311595D01*
X86988259Y-127311594D01*
X86988257Y-127311593D01*
X86925825Y-127279782D01*
X86793383Y-127212298D01*
X86793380Y-127212297D01*
X86585376Y-127144714D01*
X86472904Y-127126900D01*
X86409769Y-127096971D01*
X86372838Y-127037659D01*
X86373836Y-126967797D01*
X86404619Y-126916748D01*
X88728351Y-124593016D01*
X88810484Y-124470095D01*
X88867058Y-124333513D01*
X88889004Y-124223185D01*
X88895900Y-124188520D01*
X88895900Y-123709254D01*
X105050898Y-123709254D01*
X105069639Y-123779194D01*
X105091823Y-123861985D01*
X105170881Y-123998916D01*
X105282684Y-124110719D01*
X105419615Y-124189777D01*
X105572343Y-124230701D01*
X105572346Y-124230701D01*
X105730454Y-124230701D01*
X105730457Y-124230701D01*
X105883185Y-124189777D01*
X106020116Y-124110719D01*
X106020117Y-124110717D01*
X106027154Y-124106655D01*
X106027987Y-124108099D01*
X106068405Y-124089784D01*
X106125420Y-124078442D01*
X106226497Y-124058337D01*
X106369953Y-123998916D01*
X106372172Y-123997997D01*
X106372172Y-123997996D01*
X106372179Y-123997994D01*
X106392748Y-123984250D01*
X106503875Y-123909998D01*
X106570553Y-123889120D01*
X106572766Y-123889100D01*
X108849931Y-123889100D01*
X108849947Y-123889101D01*
X108857543Y-123889101D01*
X109015654Y-123889101D01*
X109015657Y-123889101D01*
X109168385Y-123848177D01*
X109233643Y-123810500D01*
X109305316Y-123769120D01*
X109417120Y-123657316D01*
X109417120Y-123657314D01*
X109427324Y-123647111D01*
X109427327Y-123647106D01*
X115301824Y-117772610D01*
X115363145Y-117739127D01*
X115432837Y-117744111D01*
X115488770Y-117785983D01*
X115507434Y-117821974D01*
X115542281Y-117929223D01*
X115590896Y-118024633D01*
X115629043Y-118099501D01*
X115635215Y-118111613D01*
X115755528Y-118277213D01*
X115900286Y-118421971D01*
X116037357Y-118521557D01*
X116065890Y-118542287D01*
X116157340Y-118588883D01*
X116158580Y-118589515D01*
X116209376Y-118637490D01*
X116226171Y-118705311D01*
X116203634Y-118771446D01*
X116158580Y-118810485D01*
X116065886Y-118857715D01*
X115900286Y-118978028D01*
X115755528Y-119122786D01*
X115635215Y-119288386D01*
X115542281Y-119470776D01*
X115479022Y-119665465D01*
X115447000Y-119867648D01*
X115447000Y-120072351D01*
X115479022Y-120274534D01*
X115542281Y-120469223D01*
X115635215Y-120651613D01*
X115755528Y-120817213D01*
X115900286Y-120961971D01*
X116037357Y-121061557D01*
X116065890Y-121082287D01*
X116150302Y-121125297D01*
X116158580Y-121129515D01*
X116209376Y-121177490D01*
X116226171Y-121245311D01*
X116203634Y-121311446D01*
X116158580Y-121350485D01*
X116065886Y-121397715D01*
X115900286Y-121518028D01*
X115755528Y-121662786D01*
X115635215Y-121828386D01*
X115542281Y-122010776D01*
X115479022Y-122205465D01*
X115447000Y-122407648D01*
X115447000Y-122612351D01*
X115479022Y-122814534D01*
X115542281Y-123009223D01*
X115635215Y-123191613D01*
X115755528Y-123357213D01*
X115900286Y-123501971D01*
X115991647Y-123568347D01*
X116065890Y-123622287D01*
X116157340Y-123668883D01*
X116158580Y-123669515D01*
X116209376Y-123717490D01*
X116226171Y-123785311D01*
X116203634Y-123851446D01*
X116158580Y-123890485D01*
X116065886Y-123937715D01*
X115900286Y-124058028D01*
X115755528Y-124202786D01*
X115635215Y-124368386D01*
X115542281Y-124550776D01*
X115479022Y-124745465D01*
X115447000Y-124947648D01*
X115447000Y-125152351D01*
X115479022Y-125354534D01*
X115542281Y-125549223D01*
X115593885Y-125650500D01*
X115635211Y-125731607D01*
X115635215Y-125731613D01*
X115755528Y-125897213D01*
X115900286Y-126041971D01*
X116049822Y-126150613D01*
X116065890Y-126162287D01*
X116182107Y-126221503D01*
X116248276Y-126255218D01*
X116248278Y-126255218D01*
X116248281Y-126255220D01*
X116352637Y-126289127D01*
X116442965Y-126318477D01*
X116544057Y-126334488D01*
X116645148Y-126350500D01*
X116645149Y-126350500D01*
X117849851Y-126350500D01*
X117849852Y-126350500D01*
X118052034Y-126318477D01*
X118086381Y-126307317D01*
X118156222Y-126305322D01*
X118216055Y-126341402D01*
X118246884Y-126404102D01*
X118248700Y-126425248D01*
X118248700Y-131788230D01*
X118248699Y-131788248D01*
X118248699Y-131953954D01*
X118248698Y-131953954D01*
X118289623Y-132106686D01*
X118293581Y-132113540D01*
X118297826Y-132120892D01*
X118297828Y-132120901D01*
X118297831Y-132120900D01*
X118368679Y-132243614D01*
X118368681Y-132243617D01*
X118487549Y-132362485D01*
X118487555Y-132362490D01*
X118861125Y-132736060D01*
X118894610Y-132797383D01*
X118895061Y-132799549D01*
X118925961Y-132954891D01*
X118925964Y-132954901D01*
X118986302Y-133100572D01*
X118986309Y-133100585D01*
X119073910Y-133231688D01*
X119073913Y-133231692D01*
X119185407Y-133343186D01*
X119185411Y-133343189D01*
X119316514Y-133430790D01*
X119316527Y-133430797D01*
X119462198Y-133491135D01*
X119462203Y-133491137D01*
X119526847Y-133503995D01*
X119617549Y-133522038D01*
X119679460Y-133554423D01*
X119681039Y-133555974D01*
X120760884Y-134635819D01*
X120897815Y-134714877D01*
X121050543Y-134755801D01*
X121050546Y-134755801D01*
X121208654Y-134755801D01*
X121208657Y-134755801D01*
X121361385Y-134714877D01*
X121498316Y-134635819D01*
X121610119Y-134524016D01*
X121689177Y-134387085D01*
X121730101Y-134234357D01*
X121730101Y-134076243D01*
X121689177Y-133923515D01*
X121610119Y-133786584D01*
X120530274Y-132706739D01*
X120496789Y-132645416D01*
X120496338Y-132643249D01*
X120465438Y-132487910D01*
X120465437Y-132487903D01*
X120431540Y-132406067D01*
X120405097Y-132342227D01*
X120405090Y-132342214D01*
X120317489Y-132211111D01*
X120317486Y-132211107D01*
X120205992Y-132099613D01*
X120205988Y-132099610D01*
X120074885Y-132012009D01*
X120074872Y-132012002D01*
X119929201Y-131951664D01*
X119929191Y-131951661D01*
X119773851Y-131920762D01*
X119711941Y-131888377D01*
X119710362Y-131886826D01*
X119486019Y-131662483D01*
X119452534Y-131601160D01*
X119449700Y-131574802D01*
X119449700Y-131124143D01*
X119469385Y-131057104D01*
X119522189Y-131011349D01*
X119591347Y-131001405D01*
X119654903Y-131030430D01*
X119674018Y-131051258D01*
X119765528Y-131177213D01*
X119910286Y-131321971D01*
X120065249Y-131434556D01*
X120075890Y-131442287D01*
X120192107Y-131501503D01*
X120258276Y-131535218D01*
X120258278Y-131535218D01*
X120258281Y-131535220D01*
X120362637Y-131569127D01*
X120452965Y-131598477D01*
X120554057Y-131614488D01*
X120655148Y-131630500D01*
X120655149Y-131630500D01*
X120859851Y-131630500D01*
X120859852Y-131630500D01*
X121062034Y-131598477D01*
X121256719Y-131535220D01*
X121439110Y-131442287D01*
X121532090Y-131374732D01*
X121604713Y-131321971D01*
X121604715Y-131321968D01*
X121604719Y-131321966D01*
X121749466Y-131177219D01*
X121749468Y-131177215D01*
X121749471Y-131177213D01*
X121840981Y-131051258D01*
X121869787Y-131011610D01*
X121962720Y-130829219D01*
X122025977Y-130634534D01*
X122058000Y-130432352D01*
X122058000Y-129227648D01*
X127077000Y-129227648D01*
X127077000Y-130432351D01*
X127109022Y-130634534D01*
X127172281Y-130829223D01*
X127236191Y-130954653D01*
X127260013Y-131001405D01*
X127265215Y-131011613D01*
X127385528Y-131177213D01*
X127530286Y-131321971D01*
X127685249Y-131434556D01*
X127695890Y-131442287D01*
X127812107Y-131501503D01*
X127878276Y-131535218D01*
X127878278Y-131535218D01*
X127878281Y-131535220D01*
X127982637Y-131569127D01*
X128072965Y-131598477D01*
X128174057Y-131614488D01*
X128275148Y-131630500D01*
X128275149Y-131630500D01*
X128479851Y-131630500D01*
X128479852Y-131630500D01*
X128682034Y-131598477D01*
X128876719Y-131535220D01*
X129059110Y-131442287D01*
X129152090Y-131374732D01*
X129224713Y-131321971D01*
X129224715Y-131321968D01*
X129224719Y-131321966D01*
X129369466Y-131177219D01*
X129369468Y-131177215D01*
X129369471Y-131177213D01*
X129489784Y-131011614D01*
X129489785Y-131011613D01*
X129489787Y-131011610D01*
X129537016Y-130918917D01*
X129584989Y-130868123D01*
X129652810Y-130851328D01*
X129718945Y-130873865D01*
X129757985Y-130918919D01*
X129805215Y-131011614D01*
X129925528Y-131177213D01*
X130070286Y-131321971D01*
X130225249Y-131434556D01*
X130235890Y-131442287D01*
X130352107Y-131501503D01*
X130418276Y-131535218D01*
X130418278Y-131535218D01*
X130418281Y-131535220D01*
X130522637Y-131569127D01*
X130612965Y-131598477D01*
X130714057Y-131614488D01*
X130815148Y-131630500D01*
X130815149Y-131630500D01*
X131019851Y-131630500D01*
X131019852Y-131630500D01*
X131222034Y-131598477D01*
X131416719Y-131535220D01*
X131599110Y-131442287D01*
X131692090Y-131374732D01*
X131764713Y-131321971D01*
X131764715Y-131321968D01*
X131764719Y-131321966D01*
X131909466Y-131177219D01*
X131909468Y-131177215D01*
X131909471Y-131177213D01*
X132029784Y-131011614D01*
X132029785Y-131011613D01*
X132029787Y-131011610D01*
X132077016Y-130918917D01*
X132124989Y-130868123D01*
X132192810Y-130851328D01*
X132258945Y-130873865D01*
X132297985Y-130918919D01*
X132345215Y-131011614D01*
X132465528Y-131177213D01*
X132610286Y-131321971D01*
X132765249Y-131434556D01*
X132775890Y-131442287D01*
X132892107Y-131501503D01*
X132958276Y-131535218D01*
X132958278Y-131535218D01*
X132958281Y-131535220D01*
X133062637Y-131569127D01*
X133152965Y-131598477D01*
X133254057Y-131614488D01*
X133355148Y-131630500D01*
X133355149Y-131630500D01*
X133559851Y-131630500D01*
X133559852Y-131630500D01*
X133762034Y-131598477D01*
X133956719Y-131535220D01*
X134139110Y-131442287D01*
X134232090Y-131374732D01*
X134304713Y-131321971D01*
X134304715Y-131321968D01*
X134304719Y-131321966D01*
X134449466Y-131177219D01*
X134449468Y-131177215D01*
X134449471Y-131177213D01*
X134540981Y-131051258D01*
X134569787Y-131011610D01*
X134662720Y-130829219D01*
X134725977Y-130634534D01*
X134758000Y-130432352D01*
X134758000Y-129227648D01*
X134727231Y-129033383D01*
X134725977Y-129025465D01*
X134662718Y-128830776D01*
X134592513Y-128692993D01*
X134569787Y-128648390D01*
X134562056Y-128637749D01*
X134449471Y-128482786D01*
X134304713Y-128338028D01*
X134139113Y-128217715D01*
X134139112Y-128217714D01*
X134139110Y-128217713D01*
X134082153Y-128188691D01*
X133956723Y-128124781D01*
X133762034Y-128061522D01*
X133587495Y-128033878D01*
X133559852Y-128029500D01*
X133355148Y-128029500D01*
X133330829Y-128033351D01*
X133152965Y-128061522D01*
X132958276Y-128124781D01*
X132775886Y-128217715D01*
X132610286Y-128338028D01*
X132465528Y-128482786D01*
X132345215Y-128648386D01*
X132297985Y-128741080D01*
X132250010Y-128791876D01*
X132182189Y-128808671D01*
X132116054Y-128786134D01*
X132077015Y-128741080D01*
X132052513Y-128692993D01*
X132029787Y-128648390D01*
X132022056Y-128637749D01*
X131909471Y-128482786D01*
X131764713Y-128338028D01*
X131599113Y-128217715D01*
X131599112Y-128217714D01*
X131599110Y-128217713D01*
X131542153Y-128188691D01*
X131416723Y-128124781D01*
X131222034Y-128061522D01*
X131047495Y-128033878D01*
X131019852Y-128029500D01*
X130815148Y-128029500D01*
X130790829Y-128033351D01*
X130612965Y-128061522D01*
X130418276Y-128124781D01*
X130235886Y-128217715D01*
X130070286Y-128338028D01*
X129925528Y-128482786D01*
X129805215Y-128648386D01*
X129757985Y-128741080D01*
X129710010Y-128791876D01*
X129642189Y-128808671D01*
X129576054Y-128786134D01*
X129537015Y-128741080D01*
X129512513Y-128692993D01*
X129489787Y-128648390D01*
X129482056Y-128637749D01*
X129369471Y-128482786D01*
X129224713Y-128338028D01*
X129059113Y-128217715D01*
X129059112Y-128217714D01*
X129059110Y-128217713D01*
X129002153Y-128188691D01*
X128876723Y-128124781D01*
X128682034Y-128061522D01*
X128507495Y-128033878D01*
X128479852Y-128029500D01*
X128275148Y-128029500D01*
X128250829Y-128033351D01*
X128072965Y-128061522D01*
X127878276Y-128124781D01*
X127695886Y-128217715D01*
X127530286Y-128338028D01*
X127385528Y-128482786D01*
X127265215Y-128648386D01*
X127172281Y-128830776D01*
X127109022Y-129025465D01*
X127077000Y-129227648D01*
X122058000Y-129227648D01*
X122027231Y-129033383D01*
X122025977Y-129025465D01*
X121962718Y-128830776D01*
X121892513Y-128692993D01*
X121869787Y-128648390D01*
X121862056Y-128637749D01*
X121749471Y-128482786D01*
X121604713Y-128338028D01*
X121439113Y-128217715D01*
X121439112Y-128217714D01*
X121439110Y-128217713D01*
X121382153Y-128188691D01*
X121256723Y-128124781D01*
X121062034Y-128061522D01*
X120887495Y-128033878D01*
X120859852Y-128029500D01*
X120655148Y-128029500D01*
X120630829Y-128033351D01*
X120452965Y-128061522D01*
X120258276Y-128124781D01*
X120075886Y-128217715D01*
X119910286Y-128338028D01*
X119765532Y-128482782D01*
X119765528Y-128482787D01*
X119674018Y-128608741D01*
X119618688Y-128651407D01*
X119549075Y-128657386D01*
X119487280Y-128624780D01*
X119452923Y-128563942D01*
X119449700Y-128535856D01*
X119449700Y-99570945D01*
X119449700Y-99570943D01*
X119408777Y-99418216D01*
X119393130Y-99391114D01*
X119329724Y-99281290D01*
X119329718Y-99281282D01*
X119217917Y-99169481D01*
X119217909Y-99169475D01*
X119080990Y-99090426D01*
X119080985Y-99090423D01*
X118950150Y-99055366D01*
X118890490Y-99019000D01*
X118871760Y-98991887D01*
X118859786Y-98968388D01*
X118739471Y-98802786D01*
X118594713Y-98658028D01*
X118429114Y-98537715D01*
X118422506Y-98534348D01*
X118336417Y-98490483D01*
X118285623Y-98442511D01*
X118268828Y-98374690D01*
X118291365Y-98308555D01*
X118336417Y-98269516D01*
X118429110Y-98222287D01*
X118553356Y-98132018D01*
X118594713Y-98101971D01*
X118594715Y-98101968D01*
X118594719Y-98101966D01*
X118739466Y-97957219D01*
X118739468Y-97957215D01*
X118739471Y-97957213D01*
X118808242Y-97862556D01*
X118859787Y-97791610D01*
X118952720Y-97609219D01*
X119015977Y-97414534D01*
X119048000Y-97212352D01*
X119048000Y-97007648D01*
X119015977Y-96805466D01*
X118952720Y-96610781D01*
X118952718Y-96610778D01*
X118952718Y-96610776D01*
X118919003Y-96544607D01*
X118859787Y-96428390D01*
X118852056Y-96417749D01*
X118739471Y-96262786D01*
X118594713Y-96118028D01*
X118429111Y-95997713D01*
X118335869Y-95950203D01*
X118285074Y-95902229D01*
X118268279Y-95834407D01*
X118290817Y-95768273D01*
X118335871Y-95729234D01*
X118428847Y-95681861D01*
X118594394Y-95561582D01*
X118594395Y-95561582D01*
X118739082Y-95416895D01*
X118739082Y-95416894D01*
X118859359Y-95251349D01*
X118952255Y-95069029D01*
X119015490Y-94874413D01*
X119024109Y-94820000D01*
X117380512Y-94820000D01*
X117413425Y-94762993D01*
X117447500Y-94635826D01*
X117447500Y-94504174D01*
X117413425Y-94377007D01*
X117380512Y-94320000D01*
X119024109Y-94320000D01*
X119015490Y-94265588D01*
X118970098Y-94125885D01*
X118970097Y-94125882D01*
X118959625Y-94093653D01*
X133506700Y-94093653D01*
X133506700Y-94251346D01*
X133537461Y-94405989D01*
X133537464Y-94406001D01*
X133597802Y-94551672D01*
X133597809Y-94551685D01*
X133685802Y-94683374D01*
X133706680Y-94750051D01*
X133706700Y-94752265D01*
X133706700Y-123904730D01*
X133706699Y-123904748D01*
X133706699Y-124070454D01*
X133706698Y-124070454D01*
X133717487Y-124110718D01*
X133747623Y-124223185D01*
X133757428Y-124240167D01*
X133757429Y-124240170D01*
X133826675Y-124360109D01*
X133826681Y-124360117D01*
X133945549Y-124478985D01*
X133945555Y-124478990D01*
X134880939Y-125414374D01*
X134880949Y-125414385D01*
X134885279Y-125418715D01*
X134885280Y-125418716D01*
X134997084Y-125530520D01*
X134997086Y-125530521D01*
X134997090Y-125530524D01*
X135134009Y-125609573D01*
X135134016Y-125609577D01*
X135245819Y-125639534D01*
X135264856Y-125644635D01*
X135324514Y-125681003D01*
X135343238Y-125708111D01*
X135355210Y-125731607D01*
X135355212Y-125731610D01*
X135475528Y-125897213D01*
X135620286Y-126041971D01*
X135769822Y-126150613D01*
X135785890Y-126162287D01*
X135902107Y-126221503D01*
X135968276Y-126255218D01*
X135968278Y-126255218D01*
X135968281Y-126255220D01*
X136072637Y-126289127D01*
X136162965Y-126318477D01*
X136264057Y-126334488D01*
X136365148Y-126350500D01*
X136365149Y-126350500D01*
X137569851Y-126350500D01*
X137569852Y-126350500D01*
X137772034Y-126318477D01*
X137966719Y-126255220D01*
X138149110Y-126162287D01*
X138261066Y-126080947D01*
X138314713Y-126041971D01*
X138314715Y-126041968D01*
X138314719Y-126041966D01*
X138459466Y-125897219D01*
X138459468Y-125897215D01*
X138459471Y-125897213D01*
X138512232Y-125824590D01*
X138579787Y-125731610D01*
X138672720Y-125549219D01*
X138735977Y-125354534D01*
X138768000Y-125152352D01*
X138768000Y-124947648D01*
X138735977Y-124745466D01*
X138672720Y-124550781D01*
X138672718Y-124550778D01*
X138672718Y-124550776D01*
X138619988Y-124447289D01*
X138579787Y-124368390D01*
X138566426Y-124350000D01*
X138459471Y-124202786D01*
X138314713Y-124058028D01*
X138149114Y-123937715D01*
X138142506Y-123934348D01*
X138056417Y-123890483D01*
X138005623Y-123842511D01*
X137988828Y-123774690D01*
X137998382Y-123746653D01*
X165652000Y-123746653D01*
X165652000Y-123904346D01*
X165682761Y-124058989D01*
X165682764Y-124059001D01*
X165743102Y-124204672D01*
X165743109Y-124204685D01*
X165830710Y-124335788D01*
X165830713Y-124335792D01*
X165942207Y-124447286D01*
X165942211Y-124447289D01*
X166073314Y-124534890D01*
X166073327Y-124534897D01*
X166213641Y-124593016D01*
X166219003Y-124595237D01*
X166373653Y-124625999D01*
X166373656Y-124626000D01*
X166373658Y-124626000D01*
X166531344Y-124626000D01*
X166531345Y-124625999D01*
X166685997Y-124595237D01*
X166831679Y-124534894D01*
X166962789Y-124447289D01*
X167074289Y-124335789D01*
X167161894Y-124204679D01*
X167222237Y-124058997D01*
X167253000Y-123904342D01*
X167253000Y-123746658D01*
X167253000Y-123746655D01*
X167252999Y-123746653D01*
X167222239Y-123592011D01*
X167222238Y-123592008D01*
X167222237Y-123592003D01*
X167212437Y-123568344D01*
X167203000Y-123520896D01*
X167203000Y-115909729D01*
X167222685Y-115842690D01*
X167239314Y-115822053D01*
X171237333Y-111824033D01*
X171298656Y-111790549D01*
X171368348Y-111795533D01*
X171372467Y-111797154D01*
X171387788Y-111803500D01*
X171387793Y-111803502D01*
X171628435Y-111867982D01*
X171875435Y-111900500D01*
X171875442Y-111900500D01*
X172124558Y-111900500D01*
X172124565Y-111900500D01*
X172371565Y-111867982D01*
X172612207Y-111803502D01*
X172842373Y-111708164D01*
X173058127Y-111583599D01*
X173255776Y-111431938D01*
X173431938Y-111255776D01*
X173583599Y-111058127D01*
X173708164Y-110842373D01*
X173803502Y-110612207D01*
X173867982Y-110371565D01*
X173900500Y-110124565D01*
X173900500Y-109875435D01*
X173867982Y-109628435D01*
X173803502Y-109387793D01*
X173708164Y-109157627D01*
X173706352Y-109154489D01*
X173583599Y-108941873D01*
X173431939Y-108744225D01*
X173431933Y-108744218D01*
X173255781Y-108568066D01*
X173255774Y-108568060D01*
X173058126Y-108416400D01*
X172842376Y-108291837D01*
X172842361Y-108291830D01*
X172612207Y-108196498D01*
X172371561Y-108132017D01*
X172124575Y-108099501D01*
X172124570Y-108099500D01*
X172124565Y-108099500D01*
X171875435Y-108099500D01*
X171875429Y-108099500D01*
X171875424Y-108099501D01*
X171628438Y-108132017D01*
X171387792Y-108196498D01*
X171157638Y-108291830D01*
X171157623Y-108291837D01*
X170941873Y-108416400D01*
X170744225Y-108568060D01*
X170744218Y-108568066D01*
X170568066Y-108744218D01*
X170568060Y-108744225D01*
X170416400Y-108941873D01*
X170291837Y-109157623D01*
X170291830Y-109157638D01*
X170196498Y-109387792D01*
X170132017Y-109628438D01*
X170099501Y-109875424D01*
X170099500Y-109875441D01*
X170099500Y-110124558D01*
X170099501Y-110124575D01*
X170130207Y-110357816D01*
X170132018Y-110371565D01*
X170196288Y-110611424D01*
X170196499Y-110612209D01*
X170196503Y-110612222D01*
X170202845Y-110627532D01*
X170210314Y-110697001D01*
X170179038Y-110759480D01*
X170175965Y-110762665D01*
X165869548Y-115069083D01*
X165864635Y-115076437D01*
X165832478Y-115124565D01*
X165787419Y-115191999D01*
X165787412Y-115192011D01*
X165730843Y-115328582D01*
X165730840Y-115328592D01*
X165702000Y-115473579D01*
X165702000Y-123520896D01*
X165692562Y-123568344D01*
X165682763Y-123592003D01*
X165682762Y-123592006D01*
X165682760Y-123592011D01*
X165652000Y-123746653D01*
X137998382Y-123746653D01*
X138011365Y-123708555D01*
X138056417Y-123669516D01*
X138149110Y-123622287D01*
X138223353Y-123568347D01*
X138314713Y-123501971D01*
X138314715Y-123501968D01*
X138314719Y-123501966D01*
X138459466Y-123357219D01*
X138459468Y-123357215D01*
X138459471Y-123357213D01*
X138544728Y-123239865D01*
X138579787Y-123191610D01*
X138672720Y-123009219D01*
X138735977Y-122814534D01*
X138768000Y-122612352D01*
X138768000Y-122407648D01*
X138735977Y-122205466D01*
X138672720Y-122010781D01*
X138672718Y-122010778D01*
X138672718Y-122010776D01*
X138605470Y-121878795D01*
X138592574Y-121810126D01*
X138618850Y-121745385D01*
X138675957Y-121705128D01*
X138715955Y-121698500D01*
X140736531Y-121698500D01*
X140736547Y-121698501D01*
X140744143Y-121698501D01*
X140902254Y-121698501D01*
X140902257Y-121698501D01*
X141054985Y-121657577D01*
X141114236Y-121623368D01*
X141191916Y-121578520D01*
X141303720Y-121466716D01*
X141303720Y-121466714D01*
X141313924Y-121456511D01*
X141313927Y-121456506D01*
X144334062Y-118436372D01*
X144395383Y-118402889D01*
X144397550Y-118402438D01*
X144455485Y-118390913D01*
X144552897Y-118371537D01*
X144698579Y-118311194D01*
X144829689Y-118223589D01*
X144941189Y-118112089D01*
X145028794Y-117980979D01*
X145030103Y-117977820D01*
X145050232Y-117929223D01*
X145089137Y-117835297D01*
X145119900Y-117680642D01*
X145119900Y-117522958D01*
X145119900Y-117522955D01*
X145119899Y-117522953D01*
X145117135Y-117509056D01*
X145089137Y-117368303D01*
X145086646Y-117362288D01*
X145028797Y-117222627D01*
X145028790Y-117222614D01*
X144941189Y-117091511D01*
X144941186Y-117091507D01*
X144829692Y-116980013D01*
X144829688Y-116980010D01*
X144698585Y-116892409D01*
X144698572Y-116892402D01*
X144552901Y-116832064D01*
X144552889Y-116832061D01*
X144398245Y-116801300D01*
X144398242Y-116801300D01*
X144240558Y-116801300D01*
X144240555Y-116801300D01*
X144085910Y-116832061D01*
X144085898Y-116832064D01*
X143940227Y-116892402D01*
X143940214Y-116892409D01*
X143809111Y-116980010D01*
X143809107Y-116980013D01*
X143697613Y-117091507D01*
X143697610Y-117091511D01*
X143610009Y-117222614D01*
X143610002Y-117222627D01*
X143549664Y-117368298D01*
X143549661Y-117368308D01*
X143518761Y-117523650D01*
X143486376Y-117585561D01*
X143484825Y-117587139D01*
X140610784Y-120461181D01*
X140549461Y-120494666D01*
X140523103Y-120497500D01*
X139172820Y-120497500D01*
X139105781Y-120477815D01*
X139060026Y-120425011D01*
X139050082Y-120355853D01*
X139065433Y-120311500D01*
X139086775Y-120274534D01*
X139128777Y-120201784D01*
X139169700Y-120049057D01*
X139169700Y-119947296D01*
X139189385Y-119880257D01*
X139206014Y-119859620D01*
X148064376Y-111001257D01*
X148125697Y-110967774D01*
X148195389Y-110972758D01*
X148220946Y-110985838D01*
X148335214Y-111062190D01*
X148335227Y-111062197D01*
X148426493Y-111100000D01*
X148480903Y-111122537D01*
X148597798Y-111145789D01*
X148635553Y-111153299D01*
X148635556Y-111153300D01*
X148635558Y-111153300D01*
X148793244Y-111153300D01*
X148793245Y-111153299D01*
X148947897Y-111122537D01*
X149093579Y-111062194D01*
X149224689Y-110974589D01*
X149336189Y-110863089D01*
X149423794Y-110731979D01*
X149484137Y-110586297D01*
X149505626Y-110478259D01*
X149538008Y-110416352D01*
X149539503Y-110414830D01*
X150540906Y-109413428D01*
X150540911Y-109413424D01*
X150551114Y-109403220D01*
X150551116Y-109403220D01*
X150662920Y-109291416D01*
X150720593Y-109191523D01*
X150741977Y-109154485D01*
X150782901Y-109001757D01*
X150782901Y-108843643D01*
X150782901Y-108836048D01*
X150782900Y-108836030D01*
X150782900Y-108728660D01*
X150782901Y-108728647D01*
X150782901Y-108656895D01*
X150802586Y-108589856D01*
X150819215Y-108569219D01*
X153007791Y-106380642D01*
X153050350Y-106352825D01*
X153056736Y-106350330D01*
X153145385Y-106326577D01*
X153195504Y-106297639D01*
X153282316Y-106247520D01*
X153394120Y-106135716D01*
X153394120Y-106135714D01*
X153404328Y-106125507D01*
X153404330Y-106125504D01*
X153586806Y-105943028D01*
X153586811Y-105943024D01*
X153597014Y-105932820D01*
X153597016Y-105932820D01*
X153708820Y-105821016D01*
X153766006Y-105721966D01*
X153787877Y-105684085D01*
X153828801Y-105531357D01*
X153828801Y-105373243D01*
X153828801Y-105365648D01*
X153828800Y-105365630D01*
X153828800Y-104875441D01*
X170099500Y-104875441D01*
X170099500Y-105124558D01*
X170099501Y-105124575D01*
X170132017Y-105371561D01*
X170196498Y-105612207D01*
X170291830Y-105842361D01*
X170291837Y-105842376D01*
X170416400Y-106058126D01*
X170568060Y-106255774D01*
X170568066Y-106255781D01*
X170744218Y-106431933D01*
X170744225Y-106431939D01*
X170941873Y-106583599D01*
X171157623Y-106708162D01*
X171157638Y-106708169D01*
X171203871Y-106727319D01*
X171387793Y-106803502D01*
X171628435Y-106867982D01*
X171875435Y-106900500D01*
X171875442Y-106900500D01*
X172124558Y-106900500D01*
X172124565Y-106900500D01*
X172371565Y-106867982D01*
X172612207Y-106803502D01*
X172842373Y-106708164D01*
X173058127Y-106583599D01*
X173255776Y-106431938D01*
X173431938Y-106255776D01*
X173583599Y-106058127D01*
X173708164Y-105842373D01*
X173803502Y-105612207D01*
X173867982Y-105371565D01*
X173900500Y-105124565D01*
X173900500Y-104875435D01*
X173867982Y-104628435D01*
X173803502Y-104387793D01*
X173749253Y-104256825D01*
X173708169Y-104157638D01*
X173708162Y-104157623D01*
X173583599Y-103941873D01*
X173431939Y-103744225D01*
X173431933Y-103744218D01*
X173255781Y-103568066D01*
X173255774Y-103568060D01*
X173058126Y-103416400D01*
X172842376Y-103291837D01*
X172842361Y-103291830D01*
X172612207Y-103196498D01*
X172371561Y-103132017D01*
X172124575Y-103099501D01*
X172124570Y-103099500D01*
X172124565Y-103099500D01*
X171875435Y-103099500D01*
X171875429Y-103099500D01*
X171875424Y-103099501D01*
X171628438Y-103132017D01*
X171387792Y-103196498D01*
X171157638Y-103291830D01*
X171157623Y-103291837D01*
X170941873Y-103416400D01*
X170744225Y-103568060D01*
X170744218Y-103568066D01*
X170568066Y-103744218D01*
X170568060Y-103744225D01*
X170416400Y-103941873D01*
X170291837Y-104157623D01*
X170291830Y-104157638D01*
X170196498Y-104387792D01*
X170132017Y-104628438D01*
X170099501Y-104875424D01*
X170099500Y-104875441D01*
X153828800Y-104875441D01*
X153828800Y-100508265D01*
X153848485Y-100441226D01*
X153849698Y-100439374D01*
X153937690Y-100307685D01*
X153937690Y-100307684D01*
X153937694Y-100307679D01*
X153998037Y-100161997D01*
X154028800Y-100007342D01*
X154028800Y-99875441D01*
X170099500Y-99875441D01*
X170099500Y-100124558D01*
X170099501Y-100124575D01*
X170132017Y-100371561D01*
X170196498Y-100612207D01*
X170291830Y-100842361D01*
X170291837Y-100842376D01*
X170416400Y-101058126D01*
X170568060Y-101255774D01*
X170568066Y-101255781D01*
X170744218Y-101431933D01*
X170744225Y-101431939D01*
X170941873Y-101583599D01*
X171157623Y-101708162D01*
X171157638Y-101708169D01*
X171256825Y-101749253D01*
X171387793Y-101803502D01*
X171628435Y-101867982D01*
X171875435Y-101900500D01*
X171875442Y-101900500D01*
X172124558Y-101900500D01*
X172124565Y-101900500D01*
X172371565Y-101867982D01*
X172612207Y-101803502D01*
X172835781Y-101710894D01*
X172842361Y-101708169D01*
X172842361Y-101708168D01*
X172842373Y-101708164D01*
X173058127Y-101583599D01*
X173255776Y-101431938D01*
X173431938Y-101255776D01*
X173583599Y-101058127D01*
X173708164Y-100842373D01*
X173803502Y-100612207D01*
X173867982Y-100371565D01*
X173900500Y-100124565D01*
X173900500Y-99875435D01*
X173867982Y-99628435D01*
X173803502Y-99387793D01*
X173733631Y-99219109D01*
X173708169Y-99157638D01*
X173708162Y-99157623D01*
X173583599Y-98941873D01*
X173431939Y-98744225D01*
X173431933Y-98744218D01*
X173255781Y-98568066D01*
X173255774Y-98568060D01*
X173058126Y-98416400D01*
X172842376Y-98291837D01*
X172842361Y-98291830D01*
X172612207Y-98196498D01*
X172371561Y-98132017D01*
X172124575Y-98099501D01*
X172124570Y-98099500D01*
X172124565Y-98099500D01*
X171875435Y-98099500D01*
X171875429Y-98099500D01*
X171875424Y-98099501D01*
X171628438Y-98132017D01*
X171387792Y-98196498D01*
X171157638Y-98291830D01*
X171157623Y-98291837D01*
X170941873Y-98416400D01*
X170744225Y-98568060D01*
X170744218Y-98568066D01*
X170568066Y-98744218D01*
X170568060Y-98744225D01*
X170416400Y-98941873D01*
X170291837Y-99157623D01*
X170291830Y-99157638D01*
X170196498Y-99387792D01*
X170132017Y-99628438D01*
X170099501Y-99875424D01*
X170099500Y-99875441D01*
X154028800Y-99875441D01*
X154028800Y-99849658D01*
X154028800Y-99849655D01*
X154028799Y-99849653D01*
X154018685Y-99798806D01*
X153998037Y-99695003D01*
X153996680Y-99691726D01*
X153937697Y-99549327D01*
X153937690Y-99549314D01*
X153850089Y-99418211D01*
X153850086Y-99418207D01*
X153738592Y-99306713D01*
X153738588Y-99306710D01*
X153607485Y-99219109D01*
X153607472Y-99219102D01*
X153461801Y-99158764D01*
X153461791Y-99158761D01*
X153306308Y-99127833D01*
X153244397Y-99095448D01*
X153209823Y-99034732D01*
X153206500Y-99006216D01*
X153206500Y-94875441D01*
X170099500Y-94875441D01*
X170099500Y-95124558D01*
X170099501Y-95124575D01*
X170132017Y-95371561D01*
X170196498Y-95612207D01*
X170291830Y-95842361D01*
X170291837Y-95842376D01*
X170416400Y-96058126D01*
X170568060Y-96255774D01*
X170568066Y-96255781D01*
X170744218Y-96431933D01*
X170744225Y-96431939D01*
X170941873Y-96583599D01*
X171157623Y-96708162D01*
X171157638Y-96708169D01*
X171256825Y-96749253D01*
X171387793Y-96803502D01*
X171628435Y-96867982D01*
X171875435Y-96900500D01*
X171875442Y-96900500D01*
X172124558Y-96900500D01*
X172124565Y-96900500D01*
X172371565Y-96867982D01*
X172612207Y-96803502D01*
X172842373Y-96708164D01*
X173058127Y-96583599D01*
X173255776Y-96431938D01*
X173431938Y-96255776D01*
X173583599Y-96058127D01*
X173708164Y-95842373D01*
X173708517Y-95841522D01*
X173738857Y-95768273D01*
X173803502Y-95612207D01*
X173867982Y-95371565D01*
X173900500Y-95124565D01*
X173900500Y-94875435D01*
X173867982Y-94628435D01*
X173803502Y-94387793D01*
X173708164Y-94157627D01*
X173583599Y-93941873D01*
X173469616Y-93793327D01*
X173431939Y-93744225D01*
X173431933Y-93744218D01*
X173255781Y-93568066D01*
X173255774Y-93568060D01*
X173058126Y-93416400D01*
X172842376Y-93291837D01*
X172842361Y-93291830D01*
X172612207Y-93196498D01*
X172532532Y-93175149D01*
X172371565Y-93132018D01*
X172371564Y-93132017D01*
X172371561Y-93132017D01*
X172124575Y-93099501D01*
X172124570Y-93099500D01*
X172124565Y-93099500D01*
X171875435Y-93099500D01*
X171875429Y-93099500D01*
X171875424Y-93099501D01*
X171628438Y-93132017D01*
X171387792Y-93196498D01*
X171157638Y-93291830D01*
X171157623Y-93291837D01*
X170941873Y-93416400D01*
X170744225Y-93568060D01*
X170744218Y-93568066D01*
X170568066Y-93744218D01*
X170568060Y-93744225D01*
X170416400Y-93941873D01*
X170291837Y-94157623D01*
X170291830Y-94157638D01*
X170196498Y-94387792D01*
X170132017Y-94628438D01*
X170099501Y-94875424D01*
X170099500Y-94875441D01*
X153206500Y-94875441D01*
X153206500Y-92211240D01*
X153226185Y-92144201D01*
X153242820Y-92123558D01*
X153276586Y-92089792D01*
X153276589Y-92089789D01*
X153364194Y-91958679D01*
X153424537Y-91812997D01*
X153455300Y-91658342D01*
X153455300Y-91500658D01*
X153455300Y-91500655D01*
X153455299Y-91500653D01*
X153448986Y-91468914D01*
X153424537Y-91346003D01*
X153406640Y-91302795D01*
X153364197Y-91200327D01*
X153364190Y-91200314D01*
X153276589Y-91069211D01*
X153276586Y-91069207D01*
X153165092Y-90957713D01*
X153165088Y-90957710D01*
X153033985Y-90870109D01*
X153033972Y-90870102D01*
X152888301Y-90809764D01*
X152888289Y-90809761D01*
X152733645Y-90779000D01*
X152733642Y-90779000D01*
X152575958Y-90779000D01*
X152575955Y-90779000D01*
X152421310Y-90809761D01*
X152421298Y-90809764D01*
X152275627Y-90870102D01*
X152275614Y-90870109D01*
X152144511Y-90957710D01*
X152144507Y-90957713D01*
X152033013Y-91069207D01*
X152033010Y-91069211D01*
X151945409Y-91200314D01*
X151945402Y-91200327D01*
X151885064Y-91345998D01*
X151885061Y-91346010D01*
X151854300Y-91500653D01*
X151854300Y-91658346D01*
X151885061Y-91812989D01*
X151885064Y-91813001D01*
X151945403Y-91958674D01*
X151945404Y-91958675D01*
X151945406Y-91958679D01*
X151984602Y-92017339D01*
X152005480Y-92084016D01*
X152005500Y-92086230D01*
X152005500Y-105065103D01*
X151985815Y-105132142D01*
X151969181Y-105152784D01*
X149722581Y-107399384D01*
X149661258Y-107432869D01*
X149591566Y-107427885D01*
X149535633Y-107386013D01*
X149511216Y-107320549D01*
X149510900Y-107311703D01*
X149510900Y-106974365D01*
X149530585Y-106907326D01*
X149531798Y-106905474D01*
X149619790Y-106773785D01*
X149619790Y-106773784D01*
X149619794Y-106773779D01*
X149680137Y-106628097D01*
X149710900Y-106473442D01*
X149710900Y-106315758D01*
X149710900Y-106315755D01*
X149710899Y-106315753D01*
X149698968Y-106255774D01*
X149680137Y-106161103D01*
X149671376Y-106139951D01*
X149619797Y-106015427D01*
X149619790Y-106015414D01*
X149532189Y-105884311D01*
X149532186Y-105884307D01*
X149420692Y-105772813D01*
X149420688Y-105772810D01*
X149289585Y-105685209D01*
X149289572Y-105685202D01*
X149143901Y-105624864D01*
X149143889Y-105624861D01*
X148989245Y-105594100D01*
X148989242Y-105594100D01*
X148831558Y-105594100D01*
X148831555Y-105594100D01*
X148676910Y-105624861D01*
X148676898Y-105624864D01*
X148531227Y-105685202D01*
X148531214Y-105685209D01*
X148400111Y-105772810D01*
X148400107Y-105772813D01*
X148288613Y-105884307D01*
X148288610Y-105884311D01*
X148201009Y-106015414D01*
X148201002Y-106015427D01*
X148140664Y-106161098D01*
X148140661Y-106161110D01*
X148109900Y-106315753D01*
X148109900Y-106473446D01*
X148140661Y-106628089D01*
X148140664Y-106628101D01*
X148201002Y-106773772D01*
X148201009Y-106773785D01*
X148289002Y-106905474D01*
X148309880Y-106972151D01*
X148309900Y-106974365D01*
X148309900Y-107746803D01*
X148290215Y-107813842D01*
X148273581Y-107834484D01*
X147762439Y-108345625D01*
X147701116Y-108379110D01*
X147698950Y-108379561D01*
X147543608Y-108410461D01*
X147543598Y-108410464D01*
X147397927Y-108470802D01*
X147397914Y-108470809D01*
X147266811Y-108558410D01*
X147266807Y-108558413D01*
X147155313Y-108669907D01*
X147155310Y-108669911D01*
X147067709Y-108801014D01*
X147067702Y-108801027D01*
X147007364Y-108946698D01*
X147007361Y-108946710D01*
X146976600Y-109101353D01*
X146976600Y-109259046D01*
X147007361Y-109413689D01*
X147007364Y-109413701D01*
X147067702Y-109559372D01*
X147067709Y-109559385D01*
X147155310Y-109690488D01*
X147155313Y-109690492D01*
X147266808Y-109801987D01*
X147266811Y-109801989D01*
X147320037Y-109837553D01*
X147364841Y-109891164D01*
X147373550Y-109960489D01*
X147343395Y-110023517D01*
X147338827Y-110028336D01*
X138432704Y-118934460D01*
X138371381Y-118967945D01*
X138301689Y-118962961D01*
X138272138Y-118947097D01*
X138149114Y-118857715D01*
X138142506Y-118854348D01*
X138056417Y-118810483D01*
X138005623Y-118762511D01*
X137988828Y-118694690D01*
X138011365Y-118628555D01*
X138056417Y-118589516D01*
X138149110Y-118542287D01*
X138177643Y-118521557D01*
X138314713Y-118421971D01*
X138314715Y-118421968D01*
X138314719Y-118421966D01*
X138459466Y-118277219D01*
X138459468Y-118277215D01*
X138459471Y-118277213D01*
X138564960Y-118132018D01*
X138579787Y-118111610D01*
X138591759Y-118088114D01*
X138639733Y-118037317D01*
X138670147Y-118024634D01*
X138800984Y-117989577D01*
X138937916Y-117910520D01*
X139049720Y-117798716D01*
X139128777Y-117661784D01*
X139169700Y-117509057D01*
X139169700Y-88799984D01*
X170099500Y-88799984D01*
X170099500Y-91200015D01*
X170110000Y-91302795D01*
X170110001Y-91302797D01*
X170125108Y-91348386D01*
X170165186Y-91469335D01*
X170165187Y-91469337D01*
X170257286Y-91618651D01*
X170257289Y-91618655D01*
X170381344Y-91742710D01*
X170381348Y-91742713D01*
X170530662Y-91834812D01*
X170530664Y-91834813D01*
X170530666Y-91834814D01*
X170697203Y-91889999D01*
X170799992Y-91900500D01*
X170799997Y-91900500D01*
X173200003Y-91900500D01*
X173200008Y-91900500D01*
X173302797Y-91889999D01*
X173469334Y-91834814D01*
X173618655Y-91742711D01*
X173742711Y-91618655D01*
X173834814Y-91469334D01*
X173889999Y-91302797D01*
X173900500Y-91200008D01*
X173900500Y-88799992D01*
X173889999Y-88697203D01*
X173834814Y-88530666D01*
X173831938Y-88526004D01*
X173742713Y-88381348D01*
X173742710Y-88381344D01*
X173618655Y-88257289D01*
X173618651Y-88257286D01*
X173469337Y-88165187D01*
X173469335Y-88165186D01*
X173386065Y-88137593D01*
X173302797Y-88110001D01*
X173302795Y-88110000D01*
X173200015Y-88099500D01*
X173200008Y-88099500D01*
X170799992Y-88099500D01*
X170799984Y-88099500D01*
X170697204Y-88110000D01*
X170697203Y-88110001D01*
X170530664Y-88165186D01*
X170530662Y-88165187D01*
X170381348Y-88257286D01*
X170381344Y-88257289D01*
X170257289Y-88381344D01*
X170257286Y-88381348D01*
X170165187Y-88530662D01*
X170165186Y-88530664D01*
X170110001Y-88697203D01*
X170110000Y-88697204D01*
X170099500Y-88799984D01*
X139169700Y-88799984D01*
X139169700Y-86839997D01*
X139189385Y-86772958D01*
X139206019Y-86752316D01*
X140750853Y-85207482D01*
X142407062Y-83551272D01*
X142468383Y-83517789D01*
X142470550Y-83517338D01*
X142528485Y-83505813D01*
X142625897Y-83486437D01*
X142771579Y-83426094D01*
X142902689Y-83338489D01*
X143014189Y-83226989D01*
X143101794Y-83095879D01*
X143162137Y-82950197D01*
X143192900Y-82795542D01*
X143192900Y-82637858D01*
X143192900Y-82637855D01*
X143192899Y-82637853D01*
X143162138Y-82483210D01*
X143162138Y-82483208D01*
X143162137Y-82483203D01*
X143162135Y-82483198D01*
X143101797Y-82337527D01*
X143101790Y-82337514D01*
X143014189Y-82206411D01*
X143014186Y-82206407D01*
X142902692Y-82094913D01*
X142902688Y-82094910D01*
X142771585Y-82007309D01*
X142771572Y-82007302D01*
X142625901Y-81946964D01*
X142625889Y-81946961D01*
X142471245Y-81916200D01*
X142471242Y-81916200D01*
X142313558Y-81916200D01*
X142313555Y-81916200D01*
X142158910Y-81946961D01*
X142158898Y-81946964D01*
X142013227Y-82007302D01*
X142013214Y-82007309D01*
X141882111Y-82094910D01*
X141882107Y-82094913D01*
X141770613Y-82206407D01*
X141770610Y-82206411D01*
X141683009Y-82337514D01*
X141683002Y-82337527D01*
X141622664Y-82483198D01*
X141622661Y-82483208D01*
X141591761Y-82638550D01*
X141559376Y-82700461D01*
X141557825Y-82702039D01*
X138088681Y-86171182D01*
X138088679Y-86171184D01*
X138063958Y-86214003D01*
X138053509Y-86232103D01*
X138041263Y-86253314D01*
X138009623Y-86308114D01*
X138001502Y-86338423D01*
X137968699Y-86460843D01*
X137968699Y-86460845D01*
X137968699Y-86628946D01*
X137968700Y-86628959D01*
X137968700Y-95734751D01*
X137949015Y-95801790D01*
X137896211Y-95847545D01*
X137827053Y-95857489D01*
X137806384Y-95852683D01*
X137772035Y-95841523D01*
X137670943Y-95825511D01*
X137569852Y-95809500D01*
X136365148Y-95809500D01*
X136340829Y-95813351D01*
X136162965Y-95841522D01*
X135968276Y-95904781D01*
X135785886Y-95997715D01*
X135620286Y-96118028D01*
X135475528Y-96262786D01*
X135355215Y-96428386D01*
X135262281Y-96610776D01*
X135199022Y-96805465D01*
X135167000Y-97007648D01*
X135167000Y-97212351D01*
X135199022Y-97414534D01*
X135262281Y-97609223D01*
X135355215Y-97791613D01*
X135475528Y-97957213D01*
X135620286Y-98101971D01*
X135750394Y-98196498D01*
X135785890Y-98222287D01*
X135877340Y-98268883D01*
X135878580Y-98269515D01*
X135929376Y-98317490D01*
X135946171Y-98385311D01*
X135923634Y-98451446D01*
X135878580Y-98490485D01*
X135785886Y-98537715D01*
X135620286Y-98658028D01*
X135475528Y-98802786D01*
X135355215Y-98968386D01*
X135262281Y-99150776D01*
X135199022Y-99345465D01*
X135167000Y-99547648D01*
X135167000Y-99752351D01*
X135199022Y-99954534D01*
X135262281Y-100149223D01*
X135326191Y-100274653D01*
X135350245Y-100321860D01*
X135355215Y-100331613D01*
X135475528Y-100497213D01*
X135620286Y-100641971D01*
X135757357Y-100741557D01*
X135785890Y-100762287D01*
X135856065Y-100798043D01*
X135878580Y-100809515D01*
X135929376Y-100857490D01*
X135946171Y-100925311D01*
X135923634Y-100991446D01*
X135878580Y-101030485D01*
X135785886Y-101077715D01*
X135620286Y-101198028D01*
X135475528Y-101342786D01*
X135355215Y-101508386D01*
X135262281Y-101690776D01*
X135199022Y-101885465D01*
X135167000Y-102087648D01*
X135167000Y-102292351D01*
X135199022Y-102494534D01*
X135262281Y-102689223D01*
X135355215Y-102871613D01*
X135475528Y-103037213D01*
X135620286Y-103181971D01*
X135757357Y-103281557D01*
X135785890Y-103302287D01*
X135877340Y-103348883D01*
X135878580Y-103349515D01*
X135929376Y-103397490D01*
X135946171Y-103465311D01*
X135923634Y-103531446D01*
X135878580Y-103570485D01*
X135785886Y-103617715D01*
X135620286Y-103738028D01*
X135475528Y-103882786D01*
X135355215Y-104048386D01*
X135262281Y-104230776D01*
X135199022Y-104425465D01*
X135167000Y-104627648D01*
X135167000Y-104832351D01*
X135199022Y-105034534D01*
X135262281Y-105229223D01*
X135355215Y-105411613D01*
X135475528Y-105577213D01*
X135620286Y-105721971D01*
X135756611Y-105821015D01*
X135785890Y-105842287D01*
X135868359Y-105884307D01*
X135878580Y-105889515D01*
X135929376Y-105937490D01*
X135946171Y-106005311D01*
X135923634Y-106071446D01*
X135878580Y-106110485D01*
X135785886Y-106157715D01*
X135620286Y-106278028D01*
X135475528Y-106422786D01*
X135355214Y-106588386D01*
X135343238Y-106611890D01*
X135295261Y-106662684D01*
X135264849Y-106675366D01*
X135134015Y-106710423D01*
X135093699Y-106733700D01*
X135025799Y-106750172D01*
X134959772Y-106727319D01*
X134916582Y-106672397D01*
X134907700Y-106626312D01*
X134907700Y-94752265D01*
X134927385Y-94685226D01*
X134928598Y-94683374D01*
X135016590Y-94551685D01*
X135016590Y-94551684D01*
X135016594Y-94551679D01*
X135076937Y-94405997D01*
X135107700Y-94251342D01*
X135107700Y-94093658D01*
X135107700Y-94093655D01*
X135107699Y-94093653D01*
X135102994Y-94070000D01*
X135076937Y-93939003D01*
X135056080Y-93888650D01*
X135016597Y-93793327D01*
X135016590Y-93793314D01*
X134928989Y-93662211D01*
X134928986Y-93662207D01*
X134817492Y-93550713D01*
X134817488Y-93550710D01*
X134686385Y-93463109D01*
X134686372Y-93463102D01*
X134540701Y-93402764D01*
X134540689Y-93402761D01*
X134386045Y-93372000D01*
X134386042Y-93372000D01*
X134228358Y-93372000D01*
X134228355Y-93372000D01*
X134073710Y-93402761D01*
X134073698Y-93402764D01*
X133928027Y-93463102D01*
X133928014Y-93463109D01*
X133796911Y-93550710D01*
X133796907Y-93550713D01*
X133685413Y-93662207D01*
X133685410Y-93662211D01*
X133597809Y-93793314D01*
X133597802Y-93793327D01*
X133537464Y-93938998D01*
X133537461Y-93939010D01*
X133506700Y-94093653D01*
X118959625Y-94093653D01*
X118952256Y-94070972D01*
X118859359Y-93888650D01*
X118739082Y-93723105D01*
X118739082Y-93723104D01*
X118594395Y-93578417D01*
X118428849Y-93458140D01*
X118335870Y-93410765D01*
X118285074Y-93362790D01*
X118268279Y-93294969D01*
X118290816Y-93228835D01*
X118335870Y-93189795D01*
X118429110Y-93142287D01*
X118480638Y-93104850D01*
X118594713Y-93021971D01*
X118594715Y-93021968D01*
X118594719Y-93021966D01*
X118739466Y-92877219D01*
X118739468Y-92877215D01*
X118739471Y-92877213D01*
X118832046Y-92749792D01*
X118859787Y-92711610D01*
X118952720Y-92529219D01*
X119015977Y-92334534D01*
X119048000Y-92132352D01*
X119048000Y-91927648D01*
X119042214Y-91891116D01*
X119015977Y-91725465D01*
X118952718Y-91530776D01*
X118919003Y-91464607D01*
X118859787Y-91348390D01*
X118826662Y-91302797D01*
X118739471Y-91182786D01*
X118594713Y-91038028D01*
X118429114Y-90917715D01*
X118422506Y-90914348D01*
X118336417Y-90870483D01*
X118285623Y-90822511D01*
X118268828Y-90754690D01*
X118291365Y-90688555D01*
X118336417Y-90649516D01*
X118429110Y-90602287D01*
X118480638Y-90564850D01*
X118594713Y-90481971D01*
X118594715Y-90481968D01*
X118594719Y-90481966D01*
X118739466Y-90337219D01*
X118739468Y-90337215D01*
X118739471Y-90337213D01*
X118792232Y-90264590D01*
X118859787Y-90171610D01*
X118952720Y-89989219D01*
X119015977Y-89794534D01*
X119048000Y-89592352D01*
X119048000Y-89387648D01*
X119015977Y-89185466D01*
X118952720Y-88990781D01*
X118952718Y-88990778D01*
X118952718Y-88990776D01*
X118919003Y-88924607D01*
X118859787Y-88808390D01*
X118852056Y-88797749D01*
X118739471Y-88642786D01*
X118594719Y-88498034D01*
X118594711Y-88498028D01*
X118501047Y-88429978D01*
X118458382Y-88374649D01*
X118452403Y-88305036D01*
X118485008Y-88243240D01*
X118534926Y-88211955D01*
X118616834Y-88184814D01*
X118766156Y-88092712D01*
X118890212Y-87968656D01*
X118982314Y-87819334D01*
X119037499Y-87652797D01*
X119048000Y-87550009D01*
X119047999Y-86349992D01*
X119045844Y-86328900D01*
X119037499Y-86247203D01*
X119037498Y-86247200D01*
X119032495Y-86232102D01*
X118982314Y-86080666D01*
X118890212Y-85931344D01*
X118766156Y-85807288D01*
X118616834Y-85715186D01*
X118450297Y-85660001D01*
X118450295Y-85660000D01*
X118347510Y-85649500D01*
X116147498Y-85649500D01*
X116147481Y-85649501D01*
X116044703Y-85660000D01*
X116044700Y-85660001D01*
X115878168Y-85715185D01*
X115878163Y-85715187D01*
X115728842Y-85807289D01*
X115604789Y-85931342D01*
X115512687Y-86080663D01*
X115512686Y-86080666D01*
X115457501Y-86247203D01*
X115457501Y-86247204D01*
X115457500Y-86247204D01*
X115447000Y-86349983D01*
X115447000Y-87550001D01*
X115447001Y-87550018D01*
X115457500Y-87652796D01*
X115457501Y-87652799D01*
X115495616Y-87767820D01*
X115512686Y-87819334D01*
X115604788Y-87968656D01*
X115728844Y-88092712D01*
X115878166Y-88184814D01*
X115960070Y-88211954D01*
X116017515Y-88251727D01*
X116044338Y-88316243D01*
X116032023Y-88385018D01*
X115993951Y-88429978D01*
X115900287Y-88498028D01*
X115900282Y-88498032D01*
X115755528Y-88642786D01*
X115635215Y-88808386D01*
X115542281Y-88990776D01*
X115479022Y-89185465D01*
X115447000Y-89387648D01*
X115447000Y-89592351D01*
X115479022Y-89794534D01*
X115542281Y-89989223D01*
X115635215Y-90171613D01*
X115755528Y-90337213D01*
X115900286Y-90481971D01*
X116037357Y-90581557D01*
X116065890Y-90602287D01*
X116157340Y-90648883D01*
X116158580Y-90649515D01*
X116209376Y-90697490D01*
X116226171Y-90765311D01*
X116203634Y-90831446D01*
X116158580Y-90870485D01*
X116065886Y-90917715D01*
X115900286Y-91038028D01*
X115755528Y-91182786D01*
X115635215Y-91348386D01*
X115542281Y-91530776D01*
X115479022Y-91725465D01*
X115447000Y-91927648D01*
X115447000Y-92132351D01*
X115479022Y-92334534D01*
X115542281Y-92529223D01*
X115635215Y-92711613D01*
X115755528Y-92877213D01*
X115900286Y-93021971D01*
X116037357Y-93121557D01*
X116065890Y-93142287D01*
X116114243Y-93166924D01*
X116159129Y-93189795D01*
X116209925Y-93237770D01*
X116226720Y-93305591D01*
X116204182Y-93371726D01*
X116159129Y-93410765D01*
X116066150Y-93458140D01*
X115900605Y-93578417D01*
X115900604Y-93578417D01*
X115755917Y-93723104D01*
X115755917Y-93723105D01*
X115635640Y-93888650D01*
X115542744Y-94070970D01*
X115479509Y-94265586D01*
X115470891Y-94320000D01*
X116514488Y-94320000D01*
X116481575Y-94377007D01*
X116447500Y-94504174D01*
X116447500Y-94635826D01*
X116481575Y-94762993D01*
X116514488Y-94820000D01*
X115470891Y-94820000D01*
X115479509Y-94874413D01*
X115542744Y-95069029D01*
X115635640Y-95251349D01*
X115755917Y-95416894D01*
X115755917Y-95416895D01*
X115900604Y-95561582D01*
X116066152Y-95681861D01*
X116159128Y-95729234D01*
X116209925Y-95777208D01*
X116226720Y-95845029D01*
X116204183Y-95911164D01*
X116159130Y-95950203D01*
X116065888Y-95997713D01*
X115900286Y-96118028D01*
X115755528Y-96262786D01*
X115635215Y-96428386D01*
X115542281Y-96610776D01*
X115479022Y-96805465D01*
X115447000Y-97007648D01*
X115447000Y-97212351D01*
X115479022Y-97414534D01*
X115542281Y-97609223D01*
X115635215Y-97791613D01*
X115755528Y-97957213D01*
X115900286Y-98101971D01*
X116030394Y-98196498D01*
X116065890Y-98222287D01*
X116157340Y-98268883D01*
X116158580Y-98269515D01*
X116209376Y-98317490D01*
X116226171Y-98385311D01*
X116203634Y-98451446D01*
X116158580Y-98490485D01*
X116065886Y-98537715D01*
X115900286Y-98658028D01*
X115755528Y-98802786D01*
X115635215Y-98968386D01*
X115542281Y-99150776D01*
X115479022Y-99345465D01*
X115447000Y-99547648D01*
X115447000Y-99752351D01*
X115479022Y-99954534D01*
X115542281Y-100149223D01*
X115606191Y-100274653D01*
X115630245Y-100321860D01*
X115635215Y-100331613D01*
X115755528Y-100497213D01*
X115900286Y-100641971D01*
X116037357Y-100741557D01*
X116065890Y-100762287D01*
X116136065Y-100798043D01*
X116158580Y-100809515D01*
X116209376Y-100857490D01*
X116226171Y-100925311D01*
X116203634Y-100991446D01*
X116158580Y-101030485D01*
X116065886Y-101077715D01*
X115900286Y-101198028D01*
X115755528Y-101342786D01*
X115635214Y-101508386D01*
X115623238Y-101531890D01*
X115575261Y-101582684D01*
X115544849Y-101595366D01*
X115414014Y-101630423D01*
X115414009Y-101630426D01*
X115277090Y-101709475D01*
X115277082Y-101709481D01*
X115165281Y-101821282D01*
X115165275Y-101821290D01*
X115086226Y-101958209D01*
X115086223Y-101958216D01*
X115045300Y-102110943D01*
X115045300Y-116279302D01*
X115025615Y-116346341D01*
X115008981Y-116366983D01*
X113211604Y-118164359D01*
X113150281Y-118197844D01*
X113080589Y-118192860D01*
X113024656Y-118150988D01*
X113000239Y-118085524D01*
X113000118Y-118083623D01*
X113000000Y-118081521D01*
X112962274Y-117746702D01*
X112962272Y-117746686D01*
X112887294Y-117418185D01*
X112887290Y-117418173D01*
X112776004Y-117100137D01*
X112629808Y-116796559D01*
X112450538Y-116511252D01*
X112291601Y-116311950D01*
X111057997Y-117545555D01*
X110968702Y-117422651D01*
X110827349Y-117281298D01*
X110704443Y-117192001D01*
X111938048Y-115958397D01*
X111738747Y-115799461D01*
X111453440Y-115620191D01*
X111149862Y-115473995D01*
X110831826Y-115362709D01*
X110831814Y-115362705D01*
X110503313Y-115287727D01*
X110503297Y-115287725D01*
X110168480Y-115250000D01*
X109831519Y-115250000D01*
X109496702Y-115287725D01*
X109496686Y-115287727D01*
X109168185Y-115362705D01*
X109168173Y-115362709D01*
X108850137Y-115473995D01*
X108546559Y-115620191D01*
X108261252Y-115799461D01*
X108061950Y-115958397D01*
X109295555Y-117192002D01*
X109172651Y-117281298D01*
X109031298Y-117422651D01*
X108942002Y-117545555D01*
X107708397Y-116311950D01*
X107549461Y-116511252D01*
X107370191Y-116796559D01*
X107223995Y-117100137D01*
X107112709Y-117418173D01*
X107112705Y-117418185D01*
X107037727Y-117746686D01*
X107037725Y-117746702D01*
X107000000Y-118081519D01*
X107000000Y-118418480D01*
X107037725Y-118753297D01*
X107037727Y-118753313D01*
X107112705Y-119081814D01*
X107112709Y-119081826D01*
X107223995Y-119399862D01*
X107370191Y-119703440D01*
X107549461Y-119988747D01*
X107708397Y-120188048D01*
X108942002Y-118954443D01*
X109031298Y-119077349D01*
X109172651Y-119218702D01*
X109295555Y-119307997D01*
X108061950Y-120541601D01*
X108261252Y-120700538D01*
X108546559Y-120879808D01*
X108850137Y-121026004D01*
X109168173Y-121137290D01*
X109168185Y-121137294D01*
X109496686Y-121212272D01*
X109496702Y-121212274D01*
X109831523Y-121250000D01*
X109833622Y-121250118D01*
X109834110Y-121250291D01*
X109834982Y-121250390D01*
X109834959Y-121250593D01*
X109899454Y-121273525D01*
X109942181Y-121328808D01*
X109948236Y-121398415D01*
X109915698Y-121460246D01*
X109914360Y-121461604D01*
X108724184Y-122651781D01*
X108662861Y-122685266D01*
X108636503Y-122688100D01*
X106572766Y-122688100D01*
X106505727Y-122668415D01*
X106503875Y-122667202D01*
X106372185Y-122579209D01*
X106372172Y-122579202D01*
X106226501Y-122518864D01*
X106226489Y-122518861D01*
X106071845Y-122488100D01*
X106071842Y-122488100D01*
X105914158Y-122488100D01*
X105914155Y-122488100D01*
X105759510Y-122518861D01*
X105759498Y-122518864D01*
X105613827Y-122579202D01*
X105613814Y-122579209D01*
X105482711Y-122666810D01*
X105482707Y-122666813D01*
X105371213Y-122778307D01*
X105371210Y-122778311D01*
X105283609Y-122909414D01*
X105283602Y-122909427D01*
X105223264Y-123055098D01*
X105223261Y-123055108D01*
X105191815Y-123213195D01*
X105173506Y-123253615D01*
X105174945Y-123254446D01*
X105170882Y-123261482D01*
X105170881Y-123261484D01*
X105153099Y-123292283D01*
X105091823Y-123398414D01*
X105078181Y-123449324D01*
X105050899Y-123551143D01*
X105050899Y-123551145D01*
X105050899Y-123709254D01*
X105050898Y-123709254D01*
X88895900Y-123709254D01*
X88895900Y-112326829D01*
X88915585Y-112259790D01*
X88932219Y-112239148D01*
X90185529Y-110985838D01*
X91445366Y-109726000D01*
X91506687Y-109692517D01*
X91576379Y-109697501D01*
X91632312Y-109739373D01*
X91655518Y-109794285D01*
X91681842Y-109960489D01*
X91682754Y-109966243D01*
X91736479Y-110131592D01*
X91748444Y-110168414D01*
X91844951Y-110357820D01*
X91969890Y-110529786D01*
X92120213Y-110680109D01*
X92292182Y-110805050D01*
X92300946Y-110809516D01*
X92351742Y-110857491D01*
X92368536Y-110925312D01*
X92345998Y-110991447D01*
X92300946Y-111030484D01*
X92292182Y-111034949D01*
X92120213Y-111159890D01*
X91969890Y-111310213D01*
X91844951Y-111482179D01*
X91748444Y-111671585D01*
X91682753Y-111873760D01*
X91665660Y-111981683D01*
X91649500Y-112083713D01*
X91649500Y-112296287D01*
X91654337Y-112326829D01*
X91682753Y-112506239D01*
X91748444Y-112708414D01*
X91844951Y-112897820D01*
X91969890Y-113069786D01*
X92120213Y-113220109D01*
X92292182Y-113345050D01*
X92300946Y-113349516D01*
X92351742Y-113397491D01*
X92368536Y-113465312D01*
X92345998Y-113531447D01*
X92300946Y-113570484D01*
X92292182Y-113574949D01*
X92120213Y-113699890D01*
X91969890Y-113850213D01*
X91844951Y-114022179D01*
X91748444Y-114211585D01*
X91682753Y-114413760D01*
X91679242Y-114435930D01*
X91649500Y-114623713D01*
X91649500Y-114836287D01*
X91682754Y-115046243D01*
X91730115Y-115192005D01*
X91748444Y-115248414D01*
X91844951Y-115437820D01*
X91969890Y-115609786D01*
X92120213Y-115760109D01*
X92292182Y-115885050D01*
X92300946Y-115889516D01*
X92351742Y-115937491D01*
X92368536Y-116005312D01*
X92345998Y-116071447D01*
X92300946Y-116110484D01*
X92292182Y-116114949D01*
X92120213Y-116239890D01*
X91969890Y-116390213D01*
X91844951Y-116562179D01*
X91748444Y-116751585D01*
X91682753Y-116953760D01*
X91649500Y-117163713D01*
X91649500Y-117376286D01*
X91672730Y-117522958D01*
X91682754Y-117586243D01*
X91743309Y-117772612D01*
X91748444Y-117788414D01*
X91844951Y-117977820D01*
X91969890Y-118149786D01*
X92120213Y-118300109D01*
X92292182Y-118425050D01*
X92300946Y-118429516D01*
X92351742Y-118477491D01*
X92368536Y-118545312D01*
X92345998Y-118611447D01*
X92300946Y-118650484D01*
X92292182Y-118654949D01*
X92120213Y-118779890D01*
X91969890Y-118930213D01*
X91844951Y-119102179D01*
X91748444Y-119291585D01*
X91682753Y-119493760D01*
X91649500Y-119703713D01*
X91649500Y-119916286D01*
X91682753Y-120126239D01*
X91748444Y-120328414D01*
X91844951Y-120517820D01*
X91969890Y-120689786D01*
X92120213Y-120840109D01*
X92292179Y-120965048D01*
X92292181Y-120965049D01*
X92292184Y-120965051D01*
X92481588Y-121061557D01*
X92683757Y-121127246D01*
X92893713Y-121160500D01*
X92893714Y-121160500D01*
X93106286Y-121160500D01*
X93106287Y-121160500D01*
X93316243Y-121127246D01*
X93518412Y-121061557D01*
X93707816Y-120965051D01*
X93776264Y-120915321D01*
X93879786Y-120840109D01*
X93879788Y-120840106D01*
X93879792Y-120840104D01*
X94030104Y-120689792D01*
X94030106Y-120689788D01*
X94030109Y-120689786D01*
X94155048Y-120517820D01*
X94155047Y-120517820D01*
X94155051Y-120517816D01*
X94251557Y-120328412D01*
X94317246Y-120126243D01*
X94350500Y-119916287D01*
X94350500Y-119703713D01*
X94317246Y-119493757D01*
X94303506Y-119451473D01*
X94301512Y-119381635D01*
X94333755Y-119325478D01*
X94547513Y-119111721D01*
X94547516Y-119111720D01*
X94659320Y-118999916D01*
X94709439Y-118913104D01*
X94738377Y-118862985D01*
X94779301Y-118710257D01*
X94779301Y-118552143D01*
X94779301Y-118544548D01*
X94779300Y-118544530D01*
X94779300Y-98902145D01*
X94779300Y-98902143D01*
X94738377Y-98749416D01*
X94685615Y-98658028D01*
X94659324Y-98612490D01*
X94659321Y-98612486D01*
X94659320Y-98612484D01*
X94547516Y-98500680D01*
X94547515Y-98500679D01*
X94543185Y-98496349D01*
X94543174Y-98496339D01*
X94040406Y-97993571D01*
X94006921Y-97932248D01*
X94011905Y-97862556D01*
X94027769Y-97833004D01*
X94030099Y-97829796D01*
X94030104Y-97829792D01*
X94155051Y-97657816D01*
X94251557Y-97468412D01*
X94317246Y-97266243D01*
X94350500Y-97056287D01*
X94350500Y-96843713D01*
X94317246Y-96633757D01*
X94251557Y-96431588D01*
X94155051Y-96242184D01*
X94155049Y-96242181D01*
X94155048Y-96242179D01*
X94030109Y-96070213D01*
X93879786Y-95919890D01*
X93707820Y-95794951D01*
X93707115Y-95794591D01*
X93699054Y-95790485D01*
X93648259Y-95742512D01*
X93631463Y-95674692D01*
X93653999Y-95608556D01*
X93699054Y-95569515D01*
X93707816Y-95565051D01*
X93729789Y-95549086D01*
X93879786Y-95440109D01*
X93879788Y-95440106D01*
X93879792Y-95440104D01*
X94030104Y-95289792D01*
X94030106Y-95289788D01*
X94030109Y-95289786D01*
X94155048Y-95117820D01*
X94155047Y-95117820D01*
X94155051Y-95117816D01*
X94251557Y-94928412D01*
X94317246Y-94726243D01*
X94350500Y-94516287D01*
X94350500Y-94303713D01*
X94317246Y-94093757D01*
X94251557Y-93891588D01*
X94155051Y-93702184D01*
X94155049Y-93702181D01*
X94155048Y-93702179D01*
X94030109Y-93530213D01*
X93879786Y-93379890D01*
X93707820Y-93254951D01*
X93707115Y-93254591D01*
X93699054Y-93250485D01*
X93648259Y-93202512D01*
X93631463Y-93134692D01*
X93653999Y-93068556D01*
X93699054Y-93029515D01*
X93707816Y-93025051D01*
X93732284Y-93007274D01*
X93879786Y-92900109D01*
X93879788Y-92900106D01*
X93879792Y-92900104D01*
X94030104Y-92749792D01*
X94030106Y-92749788D01*
X94030109Y-92749786D01*
X94155048Y-92577820D01*
X94155047Y-92577820D01*
X94155051Y-92577816D01*
X94251557Y-92388412D01*
X94317246Y-92186243D01*
X94350500Y-91976287D01*
X94350500Y-91829097D01*
X94370185Y-91762058D01*
X94422989Y-91716303D01*
X94492147Y-91706359D01*
X94555703Y-91735384D01*
X94562169Y-91741405D01*
X95007004Y-92186239D01*
X95680481Y-92859716D01*
X95713966Y-92921039D01*
X95716800Y-92947397D01*
X95716800Y-120280434D01*
X95697115Y-120347473D01*
X95695902Y-120349325D01*
X95607909Y-120481014D01*
X95607902Y-120481027D01*
X95547564Y-120626698D01*
X95547561Y-120626710D01*
X95516800Y-120781353D01*
X95516800Y-120939046D01*
X95547561Y-121093689D01*
X95547564Y-121093701D01*
X95607902Y-121239372D01*
X95607909Y-121239385D01*
X95695510Y-121370488D01*
X95695513Y-121370492D01*
X95807007Y-121481986D01*
X95807011Y-121481989D01*
X95938114Y-121569590D01*
X95938127Y-121569597D01*
X96083798Y-121629935D01*
X96083803Y-121629937D01*
X96222753Y-121657576D01*
X96238453Y-121660699D01*
X96238456Y-121660700D01*
X96238458Y-121660700D01*
X96396144Y-121660700D01*
X96396145Y-121660699D01*
X96550797Y-121629937D01*
X96696479Y-121569594D01*
X96827589Y-121481989D01*
X96939089Y-121370489D01*
X97026694Y-121239379D01*
X97087037Y-121093697D01*
X97117800Y-120939042D01*
X97117800Y-120781358D01*
X97117800Y-120781355D01*
X97117799Y-120781353D01*
X97087038Y-120626710D01*
X97087037Y-120626703D01*
X97081031Y-120612202D01*
X97026697Y-120481027D01*
X97026690Y-120481014D01*
X96938698Y-120349325D01*
X96917820Y-120282647D01*
X96917800Y-120280434D01*
X96917800Y-92736360D01*
X96917801Y-92736347D01*
X96917801Y-92568244D01*
X96876876Y-92415514D01*
X96876873Y-92415509D01*
X96797824Y-92278590D01*
X96797818Y-92278582D01*
X95588443Y-91069207D01*
X94333756Y-89814521D01*
X94300272Y-89753199D01*
X94303507Y-89688523D01*
X94317246Y-89646243D01*
X94350500Y-89436287D01*
X94350500Y-89223713D01*
X94317246Y-89013757D01*
X94251557Y-88811588D01*
X94155051Y-88622184D01*
X94155049Y-88622181D01*
X94155048Y-88622179D01*
X94030109Y-88450213D01*
X93879786Y-88299890D01*
X93707817Y-88174949D01*
X93698504Y-88170204D01*
X93647707Y-88122230D01*
X93630912Y-88054409D01*
X93653449Y-87988274D01*
X93684597Y-87957505D01*
X93761283Y-87904836D01*
X93129409Y-87272962D01*
X93192993Y-87255925D01*
X93307007Y-87190099D01*
X93400099Y-87097007D01*
X93465925Y-86982993D01*
X93482962Y-86919409D01*
X94115270Y-87551717D01*
X94115270Y-87551716D01*
X94154622Y-87497554D01*
X94251095Y-87308217D01*
X94316757Y-87106130D01*
X94316757Y-87106127D01*
X94350000Y-86896246D01*
X94350000Y-86683753D01*
X94316757Y-86473872D01*
X94316757Y-86473869D01*
X94251095Y-86271782D01*
X94154624Y-86082449D01*
X94115270Y-86028282D01*
X94115269Y-86028282D01*
X93482962Y-86660590D01*
X93465925Y-86597007D01*
X93400099Y-86482993D01*
X93307007Y-86389901D01*
X93192993Y-86324075D01*
X93129407Y-86307036D01*
X93799627Y-85636818D01*
X93860950Y-85603333D01*
X93887308Y-85600499D01*
X93897871Y-85600499D01*
X93897872Y-85600499D01*
X93957483Y-85594091D01*
X93991190Y-85581519D01*
X107000000Y-85581519D01*
X107000000Y-85918480D01*
X107037725Y-86253297D01*
X107037727Y-86253313D01*
X107112705Y-86581814D01*
X107112709Y-86581826D01*
X107223995Y-86899862D01*
X107370191Y-87203440D01*
X107549461Y-87488747D01*
X107708397Y-87688048D01*
X108942002Y-86454443D01*
X109031298Y-86577349D01*
X109172651Y-86718702D01*
X109295555Y-86807996D01*
X108061950Y-88041601D01*
X108261252Y-88200538D01*
X108546559Y-88379808D01*
X108850137Y-88526004D01*
X109168173Y-88637290D01*
X109168185Y-88637294D01*
X109496686Y-88712272D01*
X109496702Y-88712274D01*
X109831519Y-88749999D01*
X109831521Y-88750000D01*
X110168479Y-88750000D01*
X110168480Y-88749999D01*
X110503297Y-88712274D01*
X110503313Y-88712272D01*
X110831814Y-88637294D01*
X110831826Y-88637290D01*
X111149862Y-88526004D01*
X111453440Y-88379808D01*
X111738747Y-88200538D01*
X111938048Y-88041600D01*
X110704444Y-86807997D01*
X110827349Y-86718702D01*
X110968702Y-86577349D01*
X111057997Y-86454444D01*
X112291600Y-87688048D01*
X112450538Y-87488747D01*
X112629808Y-87203440D01*
X112776004Y-86899862D01*
X112887290Y-86581826D01*
X112887293Y-86581818D01*
X112947225Y-86319241D01*
X112947225Y-86319240D01*
X112962272Y-86253314D01*
X112962274Y-86253297D01*
X112999999Y-85918480D01*
X113000000Y-85918478D01*
X113000000Y-85581521D01*
X112999999Y-85581519D01*
X112962274Y-85246702D01*
X112962272Y-85246686D01*
X112887294Y-84918185D01*
X112887290Y-84918173D01*
X112776004Y-84600137D01*
X112629808Y-84296559D01*
X112450538Y-84011252D01*
X112291601Y-83811950D01*
X111057996Y-85045554D01*
X110968702Y-84922651D01*
X110827349Y-84781298D01*
X110704443Y-84692001D01*
X111938048Y-83458397D01*
X111738747Y-83299461D01*
X111453440Y-83120191D01*
X111149862Y-82973995D01*
X110831826Y-82862709D01*
X110831814Y-82862705D01*
X110503313Y-82787727D01*
X110503297Y-82787725D01*
X110168480Y-82750000D01*
X109831519Y-82750000D01*
X109496702Y-82787725D01*
X109496686Y-82787727D01*
X109168185Y-82862705D01*
X109168173Y-82862709D01*
X108850137Y-82973995D01*
X108546559Y-83120191D01*
X108261252Y-83299461D01*
X108061950Y-83458397D01*
X109295555Y-84692002D01*
X109172651Y-84781298D01*
X109031298Y-84922651D01*
X108942002Y-85045555D01*
X107708397Y-83811950D01*
X107549461Y-84011252D01*
X107370191Y-84296559D01*
X107223995Y-84600137D01*
X107112709Y-84918173D01*
X107112705Y-84918185D01*
X107037727Y-85246686D01*
X107037725Y-85246702D01*
X107000000Y-85581519D01*
X93991190Y-85581519D01*
X94092331Y-85543796D01*
X94132749Y-85513539D01*
X94179183Y-85478779D01*
X94192588Y-85468743D01*
X94207546Y-85457546D01*
X94293796Y-85342331D01*
X94344091Y-85207483D01*
X94350500Y-85147873D01*
X94350499Y-83352128D01*
X94344091Y-83292517D01*
X94319650Y-83226988D01*
X94293797Y-83157671D01*
X94293793Y-83157664D01*
X94207547Y-83042455D01*
X94207544Y-83042452D01*
X94092335Y-82956206D01*
X94092328Y-82956202D01*
X93957482Y-82905908D01*
X93957483Y-82905908D01*
X93897883Y-82899501D01*
X93897881Y-82899500D01*
X93897873Y-82899500D01*
X93897864Y-82899500D01*
X92102129Y-82899500D01*
X92102123Y-82899501D01*
X92042516Y-82905908D01*
X91907671Y-82956202D01*
X91907664Y-82956206D01*
X91792455Y-83042452D01*
X91792452Y-83042455D01*
X91706206Y-83157664D01*
X91706202Y-83157671D01*
X91655908Y-83292517D01*
X91650966Y-83338489D01*
X91649501Y-83352123D01*
X91649500Y-83352135D01*
X91649500Y-85147870D01*
X91649501Y-85147876D01*
X91655908Y-85207483D01*
X91706202Y-85342328D01*
X91706203Y-85342330D01*
X91734255Y-85379802D01*
X91758672Y-85445266D01*
X91743821Y-85513539D01*
X91722669Y-85541794D01*
X91483107Y-85781356D01*
X91483101Y-85781362D01*
X91479586Y-85784878D01*
X91479584Y-85784880D01*
X91367780Y-85896684D01*
X91337287Y-85949500D01*
X91331641Y-85959278D01*
X91331640Y-85959280D01*
X91296259Y-86020562D01*
X91288723Y-86033615D01*
X91247799Y-86186343D01*
X91247799Y-86186345D01*
X91247799Y-86354446D01*
X91247800Y-86354459D01*
X91247800Y-97347930D01*
X91247799Y-97347948D01*
X91247799Y-97513654D01*
X91247798Y-97513654D01*
X91247799Y-97513657D01*
X91288723Y-97666385D01*
X91295515Y-97678149D01*
X91367777Y-97803312D01*
X91367781Y-97803317D01*
X91486649Y-97922185D01*
X91486655Y-97922190D01*
X91984602Y-98420137D01*
X92018087Y-98481460D01*
X92013103Y-98551152D01*
X91984607Y-98595494D01*
X91969900Y-98610202D01*
X91969892Y-98610211D01*
X91844951Y-98782179D01*
X91748444Y-98971585D01*
X91682753Y-99173760D01*
X91649500Y-99383713D01*
X91649500Y-99596291D01*
X91664616Y-99691726D01*
X91655662Y-99761020D01*
X91629824Y-99798806D01*
X91027249Y-100401381D01*
X90993393Y-100452050D01*
X90993394Y-100452051D01*
X90945114Y-100524308D01*
X90888543Y-100660882D01*
X90888540Y-100660892D01*
X90859700Y-100805879D01*
X90859700Y-106052270D01*
X90840015Y-106119309D01*
X90823381Y-106139951D01*
X85829752Y-111133579D01*
X85768429Y-111167064D01*
X85698737Y-111162080D01*
X85642804Y-111120208D01*
X85618387Y-111054744D01*
X85622296Y-111013805D01*
X85670911Y-110832367D01*
X85670914Y-110832354D01*
X85700000Y-110611424D01*
X85700000Y-110388575D01*
X85670914Y-110167645D01*
X85670911Y-110167632D01*
X85613236Y-109952381D01*
X85527954Y-109746497D01*
X85527949Y-109746485D01*
X85416533Y-109553507D01*
X85365956Y-109487595D01*
X85365955Y-109487595D01*
X84564612Y-110288940D01*
X84559111Y-110268409D01*
X84480119Y-110131592D01*
X84368408Y-110019881D01*
X84231591Y-109940889D01*
X84211058Y-109935387D01*
X85012403Y-109134043D01*
X85012403Y-109134040D01*
X84946504Y-109083473D01*
X84946491Y-109083464D01*
X84753520Y-108972054D01*
X84753502Y-108972045D01*
X84673873Y-108939061D01*
X84619469Y-108895220D01*
X84597405Y-108828925D01*
X84614685Y-108761226D01*
X84665822Y-108713616D01*
X84721326Y-108700500D01*
X85000003Y-108700500D01*
X85000008Y-108700500D01*
X85102797Y-108689999D01*
X85269334Y-108634814D01*
X85418655Y-108542711D01*
X85542711Y-108418655D01*
X85634814Y-108269334D01*
X85689999Y-108102797D01*
X85700500Y-108000008D01*
X85700500Y-106294658D01*
X85709939Y-106247206D01*
X85721656Y-106218917D01*
X85721658Y-106218913D01*
X85743226Y-106110485D01*
X85750500Y-106073920D01*
X85750500Y-93437311D01*
X85770185Y-93370272D01*
X85822989Y-93324517D01*
X85827014Y-93322763D01*
X85886697Y-93298043D01*
X86113803Y-93166924D01*
X86321851Y-93007282D01*
X86321855Y-93007277D01*
X86321860Y-93007274D01*
X86507274Y-92821860D01*
X86507277Y-92821855D01*
X86507282Y-92821851D01*
X86666924Y-92613803D01*
X86798043Y-92386697D01*
X86898398Y-92144419D01*
X86966270Y-91891116D01*
X87000500Y-91631120D01*
X87000500Y-91368880D01*
X86966270Y-91108884D01*
X86898398Y-90855581D01*
X86873688Y-90795927D01*
X86866220Y-90726463D01*
X86897494Y-90663983D01*
X86900541Y-90660825D01*
X88133351Y-89428016D01*
X88215484Y-89305095D01*
X88272058Y-89168513D01*
X88300900Y-89023518D01*
X88300900Y-88875683D01*
X88300900Y-80818209D01*
X169299500Y-80818209D01*
X169299500Y-81181790D01*
X169335137Y-81543630D01*
X169406064Y-81900212D01*
X169406067Y-81900223D01*
X169511614Y-82248165D01*
X169650754Y-82584078D01*
X169650756Y-82584083D01*
X169822140Y-82904720D01*
X169822151Y-82904738D01*
X170024140Y-83207035D01*
X170024150Y-83207049D01*
X170254807Y-83488106D01*
X170511893Y-83745192D01*
X170511898Y-83745196D01*
X170511899Y-83745197D01*
X170792956Y-83975854D01*
X171095268Y-84177853D01*
X171095277Y-84177858D01*
X171095279Y-84177859D01*
X171415916Y-84349243D01*
X171415918Y-84349243D01*
X171415924Y-84349247D01*
X171751836Y-84488386D01*
X172099767Y-84593930D01*
X172099773Y-84593931D01*
X172099776Y-84593932D01*
X172099787Y-84593935D01*
X172434852Y-84660582D01*
X172456369Y-84664862D01*
X172818206Y-84700500D01*
X172818209Y-84700500D01*
X173181791Y-84700500D01*
X173181794Y-84700500D01*
X173543631Y-84664862D01*
X173613045Y-84651054D01*
X173900212Y-84593935D01*
X173900223Y-84593932D01*
X173900223Y-84593931D01*
X173900233Y-84593930D01*
X174248164Y-84488386D01*
X174584076Y-84349247D01*
X174904732Y-84177853D01*
X175207044Y-83975854D01*
X175488101Y-83745197D01*
X175745197Y-83488101D01*
X175975854Y-83207044D01*
X176177853Y-82904732D01*
X176349247Y-82584076D01*
X176488386Y-82248164D01*
X176593930Y-81900233D01*
X176593932Y-81900223D01*
X176593935Y-81900212D01*
X176664862Y-81543630D01*
X176700500Y-81181790D01*
X176700500Y-80818209D01*
X176664862Y-80456369D01*
X176593935Y-80099787D01*
X176593932Y-80099776D01*
X176593931Y-80099773D01*
X176593930Y-80099767D01*
X176488386Y-79751836D01*
X176349247Y-79415924D01*
X176179269Y-79097918D01*
X176177859Y-79095279D01*
X176177858Y-79095277D01*
X176177853Y-79095268D01*
X175975854Y-78792956D01*
X175745197Y-78511899D01*
X175745196Y-78511898D01*
X175745192Y-78511893D01*
X175488106Y-78254807D01*
X175207049Y-78024150D01*
X175207048Y-78024149D01*
X175207044Y-78024146D01*
X174904732Y-77822147D01*
X174904727Y-77822144D01*
X174904720Y-77822140D01*
X174584083Y-77650756D01*
X174584078Y-77650754D01*
X174248165Y-77511614D01*
X173900223Y-77406067D01*
X173900212Y-77406064D01*
X173543630Y-77335137D01*
X173271111Y-77308296D01*
X173181794Y-77299500D01*
X172818206Y-77299500D01*
X172735679Y-77307628D01*
X172456369Y-77335137D01*
X172099787Y-77406064D01*
X172099776Y-77406067D01*
X171751834Y-77511614D01*
X171415921Y-77650754D01*
X171415916Y-77650756D01*
X171095279Y-77822140D01*
X171095261Y-77822151D01*
X170792964Y-78024140D01*
X170792950Y-78024150D01*
X170511893Y-78254807D01*
X170254807Y-78511893D01*
X170024150Y-78792950D01*
X170024140Y-78792964D01*
X169822151Y-79095261D01*
X169822140Y-79095279D01*
X169650756Y-79415916D01*
X169650754Y-79415921D01*
X169511614Y-79751834D01*
X169406067Y-80099776D01*
X169406064Y-80099787D01*
X169335137Y-80456369D01*
X169299500Y-80818209D01*
X88300900Y-80818209D01*
X88300900Y-79781261D01*
X88310339Y-79733808D01*
X88326745Y-79694201D01*
X88368216Y-79594082D01*
X88400900Y-79429767D01*
X88400900Y-79262233D01*
X88368216Y-79097918D01*
X88304103Y-78943137D01*
X88272937Y-78896494D01*
X88211026Y-78803837D01*
X88092562Y-78685373D01*
X87953260Y-78592295D01*
X87798482Y-78528184D01*
X87798474Y-78528182D01*
X87634171Y-78495500D01*
X87634167Y-78495500D01*
X87466633Y-78495500D01*
X87466628Y-78495500D01*
X87302325Y-78528182D01*
X87302317Y-78528184D01*
X87147539Y-78592295D01*
X87008237Y-78685373D01*
X86889773Y-78803837D01*
X86796695Y-78943139D01*
X86732584Y-79097917D01*
X86732582Y-79097925D01*
X86699900Y-79262228D01*
X86699900Y-79429771D01*
X86732582Y-79594074D01*
X86732584Y-79594082D01*
X86790461Y-79733808D01*
X86799900Y-79781261D01*
X86799900Y-88587369D01*
X86780215Y-88654408D01*
X86763581Y-88675050D01*
X85839201Y-89599429D01*
X85777878Y-89632914D01*
X85708186Y-89627930D01*
X85704067Y-89626309D01*
X85644428Y-89601605D01*
X85644421Y-89601603D01*
X85644419Y-89601602D01*
X85391116Y-89533730D01*
X85333339Y-89526123D01*
X85131127Y-89499500D01*
X85131120Y-89499500D01*
X84868880Y-89499500D01*
X84868872Y-89499500D01*
X84637772Y-89529926D01*
X84608884Y-89533730D01*
X84390103Y-89592352D01*
X84355581Y-89601602D01*
X84355571Y-89601605D01*
X84113309Y-89701953D01*
X84113299Y-89701958D01*
X83886196Y-89833075D01*
X83678148Y-89992718D01*
X83492718Y-90178148D01*
X83333075Y-90386196D01*
X83201958Y-90613299D01*
X83201953Y-90613309D01*
X83101605Y-90855571D01*
X83101602Y-90855581D01*
X83044361Y-91069211D01*
X83033730Y-91108885D01*
X82999500Y-91368872D01*
X82999500Y-91631127D01*
X83023444Y-91812989D01*
X83033730Y-91891116D01*
X83098369Y-92132352D01*
X83101602Y-92144418D01*
X83101605Y-92144428D01*
X83201953Y-92386690D01*
X83201958Y-92386700D01*
X83333075Y-92613803D01*
X83492718Y-92821851D01*
X83492726Y-92821860D01*
X83678140Y-93007274D01*
X83678148Y-93007281D01*
X83678149Y-93007282D01*
X83697292Y-93021971D01*
X83886196Y-93166924D01*
X84113299Y-93298041D01*
X84113301Y-93298041D01*
X84113303Y-93298043D01*
X84172952Y-93322750D01*
X84227355Y-93366589D01*
X84249421Y-93432883D01*
X84249500Y-93437311D01*
X84249500Y-105175500D01*
X84229815Y-105242539D01*
X84177011Y-105288294D01*
X84125500Y-105299500D01*
X82999984Y-105299500D01*
X82897204Y-105310000D01*
X82897203Y-105310001D01*
X82730664Y-105365186D01*
X82730662Y-105365187D01*
X82581348Y-105457286D01*
X82581344Y-105457289D01*
X82457289Y-105581344D01*
X82457286Y-105581348D01*
X82365187Y-105730662D01*
X82365186Y-105730664D01*
X82310001Y-105897203D01*
X82310000Y-105897204D01*
X82299500Y-105999984D01*
X82299500Y-108000015D01*
X82310000Y-108102795D01*
X82310001Y-108102796D01*
X82365186Y-108269335D01*
X82365187Y-108269337D01*
X82457286Y-108418651D01*
X82457289Y-108418655D01*
X82581344Y-108542710D01*
X82581348Y-108542713D01*
X82730662Y-108634812D01*
X82730664Y-108634813D01*
X82730666Y-108634814D01*
X82897203Y-108689999D01*
X82999992Y-108700500D01*
X82999997Y-108700500D01*
X83278674Y-108700500D01*
X83345713Y-108720185D01*
X83391468Y-108772989D01*
X83401412Y-108842147D01*
X83372387Y-108905703D01*
X83326127Y-108939061D01*
X83246497Y-108972045D01*
X83246479Y-108972054D01*
X83053511Y-109083462D01*
X82987595Y-109134042D01*
X83788941Y-109935387D01*
X83768409Y-109940889D01*
X83631592Y-110019881D01*
X83519881Y-110131592D01*
X83440889Y-110268409D01*
X83435387Y-110288940D01*
X82634042Y-109487595D01*
X82583462Y-109553511D01*
X82472054Y-109746479D01*
X82472045Y-109746497D01*
X82386763Y-109952381D01*
X82329088Y-110167632D01*
X82329085Y-110167645D01*
X82300000Y-110388575D01*
X82300000Y-110611424D01*
X82329085Y-110832354D01*
X82329088Y-110832367D01*
X82386763Y-111047618D01*
X82472045Y-111253502D01*
X82472054Y-111253520D01*
X82583464Y-111446491D01*
X82583473Y-111446504D01*
X82634040Y-111512403D01*
X82634043Y-111512403D01*
X83435387Y-110711059D01*
X83440889Y-110731591D01*
X83519881Y-110868408D01*
X83631592Y-110980119D01*
X83768409Y-111059111D01*
X83788940Y-111064612D01*
X82987595Y-111865955D01*
X82987595Y-111865956D01*
X83053507Y-111916533D01*
X83246485Y-112027949D01*
X83246497Y-112027954D01*
X83452381Y-112113236D01*
X83667632Y-112170911D01*
X83667645Y-112170914D01*
X83888575Y-112200000D01*
X84111425Y-112200000D01*
X84332354Y-112170914D01*
X84332367Y-112170911D01*
X84547621Y-112113235D01*
X84547623Y-112113234D01*
X84646674Y-112072205D01*
X84716143Y-112064735D01*
X84778622Y-112096009D01*
X84814276Y-112156097D01*
X84811783Y-112225922D01*
X84808690Y-112234216D01*
X84779542Y-112304587D01*
X84779540Y-112304592D01*
X84750700Y-112449579D01*
X84750700Y-115076437D01*
X84731015Y-115143476D01*
X84678211Y-115189231D01*
X84661200Y-115192352D01*
X84043678Y-115809873D01*
X83953446Y-115685680D01*
X83814320Y-115546554D01*
X83690125Y-115456320D01*
X84297686Y-114848758D01*
X84169196Y-114750163D01*
X83930802Y-114612527D01*
X83930787Y-114612520D01*
X83676471Y-114507180D01*
X83410565Y-114435930D01*
X83137642Y-114400000D01*
X82862358Y-114400000D01*
X82589434Y-114435930D01*
X82323528Y-114507180D01*
X82069212Y-114612520D01*
X82069197Y-114612527D01*
X81830799Y-114750166D01*
X81702312Y-114848757D01*
X81702312Y-114848758D01*
X82309874Y-115456320D01*
X82185680Y-115546554D01*
X82046554Y-115685680D01*
X81956320Y-115809874D01*
X81348758Y-115202312D01*
X81348757Y-115202312D01*
X81250166Y-115330799D01*
X81112527Y-115569197D01*
X81112520Y-115569212D01*
X81007180Y-115823528D01*
X80935930Y-116089434D01*
X80900000Y-116362358D01*
X80900000Y-116637641D01*
X80935930Y-116910565D01*
X81007180Y-117176471D01*
X81112520Y-117430787D01*
X81112527Y-117430802D01*
X81250163Y-117669196D01*
X81348758Y-117797686D01*
X81956319Y-117190124D01*
X82046554Y-117314320D01*
X82185680Y-117453446D01*
X82309873Y-117543679D01*
X81702312Y-118151240D01*
X81830804Y-118249836D01*
X82069197Y-118387472D01*
X82069212Y-118387479D01*
X82323528Y-118492819D01*
X82589434Y-118564069D01*
X82862358Y-118600000D01*
X83137642Y-118600000D01*
X83410565Y-118564069D01*
X83676471Y-118492819D01*
X83930787Y-118387479D01*
X83930802Y-118387472D01*
X84169194Y-118249836D01*
X84169211Y-118249825D01*
X84297686Y-118151241D01*
X84297686Y-118151239D01*
X83690125Y-117543679D01*
X83814320Y-117453446D01*
X83953446Y-117314320D01*
X84043679Y-117190125D01*
X84663408Y-117809855D01*
X84686771Y-117815083D01*
X84735883Y-117864781D01*
X84750700Y-117923561D01*
X84750700Y-123896569D01*
X84731015Y-123963608D01*
X84714381Y-123984250D01*
X81602894Y-127095736D01*
X81541571Y-127129221D01*
X81495816Y-127130528D01*
X81369361Y-127110500D01*
X81369356Y-127110500D01*
X81150644Y-127110500D01*
X81150639Y-127110500D01*
X80934623Y-127144714D01*
X80726619Y-127212297D01*
X80726616Y-127212298D01*
X80531739Y-127311595D01*
X80354806Y-127440142D01*
X80319434Y-127475514D01*
X80258111Y-127508999D01*
X80188419Y-127504013D01*
X80132486Y-127462141D01*
X80115572Y-127431164D01*
X80092355Y-127368915D01*
X80092350Y-127368906D01*
X80006190Y-127253812D01*
X80006187Y-127253809D01*
X79891093Y-127167649D01*
X79891086Y-127167645D01*
X79756379Y-127117403D01*
X79756372Y-127117401D01*
X79696844Y-127111000D01*
X79010000Y-127111000D01*
X79010000Y-128066988D01*
X78952993Y-128034075D01*
X78825826Y-128000000D01*
X78694174Y-128000000D01*
X78567007Y-128034075D01*
X78510000Y-128066988D01*
X78510000Y-127111000D01*
X77823155Y-127111000D01*
X77763627Y-127117401D01*
X77763620Y-127117403D01*
X77628913Y-127167645D01*
X77628906Y-127167649D01*
X77513812Y-127253809D01*
X77513809Y-127253812D01*
X77427649Y-127368906D01*
X77427645Y-127368913D01*
X77377403Y-127503620D01*
X77377401Y-127503627D01*
X77371000Y-127563155D01*
X75000500Y-127563155D01*
X75000500Y-98868872D01*
X76999500Y-98868872D01*
X76999500Y-99131127D01*
X77022618Y-99306713D01*
X77033730Y-99391116D01*
X77097319Y-99628435D01*
X77101602Y-99644418D01*
X77101605Y-99644428D01*
X77201953Y-99886690D01*
X77201958Y-99886700D01*
X77333075Y-100113803D01*
X77492718Y-100321851D01*
X77492726Y-100321860D01*
X77678140Y-100507274D01*
X77678148Y-100507281D01*
X77886196Y-100666924D01*
X78113299Y-100798041D01*
X78113309Y-100798046D01*
X78355571Y-100898394D01*
X78355581Y-100898398D01*
X78608884Y-100966270D01*
X78868880Y-101000500D01*
X78868887Y-101000500D01*
X79131113Y-101000500D01*
X79131120Y-101000500D01*
X79391116Y-100966270D01*
X79644419Y-100898398D01*
X79886697Y-100798043D01*
X80113803Y-100666924D01*
X80321851Y-100507282D01*
X80321855Y-100507277D01*
X80321860Y-100507274D01*
X80507274Y-100321860D01*
X80507277Y-100321855D01*
X80507282Y-100321851D01*
X80666924Y-100113803D01*
X80798043Y-99886697D01*
X80802713Y-99875424D01*
X80898394Y-99644428D01*
X80898398Y-99644419D01*
X80966270Y-99391116D01*
X81000500Y-99131120D01*
X81000500Y-98868880D01*
X80966270Y-98608884D01*
X80898398Y-98355581D01*
X80878919Y-98308555D01*
X80798046Y-98113309D01*
X80798041Y-98113299D01*
X80666924Y-97886196D01*
X80507281Y-97678148D01*
X80507274Y-97678140D01*
X80321860Y-97492726D01*
X80321851Y-97492718D01*
X80113803Y-97333075D01*
X79886700Y-97201958D01*
X79886695Y-97201956D01*
X79827046Y-97177248D01*
X79772643Y-97133406D01*
X79750579Y-97067111D01*
X79750500Y-97062687D01*
X79750500Y-88767407D01*
X79770185Y-88700368D01*
X79822989Y-88654613D01*
X79826799Y-88652950D01*
X85263204Y-86389901D01*
X85386867Y-86338423D01*
X85434521Y-86328900D01*
X85583768Y-86328900D01*
X85583769Y-86328899D01*
X85748082Y-86296216D01*
X85902863Y-86232103D01*
X86042162Y-86139026D01*
X86160626Y-86020562D01*
X86253703Y-85881263D01*
X86317816Y-85726482D01*
X86350500Y-85562167D01*
X86350500Y-85394633D01*
X86317816Y-85230318D01*
X86253703Y-85075537D01*
X86171779Y-84952929D01*
X86160626Y-84936237D01*
X86042162Y-84817773D01*
X85902860Y-84724695D01*
X85748082Y-84660584D01*
X85748074Y-84660582D01*
X85583771Y-84627900D01*
X85583767Y-84627900D01*
X85416233Y-84627900D01*
X85416228Y-84627900D01*
X85251925Y-84660582D01*
X85251917Y-84660584D01*
X85097139Y-84724695D01*
X84957838Y-84817773D01*
X84849477Y-84926134D01*
X84809450Y-84952929D01*
X78712029Y-87491145D01*
X78711820Y-87491233D01*
X78644505Y-87519116D01*
X78643953Y-87519484D01*
X78643335Y-87519742D01*
X78643313Y-87519756D01*
X78643310Y-87519758D01*
X78612153Y-87540655D01*
X78582406Y-87560608D01*
X78521584Y-87601249D01*
X78521111Y-87601721D01*
X78520559Y-87602092D01*
X78520546Y-87602104D01*
X78520543Y-87602107D01*
X78468950Y-87653882D01*
X78468797Y-87654034D01*
X78417048Y-87705783D01*
X78416614Y-87706312D01*
X78416609Y-87706318D01*
X78416225Y-87706784D01*
X78385990Y-87752206D01*
X78375599Y-87767818D01*
X78375598Y-87767819D01*
X78375597Y-87767818D01*
X78375257Y-87768327D01*
X78334916Y-87828705D01*
X78334661Y-87829319D01*
X78334291Y-87829876D01*
X78334284Y-87829891D01*
X78334281Y-87829897D01*
X78306319Y-87897738D01*
X78306233Y-87897950D01*
X78278342Y-87965287D01*
X78278212Y-87965936D01*
X78277957Y-87966557D01*
X78277951Y-87966586D01*
X78277949Y-87966592D01*
X78263834Y-88038216D01*
X78263792Y-88038429D01*
X78249498Y-88110292D01*
X78249471Y-88110562D01*
X78249470Y-88110579D01*
X78249450Y-88110787D01*
X78249371Y-88111582D01*
X78249500Y-88184382D01*
X78249500Y-97062687D01*
X78229815Y-97129726D01*
X78177011Y-97175481D01*
X78172954Y-97177248D01*
X78113304Y-97201956D01*
X78113299Y-97201958D01*
X77886196Y-97333075D01*
X77678148Y-97492718D01*
X77492718Y-97678148D01*
X77333075Y-97886196D01*
X77201958Y-98113299D01*
X77201953Y-98113309D01*
X77101605Y-98355571D01*
X77101602Y-98355581D01*
X77033730Y-98608884D01*
X77033556Y-98610208D01*
X76999500Y-98868872D01*
X75000500Y-98868872D01*
X75000500Y-80818209D01*
X77299500Y-80818209D01*
X77299500Y-81181790D01*
X77335137Y-81543630D01*
X77406064Y-81900212D01*
X77406067Y-81900223D01*
X77511614Y-82248165D01*
X77650754Y-82584078D01*
X77650756Y-82584083D01*
X77822140Y-82904720D01*
X77822151Y-82904738D01*
X78024140Y-83207035D01*
X78024150Y-83207049D01*
X78254807Y-83488106D01*
X78511893Y-83745192D01*
X78511898Y-83745196D01*
X78511899Y-83745197D01*
X78792956Y-83975854D01*
X79095268Y-84177853D01*
X79095277Y-84177858D01*
X79095279Y-84177859D01*
X79415916Y-84349243D01*
X79415918Y-84349243D01*
X79415924Y-84349247D01*
X79751836Y-84488386D01*
X80099767Y-84593930D01*
X80099773Y-84593931D01*
X80099776Y-84593932D01*
X80099787Y-84593935D01*
X80434852Y-84660582D01*
X80456369Y-84664862D01*
X80818206Y-84700500D01*
X80818209Y-84700500D01*
X81181791Y-84700500D01*
X81181794Y-84700500D01*
X81543631Y-84664862D01*
X81613045Y-84651054D01*
X81900212Y-84593935D01*
X81900223Y-84593932D01*
X81900223Y-84593931D01*
X81900233Y-84593930D01*
X82248164Y-84488386D01*
X82584076Y-84349247D01*
X82904732Y-84177853D01*
X83207044Y-83975854D01*
X83488101Y-83745197D01*
X83745197Y-83488101D01*
X83975854Y-83207044D01*
X84177853Y-82904732D01*
X84349247Y-82584076D01*
X84488386Y-82248164D01*
X84593930Y-81900233D01*
X84593932Y-81900223D01*
X84593935Y-81900212D01*
X84664862Y-81543630D01*
X84700500Y-81181790D01*
X84700500Y-80818209D01*
X84664862Y-80456369D01*
X84593935Y-80099787D01*
X84593932Y-80099776D01*
X84593931Y-80099773D01*
X84593930Y-80099767D01*
X84488386Y-79751836D01*
X84349247Y-79415924D01*
X84179269Y-79097918D01*
X84177859Y-79095279D01*
X84177858Y-79095277D01*
X84177853Y-79095268D01*
X83975854Y-78792956D01*
X83745197Y-78511899D01*
X83745196Y-78511898D01*
X83745192Y-78511893D01*
X83488106Y-78254807D01*
X83207049Y-78024150D01*
X83207048Y-78024149D01*
X83207044Y-78024146D01*
X82904732Y-77822147D01*
X82904727Y-77822144D01*
X82904720Y-77822140D01*
X82584083Y-77650756D01*
X82584078Y-77650754D01*
X82248165Y-77511614D01*
X81900223Y-77406067D01*
X81900212Y-77406064D01*
X81543630Y-77335137D01*
X81271111Y-77308296D01*
X81181794Y-77299500D01*
X80818206Y-77299500D01*
X80735679Y-77307628D01*
X80456369Y-77335137D01*
X80099787Y-77406064D01*
X80099776Y-77406067D01*
X79751834Y-77511614D01*
X79415921Y-77650754D01*
X79415916Y-77650756D01*
X79095279Y-77822140D01*
X79095261Y-77822151D01*
X78792964Y-78024140D01*
X78792950Y-78024150D01*
X78511893Y-78254807D01*
X78254807Y-78511893D01*
X78024150Y-78792950D01*
X78024140Y-78792964D01*
X77822151Y-79095261D01*
X77822140Y-79095279D01*
X77650756Y-79415916D01*
X77650754Y-79415921D01*
X77511614Y-79751834D01*
X77406067Y-80099776D01*
X77406064Y-80099787D01*
X77335137Y-80456369D01*
X77299500Y-80818209D01*
X75000500Y-80818209D01*
X75000500Y-75624500D01*
X75020185Y-75557461D01*
X75072989Y-75511706D01*
X75124500Y-75500500D01*
X178875500Y-75500500D01*
X178942539Y-75520185D01*
G37*
%TD.AperFunction*%
%TD*%
M02*
