%TF.GenerationSoftware,KiCad,Pcbnew,10.0.0*%
%TF.CreationDate,2026-04-06T13:30:36-04:00*%
%TF.ProjectId,phaser1,70686173-6572-4312-9e6b-696361645f70,1.0*%
%TF.SameCoordinates,Original*%
%TF.FileFunction,Legend,Top*%
%TF.FilePolarity,Positive*%
%FSLAX46Y46*%
G04 Gerber Fmt 4.6, Leading zero omitted, Abs format (unit mm)*
G04 Created by KiCad (PCBNEW 10.0.0) date 2026-04-06 13:30:36*
%MOMM*%
%LPD*%
G01*
G04 APERTURE LIST*
%ADD10C,0.100000*%
%ADD11C,0.150000*%
%ADD12C,0.300000*%
%ADD13C,0.200000*%
%ADD14C,0.120000*%
G04 APERTURE END LIST*
D10*
X75303884Y-106991466D02*
X76065789Y-106991466D01*
X75684836Y-107372419D02*
X75684836Y-106610514D01*
X77065788Y-107372419D02*
X76494360Y-107372419D01*
X76780074Y-107372419D02*
X76780074Y-106372419D01*
X76780074Y-106372419D02*
X76684836Y-106515276D01*
X76684836Y-106515276D02*
X76589598Y-106610514D01*
X76589598Y-106610514D02*
X76494360Y-106658133D01*
X77446741Y-106467657D02*
X77494360Y-106420038D01*
X77494360Y-106420038D02*
X77589598Y-106372419D01*
X77589598Y-106372419D02*
X77827693Y-106372419D01*
X77827693Y-106372419D02*
X77922931Y-106420038D01*
X77922931Y-106420038D02*
X77970550Y-106467657D01*
X77970550Y-106467657D02*
X78018169Y-106562895D01*
X78018169Y-106562895D02*
X78018169Y-106658133D01*
X78018169Y-106658133D02*
X77970550Y-106800990D01*
X77970550Y-106800990D02*
X77399122Y-107372419D01*
X77399122Y-107372419D02*
X78018169Y-107372419D01*
X78303884Y-106372419D02*
X78637217Y-107372419D01*
X78637217Y-107372419D02*
X78970550Y-106372419D01*
X76827693Y-110390038D02*
X76732455Y-110342419D01*
X76732455Y-110342419D02*
X76589598Y-110342419D01*
X76589598Y-110342419D02*
X76446741Y-110390038D01*
X76446741Y-110390038D02*
X76351503Y-110485276D01*
X76351503Y-110485276D02*
X76303884Y-110580514D01*
X76303884Y-110580514D02*
X76256265Y-110770990D01*
X76256265Y-110770990D02*
X76256265Y-110913847D01*
X76256265Y-110913847D02*
X76303884Y-111104323D01*
X76303884Y-111104323D02*
X76351503Y-111199561D01*
X76351503Y-111199561D02*
X76446741Y-111294800D01*
X76446741Y-111294800D02*
X76589598Y-111342419D01*
X76589598Y-111342419D02*
X76684836Y-111342419D01*
X76684836Y-111342419D02*
X76827693Y-111294800D01*
X76827693Y-111294800D02*
X76875312Y-111247180D01*
X76875312Y-111247180D02*
X76875312Y-110913847D01*
X76875312Y-110913847D02*
X76684836Y-110913847D01*
X77303884Y-111342419D02*
X77303884Y-110342419D01*
X77303884Y-110342419D02*
X77875312Y-111342419D01*
X77875312Y-111342419D02*
X77875312Y-110342419D01*
X78351503Y-111342419D02*
X78351503Y-110342419D01*
X78351503Y-110342419D02*
X78589598Y-110342419D01*
X78589598Y-110342419D02*
X78732455Y-110390038D01*
X78732455Y-110390038D02*
X78827693Y-110485276D01*
X78827693Y-110485276D02*
X78875312Y-110580514D01*
X78875312Y-110580514D02*
X78922931Y-110770990D01*
X78922931Y-110770990D02*
X78922931Y-110913847D01*
X78922931Y-110913847D02*
X78875312Y-111104323D01*
X78875312Y-111104323D02*
X78827693Y-111199561D01*
X78827693Y-111199561D02*
X78732455Y-111294800D01*
X78732455Y-111294800D02*
X78589598Y-111342419D01*
X78589598Y-111342419D02*
X78351503Y-111342419D01*
X81637217Y-95738665D02*
X81303884Y-95738665D01*
X81303884Y-96262475D02*
X81303884Y-95262475D01*
X81303884Y-95262475D02*
X81780074Y-95262475D01*
X82018170Y-95262475D02*
X82589598Y-95262475D01*
X82303884Y-96262475D02*
X82303884Y-95262475D01*
X83399122Y-95262475D02*
X82922932Y-95262475D01*
X82922932Y-95262475D02*
X82875313Y-95738665D01*
X82875313Y-95738665D02*
X82922932Y-95691046D01*
X82922932Y-95691046D02*
X83018170Y-95643427D01*
X83018170Y-95643427D02*
X83256265Y-95643427D01*
X83256265Y-95643427D02*
X83351503Y-95691046D01*
X83351503Y-95691046D02*
X83399122Y-95738665D01*
X83399122Y-95738665D02*
X83446741Y-95833903D01*
X83446741Y-95833903D02*
X83446741Y-96071998D01*
X83446741Y-96071998D02*
X83399122Y-96167236D01*
X83399122Y-96167236D02*
X83351503Y-96214856D01*
X83351503Y-96214856D02*
X83256265Y-96262475D01*
X83256265Y-96262475D02*
X83018170Y-96262475D01*
X83018170Y-96262475D02*
X82922932Y-96214856D01*
X82922932Y-96214856D02*
X82875313Y-96167236D01*
X84065789Y-95262475D02*
X84161027Y-95262475D01*
X84161027Y-95262475D02*
X84256265Y-95310094D01*
X84256265Y-95310094D02*
X84303884Y-95357713D01*
X84303884Y-95357713D02*
X84351503Y-95452951D01*
X84351503Y-95452951D02*
X84399122Y-95643427D01*
X84399122Y-95643427D02*
X84399122Y-95881522D01*
X84399122Y-95881522D02*
X84351503Y-96071998D01*
X84351503Y-96071998D02*
X84303884Y-96167236D01*
X84303884Y-96167236D02*
X84256265Y-96214856D01*
X84256265Y-96214856D02*
X84161027Y-96262475D01*
X84161027Y-96262475D02*
X84065789Y-96262475D01*
X84065789Y-96262475D02*
X83970551Y-96214856D01*
X83970551Y-96214856D02*
X83922932Y-96167236D01*
X83922932Y-96167236D02*
X83875313Y-96071998D01*
X83875313Y-96071998D02*
X83827694Y-95881522D01*
X83827694Y-95881522D02*
X83827694Y-95643427D01*
X83827694Y-95643427D02*
X83875313Y-95452951D01*
X83875313Y-95452951D02*
X83922932Y-95357713D01*
X83922932Y-95357713D02*
X83970551Y-95310094D01*
X83970551Y-95310094D02*
X84065789Y-95262475D01*
X81256265Y-96967657D02*
X81303884Y-96920038D01*
X81303884Y-96920038D02*
X81399122Y-96872419D01*
X81399122Y-96872419D02*
X81637217Y-96872419D01*
X81637217Y-96872419D02*
X81732455Y-96920038D01*
X81732455Y-96920038D02*
X81780074Y-96967657D01*
X81780074Y-96967657D02*
X81827693Y-97062895D01*
X81827693Y-97062895D02*
X81827693Y-97158133D01*
X81827693Y-97158133D02*
X81780074Y-97300990D01*
X81780074Y-97300990D02*
X81208646Y-97872419D01*
X81208646Y-97872419D02*
X81827693Y-97872419D01*
X82446741Y-96872419D02*
X82541979Y-96872419D01*
X82541979Y-96872419D02*
X82637217Y-96920038D01*
X82637217Y-96920038D02*
X82684836Y-96967657D01*
X82684836Y-96967657D02*
X82732455Y-97062895D01*
X82732455Y-97062895D02*
X82780074Y-97253371D01*
X82780074Y-97253371D02*
X82780074Y-97491466D01*
X82780074Y-97491466D02*
X82732455Y-97681942D01*
X82732455Y-97681942D02*
X82684836Y-97777180D01*
X82684836Y-97777180D02*
X82637217Y-97824800D01*
X82637217Y-97824800D02*
X82541979Y-97872419D01*
X82541979Y-97872419D02*
X82446741Y-97872419D01*
X82446741Y-97872419D02*
X82351503Y-97824800D01*
X82351503Y-97824800D02*
X82303884Y-97777180D01*
X82303884Y-97777180D02*
X82256265Y-97681942D01*
X82256265Y-97681942D02*
X82208646Y-97491466D01*
X82208646Y-97491466D02*
X82208646Y-97253371D01*
X82208646Y-97253371D02*
X82256265Y-97062895D01*
X82256265Y-97062895D02*
X82303884Y-96967657D01*
X82303884Y-96967657D02*
X82351503Y-96920038D01*
X82351503Y-96920038D02*
X82446741Y-96872419D01*
X83065789Y-97205752D02*
X83446741Y-97205752D01*
X83208646Y-96872419D02*
X83208646Y-97729561D01*
X83208646Y-97729561D02*
X83256265Y-97824800D01*
X83256265Y-97824800D02*
X83351503Y-97872419D01*
X83351503Y-97872419D02*
X83446741Y-97872419D01*
X96089598Y-137872419D02*
X96089598Y-138586704D01*
X96089598Y-138586704D02*
X96041979Y-138729561D01*
X96041979Y-138729561D02*
X95946741Y-138824800D01*
X95946741Y-138824800D02*
X95803884Y-138872419D01*
X95803884Y-138872419D02*
X95708646Y-138872419D01*
X97041979Y-138872419D02*
X96565789Y-138872419D01*
X96565789Y-138872419D02*
X96565789Y-137872419D01*
X97946741Y-138777180D02*
X97899122Y-138824800D01*
X97899122Y-138824800D02*
X97756265Y-138872419D01*
X97756265Y-138872419D02*
X97661027Y-138872419D01*
X97661027Y-138872419D02*
X97518170Y-138824800D01*
X97518170Y-138824800D02*
X97422932Y-138729561D01*
X97422932Y-138729561D02*
X97375313Y-138634323D01*
X97375313Y-138634323D02*
X97327694Y-138443847D01*
X97327694Y-138443847D02*
X97327694Y-138300990D01*
X97327694Y-138300990D02*
X97375313Y-138110514D01*
X97375313Y-138110514D02*
X97422932Y-138015276D01*
X97422932Y-138015276D02*
X97518170Y-137920038D01*
X97518170Y-137920038D02*
X97661027Y-137872419D01*
X97661027Y-137872419D02*
X97756265Y-137872419D01*
X97756265Y-137872419D02*
X97899122Y-137920038D01*
X97899122Y-137920038D02*
X97946741Y-137967657D01*
X98661027Y-137872419D02*
X98661027Y-138586704D01*
X98661027Y-138586704D02*
X98613408Y-138729561D01*
X98613408Y-138729561D02*
X98518170Y-138824800D01*
X98518170Y-138824800D02*
X98375313Y-138872419D01*
X98375313Y-138872419D02*
X98280075Y-138872419D01*
X99613408Y-138872419D02*
X99137218Y-138872419D01*
X99137218Y-138872419D02*
X99137218Y-137872419D01*
X100518170Y-138777180D02*
X100470551Y-138824800D01*
X100470551Y-138824800D02*
X100327694Y-138872419D01*
X100327694Y-138872419D02*
X100232456Y-138872419D01*
X100232456Y-138872419D02*
X100089599Y-138824800D01*
X100089599Y-138824800D02*
X99994361Y-138729561D01*
X99994361Y-138729561D02*
X99946742Y-138634323D01*
X99946742Y-138634323D02*
X99899123Y-138443847D01*
X99899123Y-138443847D02*
X99899123Y-138300990D01*
X99899123Y-138300990D02*
X99946742Y-138110514D01*
X99946742Y-138110514D02*
X99994361Y-138015276D01*
X99994361Y-138015276D02*
X100089599Y-137920038D01*
X100089599Y-137920038D02*
X100232456Y-137872419D01*
X100232456Y-137872419D02*
X100327694Y-137872419D01*
X100327694Y-137872419D02*
X100470551Y-137920038D01*
X100470551Y-137920038D02*
X100518170Y-137967657D01*
X101232456Y-137872419D02*
X101232456Y-138586704D01*
X101232456Y-138586704D02*
X101184837Y-138729561D01*
X101184837Y-138729561D02*
X101089599Y-138824800D01*
X101089599Y-138824800D02*
X100946742Y-138872419D01*
X100946742Y-138872419D02*
X100851504Y-138872419D01*
X102184837Y-138872419D02*
X101708647Y-138872419D01*
X101708647Y-138872419D02*
X101708647Y-137872419D01*
X103089599Y-138777180D02*
X103041980Y-138824800D01*
X103041980Y-138824800D02*
X102899123Y-138872419D01*
X102899123Y-138872419D02*
X102803885Y-138872419D01*
X102803885Y-138872419D02*
X102661028Y-138824800D01*
X102661028Y-138824800D02*
X102565790Y-138729561D01*
X102565790Y-138729561D02*
X102518171Y-138634323D01*
X102518171Y-138634323D02*
X102470552Y-138443847D01*
X102470552Y-138443847D02*
X102470552Y-138300990D01*
X102470552Y-138300990D02*
X102518171Y-138110514D01*
X102518171Y-138110514D02*
X102565790Y-138015276D01*
X102565790Y-138015276D02*
X102661028Y-137920038D01*
X102661028Y-137920038D02*
X102803885Y-137872419D01*
X102803885Y-137872419D02*
X102899123Y-137872419D01*
X102899123Y-137872419D02*
X103041980Y-137920038D01*
X103041980Y-137920038D02*
X103089599Y-137967657D01*
X103803885Y-137872419D02*
X103803885Y-138586704D01*
X103803885Y-138586704D02*
X103756266Y-138729561D01*
X103756266Y-138729561D02*
X103661028Y-138824800D01*
X103661028Y-138824800D02*
X103518171Y-138872419D01*
X103518171Y-138872419D02*
X103422933Y-138872419D01*
X104756266Y-138872419D02*
X104280076Y-138872419D01*
X104280076Y-138872419D02*
X104280076Y-137872419D01*
X105661028Y-138777180D02*
X105613409Y-138824800D01*
X105613409Y-138824800D02*
X105470552Y-138872419D01*
X105470552Y-138872419D02*
X105375314Y-138872419D01*
X105375314Y-138872419D02*
X105232457Y-138824800D01*
X105232457Y-138824800D02*
X105137219Y-138729561D01*
X105137219Y-138729561D02*
X105089600Y-138634323D01*
X105089600Y-138634323D02*
X105041981Y-138443847D01*
X105041981Y-138443847D02*
X105041981Y-138300990D01*
X105041981Y-138300990D02*
X105089600Y-138110514D01*
X105089600Y-138110514D02*
X105137219Y-138015276D01*
X105137219Y-138015276D02*
X105232457Y-137920038D01*
X105232457Y-137920038D02*
X105375314Y-137872419D01*
X105375314Y-137872419D02*
X105470552Y-137872419D01*
X105470552Y-137872419D02*
X105613409Y-137920038D01*
X105613409Y-137920038D02*
X105661028Y-137967657D01*
X151074919Y-134733615D02*
X150074919Y-134733615D01*
X150074919Y-134400282D02*
X150074919Y-133828854D01*
X151074919Y-134114568D02*
X150074919Y-134114568D01*
X151027300Y-133543139D02*
X151074919Y-133400282D01*
X151074919Y-133400282D02*
X151074919Y-133162187D01*
X151074919Y-133162187D02*
X151027300Y-133066949D01*
X151027300Y-133066949D02*
X150979680Y-133019330D01*
X150979680Y-133019330D02*
X150884442Y-132971711D01*
X150884442Y-132971711D02*
X150789204Y-132971711D01*
X150789204Y-132971711D02*
X150693966Y-133019330D01*
X150693966Y-133019330D02*
X150646347Y-133066949D01*
X150646347Y-133066949D02*
X150598728Y-133162187D01*
X150598728Y-133162187D02*
X150551109Y-133352663D01*
X150551109Y-133352663D02*
X150503490Y-133447901D01*
X150503490Y-133447901D02*
X150455871Y-133495520D01*
X150455871Y-133495520D02*
X150360633Y-133543139D01*
X150360633Y-133543139D02*
X150265395Y-133543139D01*
X150265395Y-133543139D02*
X150170157Y-133495520D01*
X150170157Y-133495520D02*
X150122538Y-133447901D01*
X150122538Y-133447901D02*
X150074919Y-133352663D01*
X150074919Y-133352663D02*
X150074919Y-133114568D01*
X150074919Y-133114568D02*
X150122538Y-132971711D01*
X150408252Y-132114568D02*
X151074919Y-132114568D01*
X150027300Y-132352663D02*
X150741585Y-132590758D01*
X150741585Y-132590758D02*
X150741585Y-131971711D01*
X150170157Y-131638377D02*
X150122538Y-131590758D01*
X150122538Y-131590758D02*
X150074919Y-131495520D01*
X150074919Y-131495520D02*
X150074919Y-131257425D01*
X150074919Y-131257425D02*
X150122538Y-131162187D01*
X150122538Y-131162187D02*
X150170157Y-131114568D01*
X150170157Y-131114568D02*
X150265395Y-131066949D01*
X150265395Y-131066949D02*
X150360633Y-131066949D01*
X150360633Y-131066949D02*
X150503490Y-131114568D01*
X150503490Y-131114568D02*
X151074919Y-131685996D01*
X151074919Y-131685996D02*
X151074919Y-131066949D01*
X150074919Y-130447901D02*
X150074919Y-130352663D01*
X150074919Y-130352663D02*
X150122538Y-130257425D01*
X150122538Y-130257425D02*
X150170157Y-130209806D01*
X150170157Y-130209806D02*
X150265395Y-130162187D01*
X150265395Y-130162187D02*
X150455871Y-130114568D01*
X150455871Y-130114568D02*
X150693966Y-130114568D01*
X150693966Y-130114568D02*
X150884442Y-130162187D01*
X150884442Y-130162187D02*
X150979680Y-130209806D01*
X150979680Y-130209806D02*
X151027300Y-130257425D01*
X151027300Y-130257425D02*
X151074919Y-130352663D01*
X151074919Y-130352663D02*
X151074919Y-130447901D01*
X151074919Y-130447901D02*
X151027300Y-130543139D01*
X151027300Y-130543139D02*
X150979680Y-130590758D01*
X150979680Y-130590758D02*
X150884442Y-130638377D01*
X150884442Y-130638377D02*
X150693966Y-130685996D01*
X150693966Y-130685996D02*
X150455871Y-130685996D01*
X150455871Y-130685996D02*
X150265395Y-130638377D01*
X150265395Y-130638377D02*
X150170157Y-130590758D01*
X150170157Y-130590758D02*
X150122538Y-130543139D01*
X150122538Y-130543139D02*
X150074919Y-130447901D01*
X150074919Y-129495520D02*
X150074919Y-129400282D01*
X150074919Y-129400282D02*
X150122538Y-129305044D01*
X150122538Y-129305044D02*
X150170157Y-129257425D01*
X150170157Y-129257425D02*
X150265395Y-129209806D01*
X150265395Y-129209806D02*
X150455871Y-129162187D01*
X150455871Y-129162187D02*
X150693966Y-129162187D01*
X150693966Y-129162187D02*
X150884442Y-129209806D01*
X150884442Y-129209806D02*
X150979680Y-129257425D01*
X150979680Y-129257425D02*
X151027300Y-129305044D01*
X151027300Y-129305044D02*
X151074919Y-129400282D01*
X151074919Y-129400282D02*
X151074919Y-129495520D01*
X151074919Y-129495520D02*
X151027300Y-129590758D01*
X151027300Y-129590758D02*
X150979680Y-129638377D01*
X150979680Y-129638377D02*
X150884442Y-129685996D01*
X150884442Y-129685996D02*
X150693966Y-129733615D01*
X150693966Y-129733615D02*
X150455871Y-129733615D01*
X150455871Y-129733615D02*
X150265395Y-129685996D01*
X150265395Y-129685996D02*
X150170157Y-129638377D01*
X150170157Y-129638377D02*
X150122538Y-129590758D01*
X150122538Y-129590758D02*
X150074919Y-129495520D01*
X151454919Y-124993615D02*
X150454919Y-124993615D01*
X150454919Y-124660282D02*
X150454919Y-124088854D01*
X151454919Y-124374568D02*
X150454919Y-124374568D01*
X151407300Y-123803139D02*
X151454919Y-123660282D01*
X151454919Y-123660282D02*
X151454919Y-123422187D01*
X151454919Y-123422187D02*
X151407300Y-123326949D01*
X151407300Y-123326949D02*
X151359680Y-123279330D01*
X151359680Y-123279330D02*
X151264442Y-123231711D01*
X151264442Y-123231711D02*
X151169204Y-123231711D01*
X151169204Y-123231711D02*
X151073966Y-123279330D01*
X151073966Y-123279330D02*
X151026347Y-123326949D01*
X151026347Y-123326949D02*
X150978728Y-123422187D01*
X150978728Y-123422187D02*
X150931109Y-123612663D01*
X150931109Y-123612663D02*
X150883490Y-123707901D01*
X150883490Y-123707901D02*
X150835871Y-123755520D01*
X150835871Y-123755520D02*
X150740633Y-123803139D01*
X150740633Y-123803139D02*
X150645395Y-123803139D01*
X150645395Y-123803139D02*
X150550157Y-123755520D01*
X150550157Y-123755520D02*
X150502538Y-123707901D01*
X150502538Y-123707901D02*
X150454919Y-123612663D01*
X150454919Y-123612663D02*
X150454919Y-123374568D01*
X150454919Y-123374568D02*
X150502538Y-123231711D01*
X150788252Y-122374568D02*
X151454919Y-122374568D01*
X150407300Y-122612663D02*
X151121585Y-122850758D01*
X151121585Y-122850758D02*
X151121585Y-122231711D01*
X150550157Y-121898377D02*
X150502538Y-121850758D01*
X150502538Y-121850758D02*
X150454919Y-121755520D01*
X150454919Y-121755520D02*
X150454919Y-121517425D01*
X150454919Y-121517425D02*
X150502538Y-121422187D01*
X150502538Y-121422187D02*
X150550157Y-121374568D01*
X150550157Y-121374568D02*
X150645395Y-121326949D01*
X150645395Y-121326949D02*
X150740633Y-121326949D01*
X150740633Y-121326949D02*
X150883490Y-121374568D01*
X150883490Y-121374568D02*
X151454919Y-121945996D01*
X151454919Y-121945996D02*
X151454919Y-121326949D01*
X150454919Y-120707901D02*
X150454919Y-120612663D01*
X150454919Y-120612663D02*
X150502538Y-120517425D01*
X150502538Y-120517425D02*
X150550157Y-120469806D01*
X150550157Y-120469806D02*
X150645395Y-120422187D01*
X150645395Y-120422187D02*
X150835871Y-120374568D01*
X150835871Y-120374568D02*
X151073966Y-120374568D01*
X151073966Y-120374568D02*
X151264442Y-120422187D01*
X151264442Y-120422187D02*
X151359680Y-120469806D01*
X151359680Y-120469806D02*
X151407300Y-120517425D01*
X151407300Y-120517425D02*
X151454919Y-120612663D01*
X151454919Y-120612663D02*
X151454919Y-120707901D01*
X151454919Y-120707901D02*
X151407300Y-120803139D01*
X151407300Y-120803139D02*
X151359680Y-120850758D01*
X151359680Y-120850758D02*
X151264442Y-120898377D01*
X151264442Y-120898377D02*
X151073966Y-120945996D01*
X151073966Y-120945996D02*
X150835871Y-120945996D01*
X150835871Y-120945996D02*
X150645395Y-120898377D01*
X150645395Y-120898377D02*
X150550157Y-120850758D01*
X150550157Y-120850758D02*
X150502538Y-120803139D01*
X150502538Y-120803139D02*
X150454919Y-120707901D01*
X150454919Y-119755520D02*
X150454919Y-119660282D01*
X150454919Y-119660282D02*
X150502538Y-119565044D01*
X150502538Y-119565044D02*
X150550157Y-119517425D01*
X150550157Y-119517425D02*
X150645395Y-119469806D01*
X150645395Y-119469806D02*
X150835871Y-119422187D01*
X150835871Y-119422187D02*
X151073966Y-119422187D01*
X151073966Y-119422187D02*
X151264442Y-119469806D01*
X151264442Y-119469806D02*
X151359680Y-119517425D01*
X151359680Y-119517425D02*
X151407300Y-119565044D01*
X151407300Y-119565044D02*
X151454919Y-119660282D01*
X151454919Y-119660282D02*
X151454919Y-119755520D01*
X151454919Y-119755520D02*
X151407300Y-119850758D01*
X151407300Y-119850758D02*
X151359680Y-119898377D01*
X151359680Y-119898377D02*
X151264442Y-119945996D01*
X151264442Y-119945996D02*
X151073966Y-119993615D01*
X151073966Y-119993615D02*
X150835871Y-119993615D01*
X150835871Y-119993615D02*
X150645395Y-119945996D01*
X150645395Y-119945996D02*
X150550157Y-119898377D01*
X150550157Y-119898377D02*
X150502538Y-119850758D01*
X150502538Y-119850758D02*
X150454919Y-119755520D01*
X151862419Y-115746115D02*
X150862419Y-115746115D01*
X150862419Y-115412782D02*
X150862419Y-114841354D01*
X151862419Y-115127068D02*
X150862419Y-115127068D01*
X151814800Y-114555639D02*
X151862419Y-114412782D01*
X151862419Y-114412782D02*
X151862419Y-114174687D01*
X151862419Y-114174687D02*
X151814800Y-114079449D01*
X151814800Y-114079449D02*
X151767180Y-114031830D01*
X151767180Y-114031830D02*
X151671942Y-113984211D01*
X151671942Y-113984211D02*
X151576704Y-113984211D01*
X151576704Y-113984211D02*
X151481466Y-114031830D01*
X151481466Y-114031830D02*
X151433847Y-114079449D01*
X151433847Y-114079449D02*
X151386228Y-114174687D01*
X151386228Y-114174687D02*
X151338609Y-114365163D01*
X151338609Y-114365163D02*
X151290990Y-114460401D01*
X151290990Y-114460401D02*
X151243371Y-114508020D01*
X151243371Y-114508020D02*
X151148133Y-114555639D01*
X151148133Y-114555639D02*
X151052895Y-114555639D01*
X151052895Y-114555639D02*
X150957657Y-114508020D01*
X150957657Y-114508020D02*
X150910038Y-114460401D01*
X150910038Y-114460401D02*
X150862419Y-114365163D01*
X150862419Y-114365163D02*
X150862419Y-114127068D01*
X150862419Y-114127068D02*
X150910038Y-113984211D01*
X151195752Y-113127068D02*
X151862419Y-113127068D01*
X150814800Y-113365163D02*
X151529085Y-113603258D01*
X151529085Y-113603258D02*
X151529085Y-112984211D01*
X150957657Y-112650877D02*
X150910038Y-112603258D01*
X150910038Y-112603258D02*
X150862419Y-112508020D01*
X150862419Y-112508020D02*
X150862419Y-112269925D01*
X150862419Y-112269925D02*
X150910038Y-112174687D01*
X150910038Y-112174687D02*
X150957657Y-112127068D01*
X150957657Y-112127068D02*
X151052895Y-112079449D01*
X151052895Y-112079449D02*
X151148133Y-112079449D01*
X151148133Y-112079449D02*
X151290990Y-112127068D01*
X151290990Y-112127068D02*
X151862419Y-112698496D01*
X151862419Y-112698496D02*
X151862419Y-112079449D01*
X150862419Y-111460401D02*
X150862419Y-111365163D01*
X150862419Y-111365163D02*
X150910038Y-111269925D01*
X150910038Y-111269925D02*
X150957657Y-111222306D01*
X150957657Y-111222306D02*
X151052895Y-111174687D01*
X151052895Y-111174687D02*
X151243371Y-111127068D01*
X151243371Y-111127068D02*
X151481466Y-111127068D01*
X151481466Y-111127068D02*
X151671942Y-111174687D01*
X151671942Y-111174687D02*
X151767180Y-111222306D01*
X151767180Y-111222306D02*
X151814800Y-111269925D01*
X151814800Y-111269925D02*
X151862419Y-111365163D01*
X151862419Y-111365163D02*
X151862419Y-111460401D01*
X151862419Y-111460401D02*
X151814800Y-111555639D01*
X151814800Y-111555639D02*
X151767180Y-111603258D01*
X151767180Y-111603258D02*
X151671942Y-111650877D01*
X151671942Y-111650877D02*
X151481466Y-111698496D01*
X151481466Y-111698496D02*
X151243371Y-111698496D01*
X151243371Y-111698496D02*
X151052895Y-111650877D01*
X151052895Y-111650877D02*
X150957657Y-111603258D01*
X150957657Y-111603258D02*
X150910038Y-111555639D01*
X150910038Y-111555639D02*
X150862419Y-111460401D01*
X150862419Y-110508020D02*
X150862419Y-110412782D01*
X150862419Y-110412782D02*
X150910038Y-110317544D01*
X150910038Y-110317544D02*
X150957657Y-110269925D01*
X150957657Y-110269925D02*
X151052895Y-110222306D01*
X151052895Y-110222306D02*
X151243371Y-110174687D01*
X151243371Y-110174687D02*
X151481466Y-110174687D01*
X151481466Y-110174687D02*
X151671942Y-110222306D01*
X151671942Y-110222306D02*
X151767180Y-110269925D01*
X151767180Y-110269925D02*
X151814800Y-110317544D01*
X151814800Y-110317544D02*
X151862419Y-110412782D01*
X151862419Y-110412782D02*
X151862419Y-110508020D01*
X151862419Y-110508020D02*
X151814800Y-110603258D01*
X151814800Y-110603258D02*
X151767180Y-110650877D01*
X151767180Y-110650877D02*
X151671942Y-110698496D01*
X151671942Y-110698496D02*
X151481466Y-110746115D01*
X151481466Y-110746115D02*
X151243371Y-110746115D01*
X151243371Y-110746115D02*
X151052895Y-110698496D01*
X151052895Y-110698496D02*
X150957657Y-110650877D01*
X150957657Y-110650877D02*
X150910038Y-110603258D01*
X150910038Y-110603258D02*
X150862419Y-110508020D01*
X151872419Y-105993615D02*
X150872419Y-105993615D01*
X150872419Y-105660282D02*
X150872419Y-105088854D01*
X151872419Y-105374568D02*
X150872419Y-105374568D01*
X151824800Y-104803139D02*
X151872419Y-104660282D01*
X151872419Y-104660282D02*
X151872419Y-104422187D01*
X151872419Y-104422187D02*
X151824800Y-104326949D01*
X151824800Y-104326949D02*
X151777180Y-104279330D01*
X151777180Y-104279330D02*
X151681942Y-104231711D01*
X151681942Y-104231711D02*
X151586704Y-104231711D01*
X151586704Y-104231711D02*
X151491466Y-104279330D01*
X151491466Y-104279330D02*
X151443847Y-104326949D01*
X151443847Y-104326949D02*
X151396228Y-104422187D01*
X151396228Y-104422187D02*
X151348609Y-104612663D01*
X151348609Y-104612663D02*
X151300990Y-104707901D01*
X151300990Y-104707901D02*
X151253371Y-104755520D01*
X151253371Y-104755520D02*
X151158133Y-104803139D01*
X151158133Y-104803139D02*
X151062895Y-104803139D01*
X151062895Y-104803139D02*
X150967657Y-104755520D01*
X150967657Y-104755520D02*
X150920038Y-104707901D01*
X150920038Y-104707901D02*
X150872419Y-104612663D01*
X150872419Y-104612663D02*
X150872419Y-104374568D01*
X150872419Y-104374568D02*
X150920038Y-104231711D01*
X151205752Y-103374568D02*
X151872419Y-103374568D01*
X150824800Y-103612663D02*
X151539085Y-103850758D01*
X151539085Y-103850758D02*
X151539085Y-103231711D01*
X150967657Y-102898377D02*
X150920038Y-102850758D01*
X150920038Y-102850758D02*
X150872419Y-102755520D01*
X150872419Y-102755520D02*
X150872419Y-102517425D01*
X150872419Y-102517425D02*
X150920038Y-102422187D01*
X150920038Y-102422187D02*
X150967657Y-102374568D01*
X150967657Y-102374568D02*
X151062895Y-102326949D01*
X151062895Y-102326949D02*
X151158133Y-102326949D01*
X151158133Y-102326949D02*
X151300990Y-102374568D01*
X151300990Y-102374568D02*
X151872419Y-102945996D01*
X151872419Y-102945996D02*
X151872419Y-102326949D01*
X150872419Y-101707901D02*
X150872419Y-101612663D01*
X150872419Y-101612663D02*
X150920038Y-101517425D01*
X150920038Y-101517425D02*
X150967657Y-101469806D01*
X150967657Y-101469806D02*
X151062895Y-101422187D01*
X151062895Y-101422187D02*
X151253371Y-101374568D01*
X151253371Y-101374568D02*
X151491466Y-101374568D01*
X151491466Y-101374568D02*
X151681942Y-101422187D01*
X151681942Y-101422187D02*
X151777180Y-101469806D01*
X151777180Y-101469806D02*
X151824800Y-101517425D01*
X151824800Y-101517425D02*
X151872419Y-101612663D01*
X151872419Y-101612663D02*
X151872419Y-101707901D01*
X151872419Y-101707901D02*
X151824800Y-101803139D01*
X151824800Y-101803139D02*
X151777180Y-101850758D01*
X151777180Y-101850758D02*
X151681942Y-101898377D01*
X151681942Y-101898377D02*
X151491466Y-101945996D01*
X151491466Y-101945996D02*
X151253371Y-101945996D01*
X151253371Y-101945996D02*
X151062895Y-101898377D01*
X151062895Y-101898377D02*
X150967657Y-101850758D01*
X150967657Y-101850758D02*
X150920038Y-101803139D01*
X150920038Y-101803139D02*
X150872419Y-101707901D01*
X150872419Y-100755520D02*
X150872419Y-100660282D01*
X150872419Y-100660282D02*
X150920038Y-100565044D01*
X150920038Y-100565044D02*
X150967657Y-100517425D01*
X150967657Y-100517425D02*
X151062895Y-100469806D01*
X151062895Y-100469806D02*
X151253371Y-100422187D01*
X151253371Y-100422187D02*
X151491466Y-100422187D01*
X151491466Y-100422187D02*
X151681942Y-100469806D01*
X151681942Y-100469806D02*
X151777180Y-100517425D01*
X151777180Y-100517425D02*
X151824800Y-100565044D01*
X151824800Y-100565044D02*
X151872419Y-100660282D01*
X151872419Y-100660282D02*
X151872419Y-100755520D01*
X151872419Y-100755520D02*
X151824800Y-100850758D01*
X151824800Y-100850758D02*
X151777180Y-100898377D01*
X151777180Y-100898377D02*
X151681942Y-100945996D01*
X151681942Y-100945996D02*
X151491466Y-100993615D01*
X151491466Y-100993615D02*
X151253371Y-100993615D01*
X151253371Y-100993615D02*
X151062895Y-100945996D01*
X151062895Y-100945996D02*
X150967657Y-100898377D01*
X150967657Y-100898377D02*
X150920038Y-100850758D01*
X150920038Y-100850758D02*
X150872419Y-100755520D01*
X151917419Y-86881115D02*
X150917419Y-86881115D01*
X150917419Y-86547782D02*
X150917419Y-85976354D01*
X151917419Y-86262068D02*
X150917419Y-86262068D01*
X151869800Y-85690639D02*
X151917419Y-85547782D01*
X151917419Y-85547782D02*
X151917419Y-85309687D01*
X151917419Y-85309687D02*
X151869800Y-85214449D01*
X151869800Y-85214449D02*
X151822180Y-85166830D01*
X151822180Y-85166830D02*
X151726942Y-85119211D01*
X151726942Y-85119211D02*
X151631704Y-85119211D01*
X151631704Y-85119211D02*
X151536466Y-85166830D01*
X151536466Y-85166830D02*
X151488847Y-85214449D01*
X151488847Y-85214449D02*
X151441228Y-85309687D01*
X151441228Y-85309687D02*
X151393609Y-85500163D01*
X151393609Y-85500163D02*
X151345990Y-85595401D01*
X151345990Y-85595401D02*
X151298371Y-85643020D01*
X151298371Y-85643020D02*
X151203133Y-85690639D01*
X151203133Y-85690639D02*
X151107895Y-85690639D01*
X151107895Y-85690639D02*
X151012657Y-85643020D01*
X151012657Y-85643020D02*
X150965038Y-85595401D01*
X150965038Y-85595401D02*
X150917419Y-85500163D01*
X150917419Y-85500163D02*
X150917419Y-85262068D01*
X150917419Y-85262068D02*
X150965038Y-85119211D01*
X151250752Y-84262068D02*
X151917419Y-84262068D01*
X150869800Y-84500163D02*
X151584085Y-84738258D01*
X151584085Y-84738258D02*
X151584085Y-84119211D01*
X151012657Y-83785877D02*
X150965038Y-83738258D01*
X150965038Y-83738258D02*
X150917419Y-83643020D01*
X150917419Y-83643020D02*
X150917419Y-83404925D01*
X150917419Y-83404925D02*
X150965038Y-83309687D01*
X150965038Y-83309687D02*
X151012657Y-83262068D01*
X151012657Y-83262068D02*
X151107895Y-83214449D01*
X151107895Y-83214449D02*
X151203133Y-83214449D01*
X151203133Y-83214449D02*
X151345990Y-83262068D01*
X151345990Y-83262068D02*
X151917419Y-83833496D01*
X151917419Y-83833496D02*
X151917419Y-83214449D01*
X150917419Y-82595401D02*
X150917419Y-82500163D01*
X150917419Y-82500163D02*
X150965038Y-82404925D01*
X150965038Y-82404925D02*
X151012657Y-82357306D01*
X151012657Y-82357306D02*
X151107895Y-82309687D01*
X151107895Y-82309687D02*
X151298371Y-82262068D01*
X151298371Y-82262068D02*
X151536466Y-82262068D01*
X151536466Y-82262068D02*
X151726942Y-82309687D01*
X151726942Y-82309687D02*
X151822180Y-82357306D01*
X151822180Y-82357306D02*
X151869800Y-82404925D01*
X151869800Y-82404925D02*
X151917419Y-82500163D01*
X151917419Y-82500163D02*
X151917419Y-82595401D01*
X151917419Y-82595401D02*
X151869800Y-82690639D01*
X151869800Y-82690639D02*
X151822180Y-82738258D01*
X151822180Y-82738258D02*
X151726942Y-82785877D01*
X151726942Y-82785877D02*
X151536466Y-82833496D01*
X151536466Y-82833496D02*
X151298371Y-82833496D01*
X151298371Y-82833496D02*
X151107895Y-82785877D01*
X151107895Y-82785877D02*
X151012657Y-82738258D01*
X151012657Y-82738258D02*
X150965038Y-82690639D01*
X150965038Y-82690639D02*
X150917419Y-82595401D01*
X150917419Y-81643020D02*
X150917419Y-81547782D01*
X150917419Y-81547782D02*
X150965038Y-81452544D01*
X150965038Y-81452544D02*
X151012657Y-81404925D01*
X151012657Y-81404925D02*
X151107895Y-81357306D01*
X151107895Y-81357306D02*
X151298371Y-81309687D01*
X151298371Y-81309687D02*
X151536466Y-81309687D01*
X151536466Y-81309687D02*
X151726942Y-81357306D01*
X151726942Y-81357306D02*
X151822180Y-81404925D01*
X151822180Y-81404925D02*
X151869800Y-81452544D01*
X151869800Y-81452544D02*
X151917419Y-81547782D01*
X151917419Y-81547782D02*
X151917419Y-81643020D01*
X151917419Y-81643020D02*
X151869800Y-81738258D01*
X151869800Y-81738258D02*
X151822180Y-81785877D01*
X151822180Y-81785877D02*
X151726942Y-81833496D01*
X151726942Y-81833496D02*
X151536466Y-81881115D01*
X151536466Y-81881115D02*
X151298371Y-81881115D01*
X151298371Y-81881115D02*
X151107895Y-81833496D01*
X151107895Y-81833496D02*
X151012657Y-81785877D01*
X151012657Y-81785877D02*
X150965038Y-81738258D01*
X150965038Y-81738258D02*
X150917419Y-81643020D01*
X151954919Y-96493615D02*
X150954919Y-96493615D01*
X150954919Y-96160282D02*
X150954919Y-95588854D01*
X151954919Y-95874568D02*
X150954919Y-95874568D01*
X151907300Y-95303139D02*
X151954919Y-95160282D01*
X151954919Y-95160282D02*
X151954919Y-94922187D01*
X151954919Y-94922187D02*
X151907300Y-94826949D01*
X151907300Y-94826949D02*
X151859680Y-94779330D01*
X151859680Y-94779330D02*
X151764442Y-94731711D01*
X151764442Y-94731711D02*
X151669204Y-94731711D01*
X151669204Y-94731711D02*
X151573966Y-94779330D01*
X151573966Y-94779330D02*
X151526347Y-94826949D01*
X151526347Y-94826949D02*
X151478728Y-94922187D01*
X151478728Y-94922187D02*
X151431109Y-95112663D01*
X151431109Y-95112663D02*
X151383490Y-95207901D01*
X151383490Y-95207901D02*
X151335871Y-95255520D01*
X151335871Y-95255520D02*
X151240633Y-95303139D01*
X151240633Y-95303139D02*
X151145395Y-95303139D01*
X151145395Y-95303139D02*
X151050157Y-95255520D01*
X151050157Y-95255520D02*
X151002538Y-95207901D01*
X151002538Y-95207901D02*
X150954919Y-95112663D01*
X150954919Y-95112663D02*
X150954919Y-94874568D01*
X150954919Y-94874568D02*
X151002538Y-94731711D01*
X151288252Y-93874568D02*
X151954919Y-93874568D01*
X150907300Y-94112663D02*
X151621585Y-94350758D01*
X151621585Y-94350758D02*
X151621585Y-93731711D01*
X151050157Y-93398377D02*
X151002538Y-93350758D01*
X151002538Y-93350758D02*
X150954919Y-93255520D01*
X150954919Y-93255520D02*
X150954919Y-93017425D01*
X150954919Y-93017425D02*
X151002538Y-92922187D01*
X151002538Y-92922187D02*
X151050157Y-92874568D01*
X151050157Y-92874568D02*
X151145395Y-92826949D01*
X151145395Y-92826949D02*
X151240633Y-92826949D01*
X151240633Y-92826949D02*
X151383490Y-92874568D01*
X151383490Y-92874568D02*
X151954919Y-93445996D01*
X151954919Y-93445996D02*
X151954919Y-92826949D01*
X150954919Y-92207901D02*
X150954919Y-92112663D01*
X150954919Y-92112663D02*
X151002538Y-92017425D01*
X151002538Y-92017425D02*
X151050157Y-91969806D01*
X151050157Y-91969806D02*
X151145395Y-91922187D01*
X151145395Y-91922187D02*
X151335871Y-91874568D01*
X151335871Y-91874568D02*
X151573966Y-91874568D01*
X151573966Y-91874568D02*
X151764442Y-91922187D01*
X151764442Y-91922187D02*
X151859680Y-91969806D01*
X151859680Y-91969806D02*
X151907300Y-92017425D01*
X151907300Y-92017425D02*
X151954919Y-92112663D01*
X151954919Y-92112663D02*
X151954919Y-92207901D01*
X151954919Y-92207901D02*
X151907300Y-92303139D01*
X151907300Y-92303139D02*
X151859680Y-92350758D01*
X151859680Y-92350758D02*
X151764442Y-92398377D01*
X151764442Y-92398377D02*
X151573966Y-92445996D01*
X151573966Y-92445996D02*
X151335871Y-92445996D01*
X151335871Y-92445996D02*
X151145395Y-92398377D01*
X151145395Y-92398377D02*
X151050157Y-92350758D01*
X151050157Y-92350758D02*
X151002538Y-92303139D01*
X151002538Y-92303139D02*
X150954919Y-92207901D01*
X150954919Y-91255520D02*
X150954919Y-91160282D01*
X150954919Y-91160282D02*
X151002538Y-91065044D01*
X151002538Y-91065044D02*
X151050157Y-91017425D01*
X151050157Y-91017425D02*
X151145395Y-90969806D01*
X151145395Y-90969806D02*
X151335871Y-90922187D01*
X151335871Y-90922187D02*
X151573966Y-90922187D01*
X151573966Y-90922187D02*
X151764442Y-90969806D01*
X151764442Y-90969806D02*
X151859680Y-91017425D01*
X151859680Y-91017425D02*
X151907300Y-91065044D01*
X151907300Y-91065044D02*
X151954919Y-91160282D01*
X151954919Y-91160282D02*
X151954919Y-91255520D01*
X151954919Y-91255520D02*
X151907300Y-91350758D01*
X151907300Y-91350758D02*
X151859680Y-91398377D01*
X151859680Y-91398377D02*
X151764442Y-91445996D01*
X151764442Y-91445996D02*
X151573966Y-91493615D01*
X151573966Y-91493615D02*
X151335871Y-91493615D01*
X151335871Y-91493615D02*
X151145395Y-91445996D01*
X151145395Y-91445996D02*
X151050157Y-91398377D01*
X151050157Y-91398377D02*
X151002538Y-91350758D01*
X151002538Y-91350758D02*
X150954919Y-91255520D01*
D11*
X88170112Y-136308628D02*
X87455826Y-136308628D01*
X87455826Y-136308628D02*
X87455826Y-134808628D01*
X88884398Y-136308628D02*
X88741541Y-136237200D01*
X88741541Y-136237200D02*
X88670112Y-136165771D01*
X88670112Y-136165771D02*
X88598684Y-136022914D01*
X88598684Y-136022914D02*
X88598684Y-135594342D01*
X88598684Y-135594342D02*
X88670112Y-135451485D01*
X88670112Y-135451485D02*
X88741541Y-135380057D01*
X88741541Y-135380057D02*
X88884398Y-135308628D01*
X88884398Y-135308628D02*
X89098684Y-135308628D01*
X89098684Y-135308628D02*
X89241541Y-135380057D01*
X89241541Y-135380057D02*
X89312970Y-135451485D01*
X89312970Y-135451485D02*
X89384398Y-135594342D01*
X89384398Y-135594342D02*
X89384398Y-136022914D01*
X89384398Y-136022914D02*
X89312970Y-136165771D01*
X89312970Y-136165771D02*
X89241541Y-136237200D01*
X89241541Y-136237200D02*
X89098684Y-136308628D01*
X89098684Y-136308628D02*
X88884398Y-136308628D01*
X90884398Y-136308628D02*
X90384398Y-135594342D01*
X90027255Y-136308628D02*
X90027255Y-134808628D01*
X90027255Y-134808628D02*
X90598684Y-134808628D01*
X90598684Y-134808628D02*
X90741541Y-134880057D01*
X90741541Y-134880057D02*
X90812970Y-134951485D01*
X90812970Y-134951485D02*
X90884398Y-135094342D01*
X90884398Y-135094342D02*
X90884398Y-135308628D01*
X90884398Y-135308628D02*
X90812970Y-135451485D01*
X90812970Y-135451485D02*
X90741541Y-135522914D01*
X90741541Y-135522914D02*
X90598684Y-135594342D01*
X90598684Y-135594342D02*
X90027255Y-135594342D01*
X92170113Y-136308628D02*
X92170113Y-135522914D01*
X92170113Y-135522914D02*
X92098684Y-135380057D01*
X92098684Y-135380057D02*
X91955827Y-135308628D01*
X91955827Y-135308628D02*
X91670113Y-135308628D01*
X91670113Y-135308628D02*
X91527255Y-135380057D01*
X92170113Y-136237200D02*
X92027255Y-136308628D01*
X92027255Y-136308628D02*
X91670113Y-136308628D01*
X91670113Y-136308628D02*
X91527255Y-136237200D01*
X91527255Y-136237200D02*
X91455827Y-136094342D01*
X91455827Y-136094342D02*
X91455827Y-135951485D01*
X91455827Y-135951485D02*
X91527255Y-135808628D01*
X91527255Y-135808628D02*
X91670113Y-135737200D01*
X91670113Y-135737200D02*
X92027255Y-135737200D01*
X92027255Y-135737200D02*
X92170113Y-135665771D01*
X94884398Y-136308628D02*
X94384398Y-135594342D01*
X94027255Y-136308628D02*
X94027255Y-134808628D01*
X94027255Y-134808628D02*
X94598684Y-134808628D01*
X94598684Y-134808628D02*
X94741541Y-134880057D01*
X94741541Y-134880057D02*
X94812970Y-134951485D01*
X94812970Y-134951485D02*
X94884398Y-135094342D01*
X94884398Y-135094342D02*
X94884398Y-135308628D01*
X94884398Y-135308628D02*
X94812970Y-135451485D01*
X94812970Y-135451485D02*
X94741541Y-135522914D01*
X94741541Y-135522914D02*
X94598684Y-135594342D01*
X94598684Y-135594342D02*
X94027255Y-135594342D01*
X96098684Y-136237200D02*
X95955827Y-136308628D01*
X95955827Y-136308628D02*
X95670113Y-136308628D01*
X95670113Y-136308628D02*
X95527255Y-136237200D01*
X95527255Y-136237200D02*
X95455827Y-136094342D01*
X95455827Y-136094342D02*
X95455827Y-135522914D01*
X95455827Y-135522914D02*
X95527255Y-135380057D01*
X95527255Y-135380057D02*
X95670113Y-135308628D01*
X95670113Y-135308628D02*
X95955827Y-135308628D01*
X95955827Y-135308628D02*
X96098684Y-135380057D01*
X96098684Y-135380057D02*
X96170113Y-135522914D01*
X96170113Y-135522914D02*
X96170113Y-135665771D01*
X96170113Y-135665771D02*
X95455827Y-135808628D01*
X97027255Y-136308628D02*
X96884398Y-136237200D01*
X96884398Y-136237200D02*
X96812969Y-136094342D01*
X96812969Y-136094342D02*
X96812969Y-134808628D01*
X98241541Y-136308628D02*
X98241541Y-135522914D01*
X98241541Y-135522914D02*
X98170112Y-135380057D01*
X98170112Y-135380057D02*
X98027255Y-135308628D01*
X98027255Y-135308628D02*
X97741541Y-135308628D01*
X97741541Y-135308628D02*
X97598683Y-135380057D01*
X98241541Y-136237200D02*
X98098683Y-136308628D01*
X98098683Y-136308628D02*
X97741541Y-136308628D01*
X97741541Y-136308628D02*
X97598683Y-136237200D01*
X97598683Y-136237200D02*
X97527255Y-136094342D01*
X97527255Y-136094342D02*
X97527255Y-135951485D01*
X97527255Y-135951485D02*
X97598683Y-135808628D01*
X97598683Y-135808628D02*
X97741541Y-135737200D01*
X97741541Y-135737200D02*
X98098683Y-135737200D01*
X98098683Y-135737200D02*
X98241541Y-135665771D01*
X98812969Y-135308628D02*
X99170112Y-136308628D01*
X99527255Y-135308628D02*
X99170112Y-136308628D01*
X99170112Y-136308628D02*
X99027255Y-136665771D01*
X99027255Y-136665771D02*
X98955826Y-136737200D01*
X98955826Y-136737200D02*
X98812969Y-136808628D01*
X101170112Y-135880057D02*
X101884398Y-135880057D01*
X101027255Y-136308628D02*
X101527255Y-134808628D01*
X101527255Y-134808628D02*
X102027255Y-136308628D01*
X103170112Y-136237200D02*
X103027254Y-136308628D01*
X103027254Y-136308628D02*
X102741540Y-136308628D01*
X102741540Y-136308628D02*
X102598683Y-136237200D01*
X102598683Y-136237200D02*
X102527254Y-136165771D01*
X102527254Y-136165771D02*
X102455826Y-136022914D01*
X102455826Y-136022914D02*
X102455826Y-135594342D01*
X102455826Y-135594342D02*
X102527254Y-135451485D01*
X102527254Y-135451485D02*
X102598683Y-135380057D01*
X102598683Y-135380057D02*
X102741540Y-135308628D01*
X102741540Y-135308628D02*
X103027254Y-135308628D01*
X103027254Y-135308628D02*
X103170112Y-135380057D01*
X103598683Y-135308628D02*
X104170111Y-135308628D01*
X103812968Y-134808628D02*
X103812968Y-136094342D01*
X103812968Y-136094342D02*
X103884397Y-136237200D01*
X103884397Y-136237200D02*
X104027254Y-136308628D01*
X104027254Y-136308628D02*
X104170111Y-136308628D01*
X105312969Y-135308628D02*
X105312969Y-136308628D01*
X104670111Y-135308628D02*
X104670111Y-136094342D01*
X104670111Y-136094342D02*
X104741540Y-136237200D01*
X104741540Y-136237200D02*
X104884397Y-136308628D01*
X104884397Y-136308628D02*
X105098683Y-136308628D01*
X105098683Y-136308628D02*
X105241540Y-136237200D01*
X105241540Y-136237200D02*
X105312969Y-136165771D01*
X106670112Y-136308628D02*
X106670112Y-135522914D01*
X106670112Y-135522914D02*
X106598683Y-135380057D01*
X106598683Y-135380057D02*
X106455826Y-135308628D01*
X106455826Y-135308628D02*
X106170112Y-135308628D01*
X106170112Y-135308628D02*
X106027254Y-135380057D01*
X106670112Y-136237200D02*
X106527254Y-136308628D01*
X106527254Y-136308628D02*
X106170112Y-136308628D01*
X106170112Y-136308628D02*
X106027254Y-136237200D01*
X106027254Y-136237200D02*
X105955826Y-136094342D01*
X105955826Y-136094342D02*
X105955826Y-135951485D01*
X105955826Y-135951485D02*
X106027254Y-135808628D01*
X106027254Y-135808628D02*
X106170112Y-135737200D01*
X106170112Y-135737200D02*
X106527254Y-135737200D01*
X106527254Y-135737200D02*
X106670112Y-135665771D01*
X107170112Y-135308628D02*
X107741540Y-135308628D01*
X107384397Y-134808628D02*
X107384397Y-136094342D01*
X107384397Y-136094342D02*
X107455826Y-136237200D01*
X107455826Y-136237200D02*
X107598683Y-136308628D01*
X107598683Y-136308628D02*
X107741540Y-136308628D01*
X108455826Y-136308628D02*
X108312969Y-136237200D01*
X108312969Y-136237200D02*
X108241540Y-136165771D01*
X108241540Y-136165771D02*
X108170112Y-136022914D01*
X108170112Y-136022914D02*
X108170112Y-135594342D01*
X108170112Y-135594342D02*
X108241540Y-135451485D01*
X108241540Y-135451485D02*
X108312969Y-135380057D01*
X108312969Y-135380057D02*
X108455826Y-135308628D01*
X108455826Y-135308628D02*
X108670112Y-135308628D01*
X108670112Y-135308628D02*
X108812969Y-135380057D01*
X108812969Y-135380057D02*
X108884398Y-135451485D01*
X108884398Y-135451485D02*
X108955826Y-135594342D01*
X108955826Y-135594342D02*
X108955826Y-136022914D01*
X108955826Y-136022914D02*
X108884398Y-136165771D01*
X108884398Y-136165771D02*
X108812969Y-136237200D01*
X108812969Y-136237200D02*
X108670112Y-136308628D01*
X108670112Y-136308628D02*
X108455826Y-136308628D01*
X109598683Y-136308628D02*
X109598683Y-135308628D01*
X109598683Y-135594342D02*
X109670112Y-135451485D01*
X109670112Y-135451485D02*
X109741541Y-135380057D01*
X109741541Y-135380057D02*
X109884398Y-135308628D01*
X109884398Y-135308628D02*
X110027255Y-135308628D01*
X111455826Y-134808628D02*
X111955826Y-136308628D01*
X111955826Y-136308628D02*
X112455826Y-134808628D01*
X114884397Y-136308628D02*
X114027254Y-136308628D01*
X114455825Y-136308628D02*
X114455825Y-134808628D01*
X114455825Y-134808628D02*
X114312968Y-135022914D01*
X114312968Y-135022914D02*
X114170111Y-135165771D01*
X114170111Y-135165771D02*
X114027254Y-135237200D01*
X115527253Y-136165771D02*
X115598682Y-136237200D01*
X115598682Y-136237200D02*
X115527253Y-136308628D01*
X115527253Y-136308628D02*
X115455825Y-136237200D01*
X115455825Y-136237200D02*
X115527253Y-136165771D01*
X115527253Y-136165771D02*
X115527253Y-136308628D01*
X116527254Y-134808628D02*
X116670111Y-134808628D01*
X116670111Y-134808628D02*
X116812968Y-134880057D01*
X116812968Y-134880057D02*
X116884397Y-134951485D01*
X116884397Y-134951485D02*
X116955825Y-135094342D01*
X116955825Y-135094342D02*
X117027254Y-135380057D01*
X117027254Y-135380057D02*
X117027254Y-135737200D01*
X117027254Y-135737200D02*
X116955825Y-136022914D01*
X116955825Y-136022914D02*
X116884397Y-136165771D01*
X116884397Y-136165771D02*
X116812968Y-136237200D01*
X116812968Y-136237200D02*
X116670111Y-136308628D01*
X116670111Y-136308628D02*
X116527254Y-136308628D01*
X116527254Y-136308628D02*
X116384397Y-136237200D01*
X116384397Y-136237200D02*
X116312968Y-136165771D01*
X116312968Y-136165771D02*
X116241539Y-136022914D01*
X116241539Y-136022914D02*
X116170111Y-135737200D01*
X116170111Y-135737200D02*
X116170111Y-135380057D01*
X116170111Y-135380057D02*
X116241539Y-135094342D01*
X116241539Y-135094342D02*
X116312968Y-134951485D01*
X116312968Y-134951485D02*
X116384397Y-134880057D01*
X116384397Y-134880057D02*
X116527254Y-134808628D01*
X97884398Y-99050225D02*
X98598684Y-99050225D01*
X97741541Y-99478796D02*
X98241541Y-97978796D01*
X98241541Y-97978796D02*
X98741541Y-99478796D01*
X99884398Y-99478796D02*
X99884398Y-97978796D01*
X99884398Y-99407368D02*
X99741540Y-99478796D01*
X99741540Y-99478796D02*
X99455826Y-99478796D01*
X99455826Y-99478796D02*
X99312969Y-99407368D01*
X99312969Y-99407368D02*
X99241540Y-99335939D01*
X99241540Y-99335939D02*
X99170112Y-99193082D01*
X99170112Y-99193082D02*
X99170112Y-98764510D01*
X99170112Y-98764510D02*
X99241540Y-98621653D01*
X99241540Y-98621653D02*
X99312969Y-98550225D01*
X99312969Y-98550225D02*
X99455826Y-98478796D01*
X99455826Y-98478796D02*
X99741540Y-98478796D01*
X99741540Y-98478796D02*
X99884398Y-98550225D01*
X101241541Y-99478796D02*
X101241541Y-98693082D01*
X101241541Y-98693082D02*
X101170112Y-98550225D01*
X101170112Y-98550225D02*
X101027255Y-98478796D01*
X101027255Y-98478796D02*
X100741541Y-98478796D01*
X100741541Y-98478796D02*
X100598683Y-98550225D01*
X101241541Y-99407368D02*
X101098683Y-99478796D01*
X101098683Y-99478796D02*
X100741541Y-99478796D01*
X100741541Y-99478796D02*
X100598683Y-99407368D01*
X100598683Y-99407368D02*
X100527255Y-99264510D01*
X100527255Y-99264510D02*
X100527255Y-99121653D01*
X100527255Y-99121653D02*
X100598683Y-98978796D01*
X100598683Y-98978796D02*
X100741541Y-98907368D01*
X100741541Y-98907368D02*
X101098683Y-98907368D01*
X101098683Y-98907368D02*
X101241541Y-98835939D01*
X101741541Y-98478796D02*
X102312969Y-98478796D01*
X101955826Y-99478796D02*
X101955826Y-98193082D01*
X101955826Y-98193082D02*
X102027255Y-98050225D01*
X102027255Y-98050225D02*
X102170112Y-97978796D01*
X102170112Y-97978796D02*
X102312969Y-97978796D01*
X102812969Y-99478796D02*
X102812969Y-98478796D01*
X102812969Y-98764510D02*
X102884398Y-98621653D01*
X102884398Y-98621653D02*
X102955827Y-98550225D01*
X102955827Y-98550225D02*
X103098684Y-98478796D01*
X103098684Y-98478796D02*
X103241541Y-98478796D01*
X104384398Y-98478796D02*
X104384398Y-99478796D01*
X103741540Y-98478796D02*
X103741540Y-99264510D01*
X103741540Y-99264510D02*
X103812969Y-99407368D01*
X103812969Y-99407368D02*
X103955826Y-99478796D01*
X103955826Y-99478796D02*
X104170112Y-99478796D01*
X104170112Y-99478796D02*
X104312969Y-99407368D01*
X104312969Y-99407368D02*
X104384398Y-99335939D01*
X105098683Y-99478796D02*
X105098683Y-98478796D01*
X105098683Y-97978796D02*
X105027255Y-98050225D01*
X105027255Y-98050225D02*
X105098683Y-98121653D01*
X105098683Y-98121653D02*
X105170112Y-98050225D01*
X105170112Y-98050225D02*
X105098683Y-97978796D01*
X105098683Y-97978796D02*
X105098683Y-98121653D01*
X105598684Y-98478796D02*
X106170112Y-98478796D01*
X105812969Y-97978796D02*
X105812969Y-99264510D01*
X105812969Y-99264510D02*
X105884398Y-99407368D01*
X105884398Y-99407368D02*
X106027255Y-99478796D01*
X106027255Y-99478796D02*
X106170112Y-99478796D01*
X97884398Y-100893712D02*
X98955826Y-100893712D01*
X98312969Y-100250855D02*
X97884398Y-102179426D01*
X98812969Y-101536569D02*
X97741541Y-101536569D01*
X98384398Y-102179426D02*
X98812969Y-100250855D01*
X100098684Y-100393712D02*
X99812969Y-100393712D01*
X99812969Y-100393712D02*
X99670112Y-100465141D01*
X99670112Y-100465141D02*
X99598684Y-100536569D01*
X99598684Y-100536569D02*
X99455826Y-100750855D01*
X99455826Y-100750855D02*
X99384398Y-101036569D01*
X99384398Y-101036569D02*
X99384398Y-101607998D01*
X99384398Y-101607998D02*
X99455826Y-101750855D01*
X99455826Y-101750855D02*
X99527255Y-101822284D01*
X99527255Y-101822284D02*
X99670112Y-101893712D01*
X99670112Y-101893712D02*
X99955826Y-101893712D01*
X99955826Y-101893712D02*
X100098684Y-101822284D01*
X100098684Y-101822284D02*
X100170112Y-101750855D01*
X100170112Y-101750855D02*
X100241541Y-101607998D01*
X100241541Y-101607998D02*
X100241541Y-101250855D01*
X100241541Y-101250855D02*
X100170112Y-101107998D01*
X100170112Y-101107998D02*
X100098684Y-101036569D01*
X100098684Y-101036569D02*
X99955826Y-100965141D01*
X99955826Y-100965141D02*
X99670112Y-100965141D01*
X99670112Y-100965141D02*
X99527255Y-101036569D01*
X99527255Y-101036569D02*
X99455826Y-101107998D01*
X99455826Y-101107998D02*
X99384398Y-101250855D01*
X101170112Y-100393712D02*
X101312969Y-100393712D01*
X101312969Y-100393712D02*
X101455826Y-100465141D01*
X101455826Y-100465141D02*
X101527255Y-100536569D01*
X101527255Y-100536569D02*
X101598683Y-100679426D01*
X101598683Y-100679426D02*
X101670112Y-100965141D01*
X101670112Y-100965141D02*
X101670112Y-101322284D01*
X101670112Y-101322284D02*
X101598683Y-101607998D01*
X101598683Y-101607998D02*
X101527255Y-101750855D01*
X101527255Y-101750855D02*
X101455826Y-101822284D01*
X101455826Y-101822284D02*
X101312969Y-101893712D01*
X101312969Y-101893712D02*
X101170112Y-101893712D01*
X101170112Y-101893712D02*
X101027255Y-101822284D01*
X101027255Y-101822284D02*
X100955826Y-101750855D01*
X100955826Y-101750855D02*
X100884397Y-101607998D01*
X100884397Y-101607998D02*
X100812969Y-101322284D01*
X100812969Y-101322284D02*
X100812969Y-100965141D01*
X100812969Y-100965141D02*
X100884397Y-100679426D01*
X100884397Y-100679426D02*
X100955826Y-100536569D01*
X100955826Y-100536569D02*
X101027255Y-100465141D01*
X101027255Y-100465141D02*
X101170112Y-100393712D01*
X102955826Y-100393712D02*
X102670111Y-100393712D01*
X102670111Y-100393712D02*
X102527254Y-100465141D01*
X102527254Y-100465141D02*
X102455826Y-100536569D01*
X102455826Y-100536569D02*
X102312968Y-100750855D01*
X102312968Y-100750855D02*
X102241540Y-101036569D01*
X102241540Y-101036569D02*
X102241540Y-101607998D01*
X102241540Y-101607998D02*
X102312968Y-101750855D01*
X102312968Y-101750855D02*
X102384397Y-101822284D01*
X102384397Y-101822284D02*
X102527254Y-101893712D01*
X102527254Y-101893712D02*
X102812968Y-101893712D01*
X102812968Y-101893712D02*
X102955826Y-101822284D01*
X102955826Y-101822284D02*
X103027254Y-101750855D01*
X103027254Y-101750855D02*
X103098683Y-101607998D01*
X103098683Y-101607998D02*
X103098683Y-101250855D01*
X103098683Y-101250855D02*
X103027254Y-101107998D01*
X103027254Y-101107998D02*
X102955826Y-101036569D01*
X102955826Y-101036569D02*
X102812968Y-100965141D01*
X102812968Y-100965141D02*
X102527254Y-100965141D01*
X102527254Y-100965141D02*
X102384397Y-101036569D01*
X102384397Y-101036569D02*
X102312968Y-101107998D01*
X102312968Y-101107998D02*
X102241540Y-101250855D01*
X103670111Y-100536569D02*
X103741539Y-100465141D01*
X103741539Y-100465141D02*
X103884397Y-100393712D01*
X103884397Y-100393712D02*
X104241539Y-100393712D01*
X104241539Y-100393712D02*
X104384397Y-100465141D01*
X104384397Y-100465141D02*
X104455825Y-100536569D01*
X104455825Y-100536569D02*
X104527254Y-100679426D01*
X104527254Y-100679426D02*
X104527254Y-100822284D01*
X104527254Y-100822284D02*
X104455825Y-101036569D01*
X104455825Y-101036569D02*
X103598682Y-101893712D01*
X103598682Y-101893712D02*
X104527254Y-101893712D01*
X97955826Y-104308628D02*
X97955826Y-102808628D01*
X98670112Y-104308628D02*
X98670112Y-102808628D01*
X98670112Y-102808628D02*
X99527255Y-104308628D01*
X99527255Y-104308628D02*
X99527255Y-102808628D01*
X100170113Y-103880057D02*
X100884399Y-103880057D01*
X100027256Y-104308628D02*
X100527256Y-102808628D01*
X100527256Y-102808628D02*
X101027256Y-104308628D01*
X101384398Y-102808628D02*
X102312970Y-102808628D01*
X102312970Y-102808628D02*
X101812970Y-103380057D01*
X101812970Y-103380057D02*
X102027255Y-103380057D01*
X102027255Y-103380057D02*
X102170113Y-103451485D01*
X102170113Y-103451485D02*
X102241541Y-103522914D01*
X102241541Y-103522914D02*
X102312970Y-103665771D01*
X102312970Y-103665771D02*
X102312970Y-104022914D01*
X102312970Y-104022914D02*
X102241541Y-104165771D01*
X102241541Y-104165771D02*
X102170113Y-104237200D01*
X102170113Y-104237200D02*
X102027255Y-104308628D01*
X102027255Y-104308628D02*
X101598684Y-104308628D01*
X101598684Y-104308628D02*
X101455827Y-104237200D01*
X101455827Y-104237200D02*
X101384398Y-104165771D01*
X102884398Y-102951485D02*
X102955826Y-102880057D01*
X102955826Y-102880057D02*
X103098684Y-102808628D01*
X103098684Y-102808628D02*
X103455826Y-102808628D01*
X103455826Y-102808628D02*
X103598684Y-102880057D01*
X103598684Y-102880057D02*
X103670112Y-102951485D01*
X103670112Y-102951485D02*
X103741541Y-103094342D01*
X103741541Y-103094342D02*
X103741541Y-103237200D01*
X103741541Y-103237200D02*
X103670112Y-103451485D01*
X103670112Y-103451485D02*
X102812969Y-104308628D01*
X102812969Y-104308628D02*
X103741541Y-104308628D01*
X104312969Y-102951485D02*
X104384397Y-102880057D01*
X104384397Y-102880057D02*
X104527255Y-102808628D01*
X104527255Y-102808628D02*
X104884397Y-102808628D01*
X104884397Y-102808628D02*
X105027255Y-102880057D01*
X105027255Y-102880057D02*
X105098683Y-102951485D01*
X105098683Y-102951485D02*
X105170112Y-103094342D01*
X105170112Y-103094342D02*
X105170112Y-103237200D01*
X105170112Y-103237200D02*
X105098683Y-103451485D01*
X105098683Y-103451485D02*
X104241540Y-104308628D01*
X104241540Y-104308628D02*
X105170112Y-104308628D01*
X106598683Y-104308628D02*
X105741540Y-104308628D01*
X106170111Y-104308628D02*
X106170111Y-102808628D01*
X106170111Y-102808628D02*
X106027254Y-103022914D01*
X106027254Y-103022914D02*
X105884397Y-103165771D01*
X105884397Y-103165771D02*
X105741540Y-103237200D01*
X122428571Y-96805477D02*
X123142857Y-96805477D01*
X122285714Y-97234048D02*
X122785714Y-95734048D01*
X122785714Y-95734048D02*
X123285714Y-97234048D01*
X124428571Y-97234048D02*
X124428571Y-95734048D01*
X124428571Y-97162620D02*
X124285713Y-97234048D01*
X124285713Y-97234048D02*
X123999999Y-97234048D01*
X123999999Y-97234048D02*
X123857142Y-97162620D01*
X123857142Y-97162620D02*
X123785713Y-97091191D01*
X123785713Y-97091191D02*
X123714285Y-96948334D01*
X123714285Y-96948334D02*
X123714285Y-96519762D01*
X123714285Y-96519762D02*
X123785713Y-96376905D01*
X123785713Y-96376905D02*
X123857142Y-96305477D01*
X123857142Y-96305477D02*
X123999999Y-96234048D01*
X123999999Y-96234048D02*
X124285713Y-96234048D01*
X124285713Y-96234048D02*
X124428571Y-96305477D01*
X125785714Y-97234048D02*
X125785714Y-96448334D01*
X125785714Y-96448334D02*
X125714285Y-96305477D01*
X125714285Y-96305477D02*
X125571428Y-96234048D01*
X125571428Y-96234048D02*
X125285714Y-96234048D01*
X125285714Y-96234048D02*
X125142856Y-96305477D01*
X125785714Y-97162620D02*
X125642856Y-97234048D01*
X125642856Y-97234048D02*
X125285714Y-97234048D01*
X125285714Y-97234048D02*
X125142856Y-97162620D01*
X125142856Y-97162620D02*
X125071428Y-97019762D01*
X125071428Y-97019762D02*
X125071428Y-96876905D01*
X125071428Y-96876905D02*
X125142856Y-96734048D01*
X125142856Y-96734048D02*
X125285714Y-96662620D01*
X125285714Y-96662620D02*
X125642856Y-96662620D01*
X125642856Y-96662620D02*
X125785714Y-96591191D01*
X126285714Y-96234048D02*
X126857142Y-96234048D01*
X126499999Y-97234048D02*
X126499999Y-95948334D01*
X126499999Y-95948334D02*
X126571428Y-95805477D01*
X126571428Y-95805477D02*
X126714285Y-95734048D01*
X126714285Y-95734048D02*
X126857142Y-95734048D01*
X127357142Y-97234048D02*
X127357142Y-96234048D01*
X127357142Y-96519762D02*
X127428571Y-96376905D01*
X127428571Y-96376905D02*
X127500000Y-96305477D01*
X127500000Y-96305477D02*
X127642857Y-96234048D01*
X127642857Y-96234048D02*
X127785714Y-96234048D01*
X128928571Y-96234048D02*
X128928571Y-97234048D01*
X128285713Y-96234048D02*
X128285713Y-97019762D01*
X128285713Y-97019762D02*
X128357142Y-97162620D01*
X128357142Y-97162620D02*
X128499999Y-97234048D01*
X128499999Y-97234048D02*
X128714285Y-97234048D01*
X128714285Y-97234048D02*
X128857142Y-97162620D01*
X128857142Y-97162620D02*
X128928571Y-97091191D01*
X129642856Y-97234048D02*
X129642856Y-96234048D01*
X129642856Y-95734048D02*
X129571428Y-95805477D01*
X129571428Y-95805477D02*
X129642856Y-95876905D01*
X129642856Y-95876905D02*
X129714285Y-95805477D01*
X129714285Y-95805477D02*
X129642856Y-95734048D01*
X129642856Y-95734048D02*
X129642856Y-95876905D01*
X130142857Y-96234048D02*
X130714285Y-96234048D01*
X130357142Y-95734048D02*
X130357142Y-97019762D01*
X130357142Y-97019762D02*
X130428571Y-97162620D01*
X130428571Y-97162620D02*
X130571428Y-97234048D01*
X130571428Y-97234048D02*
X130714285Y-97234048D01*
X123178572Y-98648964D02*
X124250000Y-98648964D01*
X123607143Y-98006107D02*
X123178572Y-99934678D01*
X124107143Y-99291821D02*
X123035715Y-99291821D01*
X123678572Y-99934678D02*
X124107143Y-98006107D01*
X124607143Y-98148964D02*
X125535715Y-98148964D01*
X125535715Y-98148964D02*
X125035715Y-98720393D01*
X125035715Y-98720393D02*
X125250000Y-98720393D01*
X125250000Y-98720393D02*
X125392858Y-98791821D01*
X125392858Y-98791821D02*
X125464286Y-98863250D01*
X125464286Y-98863250D02*
X125535715Y-99006107D01*
X125535715Y-99006107D02*
X125535715Y-99363250D01*
X125535715Y-99363250D02*
X125464286Y-99506107D01*
X125464286Y-99506107D02*
X125392858Y-99577536D01*
X125392858Y-99577536D02*
X125250000Y-99648964D01*
X125250000Y-99648964D02*
X124821429Y-99648964D01*
X124821429Y-99648964D02*
X124678572Y-99577536D01*
X124678572Y-99577536D02*
X124607143Y-99506107D01*
X126964286Y-99648964D02*
X126107143Y-99648964D01*
X126535714Y-99648964D02*
X126535714Y-98148964D01*
X126535714Y-98148964D02*
X126392857Y-98363250D01*
X126392857Y-98363250D02*
X126250000Y-98506107D01*
X126250000Y-98506107D02*
X126107143Y-98577536D01*
X127464285Y-98148964D02*
X128464285Y-98148964D01*
X128464285Y-98148964D02*
X127821428Y-99648964D01*
X129249999Y-98791821D02*
X129107142Y-98720393D01*
X129107142Y-98720393D02*
X129035713Y-98648964D01*
X129035713Y-98648964D02*
X128964285Y-98506107D01*
X128964285Y-98506107D02*
X128964285Y-98434678D01*
X128964285Y-98434678D02*
X129035713Y-98291821D01*
X129035713Y-98291821D02*
X129107142Y-98220393D01*
X129107142Y-98220393D02*
X129249999Y-98148964D01*
X129249999Y-98148964D02*
X129535713Y-98148964D01*
X129535713Y-98148964D02*
X129678571Y-98220393D01*
X129678571Y-98220393D02*
X129749999Y-98291821D01*
X129749999Y-98291821D02*
X129821428Y-98434678D01*
X129821428Y-98434678D02*
X129821428Y-98506107D01*
X129821428Y-98506107D02*
X129749999Y-98648964D01*
X129749999Y-98648964D02*
X129678571Y-98720393D01*
X129678571Y-98720393D02*
X129535713Y-98791821D01*
X129535713Y-98791821D02*
X129249999Y-98791821D01*
X129249999Y-98791821D02*
X129107142Y-98863250D01*
X129107142Y-98863250D02*
X129035713Y-98934678D01*
X129035713Y-98934678D02*
X128964285Y-99077536D01*
X128964285Y-99077536D02*
X128964285Y-99363250D01*
X128964285Y-99363250D02*
X129035713Y-99506107D01*
X129035713Y-99506107D02*
X129107142Y-99577536D01*
X129107142Y-99577536D02*
X129249999Y-99648964D01*
X129249999Y-99648964D02*
X129535713Y-99648964D01*
X129535713Y-99648964D02*
X129678571Y-99577536D01*
X129678571Y-99577536D02*
X129749999Y-99506107D01*
X129749999Y-99506107D02*
X129821428Y-99363250D01*
X129821428Y-99363250D02*
X129821428Y-99077536D01*
X129821428Y-99077536D02*
X129749999Y-98934678D01*
X129749999Y-98934678D02*
X129678571Y-98863250D01*
X129678571Y-98863250D02*
X129535713Y-98791821D01*
X123178571Y-101278166D02*
X122678571Y-101278166D01*
X122678571Y-102063880D02*
X122678571Y-100563880D01*
X122678571Y-100563880D02*
X123392857Y-100563880D01*
X124535714Y-101992452D02*
X124392857Y-102063880D01*
X124392857Y-102063880D02*
X124107143Y-102063880D01*
X124107143Y-102063880D02*
X123964285Y-101992452D01*
X123964285Y-101992452D02*
X123892857Y-101849594D01*
X123892857Y-101849594D02*
X123892857Y-101278166D01*
X123892857Y-101278166D02*
X123964285Y-101135309D01*
X123964285Y-101135309D02*
X124107143Y-101063880D01*
X124107143Y-101063880D02*
X124392857Y-101063880D01*
X124392857Y-101063880D02*
X124535714Y-101135309D01*
X124535714Y-101135309D02*
X124607143Y-101278166D01*
X124607143Y-101278166D02*
X124607143Y-101421023D01*
X124607143Y-101421023D02*
X123892857Y-101563880D01*
X125892857Y-102063880D02*
X125892857Y-101278166D01*
X125892857Y-101278166D02*
X125821428Y-101135309D01*
X125821428Y-101135309D02*
X125678571Y-101063880D01*
X125678571Y-101063880D02*
X125392857Y-101063880D01*
X125392857Y-101063880D02*
X125249999Y-101135309D01*
X125892857Y-101992452D02*
X125749999Y-102063880D01*
X125749999Y-102063880D02*
X125392857Y-102063880D01*
X125392857Y-102063880D02*
X125249999Y-101992452D01*
X125249999Y-101992452D02*
X125178571Y-101849594D01*
X125178571Y-101849594D02*
X125178571Y-101706737D01*
X125178571Y-101706737D02*
X125249999Y-101563880D01*
X125249999Y-101563880D02*
X125392857Y-101492452D01*
X125392857Y-101492452D02*
X125749999Y-101492452D01*
X125749999Y-101492452D02*
X125892857Y-101421023D01*
X126392857Y-101063880D02*
X126964285Y-101063880D01*
X126607142Y-100563880D02*
X126607142Y-101849594D01*
X126607142Y-101849594D02*
X126678571Y-101992452D01*
X126678571Y-101992452D02*
X126821428Y-102063880D01*
X126821428Y-102063880D02*
X126964285Y-102063880D01*
X127464285Y-102063880D02*
X127464285Y-100563880D01*
X128107143Y-102063880D02*
X128107143Y-101278166D01*
X128107143Y-101278166D02*
X128035714Y-101135309D01*
X128035714Y-101135309D02*
X127892857Y-101063880D01*
X127892857Y-101063880D02*
X127678571Y-101063880D01*
X127678571Y-101063880D02*
X127535714Y-101135309D01*
X127535714Y-101135309D02*
X127464285Y-101206737D01*
X129392857Y-101992452D02*
X129250000Y-102063880D01*
X129250000Y-102063880D02*
X128964286Y-102063880D01*
X128964286Y-102063880D02*
X128821428Y-101992452D01*
X128821428Y-101992452D02*
X128750000Y-101849594D01*
X128750000Y-101849594D02*
X128750000Y-101278166D01*
X128750000Y-101278166D02*
X128821428Y-101135309D01*
X128821428Y-101135309D02*
X128964286Y-101063880D01*
X128964286Y-101063880D02*
X129250000Y-101063880D01*
X129250000Y-101063880D02*
X129392857Y-101135309D01*
X129392857Y-101135309D02*
X129464286Y-101278166D01*
X129464286Y-101278166D02*
X129464286Y-101421023D01*
X129464286Y-101421023D02*
X128750000Y-101563880D01*
X130107142Y-102063880D02*
X130107142Y-101063880D01*
X130107142Y-101349594D02*
X130178571Y-101206737D01*
X130178571Y-101206737D02*
X130250000Y-101135309D01*
X130250000Y-101135309D02*
X130392857Y-101063880D01*
X130392857Y-101063880D02*
X130535714Y-101063880D01*
X121035714Y-104478796D02*
X121035714Y-102978796D01*
X121035714Y-102978796D02*
X121535714Y-104050225D01*
X121535714Y-104050225D02*
X122035714Y-102978796D01*
X122035714Y-102978796D02*
X122035714Y-104478796D01*
X123035715Y-102978796D02*
X123178572Y-102978796D01*
X123178572Y-102978796D02*
X123321429Y-103050225D01*
X123321429Y-103050225D02*
X123392858Y-103121653D01*
X123392858Y-103121653D02*
X123464286Y-103264510D01*
X123464286Y-103264510D02*
X123535715Y-103550225D01*
X123535715Y-103550225D02*
X123535715Y-103907368D01*
X123535715Y-103907368D02*
X123464286Y-104193082D01*
X123464286Y-104193082D02*
X123392858Y-104335939D01*
X123392858Y-104335939D02*
X123321429Y-104407368D01*
X123321429Y-104407368D02*
X123178572Y-104478796D01*
X123178572Y-104478796D02*
X123035715Y-104478796D01*
X123035715Y-104478796D02*
X122892858Y-104407368D01*
X122892858Y-104407368D02*
X122821429Y-104335939D01*
X122821429Y-104335939D02*
X122750000Y-104193082D01*
X122750000Y-104193082D02*
X122678572Y-103907368D01*
X122678572Y-103907368D02*
X122678572Y-103550225D01*
X122678572Y-103550225D02*
X122750000Y-103264510D01*
X122750000Y-103264510D02*
X122821429Y-103121653D01*
X122821429Y-103121653D02*
X122892858Y-103050225D01*
X122892858Y-103050225D02*
X123035715Y-102978796D01*
X126178571Y-104478796D02*
X125678571Y-103764510D01*
X125321428Y-104478796D02*
X125321428Y-102978796D01*
X125321428Y-102978796D02*
X125892857Y-102978796D01*
X125892857Y-102978796D02*
X126035714Y-103050225D01*
X126035714Y-103050225D02*
X126107143Y-103121653D01*
X126107143Y-103121653D02*
X126178571Y-103264510D01*
X126178571Y-103264510D02*
X126178571Y-103478796D01*
X126178571Y-103478796D02*
X126107143Y-103621653D01*
X126107143Y-103621653D02*
X126035714Y-103693082D01*
X126035714Y-103693082D02*
X125892857Y-103764510D01*
X125892857Y-103764510D02*
X125321428Y-103764510D01*
X127321428Y-103693082D02*
X126821428Y-103693082D01*
X126821428Y-104478796D02*
X126821428Y-102978796D01*
X126821428Y-102978796D02*
X127535714Y-102978796D01*
X128107142Y-104478796D02*
X128107142Y-102978796D01*
X128107142Y-102978796D02*
X128607142Y-104050225D01*
X128607142Y-104050225D02*
X129107142Y-102978796D01*
X129107142Y-102978796D02*
X129107142Y-104478796D01*
X129892857Y-104478796D02*
X130178571Y-104478796D01*
X130178571Y-104478796D02*
X130321428Y-104407368D01*
X130321428Y-104407368D02*
X130392857Y-104335939D01*
X130392857Y-104335939D02*
X130535714Y-104121653D01*
X130535714Y-104121653D02*
X130607143Y-103835939D01*
X130607143Y-103835939D02*
X130607143Y-103264510D01*
X130607143Y-103264510D02*
X130535714Y-103121653D01*
X130535714Y-103121653D02*
X130464286Y-103050225D01*
X130464286Y-103050225D02*
X130321428Y-102978796D01*
X130321428Y-102978796D02*
X130035714Y-102978796D01*
X130035714Y-102978796D02*
X129892857Y-103050225D01*
X129892857Y-103050225D02*
X129821428Y-103121653D01*
X129821428Y-103121653D02*
X129750000Y-103264510D01*
X129750000Y-103264510D02*
X129750000Y-103621653D01*
X129750000Y-103621653D02*
X129821428Y-103764510D01*
X129821428Y-103764510D02*
X129892857Y-103835939D01*
X129892857Y-103835939D02*
X130035714Y-103907368D01*
X130035714Y-103907368D02*
X130321428Y-103907368D01*
X130321428Y-103907368D02*
X130464286Y-103835939D01*
X130464286Y-103835939D02*
X130535714Y-103764510D01*
X130535714Y-103764510D02*
X130607143Y-103621653D01*
X131964285Y-102978796D02*
X131249999Y-102978796D01*
X131249999Y-102978796D02*
X131178571Y-103693082D01*
X131178571Y-103693082D02*
X131249999Y-103621653D01*
X131249999Y-103621653D02*
X131392857Y-103550225D01*
X131392857Y-103550225D02*
X131749999Y-103550225D01*
X131749999Y-103550225D02*
X131892857Y-103621653D01*
X131892857Y-103621653D02*
X131964285Y-103693082D01*
X131964285Y-103693082D02*
X132035714Y-103835939D01*
X132035714Y-103835939D02*
X132035714Y-104193082D01*
X132035714Y-104193082D02*
X131964285Y-104335939D01*
X131964285Y-104335939D02*
X131892857Y-104407368D01*
X131892857Y-104407368D02*
X131749999Y-104478796D01*
X131749999Y-104478796D02*
X131392857Y-104478796D01*
X131392857Y-104478796D02*
X131249999Y-104407368D01*
X131249999Y-104407368D02*
X131178571Y-104335939D01*
X122071429Y-106893712D02*
X122357143Y-106893712D01*
X122357143Y-106893712D02*
X122500000Y-106822284D01*
X122500000Y-106822284D02*
X122571429Y-106750855D01*
X122571429Y-106750855D02*
X122714286Y-106536569D01*
X122714286Y-106536569D02*
X122785715Y-106250855D01*
X122785715Y-106250855D02*
X122785715Y-105679426D01*
X122785715Y-105679426D02*
X122714286Y-105536569D01*
X122714286Y-105536569D02*
X122642858Y-105465141D01*
X122642858Y-105465141D02*
X122500000Y-105393712D01*
X122500000Y-105393712D02*
X122214286Y-105393712D01*
X122214286Y-105393712D02*
X122071429Y-105465141D01*
X122071429Y-105465141D02*
X122000000Y-105536569D01*
X122000000Y-105536569D02*
X121928572Y-105679426D01*
X121928572Y-105679426D02*
X121928572Y-106036569D01*
X121928572Y-106036569D02*
X122000000Y-106179426D01*
X122000000Y-106179426D02*
X122071429Y-106250855D01*
X122071429Y-106250855D02*
X122214286Y-106322284D01*
X122214286Y-106322284D02*
X122500000Y-106322284D01*
X122500000Y-106322284D02*
X122642858Y-106250855D01*
X122642858Y-106250855D02*
X122714286Y-106179426D01*
X122714286Y-106179426D02*
X122785715Y-106036569D01*
X123714286Y-105393712D02*
X123857143Y-105393712D01*
X123857143Y-105393712D02*
X124000000Y-105465141D01*
X124000000Y-105465141D02*
X124071429Y-105536569D01*
X124071429Y-105536569D02*
X124142857Y-105679426D01*
X124142857Y-105679426D02*
X124214286Y-105965141D01*
X124214286Y-105965141D02*
X124214286Y-106322284D01*
X124214286Y-106322284D02*
X124142857Y-106607998D01*
X124142857Y-106607998D02*
X124071429Y-106750855D01*
X124071429Y-106750855D02*
X124000000Y-106822284D01*
X124000000Y-106822284D02*
X123857143Y-106893712D01*
X123857143Y-106893712D02*
X123714286Y-106893712D01*
X123714286Y-106893712D02*
X123571429Y-106822284D01*
X123571429Y-106822284D02*
X123500000Y-106750855D01*
X123500000Y-106750855D02*
X123428571Y-106607998D01*
X123428571Y-106607998D02*
X123357143Y-106322284D01*
X123357143Y-106322284D02*
X123357143Y-105965141D01*
X123357143Y-105965141D02*
X123428571Y-105679426D01*
X123428571Y-105679426D02*
X123500000Y-105536569D01*
X123500000Y-105536569D02*
X123571429Y-105465141D01*
X123571429Y-105465141D02*
X123714286Y-105393712D01*
X125142857Y-105393712D02*
X125285714Y-105393712D01*
X125285714Y-105393712D02*
X125428571Y-105465141D01*
X125428571Y-105465141D02*
X125500000Y-105536569D01*
X125500000Y-105536569D02*
X125571428Y-105679426D01*
X125571428Y-105679426D02*
X125642857Y-105965141D01*
X125642857Y-105965141D02*
X125642857Y-106322284D01*
X125642857Y-106322284D02*
X125571428Y-106607998D01*
X125571428Y-106607998D02*
X125500000Y-106750855D01*
X125500000Y-106750855D02*
X125428571Y-106822284D01*
X125428571Y-106822284D02*
X125285714Y-106893712D01*
X125285714Y-106893712D02*
X125142857Y-106893712D01*
X125142857Y-106893712D02*
X125000000Y-106822284D01*
X125000000Y-106822284D02*
X124928571Y-106750855D01*
X124928571Y-106750855D02*
X124857142Y-106607998D01*
X124857142Y-106607998D02*
X124785714Y-106322284D01*
X124785714Y-106322284D02*
X124785714Y-105965141D01*
X124785714Y-105965141D02*
X124857142Y-105679426D01*
X124857142Y-105679426D02*
X124928571Y-105536569D01*
X124928571Y-105536569D02*
X125000000Y-105465141D01*
X125000000Y-105465141D02*
X125142857Y-105393712D01*
X127428570Y-106893712D02*
X127428570Y-105393712D01*
X127428570Y-105393712D02*
X127928570Y-106465141D01*
X127928570Y-106465141D02*
X128428570Y-105393712D01*
X128428570Y-105393712D02*
X128428570Y-106893712D01*
X129142856Y-106893712D02*
X129142856Y-105393712D01*
X129785714Y-106893712D02*
X129785714Y-106107998D01*
X129785714Y-106107998D02*
X129714285Y-105965141D01*
X129714285Y-105965141D02*
X129571428Y-105893712D01*
X129571428Y-105893712D02*
X129357142Y-105893712D01*
X129357142Y-105893712D02*
X129214285Y-105965141D01*
X129214285Y-105965141D02*
X129142856Y-106036569D01*
X130357142Y-105893712D02*
X131142857Y-105893712D01*
X131142857Y-105893712D02*
X130357142Y-106893712D01*
X130357142Y-106893712D02*
X131142857Y-106893712D01*
X124857142Y-109308628D02*
X124142856Y-109308628D01*
X124142856Y-109308628D02*
X124142856Y-107808628D01*
X125571428Y-109308628D02*
X125428571Y-109237200D01*
X125428571Y-109237200D02*
X125357142Y-109165771D01*
X125357142Y-109165771D02*
X125285714Y-109022914D01*
X125285714Y-109022914D02*
X125285714Y-108594342D01*
X125285714Y-108594342D02*
X125357142Y-108451485D01*
X125357142Y-108451485D02*
X125428571Y-108380057D01*
X125428571Y-108380057D02*
X125571428Y-108308628D01*
X125571428Y-108308628D02*
X125785714Y-108308628D01*
X125785714Y-108308628D02*
X125928571Y-108380057D01*
X125928571Y-108380057D02*
X126000000Y-108451485D01*
X126000000Y-108451485D02*
X126071428Y-108594342D01*
X126071428Y-108594342D02*
X126071428Y-109022914D01*
X126071428Y-109022914D02*
X126000000Y-109165771D01*
X126000000Y-109165771D02*
X125928571Y-109237200D01*
X125928571Y-109237200D02*
X125785714Y-109308628D01*
X125785714Y-109308628D02*
X125571428Y-109308628D01*
X127571428Y-109308628D02*
X127071428Y-108594342D01*
X126714285Y-109308628D02*
X126714285Y-107808628D01*
X126714285Y-107808628D02*
X127285714Y-107808628D01*
X127285714Y-107808628D02*
X127428571Y-107880057D01*
X127428571Y-107880057D02*
X127500000Y-107951485D01*
X127500000Y-107951485D02*
X127571428Y-108094342D01*
X127571428Y-108094342D02*
X127571428Y-108308628D01*
X127571428Y-108308628D02*
X127500000Y-108451485D01*
X127500000Y-108451485D02*
X127428571Y-108522914D01*
X127428571Y-108522914D02*
X127285714Y-108594342D01*
X127285714Y-108594342D02*
X126714285Y-108594342D01*
X128857143Y-109308628D02*
X128857143Y-108522914D01*
X128857143Y-108522914D02*
X128785714Y-108380057D01*
X128785714Y-108380057D02*
X128642857Y-108308628D01*
X128642857Y-108308628D02*
X128357143Y-108308628D01*
X128357143Y-108308628D02*
X128214285Y-108380057D01*
X128857143Y-109237200D02*
X128714285Y-109308628D01*
X128714285Y-109308628D02*
X128357143Y-109308628D01*
X128357143Y-109308628D02*
X128214285Y-109237200D01*
X128214285Y-109237200D02*
X128142857Y-109094342D01*
X128142857Y-109094342D02*
X128142857Y-108951485D01*
X128142857Y-108951485D02*
X128214285Y-108808628D01*
X128214285Y-108808628D02*
X128357143Y-108737200D01*
X128357143Y-108737200D02*
X128714285Y-108737200D01*
X128714285Y-108737200D02*
X128857143Y-108665771D01*
D12*
X163054510Y-90800828D02*
X163054510Y-89300828D01*
X163911653Y-90800828D02*
X163268796Y-89943685D01*
X163911653Y-89300828D02*
X163054510Y-90157971D01*
X165340225Y-90800828D02*
X164483082Y-90800828D01*
X164911653Y-90800828D02*
X164911653Y-89300828D01*
X164911653Y-89300828D02*
X164768796Y-89515114D01*
X164768796Y-89515114D02*
X164625939Y-89657971D01*
X164625939Y-89657971D02*
X164483082Y-89729400D01*
X163054510Y-95800828D02*
X163054510Y-94300828D01*
X163911653Y-95800828D02*
X163268796Y-94943685D01*
X163911653Y-94300828D02*
X163054510Y-95157971D01*
X164483082Y-94443685D02*
X164554510Y-94372257D01*
X164554510Y-94372257D02*
X164697368Y-94300828D01*
X164697368Y-94300828D02*
X165054510Y-94300828D01*
X165054510Y-94300828D02*
X165197368Y-94372257D01*
X165197368Y-94372257D02*
X165268796Y-94443685D01*
X165268796Y-94443685D02*
X165340225Y-94586542D01*
X165340225Y-94586542D02*
X165340225Y-94729400D01*
X165340225Y-94729400D02*
X165268796Y-94943685D01*
X165268796Y-94943685D02*
X164411653Y-95800828D01*
X164411653Y-95800828D02*
X165340225Y-95800828D01*
X163054510Y-100800828D02*
X163054510Y-99300828D01*
X163911653Y-100800828D02*
X163268796Y-99943685D01*
X163911653Y-99300828D02*
X163054510Y-100157971D01*
X164411653Y-99300828D02*
X165340225Y-99300828D01*
X165340225Y-99300828D02*
X164840225Y-99872257D01*
X164840225Y-99872257D02*
X165054510Y-99872257D01*
X165054510Y-99872257D02*
X165197368Y-99943685D01*
X165197368Y-99943685D02*
X165268796Y-100015114D01*
X165268796Y-100015114D02*
X165340225Y-100157971D01*
X165340225Y-100157971D02*
X165340225Y-100515114D01*
X165340225Y-100515114D02*
X165268796Y-100657971D01*
X165268796Y-100657971D02*
X165197368Y-100729400D01*
X165197368Y-100729400D02*
X165054510Y-100800828D01*
X165054510Y-100800828D02*
X164625939Y-100800828D01*
X164625939Y-100800828D02*
X164483082Y-100729400D01*
X164483082Y-100729400D02*
X164411653Y-100657971D01*
X163054510Y-105800828D02*
X163054510Y-104300828D01*
X163911653Y-105800828D02*
X163268796Y-104943685D01*
X163911653Y-104300828D02*
X163054510Y-105157971D01*
X165197368Y-104800828D02*
X165197368Y-105800828D01*
X164840225Y-104229400D02*
X164483082Y-105300828D01*
X164483082Y-105300828D02*
X165411653Y-105300828D01*
X163054510Y-110800828D02*
X163054510Y-109300828D01*
X163911653Y-110800828D02*
X163268796Y-109943685D01*
X163911653Y-109300828D02*
X163054510Y-110157971D01*
X165268796Y-109300828D02*
X164554510Y-109300828D01*
X164554510Y-109300828D02*
X164483082Y-110015114D01*
X164483082Y-110015114D02*
X164554510Y-109943685D01*
X164554510Y-109943685D02*
X164697368Y-109872257D01*
X164697368Y-109872257D02*
X165054510Y-109872257D01*
X165054510Y-109872257D02*
X165197368Y-109943685D01*
X165197368Y-109943685D02*
X165268796Y-110015114D01*
X165268796Y-110015114D02*
X165340225Y-110157971D01*
X165340225Y-110157971D02*
X165340225Y-110515114D01*
X165340225Y-110515114D02*
X165268796Y-110657971D01*
X165268796Y-110657971D02*
X165197368Y-110729400D01*
X165197368Y-110729400D02*
X165054510Y-110800828D01*
X165054510Y-110800828D02*
X164697368Y-110800828D01*
X164697368Y-110800828D02*
X164554510Y-110729400D01*
X164554510Y-110729400D02*
X164483082Y-110657971D01*
X163054510Y-115800828D02*
X163054510Y-114300828D01*
X163911653Y-115800828D02*
X163268796Y-114943685D01*
X163911653Y-114300828D02*
X163054510Y-115157971D01*
X165197368Y-114300828D02*
X164911653Y-114300828D01*
X164911653Y-114300828D02*
X164768796Y-114372257D01*
X164768796Y-114372257D02*
X164697368Y-114443685D01*
X164697368Y-114443685D02*
X164554510Y-114657971D01*
X164554510Y-114657971D02*
X164483082Y-114943685D01*
X164483082Y-114943685D02*
X164483082Y-115515114D01*
X164483082Y-115515114D02*
X164554510Y-115657971D01*
X164554510Y-115657971D02*
X164625939Y-115729400D01*
X164625939Y-115729400D02*
X164768796Y-115800828D01*
X164768796Y-115800828D02*
X165054510Y-115800828D01*
X165054510Y-115800828D02*
X165197368Y-115729400D01*
X165197368Y-115729400D02*
X165268796Y-115657971D01*
X165268796Y-115657971D02*
X165340225Y-115515114D01*
X165340225Y-115515114D02*
X165340225Y-115157971D01*
X165340225Y-115157971D02*
X165268796Y-115015114D01*
X165268796Y-115015114D02*
X165197368Y-114943685D01*
X165197368Y-114943685D02*
X165054510Y-114872257D01*
X165054510Y-114872257D02*
X164768796Y-114872257D01*
X164768796Y-114872257D02*
X164625939Y-114943685D01*
X164625939Y-114943685D02*
X164554510Y-115015114D01*
X164554510Y-115015114D02*
X164483082Y-115157971D01*
X163911653Y-120800828D02*
X163411653Y-120086542D01*
X163054510Y-120800828D02*
X163054510Y-119300828D01*
X163054510Y-119300828D02*
X163625939Y-119300828D01*
X163625939Y-119300828D02*
X163768796Y-119372257D01*
X163768796Y-119372257D02*
X163840225Y-119443685D01*
X163840225Y-119443685D02*
X163911653Y-119586542D01*
X163911653Y-119586542D02*
X163911653Y-119800828D01*
X163911653Y-119800828D02*
X163840225Y-119943685D01*
X163840225Y-119943685D02*
X163768796Y-120015114D01*
X163768796Y-120015114D02*
X163625939Y-120086542D01*
X163625939Y-120086542D02*
X163054510Y-120086542D01*
X164554510Y-120015114D02*
X165054510Y-120015114D01*
X165268796Y-120800828D02*
X164554510Y-120800828D01*
X164554510Y-120800828D02*
X164554510Y-119300828D01*
X164554510Y-119300828D02*
X165268796Y-119300828D01*
X165697368Y-119300828D02*
X166197368Y-120800828D01*
X166197368Y-120800828D02*
X166697368Y-119300828D01*
X163840225Y-124372257D02*
X163697368Y-124300828D01*
X163697368Y-124300828D02*
X163483082Y-124300828D01*
X163483082Y-124300828D02*
X163268796Y-124372257D01*
X163268796Y-124372257D02*
X163125939Y-124515114D01*
X163125939Y-124515114D02*
X163054510Y-124657971D01*
X163054510Y-124657971D02*
X162983082Y-124943685D01*
X162983082Y-124943685D02*
X162983082Y-125157971D01*
X162983082Y-125157971D02*
X163054510Y-125443685D01*
X163054510Y-125443685D02*
X163125939Y-125586542D01*
X163125939Y-125586542D02*
X163268796Y-125729400D01*
X163268796Y-125729400D02*
X163483082Y-125800828D01*
X163483082Y-125800828D02*
X163625939Y-125800828D01*
X163625939Y-125800828D02*
X163840225Y-125729400D01*
X163840225Y-125729400D02*
X163911653Y-125657971D01*
X163911653Y-125657971D02*
X163911653Y-125157971D01*
X163911653Y-125157971D02*
X163625939Y-125157971D01*
X164554510Y-125800828D02*
X164554510Y-124300828D01*
X164554510Y-124300828D02*
X165411653Y-125800828D01*
X165411653Y-125800828D02*
X165411653Y-124300828D01*
X166125939Y-125800828D02*
X166125939Y-124300828D01*
X166125939Y-124300828D02*
X166483082Y-124300828D01*
X166483082Y-124300828D02*
X166697368Y-124372257D01*
X166697368Y-124372257D02*
X166840225Y-124515114D01*
X166840225Y-124515114D02*
X166911654Y-124657971D01*
X166911654Y-124657971D02*
X166983082Y-124943685D01*
X166983082Y-124943685D02*
X166983082Y-125157971D01*
X166983082Y-125157971D02*
X166911654Y-125443685D01*
X166911654Y-125443685D02*
X166840225Y-125586542D01*
X166840225Y-125586542D02*
X166697368Y-125729400D01*
X166697368Y-125729400D02*
X166483082Y-125800828D01*
X166483082Y-125800828D02*
X166125939Y-125800828D01*
D13*
X96345863Y-133122457D02*
X96345863Y-130122457D01*
X96345863Y-130122457D02*
X98060149Y-133122457D01*
X98060149Y-133122457D02*
X98060149Y-130122457D01*
X99345863Y-130408171D02*
X99488720Y-130265314D01*
X99488720Y-130265314D02*
X99774435Y-130122457D01*
X99774435Y-130122457D02*
X100488720Y-130122457D01*
X100488720Y-130122457D02*
X100774435Y-130265314D01*
X100774435Y-130265314D02*
X100917292Y-130408171D01*
X100917292Y-130408171D02*
X101060149Y-130693885D01*
X101060149Y-130693885D02*
X101060149Y-130979600D01*
X101060149Y-130979600D02*
X100917292Y-131408171D01*
X100917292Y-131408171D02*
X99203006Y-133122457D01*
X99203006Y-133122457D02*
X101060149Y-133122457D01*
X104060149Y-133122457D02*
X103060149Y-131693885D01*
X102345863Y-133122457D02*
X102345863Y-130122457D01*
X102345863Y-130122457D02*
X103488720Y-130122457D01*
X103488720Y-130122457D02*
X103774435Y-130265314D01*
X103774435Y-130265314D02*
X103917292Y-130408171D01*
X103917292Y-130408171D02*
X104060149Y-130693885D01*
X104060149Y-130693885D02*
X104060149Y-131122457D01*
X104060149Y-131122457D02*
X103917292Y-131408171D01*
X103917292Y-131408171D02*
X103774435Y-131551028D01*
X103774435Y-131551028D02*
X103488720Y-131693885D01*
X103488720Y-131693885D02*
X102345863Y-131693885D01*
X105345863Y-133122457D02*
X105345863Y-130122457D01*
X105345863Y-130122457D02*
X106060149Y-130122457D01*
X106060149Y-130122457D02*
X106488720Y-130265314D01*
X106488720Y-130265314D02*
X106774435Y-130551028D01*
X106774435Y-130551028D02*
X106917292Y-130836742D01*
X106917292Y-130836742D02*
X107060149Y-131408171D01*
X107060149Y-131408171D02*
X107060149Y-131836742D01*
X107060149Y-131836742D02*
X106917292Y-132408171D01*
X106917292Y-132408171D02*
X106774435Y-132693885D01*
X106774435Y-132693885D02*
X106488720Y-132979600D01*
X106488720Y-132979600D02*
X106060149Y-133122457D01*
X106060149Y-133122457D02*
X105345863Y-133122457D01*
D11*
X106770833Y-77009580D02*
X106723214Y-77057200D01*
X106723214Y-77057200D02*
X106580357Y-77104819D01*
X106580357Y-77104819D02*
X106485119Y-77104819D01*
X106485119Y-77104819D02*
X106342262Y-77057200D01*
X106342262Y-77057200D02*
X106247024Y-76961961D01*
X106247024Y-76961961D02*
X106199405Y-76866723D01*
X106199405Y-76866723D02*
X106151786Y-76676247D01*
X106151786Y-76676247D02*
X106151786Y-76533390D01*
X106151786Y-76533390D02*
X106199405Y-76342914D01*
X106199405Y-76342914D02*
X106247024Y-76247676D01*
X106247024Y-76247676D02*
X106342262Y-76152438D01*
X106342262Y-76152438D02*
X106485119Y-76104819D01*
X106485119Y-76104819D02*
X106580357Y-76104819D01*
X106580357Y-76104819D02*
X106723214Y-76152438D01*
X106723214Y-76152438D02*
X106770833Y-76200057D01*
X107151786Y-76200057D02*
X107199405Y-76152438D01*
X107199405Y-76152438D02*
X107294643Y-76104819D01*
X107294643Y-76104819D02*
X107532738Y-76104819D01*
X107532738Y-76104819D02*
X107627976Y-76152438D01*
X107627976Y-76152438D02*
X107675595Y-76200057D01*
X107675595Y-76200057D02*
X107723214Y-76295295D01*
X107723214Y-76295295D02*
X107723214Y-76390533D01*
X107723214Y-76390533D02*
X107675595Y-76533390D01*
X107675595Y-76533390D02*
X107104167Y-77104819D01*
X107104167Y-77104819D02*
X107723214Y-77104819D01*
X105247024Y-80400057D02*
X105294643Y-80352438D01*
X105294643Y-80352438D02*
X105389881Y-80304819D01*
X105389881Y-80304819D02*
X105627976Y-80304819D01*
X105627976Y-80304819D02*
X105723214Y-80352438D01*
X105723214Y-80352438D02*
X105770833Y-80400057D01*
X105770833Y-80400057D02*
X105818452Y-80495295D01*
X105818452Y-80495295D02*
X105818452Y-80590533D01*
X105818452Y-80590533D02*
X105770833Y-80733390D01*
X105770833Y-80733390D02*
X105199405Y-81304819D01*
X105199405Y-81304819D02*
X105818452Y-81304819D01*
X106199405Y-80400057D02*
X106247024Y-80352438D01*
X106247024Y-80352438D02*
X106342262Y-80304819D01*
X106342262Y-80304819D02*
X106580357Y-80304819D01*
X106580357Y-80304819D02*
X106675595Y-80352438D01*
X106675595Y-80352438D02*
X106723214Y-80400057D01*
X106723214Y-80400057D02*
X106770833Y-80495295D01*
X106770833Y-80495295D02*
X106770833Y-80590533D01*
X106770833Y-80590533D02*
X106723214Y-80733390D01*
X106723214Y-80733390D02*
X106151786Y-81304819D01*
X106151786Y-81304819D02*
X106770833Y-81304819D01*
X107389881Y-80304819D02*
X107485119Y-80304819D01*
X107485119Y-80304819D02*
X107580357Y-80352438D01*
X107580357Y-80352438D02*
X107627976Y-80400057D01*
X107627976Y-80400057D02*
X107675595Y-80495295D01*
X107675595Y-80495295D02*
X107723214Y-80685771D01*
X107723214Y-80685771D02*
X107723214Y-80923866D01*
X107723214Y-80923866D02*
X107675595Y-81114342D01*
X107675595Y-81114342D02*
X107627976Y-81209580D01*
X107627976Y-81209580D02*
X107580357Y-81257200D01*
X107580357Y-81257200D02*
X107485119Y-81304819D01*
X107485119Y-81304819D02*
X107389881Y-81304819D01*
X107389881Y-81304819D02*
X107294643Y-81257200D01*
X107294643Y-81257200D02*
X107247024Y-81209580D01*
X107247024Y-81209580D02*
X107199405Y-81114342D01*
X107199405Y-81114342D02*
X107151786Y-80923866D01*
X107151786Y-80923866D02*
X107151786Y-80685771D01*
X107151786Y-80685771D02*
X107199405Y-80495295D01*
X107199405Y-80495295D02*
X107247024Y-80400057D01*
X107247024Y-80400057D02*
X107294643Y-80352438D01*
X107294643Y-80352438D02*
X107389881Y-80304819D01*
X108151786Y-80638152D02*
X108151786Y-81304819D01*
X108151786Y-80733390D02*
X108199405Y-80685771D01*
X108199405Y-80685771D02*
X108294643Y-80638152D01*
X108294643Y-80638152D02*
X108437500Y-80638152D01*
X108437500Y-80638152D02*
X108532738Y-80685771D01*
X108532738Y-80685771D02*
X108580357Y-80781009D01*
X108580357Y-80781009D02*
X108580357Y-81304819D01*
X165954819Y-128333333D02*
X166669104Y-128333333D01*
X166669104Y-128333333D02*
X166811961Y-128380952D01*
X166811961Y-128380952D02*
X166907200Y-128476190D01*
X166907200Y-128476190D02*
X166954819Y-128619047D01*
X166954819Y-128619047D02*
X166954819Y-128714285D01*
X165954819Y-127952380D02*
X165954819Y-127333333D01*
X165954819Y-127333333D02*
X166335771Y-127666666D01*
X166335771Y-127666666D02*
X166335771Y-127523809D01*
X166335771Y-127523809D02*
X166383390Y-127428571D01*
X166383390Y-127428571D02*
X166431009Y-127380952D01*
X166431009Y-127380952D02*
X166526247Y-127333333D01*
X166526247Y-127333333D02*
X166764342Y-127333333D01*
X166764342Y-127333333D02*
X166859580Y-127380952D01*
X166859580Y-127380952D02*
X166907200Y-127428571D01*
X166907200Y-127428571D02*
X166954819Y-127523809D01*
X166954819Y-127523809D02*
X166954819Y-127809523D01*
X166954819Y-127809523D02*
X166907200Y-127904761D01*
X166907200Y-127904761D02*
X166859580Y-127952380D01*
X152567319Y-106149404D02*
X153376842Y-106149404D01*
X153376842Y-106149404D02*
X153472080Y-106101785D01*
X153472080Y-106101785D02*
X153519700Y-106054166D01*
X153519700Y-106054166D02*
X153567319Y-105958928D01*
X153567319Y-105958928D02*
X153567319Y-105768452D01*
X153567319Y-105768452D02*
X153519700Y-105673214D01*
X153519700Y-105673214D02*
X153472080Y-105625595D01*
X153472080Y-105625595D02*
X153376842Y-105577976D01*
X153376842Y-105577976D02*
X152567319Y-105577976D01*
X152567319Y-105197023D02*
X152567319Y-104577976D01*
X152567319Y-104577976D02*
X152948271Y-104911309D01*
X152948271Y-104911309D02*
X152948271Y-104768452D01*
X152948271Y-104768452D02*
X152995890Y-104673214D01*
X152995890Y-104673214D02*
X153043509Y-104625595D01*
X153043509Y-104625595D02*
X153138747Y-104577976D01*
X153138747Y-104577976D02*
X153376842Y-104577976D01*
X153376842Y-104577976D02*
X153472080Y-104625595D01*
X153472080Y-104625595D02*
X153519700Y-104673214D01*
X153519700Y-104673214D02*
X153567319Y-104768452D01*
X153567319Y-104768452D02*
X153567319Y-105054166D01*
X153567319Y-105054166D02*
X153519700Y-105149404D01*
X153519700Y-105149404D02*
X153472080Y-105197023D01*
X96738095Y-87904819D02*
X96738095Y-88714342D01*
X96738095Y-88714342D02*
X96785714Y-88809580D01*
X96785714Y-88809580D02*
X96833333Y-88857200D01*
X96833333Y-88857200D02*
X96928571Y-88904819D01*
X96928571Y-88904819D02*
X97119047Y-88904819D01*
X97119047Y-88904819D02*
X97214285Y-88857200D01*
X97214285Y-88857200D02*
X97261904Y-88809580D01*
X97261904Y-88809580D02*
X97309523Y-88714342D01*
X97309523Y-88714342D02*
X97309523Y-87904819D01*
X97690476Y-87904819D02*
X98357142Y-87904819D01*
X98357142Y-87904819D02*
X97928571Y-88904819D01*
X152417319Y-96649404D02*
X153226842Y-96649404D01*
X153226842Y-96649404D02*
X153322080Y-96601785D01*
X153322080Y-96601785D02*
X153369700Y-96554166D01*
X153369700Y-96554166D02*
X153417319Y-96458928D01*
X153417319Y-96458928D02*
X153417319Y-96268452D01*
X153417319Y-96268452D02*
X153369700Y-96173214D01*
X153369700Y-96173214D02*
X153322080Y-96125595D01*
X153322080Y-96125595D02*
X153226842Y-96077976D01*
X153226842Y-96077976D02*
X152417319Y-96077976D01*
X152512557Y-95649404D02*
X152464938Y-95601785D01*
X152464938Y-95601785D02*
X152417319Y-95506547D01*
X152417319Y-95506547D02*
X152417319Y-95268452D01*
X152417319Y-95268452D02*
X152464938Y-95173214D01*
X152464938Y-95173214D02*
X152512557Y-95125595D01*
X152512557Y-95125595D02*
X152607795Y-95077976D01*
X152607795Y-95077976D02*
X152703033Y-95077976D01*
X152703033Y-95077976D02*
X152845890Y-95125595D01*
X152845890Y-95125595D02*
X153417319Y-95697023D01*
X153417319Y-95697023D02*
X153417319Y-95077976D01*
X142009580Y-112729166D02*
X142057200Y-112776785D01*
X142057200Y-112776785D02*
X142104819Y-112919642D01*
X142104819Y-112919642D02*
X142104819Y-113014880D01*
X142104819Y-113014880D02*
X142057200Y-113157737D01*
X142057200Y-113157737D02*
X141961961Y-113252975D01*
X141961961Y-113252975D02*
X141866723Y-113300594D01*
X141866723Y-113300594D02*
X141676247Y-113348213D01*
X141676247Y-113348213D02*
X141533390Y-113348213D01*
X141533390Y-113348213D02*
X141342914Y-113300594D01*
X141342914Y-113300594D02*
X141247676Y-113252975D01*
X141247676Y-113252975D02*
X141152438Y-113157737D01*
X141152438Y-113157737D02*
X141104819Y-113014880D01*
X141104819Y-113014880D02*
X141104819Y-112919642D01*
X141104819Y-112919642D02*
X141152438Y-112776785D01*
X141152438Y-112776785D02*
X141200057Y-112729166D01*
X142104819Y-112252975D02*
X142104819Y-112062499D01*
X142104819Y-112062499D02*
X142057200Y-111967261D01*
X142057200Y-111967261D02*
X142009580Y-111919642D01*
X142009580Y-111919642D02*
X141866723Y-111824404D01*
X141866723Y-111824404D02*
X141676247Y-111776785D01*
X141676247Y-111776785D02*
X141295295Y-111776785D01*
X141295295Y-111776785D02*
X141200057Y-111824404D01*
X141200057Y-111824404D02*
X141152438Y-111872023D01*
X141152438Y-111872023D02*
X141104819Y-111967261D01*
X141104819Y-111967261D02*
X141104819Y-112157737D01*
X141104819Y-112157737D02*
X141152438Y-112252975D01*
X141152438Y-112252975D02*
X141200057Y-112300594D01*
X141200057Y-112300594D02*
X141295295Y-112348213D01*
X141295295Y-112348213D02*
X141533390Y-112348213D01*
X141533390Y-112348213D02*
X141628628Y-112300594D01*
X141628628Y-112300594D02*
X141676247Y-112252975D01*
X141676247Y-112252975D02*
X141723866Y-112157737D01*
X141723866Y-112157737D02*
X141723866Y-111967261D01*
X141723866Y-111967261D02*
X141676247Y-111872023D01*
X141676247Y-111872023D02*
X141628628Y-111824404D01*
X141628628Y-111824404D02*
X141533390Y-111776785D01*
X145150057Y-114252975D02*
X145102438Y-114205356D01*
X145102438Y-114205356D02*
X145054819Y-114110118D01*
X145054819Y-114110118D02*
X145054819Y-113872023D01*
X145054819Y-113872023D02*
X145102438Y-113776785D01*
X145102438Y-113776785D02*
X145150057Y-113729166D01*
X145150057Y-113729166D02*
X145245295Y-113681547D01*
X145245295Y-113681547D02*
X145340533Y-113681547D01*
X145340533Y-113681547D02*
X145483390Y-113729166D01*
X145483390Y-113729166D02*
X146054819Y-114300594D01*
X146054819Y-114300594D02*
X146054819Y-113681547D01*
X145150057Y-113300594D02*
X145102438Y-113252975D01*
X145102438Y-113252975D02*
X145054819Y-113157737D01*
X145054819Y-113157737D02*
X145054819Y-112919642D01*
X145054819Y-112919642D02*
X145102438Y-112824404D01*
X145102438Y-112824404D02*
X145150057Y-112776785D01*
X145150057Y-112776785D02*
X145245295Y-112729166D01*
X145245295Y-112729166D02*
X145340533Y-112729166D01*
X145340533Y-112729166D02*
X145483390Y-112776785D01*
X145483390Y-112776785D02*
X146054819Y-113348213D01*
X146054819Y-113348213D02*
X146054819Y-112729166D01*
X145054819Y-112110118D02*
X145054819Y-112014880D01*
X145054819Y-112014880D02*
X145102438Y-111919642D01*
X145102438Y-111919642D02*
X145150057Y-111872023D01*
X145150057Y-111872023D02*
X145245295Y-111824404D01*
X145245295Y-111824404D02*
X145435771Y-111776785D01*
X145435771Y-111776785D02*
X145673866Y-111776785D01*
X145673866Y-111776785D02*
X145864342Y-111824404D01*
X145864342Y-111824404D02*
X145959580Y-111872023D01*
X145959580Y-111872023D02*
X146007200Y-111919642D01*
X146007200Y-111919642D02*
X146054819Y-112014880D01*
X146054819Y-112014880D02*
X146054819Y-112110118D01*
X146054819Y-112110118D02*
X146007200Y-112205356D01*
X146007200Y-112205356D02*
X145959580Y-112252975D01*
X145959580Y-112252975D02*
X145864342Y-112300594D01*
X145864342Y-112300594D02*
X145673866Y-112348213D01*
X145673866Y-112348213D02*
X145435771Y-112348213D01*
X145435771Y-112348213D02*
X145245295Y-112300594D01*
X145245295Y-112300594D02*
X145150057Y-112252975D01*
X145150057Y-112252975D02*
X145102438Y-112205356D01*
X145102438Y-112205356D02*
X145054819Y-112110118D01*
X145388152Y-111348213D02*
X146054819Y-111348213D01*
X145483390Y-111348213D02*
X145435771Y-111300594D01*
X145435771Y-111300594D02*
X145388152Y-111205356D01*
X145388152Y-111205356D02*
X145388152Y-111062499D01*
X145388152Y-111062499D02*
X145435771Y-110967261D01*
X145435771Y-110967261D02*
X145531009Y-110919642D01*
X145531009Y-110919642D02*
X146054819Y-110919642D01*
X142472080Y-85054166D02*
X142519700Y-85101785D01*
X142519700Y-85101785D02*
X142567319Y-85244642D01*
X142567319Y-85244642D02*
X142567319Y-85339880D01*
X142567319Y-85339880D02*
X142519700Y-85482737D01*
X142519700Y-85482737D02*
X142424461Y-85577975D01*
X142424461Y-85577975D02*
X142329223Y-85625594D01*
X142329223Y-85625594D02*
X142138747Y-85673213D01*
X142138747Y-85673213D02*
X141995890Y-85673213D01*
X141995890Y-85673213D02*
X141805414Y-85625594D01*
X141805414Y-85625594D02*
X141710176Y-85577975D01*
X141710176Y-85577975D02*
X141614938Y-85482737D01*
X141614938Y-85482737D02*
X141567319Y-85339880D01*
X141567319Y-85339880D02*
X141567319Y-85244642D01*
X141567319Y-85244642D02*
X141614938Y-85101785D01*
X141614938Y-85101785D02*
X141662557Y-85054166D01*
X141567319Y-84720832D02*
X141567319Y-84101785D01*
X141567319Y-84101785D02*
X141948271Y-84435118D01*
X141948271Y-84435118D02*
X141948271Y-84292261D01*
X141948271Y-84292261D02*
X141995890Y-84197023D01*
X141995890Y-84197023D02*
X142043509Y-84149404D01*
X142043509Y-84149404D02*
X142138747Y-84101785D01*
X142138747Y-84101785D02*
X142376842Y-84101785D01*
X142376842Y-84101785D02*
X142472080Y-84149404D01*
X142472080Y-84149404D02*
X142519700Y-84197023D01*
X142519700Y-84197023D02*
X142567319Y-84292261D01*
X142567319Y-84292261D02*
X142567319Y-84577975D01*
X142567319Y-84577975D02*
X142519700Y-84673213D01*
X142519700Y-84673213D02*
X142472080Y-84720832D01*
X145612557Y-86577975D02*
X145564938Y-86530356D01*
X145564938Y-86530356D02*
X145517319Y-86435118D01*
X145517319Y-86435118D02*
X145517319Y-86197023D01*
X145517319Y-86197023D02*
X145564938Y-86101785D01*
X145564938Y-86101785D02*
X145612557Y-86054166D01*
X145612557Y-86054166D02*
X145707795Y-86006547D01*
X145707795Y-86006547D02*
X145803033Y-86006547D01*
X145803033Y-86006547D02*
X145945890Y-86054166D01*
X145945890Y-86054166D02*
X146517319Y-86625594D01*
X146517319Y-86625594D02*
X146517319Y-86006547D01*
X145612557Y-85625594D02*
X145564938Y-85577975D01*
X145564938Y-85577975D02*
X145517319Y-85482737D01*
X145517319Y-85482737D02*
X145517319Y-85244642D01*
X145517319Y-85244642D02*
X145564938Y-85149404D01*
X145564938Y-85149404D02*
X145612557Y-85101785D01*
X145612557Y-85101785D02*
X145707795Y-85054166D01*
X145707795Y-85054166D02*
X145803033Y-85054166D01*
X145803033Y-85054166D02*
X145945890Y-85101785D01*
X145945890Y-85101785D02*
X146517319Y-85673213D01*
X146517319Y-85673213D02*
X146517319Y-85054166D01*
X145517319Y-84435118D02*
X145517319Y-84339880D01*
X145517319Y-84339880D02*
X145564938Y-84244642D01*
X145564938Y-84244642D02*
X145612557Y-84197023D01*
X145612557Y-84197023D02*
X145707795Y-84149404D01*
X145707795Y-84149404D02*
X145898271Y-84101785D01*
X145898271Y-84101785D02*
X146136366Y-84101785D01*
X146136366Y-84101785D02*
X146326842Y-84149404D01*
X146326842Y-84149404D02*
X146422080Y-84197023D01*
X146422080Y-84197023D02*
X146469700Y-84244642D01*
X146469700Y-84244642D02*
X146517319Y-84339880D01*
X146517319Y-84339880D02*
X146517319Y-84435118D01*
X146517319Y-84435118D02*
X146469700Y-84530356D01*
X146469700Y-84530356D02*
X146422080Y-84577975D01*
X146422080Y-84577975D02*
X146326842Y-84625594D01*
X146326842Y-84625594D02*
X146136366Y-84673213D01*
X146136366Y-84673213D02*
X145898271Y-84673213D01*
X145898271Y-84673213D02*
X145707795Y-84625594D01*
X145707795Y-84625594D02*
X145612557Y-84577975D01*
X145612557Y-84577975D02*
X145564938Y-84530356D01*
X145564938Y-84530356D02*
X145517319Y-84435118D01*
X145850652Y-83673213D02*
X146517319Y-83673213D01*
X145945890Y-83673213D02*
X145898271Y-83625594D01*
X145898271Y-83625594D02*
X145850652Y-83530356D01*
X145850652Y-83530356D02*
X145850652Y-83387499D01*
X145850652Y-83387499D02*
X145898271Y-83292261D01*
X145898271Y-83292261D02*
X145993509Y-83244642D01*
X145993509Y-83244642D02*
X146517319Y-83244642D01*
X142472080Y-103054166D02*
X142519700Y-103101785D01*
X142519700Y-103101785D02*
X142567319Y-103244642D01*
X142567319Y-103244642D02*
X142567319Y-103339880D01*
X142567319Y-103339880D02*
X142519700Y-103482737D01*
X142519700Y-103482737D02*
X142424461Y-103577975D01*
X142424461Y-103577975D02*
X142329223Y-103625594D01*
X142329223Y-103625594D02*
X142138747Y-103673213D01*
X142138747Y-103673213D02*
X141995890Y-103673213D01*
X141995890Y-103673213D02*
X141805414Y-103625594D01*
X141805414Y-103625594D02*
X141710176Y-103577975D01*
X141710176Y-103577975D02*
X141614938Y-103482737D01*
X141614938Y-103482737D02*
X141567319Y-103339880D01*
X141567319Y-103339880D02*
X141567319Y-103244642D01*
X141567319Y-103244642D02*
X141614938Y-103101785D01*
X141614938Y-103101785D02*
X141662557Y-103054166D01*
X141567319Y-102720832D02*
X141567319Y-102054166D01*
X141567319Y-102054166D02*
X142567319Y-102482737D01*
X145612557Y-104577975D02*
X145564938Y-104530356D01*
X145564938Y-104530356D02*
X145517319Y-104435118D01*
X145517319Y-104435118D02*
X145517319Y-104197023D01*
X145517319Y-104197023D02*
X145564938Y-104101785D01*
X145564938Y-104101785D02*
X145612557Y-104054166D01*
X145612557Y-104054166D02*
X145707795Y-104006547D01*
X145707795Y-104006547D02*
X145803033Y-104006547D01*
X145803033Y-104006547D02*
X145945890Y-104054166D01*
X145945890Y-104054166D02*
X146517319Y-104625594D01*
X146517319Y-104625594D02*
X146517319Y-104006547D01*
X145612557Y-103625594D02*
X145564938Y-103577975D01*
X145564938Y-103577975D02*
X145517319Y-103482737D01*
X145517319Y-103482737D02*
X145517319Y-103244642D01*
X145517319Y-103244642D02*
X145564938Y-103149404D01*
X145564938Y-103149404D02*
X145612557Y-103101785D01*
X145612557Y-103101785D02*
X145707795Y-103054166D01*
X145707795Y-103054166D02*
X145803033Y-103054166D01*
X145803033Y-103054166D02*
X145945890Y-103101785D01*
X145945890Y-103101785D02*
X146517319Y-103673213D01*
X146517319Y-103673213D02*
X146517319Y-103054166D01*
X145517319Y-102435118D02*
X145517319Y-102339880D01*
X145517319Y-102339880D02*
X145564938Y-102244642D01*
X145564938Y-102244642D02*
X145612557Y-102197023D01*
X145612557Y-102197023D02*
X145707795Y-102149404D01*
X145707795Y-102149404D02*
X145898271Y-102101785D01*
X145898271Y-102101785D02*
X146136366Y-102101785D01*
X146136366Y-102101785D02*
X146326842Y-102149404D01*
X146326842Y-102149404D02*
X146422080Y-102197023D01*
X146422080Y-102197023D02*
X146469700Y-102244642D01*
X146469700Y-102244642D02*
X146517319Y-102339880D01*
X146517319Y-102339880D02*
X146517319Y-102435118D01*
X146517319Y-102435118D02*
X146469700Y-102530356D01*
X146469700Y-102530356D02*
X146422080Y-102577975D01*
X146422080Y-102577975D02*
X146326842Y-102625594D01*
X146326842Y-102625594D02*
X146136366Y-102673213D01*
X146136366Y-102673213D02*
X145898271Y-102673213D01*
X145898271Y-102673213D02*
X145707795Y-102625594D01*
X145707795Y-102625594D02*
X145612557Y-102577975D01*
X145612557Y-102577975D02*
X145564938Y-102530356D01*
X145564938Y-102530356D02*
X145517319Y-102435118D01*
X145850652Y-101673213D02*
X146517319Y-101673213D01*
X145945890Y-101673213D02*
X145898271Y-101625594D01*
X145898271Y-101625594D02*
X145850652Y-101530356D01*
X145850652Y-101530356D02*
X145850652Y-101387499D01*
X145850652Y-101387499D02*
X145898271Y-101292261D01*
X145898271Y-101292261D02*
X145993509Y-101244642D01*
X145993509Y-101244642D02*
X146517319Y-101244642D01*
X94333333Y-76947080D02*
X94285714Y-76994700D01*
X94285714Y-76994700D02*
X94142857Y-77042319D01*
X94142857Y-77042319D02*
X94047619Y-77042319D01*
X94047619Y-77042319D02*
X93904762Y-76994700D01*
X93904762Y-76994700D02*
X93809524Y-76899461D01*
X93809524Y-76899461D02*
X93761905Y-76804223D01*
X93761905Y-76804223D02*
X93714286Y-76613747D01*
X93714286Y-76613747D02*
X93714286Y-76470890D01*
X93714286Y-76470890D02*
X93761905Y-76280414D01*
X93761905Y-76280414D02*
X93809524Y-76185176D01*
X93809524Y-76185176D02*
X93904762Y-76089938D01*
X93904762Y-76089938D02*
X94047619Y-76042319D01*
X94047619Y-76042319D02*
X94142857Y-76042319D01*
X94142857Y-76042319D02*
X94285714Y-76089938D01*
X94285714Y-76089938D02*
X94333333Y-76137557D01*
X95285714Y-77042319D02*
X94714286Y-77042319D01*
X95000000Y-77042319D02*
X95000000Y-76042319D01*
X95000000Y-76042319D02*
X94904762Y-76185176D01*
X94904762Y-76185176D02*
X94809524Y-76280414D01*
X94809524Y-76280414D02*
X94714286Y-76328033D01*
X92809524Y-80337557D02*
X92857143Y-80289938D01*
X92857143Y-80289938D02*
X92952381Y-80242319D01*
X92952381Y-80242319D02*
X93190476Y-80242319D01*
X93190476Y-80242319D02*
X93285714Y-80289938D01*
X93285714Y-80289938D02*
X93333333Y-80337557D01*
X93333333Y-80337557D02*
X93380952Y-80432795D01*
X93380952Y-80432795D02*
X93380952Y-80528033D01*
X93380952Y-80528033D02*
X93333333Y-80670890D01*
X93333333Y-80670890D02*
X92761905Y-81242319D01*
X92761905Y-81242319D02*
X93380952Y-81242319D01*
X93761905Y-80337557D02*
X93809524Y-80289938D01*
X93809524Y-80289938D02*
X93904762Y-80242319D01*
X93904762Y-80242319D02*
X94142857Y-80242319D01*
X94142857Y-80242319D02*
X94238095Y-80289938D01*
X94238095Y-80289938D02*
X94285714Y-80337557D01*
X94285714Y-80337557D02*
X94333333Y-80432795D01*
X94333333Y-80432795D02*
X94333333Y-80528033D01*
X94333333Y-80528033D02*
X94285714Y-80670890D01*
X94285714Y-80670890D02*
X93714286Y-81242319D01*
X93714286Y-81242319D02*
X94333333Y-81242319D01*
X94952381Y-80242319D02*
X95047619Y-80242319D01*
X95047619Y-80242319D02*
X95142857Y-80289938D01*
X95142857Y-80289938D02*
X95190476Y-80337557D01*
X95190476Y-80337557D02*
X95238095Y-80432795D01*
X95238095Y-80432795D02*
X95285714Y-80623271D01*
X95285714Y-80623271D02*
X95285714Y-80861366D01*
X95285714Y-80861366D02*
X95238095Y-81051842D01*
X95238095Y-81051842D02*
X95190476Y-81147080D01*
X95190476Y-81147080D02*
X95142857Y-81194700D01*
X95142857Y-81194700D02*
X95047619Y-81242319D01*
X95047619Y-81242319D02*
X94952381Y-81242319D01*
X94952381Y-81242319D02*
X94857143Y-81194700D01*
X94857143Y-81194700D02*
X94809524Y-81147080D01*
X94809524Y-81147080D02*
X94761905Y-81051842D01*
X94761905Y-81051842D02*
X94714286Y-80861366D01*
X94714286Y-80861366D02*
X94714286Y-80623271D01*
X94714286Y-80623271D02*
X94761905Y-80432795D01*
X94761905Y-80432795D02*
X94809524Y-80337557D01*
X94809524Y-80337557D02*
X94857143Y-80289938D01*
X94857143Y-80289938D02*
X94952381Y-80242319D01*
X95714286Y-80575652D02*
X95714286Y-81242319D01*
X95714286Y-80670890D02*
X95761905Y-80623271D01*
X95761905Y-80623271D02*
X95857143Y-80575652D01*
X95857143Y-80575652D02*
X96000000Y-80575652D01*
X96000000Y-80575652D02*
X96095238Y-80623271D01*
X96095238Y-80623271D02*
X96142857Y-80718509D01*
X96142857Y-80718509D02*
X96142857Y-81242319D01*
X158009580Y-113705357D02*
X158057200Y-113752976D01*
X158057200Y-113752976D02*
X158104819Y-113895833D01*
X158104819Y-113895833D02*
X158104819Y-113991071D01*
X158104819Y-113991071D02*
X158057200Y-114133928D01*
X158057200Y-114133928D02*
X157961961Y-114229166D01*
X157961961Y-114229166D02*
X157866723Y-114276785D01*
X157866723Y-114276785D02*
X157676247Y-114324404D01*
X157676247Y-114324404D02*
X157533390Y-114324404D01*
X157533390Y-114324404D02*
X157342914Y-114276785D01*
X157342914Y-114276785D02*
X157247676Y-114229166D01*
X157247676Y-114229166D02*
X157152438Y-114133928D01*
X157152438Y-114133928D02*
X157104819Y-113991071D01*
X157104819Y-113991071D02*
X157104819Y-113895833D01*
X157104819Y-113895833D02*
X157152438Y-113752976D01*
X157152438Y-113752976D02*
X157200057Y-113705357D01*
X158104819Y-112752976D02*
X158104819Y-113324404D01*
X158104819Y-113038690D02*
X157104819Y-113038690D01*
X157104819Y-113038690D02*
X157247676Y-113133928D01*
X157247676Y-113133928D02*
X157342914Y-113229166D01*
X157342914Y-113229166D02*
X157390533Y-113324404D01*
X157104819Y-112133928D02*
X157104819Y-112038690D01*
X157104819Y-112038690D02*
X157152438Y-111943452D01*
X157152438Y-111943452D02*
X157200057Y-111895833D01*
X157200057Y-111895833D02*
X157295295Y-111848214D01*
X157295295Y-111848214D02*
X157485771Y-111800595D01*
X157485771Y-111800595D02*
X157723866Y-111800595D01*
X157723866Y-111800595D02*
X157914342Y-111848214D01*
X157914342Y-111848214D02*
X158009580Y-111895833D01*
X158009580Y-111895833D02*
X158057200Y-111943452D01*
X158057200Y-111943452D02*
X158104819Y-112038690D01*
X158104819Y-112038690D02*
X158104819Y-112133928D01*
X158104819Y-112133928D02*
X158057200Y-112229166D01*
X158057200Y-112229166D02*
X158009580Y-112276785D01*
X158009580Y-112276785D02*
X157914342Y-112324404D01*
X157914342Y-112324404D02*
X157723866Y-112372023D01*
X157723866Y-112372023D02*
X157485771Y-112372023D01*
X157485771Y-112372023D02*
X157295295Y-112324404D01*
X157295295Y-112324404D02*
X157200057Y-112276785D01*
X157200057Y-112276785D02*
X157152438Y-112229166D01*
X157152438Y-112229166D02*
X157104819Y-112133928D01*
X161804819Y-113229166D02*
X161804819Y-113800594D01*
X161804819Y-113514880D02*
X160804819Y-113514880D01*
X160804819Y-113514880D02*
X160947676Y-113610118D01*
X160947676Y-113610118D02*
X161042914Y-113705356D01*
X161042914Y-113705356D02*
X161090533Y-113800594D01*
X161138152Y-112800594D02*
X161804819Y-112800594D01*
X161233390Y-112800594D02*
X161185771Y-112752975D01*
X161185771Y-112752975D02*
X161138152Y-112657737D01*
X161138152Y-112657737D02*
X161138152Y-112514880D01*
X161138152Y-112514880D02*
X161185771Y-112419642D01*
X161185771Y-112419642D02*
X161281009Y-112372023D01*
X161281009Y-112372023D02*
X161804819Y-112372023D01*
X152067319Y-125149404D02*
X152876842Y-125149404D01*
X152876842Y-125149404D02*
X152972080Y-125101785D01*
X152972080Y-125101785D02*
X153019700Y-125054166D01*
X153019700Y-125054166D02*
X153067319Y-124958928D01*
X153067319Y-124958928D02*
X153067319Y-124768452D01*
X153067319Y-124768452D02*
X153019700Y-124673214D01*
X153019700Y-124673214D02*
X152972080Y-124625595D01*
X152972080Y-124625595D02*
X152876842Y-124577976D01*
X152876842Y-124577976D02*
X152067319Y-124577976D01*
X152067319Y-123625595D02*
X152067319Y-124101785D01*
X152067319Y-124101785D02*
X152543509Y-124149404D01*
X152543509Y-124149404D02*
X152495890Y-124101785D01*
X152495890Y-124101785D02*
X152448271Y-124006547D01*
X152448271Y-124006547D02*
X152448271Y-123768452D01*
X152448271Y-123768452D02*
X152495890Y-123673214D01*
X152495890Y-123673214D02*
X152543509Y-123625595D01*
X152543509Y-123625595D02*
X152638747Y-123577976D01*
X152638747Y-123577976D02*
X152876842Y-123577976D01*
X152876842Y-123577976D02*
X152972080Y-123625595D01*
X152972080Y-123625595D02*
X153019700Y-123673214D01*
X153019700Y-123673214D02*
X153067319Y-123768452D01*
X153067319Y-123768452D02*
X153067319Y-124006547D01*
X153067319Y-124006547D02*
X153019700Y-124101785D01*
X153019700Y-124101785D02*
X152972080Y-124149404D01*
X142009580Y-132205357D02*
X142057200Y-132252976D01*
X142057200Y-132252976D02*
X142104819Y-132395833D01*
X142104819Y-132395833D02*
X142104819Y-132491071D01*
X142104819Y-132491071D02*
X142057200Y-132633928D01*
X142057200Y-132633928D02*
X141961961Y-132729166D01*
X141961961Y-132729166D02*
X141866723Y-132776785D01*
X141866723Y-132776785D02*
X141676247Y-132824404D01*
X141676247Y-132824404D02*
X141533390Y-132824404D01*
X141533390Y-132824404D02*
X141342914Y-132776785D01*
X141342914Y-132776785D02*
X141247676Y-132729166D01*
X141247676Y-132729166D02*
X141152438Y-132633928D01*
X141152438Y-132633928D02*
X141104819Y-132491071D01*
X141104819Y-132491071D02*
X141104819Y-132395833D01*
X141104819Y-132395833D02*
X141152438Y-132252976D01*
X141152438Y-132252976D02*
X141200057Y-132205357D01*
X142104819Y-131252976D02*
X142104819Y-131824404D01*
X142104819Y-131538690D02*
X141104819Y-131538690D01*
X141104819Y-131538690D02*
X141247676Y-131633928D01*
X141247676Y-131633928D02*
X141342914Y-131729166D01*
X141342914Y-131729166D02*
X141390533Y-131824404D01*
X141104819Y-130919642D02*
X141104819Y-130300595D01*
X141104819Y-130300595D02*
X141485771Y-130633928D01*
X141485771Y-130633928D02*
X141485771Y-130491071D01*
X141485771Y-130491071D02*
X141533390Y-130395833D01*
X141533390Y-130395833D02*
X141581009Y-130348214D01*
X141581009Y-130348214D02*
X141676247Y-130300595D01*
X141676247Y-130300595D02*
X141914342Y-130300595D01*
X141914342Y-130300595D02*
X142009580Y-130348214D01*
X142009580Y-130348214D02*
X142057200Y-130395833D01*
X142057200Y-130395833D02*
X142104819Y-130491071D01*
X142104819Y-130491071D02*
X142104819Y-130776785D01*
X142104819Y-130776785D02*
X142057200Y-130872023D01*
X142057200Y-130872023D02*
X142009580Y-130919642D01*
X144900057Y-133252975D02*
X144852438Y-133205356D01*
X144852438Y-133205356D02*
X144804819Y-133110118D01*
X144804819Y-133110118D02*
X144804819Y-132872023D01*
X144804819Y-132872023D02*
X144852438Y-132776785D01*
X144852438Y-132776785D02*
X144900057Y-132729166D01*
X144900057Y-132729166D02*
X144995295Y-132681547D01*
X144995295Y-132681547D02*
X145090533Y-132681547D01*
X145090533Y-132681547D02*
X145233390Y-132729166D01*
X145233390Y-132729166D02*
X145804819Y-133300594D01*
X145804819Y-133300594D02*
X145804819Y-132681547D01*
X144900057Y-132300594D02*
X144852438Y-132252975D01*
X144852438Y-132252975D02*
X144804819Y-132157737D01*
X144804819Y-132157737D02*
X144804819Y-131919642D01*
X144804819Y-131919642D02*
X144852438Y-131824404D01*
X144852438Y-131824404D02*
X144900057Y-131776785D01*
X144900057Y-131776785D02*
X144995295Y-131729166D01*
X144995295Y-131729166D02*
X145090533Y-131729166D01*
X145090533Y-131729166D02*
X145233390Y-131776785D01*
X145233390Y-131776785D02*
X145804819Y-132348213D01*
X145804819Y-132348213D02*
X145804819Y-131729166D01*
X144804819Y-131110118D02*
X144804819Y-131014880D01*
X144804819Y-131014880D02*
X144852438Y-130919642D01*
X144852438Y-130919642D02*
X144900057Y-130872023D01*
X144900057Y-130872023D02*
X144995295Y-130824404D01*
X144995295Y-130824404D02*
X145185771Y-130776785D01*
X145185771Y-130776785D02*
X145423866Y-130776785D01*
X145423866Y-130776785D02*
X145614342Y-130824404D01*
X145614342Y-130824404D02*
X145709580Y-130872023D01*
X145709580Y-130872023D02*
X145757200Y-130919642D01*
X145757200Y-130919642D02*
X145804819Y-131014880D01*
X145804819Y-131014880D02*
X145804819Y-131110118D01*
X145804819Y-131110118D02*
X145757200Y-131205356D01*
X145757200Y-131205356D02*
X145709580Y-131252975D01*
X145709580Y-131252975D02*
X145614342Y-131300594D01*
X145614342Y-131300594D02*
X145423866Y-131348213D01*
X145423866Y-131348213D02*
X145185771Y-131348213D01*
X145185771Y-131348213D02*
X144995295Y-131300594D01*
X144995295Y-131300594D02*
X144900057Y-131252975D01*
X144900057Y-131252975D02*
X144852438Y-131205356D01*
X144852438Y-131205356D02*
X144804819Y-131110118D01*
X145138152Y-130348213D02*
X145804819Y-130348213D01*
X145233390Y-130348213D02*
X145185771Y-130300594D01*
X145185771Y-130300594D02*
X145138152Y-130205356D01*
X145138152Y-130205356D02*
X145138152Y-130062499D01*
X145138152Y-130062499D02*
X145185771Y-129967261D01*
X145185771Y-129967261D02*
X145281009Y-129919642D01*
X145281009Y-129919642D02*
X145804819Y-129919642D01*
X96283333Y-123624819D02*
X95950000Y-123148628D01*
X95711905Y-123624819D02*
X95711905Y-122624819D01*
X95711905Y-122624819D02*
X96092857Y-122624819D01*
X96092857Y-122624819D02*
X96188095Y-122672438D01*
X96188095Y-122672438D02*
X96235714Y-122720057D01*
X96235714Y-122720057D02*
X96283333Y-122815295D01*
X96283333Y-122815295D02*
X96283333Y-122958152D01*
X96283333Y-122958152D02*
X96235714Y-123053390D01*
X96235714Y-123053390D02*
X96188095Y-123101009D01*
X96188095Y-123101009D02*
X96092857Y-123148628D01*
X96092857Y-123148628D02*
X95711905Y-123148628D01*
X96664286Y-122720057D02*
X96711905Y-122672438D01*
X96711905Y-122672438D02*
X96807143Y-122624819D01*
X96807143Y-122624819D02*
X97045238Y-122624819D01*
X97045238Y-122624819D02*
X97140476Y-122672438D01*
X97140476Y-122672438D02*
X97188095Y-122720057D01*
X97188095Y-122720057D02*
X97235714Y-122815295D01*
X97235714Y-122815295D02*
X97235714Y-122910533D01*
X97235714Y-122910533D02*
X97188095Y-123053390D01*
X97188095Y-123053390D02*
X96616667Y-123624819D01*
X96616667Y-123624819D02*
X97235714Y-123624819D01*
X157472080Y-84491666D02*
X157519700Y-84539285D01*
X157519700Y-84539285D02*
X157567319Y-84682142D01*
X157567319Y-84682142D02*
X157567319Y-84777380D01*
X157567319Y-84777380D02*
X157519700Y-84920237D01*
X157519700Y-84920237D02*
X157424461Y-85015475D01*
X157424461Y-85015475D02*
X157329223Y-85063094D01*
X157329223Y-85063094D02*
X157138747Y-85110713D01*
X157138747Y-85110713D02*
X156995890Y-85110713D01*
X156995890Y-85110713D02*
X156805414Y-85063094D01*
X156805414Y-85063094D02*
X156710176Y-85015475D01*
X156710176Y-85015475D02*
X156614938Y-84920237D01*
X156614938Y-84920237D02*
X156567319Y-84777380D01*
X156567319Y-84777380D02*
X156567319Y-84682142D01*
X156567319Y-84682142D02*
X156614938Y-84539285D01*
X156614938Y-84539285D02*
X156662557Y-84491666D01*
X156900652Y-83634523D02*
X157567319Y-83634523D01*
X156519700Y-83872618D02*
X157233985Y-84110713D01*
X157233985Y-84110713D02*
X157233985Y-83491666D01*
X161267319Y-84491666D02*
X161267319Y-85063094D01*
X161267319Y-84777380D02*
X160267319Y-84777380D01*
X160267319Y-84777380D02*
X160410176Y-84872618D01*
X160410176Y-84872618D02*
X160505414Y-84967856D01*
X160505414Y-84967856D02*
X160553033Y-85063094D01*
X160600652Y-84063094D02*
X161267319Y-84063094D01*
X160695890Y-84063094D02*
X160648271Y-84015475D01*
X160648271Y-84015475D02*
X160600652Y-83920237D01*
X160600652Y-83920237D02*
X160600652Y-83777380D01*
X160600652Y-83777380D02*
X160648271Y-83682142D01*
X160648271Y-83682142D02*
X160743509Y-83634523D01*
X160743509Y-83634523D02*
X161267319Y-83634523D01*
X142009580Y-122142857D02*
X142057200Y-122190476D01*
X142057200Y-122190476D02*
X142104819Y-122333333D01*
X142104819Y-122333333D02*
X142104819Y-122428571D01*
X142104819Y-122428571D02*
X142057200Y-122571428D01*
X142057200Y-122571428D02*
X141961961Y-122666666D01*
X141961961Y-122666666D02*
X141866723Y-122714285D01*
X141866723Y-122714285D02*
X141676247Y-122761904D01*
X141676247Y-122761904D02*
X141533390Y-122761904D01*
X141533390Y-122761904D02*
X141342914Y-122714285D01*
X141342914Y-122714285D02*
X141247676Y-122666666D01*
X141247676Y-122666666D02*
X141152438Y-122571428D01*
X141152438Y-122571428D02*
X141104819Y-122428571D01*
X141104819Y-122428571D02*
X141104819Y-122333333D01*
X141104819Y-122333333D02*
X141152438Y-122190476D01*
X141152438Y-122190476D02*
X141200057Y-122142857D01*
X142104819Y-121190476D02*
X142104819Y-121761904D01*
X142104819Y-121476190D02*
X141104819Y-121476190D01*
X141104819Y-121476190D02*
X141247676Y-121571428D01*
X141247676Y-121571428D02*
X141342914Y-121666666D01*
X141342914Y-121666666D02*
X141390533Y-121761904D01*
X142104819Y-120238095D02*
X142104819Y-120809523D01*
X142104819Y-120523809D02*
X141104819Y-120523809D01*
X141104819Y-120523809D02*
X141247676Y-120619047D01*
X141247676Y-120619047D02*
X141342914Y-120714285D01*
X141342914Y-120714285D02*
X141390533Y-120809523D01*
X145150057Y-123190475D02*
X145102438Y-123142856D01*
X145102438Y-123142856D02*
X145054819Y-123047618D01*
X145054819Y-123047618D02*
X145054819Y-122809523D01*
X145054819Y-122809523D02*
X145102438Y-122714285D01*
X145102438Y-122714285D02*
X145150057Y-122666666D01*
X145150057Y-122666666D02*
X145245295Y-122619047D01*
X145245295Y-122619047D02*
X145340533Y-122619047D01*
X145340533Y-122619047D02*
X145483390Y-122666666D01*
X145483390Y-122666666D02*
X146054819Y-123238094D01*
X146054819Y-123238094D02*
X146054819Y-122619047D01*
X145150057Y-122238094D02*
X145102438Y-122190475D01*
X145102438Y-122190475D02*
X145054819Y-122095237D01*
X145054819Y-122095237D02*
X145054819Y-121857142D01*
X145054819Y-121857142D02*
X145102438Y-121761904D01*
X145102438Y-121761904D02*
X145150057Y-121714285D01*
X145150057Y-121714285D02*
X145245295Y-121666666D01*
X145245295Y-121666666D02*
X145340533Y-121666666D01*
X145340533Y-121666666D02*
X145483390Y-121714285D01*
X145483390Y-121714285D02*
X146054819Y-122285713D01*
X146054819Y-122285713D02*
X146054819Y-121666666D01*
X145054819Y-121047618D02*
X145054819Y-120952380D01*
X145054819Y-120952380D02*
X145102438Y-120857142D01*
X145102438Y-120857142D02*
X145150057Y-120809523D01*
X145150057Y-120809523D02*
X145245295Y-120761904D01*
X145245295Y-120761904D02*
X145435771Y-120714285D01*
X145435771Y-120714285D02*
X145673866Y-120714285D01*
X145673866Y-120714285D02*
X145864342Y-120761904D01*
X145864342Y-120761904D02*
X145959580Y-120809523D01*
X145959580Y-120809523D02*
X146007200Y-120857142D01*
X146007200Y-120857142D02*
X146054819Y-120952380D01*
X146054819Y-120952380D02*
X146054819Y-121047618D01*
X146054819Y-121047618D02*
X146007200Y-121142856D01*
X146007200Y-121142856D02*
X145959580Y-121190475D01*
X145959580Y-121190475D02*
X145864342Y-121238094D01*
X145864342Y-121238094D02*
X145673866Y-121285713D01*
X145673866Y-121285713D02*
X145435771Y-121285713D01*
X145435771Y-121285713D02*
X145245295Y-121238094D01*
X145245295Y-121238094D02*
X145150057Y-121190475D01*
X145150057Y-121190475D02*
X145102438Y-121142856D01*
X145102438Y-121142856D02*
X145054819Y-121047618D01*
X145388152Y-120285713D02*
X146054819Y-120285713D01*
X145483390Y-120285713D02*
X145435771Y-120238094D01*
X145435771Y-120238094D02*
X145388152Y-120142856D01*
X145388152Y-120142856D02*
X145388152Y-119999999D01*
X145388152Y-119999999D02*
X145435771Y-119904761D01*
X145435771Y-119904761D02*
X145531009Y-119857142D01*
X145531009Y-119857142D02*
X146054819Y-119857142D01*
D10*
X78792580Y-93583333D02*
X78792580Y-93107143D01*
X78792580Y-93107143D02*
X79792580Y-93107143D01*
X78792580Y-94440476D02*
X78792580Y-93869048D01*
X78792580Y-94154762D02*
X79792580Y-94154762D01*
X79792580Y-94154762D02*
X79649723Y-94059524D01*
X79649723Y-94059524D02*
X79554485Y-93964286D01*
X79554485Y-93964286D02*
X79506866Y-93869048D01*
D11*
X152379819Y-87236904D02*
X153189342Y-87236904D01*
X153189342Y-87236904D02*
X153284580Y-87189285D01*
X153284580Y-87189285D02*
X153332200Y-87141666D01*
X153332200Y-87141666D02*
X153379819Y-87046428D01*
X153379819Y-87046428D02*
X153379819Y-86855952D01*
X153379819Y-86855952D02*
X153332200Y-86760714D01*
X153332200Y-86760714D02*
X153284580Y-86713095D01*
X153284580Y-86713095D02*
X153189342Y-86665476D01*
X153189342Y-86665476D02*
X152379819Y-86665476D01*
X153379819Y-85665476D02*
X153379819Y-86236904D01*
X153379819Y-85951190D02*
X152379819Y-85951190D01*
X152379819Y-85951190D02*
X152522676Y-86046428D01*
X152522676Y-86046428D02*
X152617914Y-86141666D01*
X152617914Y-86141666D02*
X152665533Y-86236904D01*
X141972080Y-93054166D02*
X142019700Y-93101785D01*
X142019700Y-93101785D02*
X142067319Y-93244642D01*
X142067319Y-93244642D02*
X142067319Y-93339880D01*
X142067319Y-93339880D02*
X142019700Y-93482737D01*
X142019700Y-93482737D02*
X141924461Y-93577975D01*
X141924461Y-93577975D02*
X141829223Y-93625594D01*
X141829223Y-93625594D02*
X141638747Y-93673213D01*
X141638747Y-93673213D02*
X141495890Y-93673213D01*
X141495890Y-93673213D02*
X141305414Y-93625594D01*
X141305414Y-93625594D02*
X141210176Y-93577975D01*
X141210176Y-93577975D02*
X141114938Y-93482737D01*
X141114938Y-93482737D02*
X141067319Y-93339880D01*
X141067319Y-93339880D02*
X141067319Y-93244642D01*
X141067319Y-93244642D02*
X141114938Y-93101785D01*
X141114938Y-93101785D02*
X141162557Y-93054166D01*
X141067319Y-92149404D02*
X141067319Y-92625594D01*
X141067319Y-92625594D02*
X141543509Y-92673213D01*
X141543509Y-92673213D02*
X141495890Y-92625594D01*
X141495890Y-92625594D02*
X141448271Y-92530356D01*
X141448271Y-92530356D02*
X141448271Y-92292261D01*
X141448271Y-92292261D02*
X141495890Y-92197023D01*
X141495890Y-92197023D02*
X141543509Y-92149404D01*
X141543509Y-92149404D02*
X141638747Y-92101785D01*
X141638747Y-92101785D02*
X141876842Y-92101785D01*
X141876842Y-92101785D02*
X141972080Y-92149404D01*
X141972080Y-92149404D02*
X142019700Y-92197023D01*
X142019700Y-92197023D02*
X142067319Y-92292261D01*
X142067319Y-92292261D02*
X142067319Y-92530356D01*
X142067319Y-92530356D02*
X142019700Y-92625594D01*
X142019700Y-92625594D02*
X141972080Y-92673213D01*
X145112557Y-94577975D02*
X145064938Y-94530356D01*
X145064938Y-94530356D02*
X145017319Y-94435118D01*
X145017319Y-94435118D02*
X145017319Y-94197023D01*
X145017319Y-94197023D02*
X145064938Y-94101785D01*
X145064938Y-94101785D02*
X145112557Y-94054166D01*
X145112557Y-94054166D02*
X145207795Y-94006547D01*
X145207795Y-94006547D02*
X145303033Y-94006547D01*
X145303033Y-94006547D02*
X145445890Y-94054166D01*
X145445890Y-94054166D02*
X146017319Y-94625594D01*
X146017319Y-94625594D02*
X146017319Y-94006547D01*
X145112557Y-93625594D02*
X145064938Y-93577975D01*
X145064938Y-93577975D02*
X145017319Y-93482737D01*
X145017319Y-93482737D02*
X145017319Y-93244642D01*
X145017319Y-93244642D02*
X145064938Y-93149404D01*
X145064938Y-93149404D02*
X145112557Y-93101785D01*
X145112557Y-93101785D02*
X145207795Y-93054166D01*
X145207795Y-93054166D02*
X145303033Y-93054166D01*
X145303033Y-93054166D02*
X145445890Y-93101785D01*
X145445890Y-93101785D02*
X146017319Y-93673213D01*
X146017319Y-93673213D02*
X146017319Y-93054166D01*
X145017319Y-92435118D02*
X145017319Y-92339880D01*
X145017319Y-92339880D02*
X145064938Y-92244642D01*
X145064938Y-92244642D02*
X145112557Y-92197023D01*
X145112557Y-92197023D02*
X145207795Y-92149404D01*
X145207795Y-92149404D02*
X145398271Y-92101785D01*
X145398271Y-92101785D02*
X145636366Y-92101785D01*
X145636366Y-92101785D02*
X145826842Y-92149404D01*
X145826842Y-92149404D02*
X145922080Y-92197023D01*
X145922080Y-92197023D02*
X145969700Y-92244642D01*
X145969700Y-92244642D02*
X146017319Y-92339880D01*
X146017319Y-92339880D02*
X146017319Y-92435118D01*
X146017319Y-92435118D02*
X145969700Y-92530356D01*
X145969700Y-92530356D02*
X145922080Y-92577975D01*
X145922080Y-92577975D02*
X145826842Y-92625594D01*
X145826842Y-92625594D02*
X145636366Y-92673213D01*
X145636366Y-92673213D02*
X145398271Y-92673213D01*
X145398271Y-92673213D02*
X145207795Y-92625594D01*
X145207795Y-92625594D02*
X145112557Y-92577975D01*
X145112557Y-92577975D02*
X145064938Y-92530356D01*
X145064938Y-92530356D02*
X145017319Y-92435118D01*
X145350652Y-91673213D02*
X146017319Y-91673213D01*
X145445890Y-91673213D02*
X145398271Y-91625594D01*
X145398271Y-91625594D02*
X145350652Y-91530356D01*
X145350652Y-91530356D02*
X145350652Y-91387499D01*
X145350652Y-91387499D02*
X145398271Y-91292261D01*
X145398271Y-91292261D02*
X145493509Y-91244642D01*
X145493509Y-91244642D02*
X146017319Y-91244642D01*
X157572080Y-132142857D02*
X157619700Y-132190476D01*
X157619700Y-132190476D02*
X157667319Y-132333333D01*
X157667319Y-132333333D02*
X157667319Y-132428571D01*
X157667319Y-132428571D02*
X157619700Y-132571428D01*
X157619700Y-132571428D02*
X157524461Y-132666666D01*
X157524461Y-132666666D02*
X157429223Y-132714285D01*
X157429223Y-132714285D02*
X157238747Y-132761904D01*
X157238747Y-132761904D02*
X157095890Y-132761904D01*
X157095890Y-132761904D02*
X156905414Y-132714285D01*
X156905414Y-132714285D02*
X156810176Y-132666666D01*
X156810176Y-132666666D02*
X156714938Y-132571428D01*
X156714938Y-132571428D02*
X156667319Y-132428571D01*
X156667319Y-132428571D02*
X156667319Y-132333333D01*
X156667319Y-132333333D02*
X156714938Y-132190476D01*
X156714938Y-132190476D02*
X156762557Y-132142857D01*
X157667319Y-131190476D02*
X157667319Y-131761904D01*
X157667319Y-131476190D02*
X156667319Y-131476190D01*
X156667319Y-131476190D02*
X156810176Y-131571428D01*
X156810176Y-131571428D02*
X156905414Y-131666666D01*
X156905414Y-131666666D02*
X156953033Y-131761904D01*
X157000652Y-130333333D02*
X157667319Y-130333333D01*
X156619700Y-130571428D02*
X157333985Y-130809523D01*
X157333985Y-130809523D02*
X157333985Y-130190476D01*
X161367319Y-131666666D02*
X161367319Y-132238094D01*
X161367319Y-131952380D02*
X160367319Y-131952380D01*
X160367319Y-131952380D02*
X160510176Y-132047618D01*
X160510176Y-132047618D02*
X160605414Y-132142856D01*
X160605414Y-132142856D02*
X160653033Y-132238094D01*
X160700652Y-131238094D02*
X161367319Y-131238094D01*
X160795890Y-131238094D02*
X160748271Y-131190475D01*
X160748271Y-131190475D02*
X160700652Y-131095237D01*
X160700652Y-131095237D02*
X160700652Y-130952380D01*
X160700652Y-130952380D02*
X160748271Y-130857142D01*
X160748271Y-130857142D02*
X160843509Y-130809523D01*
X160843509Y-130809523D02*
X161367319Y-130809523D01*
X123973214Y-83019104D02*
X124449404Y-83019104D01*
X123877976Y-83304819D02*
X124211309Y-82304819D01*
X124211309Y-82304819D02*
X124544642Y-83304819D01*
X125401785Y-83304819D02*
X124830357Y-83304819D01*
X125116071Y-83304819D02*
X125116071Y-82304819D01*
X125116071Y-82304819D02*
X125020833Y-82447676D01*
X125020833Y-82447676D02*
X124925595Y-82542914D01*
X124925595Y-82542914D02*
X124830357Y-82590533D01*
X157509580Y-123142857D02*
X157557200Y-123190476D01*
X157557200Y-123190476D02*
X157604819Y-123333333D01*
X157604819Y-123333333D02*
X157604819Y-123428571D01*
X157604819Y-123428571D02*
X157557200Y-123571428D01*
X157557200Y-123571428D02*
X157461961Y-123666666D01*
X157461961Y-123666666D02*
X157366723Y-123714285D01*
X157366723Y-123714285D02*
X157176247Y-123761904D01*
X157176247Y-123761904D02*
X157033390Y-123761904D01*
X157033390Y-123761904D02*
X156842914Y-123714285D01*
X156842914Y-123714285D02*
X156747676Y-123666666D01*
X156747676Y-123666666D02*
X156652438Y-123571428D01*
X156652438Y-123571428D02*
X156604819Y-123428571D01*
X156604819Y-123428571D02*
X156604819Y-123333333D01*
X156604819Y-123333333D02*
X156652438Y-123190476D01*
X156652438Y-123190476D02*
X156700057Y-123142857D01*
X157604819Y-122190476D02*
X157604819Y-122761904D01*
X157604819Y-122476190D02*
X156604819Y-122476190D01*
X156604819Y-122476190D02*
X156747676Y-122571428D01*
X156747676Y-122571428D02*
X156842914Y-122666666D01*
X156842914Y-122666666D02*
X156890533Y-122761904D01*
X156700057Y-121809523D02*
X156652438Y-121761904D01*
X156652438Y-121761904D02*
X156604819Y-121666666D01*
X156604819Y-121666666D02*
X156604819Y-121428571D01*
X156604819Y-121428571D02*
X156652438Y-121333333D01*
X156652438Y-121333333D02*
X156700057Y-121285714D01*
X156700057Y-121285714D02*
X156795295Y-121238095D01*
X156795295Y-121238095D02*
X156890533Y-121238095D01*
X156890533Y-121238095D02*
X157033390Y-121285714D01*
X157033390Y-121285714D02*
X157604819Y-121857142D01*
X157604819Y-121857142D02*
X157604819Y-121238095D01*
X161304819Y-122666666D02*
X161304819Y-123238094D01*
X161304819Y-122952380D02*
X160304819Y-122952380D01*
X160304819Y-122952380D02*
X160447676Y-123047618D01*
X160447676Y-123047618D02*
X160542914Y-123142856D01*
X160542914Y-123142856D02*
X160590533Y-123238094D01*
X160638152Y-122238094D02*
X161304819Y-122238094D01*
X160733390Y-122238094D02*
X160685771Y-122190475D01*
X160685771Y-122190475D02*
X160638152Y-122095237D01*
X160638152Y-122095237D02*
X160638152Y-121952380D01*
X160638152Y-121952380D02*
X160685771Y-121857142D01*
X160685771Y-121857142D02*
X160781009Y-121809523D01*
X160781009Y-121809523D02*
X161304819Y-121809523D01*
X78998095Y-116454819D02*
X78998095Y-117264342D01*
X78998095Y-117264342D02*
X79045714Y-117359580D01*
X79045714Y-117359580D02*
X79093333Y-117407200D01*
X79093333Y-117407200D02*
X79188571Y-117454819D01*
X79188571Y-117454819D02*
X79379047Y-117454819D01*
X79379047Y-117454819D02*
X79474285Y-117407200D01*
X79474285Y-117407200D02*
X79521904Y-117359580D01*
X79521904Y-117359580D02*
X79569523Y-117264342D01*
X79569523Y-117264342D02*
X79569523Y-116454819D01*
X80188571Y-116883390D02*
X80093333Y-116835771D01*
X80093333Y-116835771D02*
X80045714Y-116788152D01*
X80045714Y-116788152D02*
X79998095Y-116692914D01*
X79998095Y-116692914D02*
X79998095Y-116645295D01*
X79998095Y-116645295D02*
X80045714Y-116550057D01*
X80045714Y-116550057D02*
X80093333Y-116502438D01*
X80093333Y-116502438D02*
X80188571Y-116454819D01*
X80188571Y-116454819D02*
X80379047Y-116454819D01*
X80379047Y-116454819D02*
X80474285Y-116502438D01*
X80474285Y-116502438D02*
X80521904Y-116550057D01*
X80521904Y-116550057D02*
X80569523Y-116645295D01*
X80569523Y-116645295D02*
X80569523Y-116692914D01*
X80569523Y-116692914D02*
X80521904Y-116788152D01*
X80521904Y-116788152D02*
X80474285Y-116835771D01*
X80474285Y-116835771D02*
X80379047Y-116883390D01*
X80379047Y-116883390D02*
X80188571Y-116883390D01*
X80188571Y-116883390D02*
X80093333Y-116931009D01*
X80093333Y-116931009D02*
X80045714Y-116978628D01*
X80045714Y-116978628D02*
X79998095Y-117073866D01*
X79998095Y-117073866D02*
X79998095Y-117264342D01*
X79998095Y-117264342D02*
X80045714Y-117359580D01*
X80045714Y-117359580D02*
X80093333Y-117407200D01*
X80093333Y-117407200D02*
X80188571Y-117454819D01*
X80188571Y-117454819D02*
X80379047Y-117454819D01*
X80379047Y-117454819D02*
X80474285Y-117407200D01*
X80474285Y-117407200D02*
X80521904Y-117359580D01*
X80521904Y-117359580D02*
X80569523Y-117264342D01*
X80569523Y-117264342D02*
X80569523Y-117073866D01*
X80569523Y-117073866D02*
X80521904Y-116978628D01*
X80521904Y-116978628D02*
X80474285Y-116931009D01*
X80474285Y-116931009D02*
X80379047Y-116883390D01*
D10*
X77835312Y-126014990D02*
X77759122Y-125976895D01*
X77759122Y-125976895D02*
X77644836Y-125976895D01*
X77644836Y-125976895D02*
X77530550Y-126014990D01*
X77530550Y-126014990D02*
X77454360Y-126091180D01*
X77454360Y-126091180D02*
X77416265Y-126167371D01*
X77416265Y-126167371D02*
X77378169Y-126319752D01*
X77378169Y-126319752D02*
X77378169Y-126434038D01*
X77378169Y-126434038D02*
X77416265Y-126586419D01*
X77416265Y-126586419D02*
X77454360Y-126662609D01*
X77454360Y-126662609D02*
X77530550Y-126738800D01*
X77530550Y-126738800D02*
X77644836Y-126776895D01*
X77644836Y-126776895D02*
X77721027Y-126776895D01*
X77721027Y-126776895D02*
X77835312Y-126738800D01*
X77835312Y-126738800D02*
X77873408Y-126700704D01*
X77873408Y-126700704D02*
X77873408Y-126434038D01*
X77873408Y-126434038D02*
X77721027Y-126434038D01*
X78216265Y-126776895D02*
X78216265Y-125976895D01*
X78216265Y-125976895D02*
X78673408Y-126776895D01*
X78673408Y-126776895D02*
X78673408Y-125976895D01*
X79054360Y-126776895D02*
X79054360Y-125976895D01*
X79054360Y-125976895D02*
X79244836Y-125976895D01*
X79244836Y-125976895D02*
X79359122Y-126014990D01*
X79359122Y-126014990D02*
X79435312Y-126091180D01*
X79435312Y-126091180D02*
X79473407Y-126167371D01*
X79473407Y-126167371D02*
X79511503Y-126319752D01*
X79511503Y-126319752D02*
X79511503Y-126434038D01*
X79511503Y-126434038D02*
X79473407Y-126586419D01*
X79473407Y-126586419D02*
X79435312Y-126662609D01*
X79435312Y-126662609D02*
X79359122Y-126738800D01*
X79359122Y-126738800D02*
X79244836Y-126776895D01*
X79244836Y-126776895D02*
X79054360Y-126776895D01*
X81454360Y-125976895D02*
X81073408Y-125976895D01*
X81073408Y-125976895D02*
X81035312Y-126357847D01*
X81035312Y-126357847D02*
X81073408Y-126319752D01*
X81073408Y-126319752D02*
X81149598Y-126281657D01*
X81149598Y-126281657D02*
X81340074Y-126281657D01*
X81340074Y-126281657D02*
X81416265Y-126319752D01*
X81416265Y-126319752D02*
X81454360Y-126357847D01*
X81454360Y-126357847D02*
X81492455Y-126434038D01*
X81492455Y-126434038D02*
X81492455Y-126624514D01*
X81492455Y-126624514D02*
X81454360Y-126700704D01*
X81454360Y-126700704D02*
X81416265Y-126738800D01*
X81416265Y-126738800D02*
X81340074Y-126776895D01*
X81340074Y-126776895D02*
X81149598Y-126776895D01*
X81149598Y-126776895D02*
X81073408Y-126738800D01*
X81073408Y-126738800D02*
X81035312Y-126700704D01*
X81721027Y-125976895D02*
X81987694Y-126776895D01*
X81987694Y-126776895D02*
X82254360Y-125976895D01*
X83016265Y-125976895D02*
X83282932Y-126776895D01*
X83282932Y-126776895D02*
X83549598Y-125976895D01*
X83816265Y-126776895D02*
X83816265Y-125976895D01*
X84197217Y-126776895D02*
X84197217Y-125976895D01*
X84197217Y-125976895D02*
X84654360Y-126776895D01*
X84654360Y-126776895D02*
X84654360Y-125976895D01*
X85644836Y-126357847D02*
X85911502Y-126357847D01*
X86025788Y-126776895D02*
X85644836Y-126776895D01*
X85644836Y-126776895D02*
X85644836Y-125976895D01*
X85644836Y-125976895D02*
X86025788Y-125976895D01*
X86368646Y-126776895D02*
X86368646Y-125976895D01*
X86368646Y-125976895D02*
X86825789Y-126776895D01*
X86825789Y-126776895D02*
X86825789Y-125976895D01*
X79463884Y-123252419D02*
X79463884Y-122252419D01*
X79463884Y-122252419D02*
X79797217Y-122966704D01*
X79797217Y-122966704D02*
X80130550Y-122252419D01*
X80130550Y-122252419D02*
X80130550Y-123252419D01*
X80606741Y-123252419D02*
X80606741Y-122252419D01*
X80606741Y-122252419D02*
X80987693Y-122252419D01*
X80987693Y-122252419D02*
X81082931Y-122300038D01*
X81082931Y-122300038D02*
X81130550Y-122347657D01*
X81130550Y-122347657D02*
X81178169Y-122442895D01*
X81178169Y-122442895D02*
X81178169Y-122585752D01*
X81178169Y-122585752D02*
X81130550Y-122680990D01*
X81130550Y-122680990D02*
X81082931Y-122728609D01*
X81082931Y-122728609D02*
X80987693Y-122776228D01*
X80987693Y-122776228D02*
X80606741Y-122776228D01*
X81606741Y-123252419D02*
X81606741Y-122252419D01*
X81606741Y-122252419D02*
X81940074Y-122966704D01*
X81940074Y-122966704D02*
X82273407Y-122252419D01*
X82273407Y-122252419D02*
X82273407Y-123252419D01*
X82654360Y-122252419D02*
X83273407Y-122252419D01*
X83273407Y-122252419D02*
X82940074Y-122633371D01*
X82940074Y-122633371D02*
X83082931Y-122633371D01*
X83082931Y-122633371D02*
X83178169Y-122680990D01*
X83178169Y-122680990D02*
X83225788Y-122728609D01*
X83225788Y-122728609D02*
X83273407Y-122823847D01*
X83273407Y-122823847D02*
X83273407Y-123061942D01*
X83273407Y-123061942D02*
X83225788Y-123157180D01*
X83225788Y-123157180D02*
X83178169Y-123204800D01*
X83178169Y-123204800D02*
X83082931Y-123252419D01*
X83082931Y-123252419D02*
X82797217Y-123252419D01*
X82797217Y-123252419D02*
X82701979Y-123204800D01*
X82701979Y-123204800D02*
X82654360Y-123157180D01*
X84130550Y-122252419D02*
X83940074Y-122252419D01*
X83940074Y-122252419D02*
X83844836Y-122300038D01*
X83844836Y-122300038D02*
X83797217Y-122347657D01*
X83797217Y-122347657D02*
X83701979Y-122490514D01*
X83701979Y-122490514D02*
X83654360Y-122680990D01*
X83654360Y-122680990D02*
X83654360Y-123061942D01*
X83654360Y-123061942D02*
X83701979Y-123157180D01*
X83701979Y-123157180D02*
X83749598Y-123204800D01*
X83749598Y-123204800D02*
X83844836Y-123252419D01*
X83844836Y-123252419D02*
X84035312Y-123252419D01*
X84035312Y-123252419D02*
X84130550Y-123204800D01*
X84130550Y-123204800D02*
X84178169Y-123157180D01*
X84178169Y-123157180D02*
X84225788Y-123061942D01*
X84225788Y-123061942D02*
X84225788Y-122823847D01*
X84225788Y-122823847D02*
X84178169Y-122728609D01*
X84178169Y-122728609D02*
X84130550Y-122680990D01*
X84130550Y-122680990D02*
X84035312Y-122633371D01*
X84035312Y-122633371D02*
X83844836Y-122633371D01*
X83844836Y-122633371D02*
X83749598Y-122680990D01*
X83749598Y-122680990D02*
X83701979Y-122728609D01*
X83701979Y-122728609D02*
X83654360Y-122823847D01*
X85178169Y-123252419D02*
X84606741Y-123252419D01*
X84892455Y-123252419D02*
X84892455Y-122252419D01*
X84892455Y-122252419D02*
X84797217Y-122395276D01*
X84797217Y-122395276D02*
X84701979Y-122490514D01*
X84701979Y-122490514D02*
X84606741Y-122538133D01*
X85797217Y-122252419D02*
X85892455Y-122252419D01*
X85892455Y-122252419D02*
X85987693Y-122300038D01*
X85987693Y-122300038D02*
X86035312Y-122347657D01*
X86035312Y-122347657D02*
X86082931Y-122442895D01*
X86082931Y-122442895D02*
X86130550Y-122633371D01*
X86130550Y-122633371D02*
X86130550Y-122871466D01*
X86130550Y-122871466D02*
X86082931Y-123061942D01*
X86082931Y-123061942D02*
X86035312Y-123157180D01*
X86035312Y-123157180D02*
X85987693Y-123204800D01*
X85987693Y-123204800D02*
X85892455Y-123252419D01*
X85892455Y-123252419D02*
X85797217Y-123252419D01*
X85797217Y-123252419D02*
X85701979Y-123204800D01*
X85701979Y-123204800D02*
X85654360Y-123157180D01*
X85654360Y-123157180D02*
X85606741Y-123061942D01*
X85606741Y-123061942D02*
X85559122Y-122871466D01*
X85559122Y-122871466D02*
X85559122Y-122633371D01*
X85559122Y-122633371D02*
X85606741Y-122442895D01*
X85606741Y-122442895D02*
X85654360Y-122347657D01*
X85654360Y-122347657D02*
X85701979Y-122300038D01*
X85701979Y-122300038D02*
X85797217Y-122252419D01*
X80440074Y-120252419D02*
X79963884Y-120252419D01*
X79963884Y-120252419D02*
X79916265Y-120728609D01*
X79916265Y-120728609D02*
X79963884Y-120680990D01*
X79963884Y-120680990D02*
X80059122Y-120633371D01*
X80059122Y-120633371D02*
X80297217Y-120633371D01*
X80297217Y-120633371D02*
X80392455Y-120680990D01*
X80392455Y-120680990D02*
X80440074Y-120728609D01*
X80440074Y-120728609D02*
X80487693Y-120823847D01*
X80487693Y-120823847D02*
X80487693Y-121061942D01*
X80487693Y-121061942D02*
X80440074Y-121157180D01*
X80440074Y-121157180D02*
X80392455Y-121204800D01*
X80392455Y-121204800D02*
X80297217Y-121252419D01*
X80297217Y-121252419D02*
X80059122Y-121252419D01*
X80059122Y-121252419D02*
X79963884Y-121204800D01*
X79963884Y-121204800D02*
X79916265Y-121157180D01*
X80773408Y-120252419D02*
X81106741Y-121252419D01*
X81106741Y-121252419D02*
X81440074Y-120252419D01*
X82868646Y-120728609D02*
X83011503Y-120776228D01*
X83011503Y-120776228D02*
X83059122Y-120823847D01*
X83059122Y-120823847D02*
X83106741Y-120919085D01*
X83106741Y-120919085D02*
X83106741Y-121061942D01*
X83106741Y-121061942D02*
X83059122Y-121157180D01*
X83059122Y-121157180D02*
X83011503Y-121204800D01*
X83011503Y-121204800D02*
X82916265Y-121252419D01*
X82916265Y-121252419D02*
X82535313Y-121252419D01*
X82535313Y-121252419D02*
X82535313Y-120252419D01*
X82535313Y-120252419D02*
X82868646Y-120252419D01*
X82868646Y-120252419D02*
X82963884Y-120300038D01*
X82963884Y-120300038D02*
X83011503Y-120347657D01*
X83011503Y-120347657D02*
X83059122Y-120442895D01*
X83059122Y-120442895D02*
X83059122Y-120538133D01*
X83059122Y-120538133D02*
X83011503Y-120633371D01*
X83011503Y-120633371D02*
X82963884Y-120680990D01*
X82963884Y-120680990D02*
X82868646Y-120728609D01*
X82868646Y-120728609D02*
X82535313Y-120728609D01*
X83963884Y-120585752D02*
X83963884Y-121252419D01*
X83535313Y-120585752D02*
X83535313Y-121109561D01*
X83535313Y-121109561D02*
X83582932Y-121204800D01*
X83582932Y-121204800D02*
X83678170Y-121252419D01*
X83678170Y-121252419D02*
X83821027Y-121252419D01*
X83821027Y-121252419D02*
X83916265Y-121204800D01*
X83916265Y-121204800D02*
X83963884Y-121157180D01*
X84868646Y-121204800D02*
X84773408Y-121252419D01*
X84773408Y-121252419D02*
X84582932Y-121252419D01*
X84582932Y-121252419D02*
X84487694Y-121204800D01*
X84487694Y-121204800D02*
X84440075Y-121157180D01*
X84440075Y-121157180D02*
X84392456Y-121061942D01*
X84392456Y-121061942D02*
X84392456Y-120776228D01*
X84392456Y-120776228D02*
X84440075Y-120680990D01*
X84440075Y-120680990D02*
X84487694Y-120633371D01*
X84487694Y-120633371D02*
X84582932Y-120585752D01*
X84582932Y-120585752D02*
X84773408Y-120585752D01*
X84773408Y-120585752D02*
X84868646Y-120633371D01*
X85297218Y-121252419D02*
X85297218Y-120252419D01*
X85392456Y-120871466D02*
X85678170Y-121252419D01*
X85678170Y-120585752D02*
X85297218Y-120966704D01*
D11*
X152354819Y-115661904D02*
X153164342Y-115661904D01*
X153164342Y-115661904D02*
X153259580Y-115614285D01*
X153259580Y-115614285D02*
X153307200Y-115566666D01*
X153307200Y-115566666D02*
X153354819Y-115471428D01*
X153354819Y-115471428D02*
X153354819Y-115280952D01*
X153354819Y-115280952D02*
X153307200Y-115185714D01*
X153307200Y-115185714D02*
X153259580Y-115138095D01*
X153259580Y-115138095D02*
X153164342Y-115090476D01*
X153164342Y-115090476D02*
X152354819Y-115090476D01*
X152688152Y-114185714D02*
X153354819Y-114185714D01*
X152307200Y-114423809D02*
X153021485Y-114661904D01*
X153021485Y-114661904D02*
X153021485Y-114042857D01*
X157472080Y-93054166D02*
X157519700Y-93101785D01*
X157519700Y-93101785D02*
X157567319Y-93244642D01*
X157567319Y-93244642D02*
X157567319Y-93339880D01*
X157567319Y-93339880D02*
X157519700Y-93482737D01*
X157519700Y-93482737D02*
X157424461Y-93577975D01*
X157424461Y-93577975D02*
X157329223Y-93625594D01*
X157329223Y-93625594D02*
X157138747Y-93673213D01*
X157138747Y-93673213D02*
X156995890Y-93673213D01*
X156995890Y-93673213D02*
X156805414Y-93625594D01*
X156805414Y-93625594D02*
X156710176Y-93577975D01*
X156710176Y-93577975D02*
X156614938Y-93482737D01*
X156614938Y-93482737D02*
X156567319Y-93339880D01*
X156567319Y-93339880D02*
X156567319Y-93244642D01*
X156567319Y-93244642D02*
X156614938Y-93101785D01*
X156614938Y-93101785D02*
X156662557Y-93054166D01*
X156567319Y-92197023D02*
X156567319Y-92387499D01*
X156567319Y-92387499D02*
X156614938Y-92482737D01*
X156614938Y-92482737D02*
X156662557Y-92530356D01*
X156662557Y-92530356D02*
X156805414Y-92625594D01*
X156805414Y-92625594D02*
X156995890Y-92673213D01*
X156995890Y-92673213D02*
X157376842Y-92673213D01*
X157376842Y-92673213D02*
X157472080Y-92625594D01*
X157472080Y-92625594D02*
X157519700Y-92577975D01*
X157519700Y-92577975D02*
X157567319Y-92482737D01*
X157567319Y-92482737D02*
X157567319Y-92292261D01*
X157567319Y-92292261D02*
X157519700Y-92197023D01*
X157519700Y-92197023D02*
X157472080Y-92149404D01*
X157472080Y-92149404D02*
X157376842Y-92101785D01*
X157376842Y-92101785D02*
X157138747Y-92101785D01*
X157138747Y-92101785D02*
X157043509Y-92149404D01*
X157043509Y-92149404D02*
X156995890Y-92197023D01*
X156995890Y-92197023D02*
X156948271Y-92292261D01*
X156948271Y-92292261D02*
X156948271Y-92482737D01*
X156948271Y-92482737D02*
X156995890Y-92577975D01*
X156995890Y-92577975D02*
X157043509Y-92625594D01*
X157043509Y-92625594D02*
X157138747Y-92673213D01*
X161267319Y-93054166D02*
X161267319Y-93625594D01*
X161267319Y-93339880D02*
X160267319Y-93339880D01*
X160267319Y-93339880D02*
X160410176Y-93435118D01*
X160410176Y-93435118D02*
X160505414Y-93530356D01*
X160505414Y-93530356D02*
X160553033Y-93625594D01*
X160600652Y-92625594D02*
X161267319Y-92625594D01*
X160695890Y-92625594D02*
X160648271Y-92577975D01*
X160648271Y-92577975D02*
X160600652Y-92482737D01*
X160600652Y-92482737D02*
X160600652Y-92339880D01*
X160600652Y-92339880D02*
X160648271Y-92244642D01*
X160648271Y-92244642D02*
X160743509Y-92197023D01*
X160743509Y-92197023D02*
X161267319Y-92197023D01*
X87974819Y-109083333D02*
X88689104Y-109083333D01*
X88689104Y-109083333D02*
X88831961Y-109130952D01*
X88831961Y-109130952D02*
X88927200Y-109226190D01*
X88927200Y-109226190D02*
X88974819Y-109369047D01*
X88974819Y-109369047D02*
X88974819Y-109464285D01*
X88974819Y-108083333D02*
X88974819Y-108654761D01*
X88974819Y-108369047D02*
X87974819Y-108369047D01*
X87974819Y-108369047D02*
X88117676Y-108464285D01*
X88117676Y-108464285D02*
X88212914Y-108559523D01*
X88212914Y-108559523D02*
X88260533Y-108654761D01*
X106283333Y-123624819D02*
X105950000Y-123148628D01*
X105711905Y-123624819D02*
X105711905Y-122624819D01*
X105711905Y-122624819D02*
X106092857Y-122624819D01*
X106092857Y-122624819D02*
X106188095Y-122672438D01*
X106188095Y-122672438D02*
X106235714Y-122720057D01*
X106235714Y-122720057D02*
X106283333Y-122815295D01*
X106283333Y-122815295D02*
X106283333Y-122958152D01*
X106283333Y-122958152D02*
X106235714Y-123053390D01*
X106235714Y-123053390D02*
X106188095Y-123101009D01*
X106188095Y-123101009D02*
X106092857Y-123148628D01*
X106092857Y-123148628D02*
X105711905Y-123148628D01*
X107235714Y-123624819D02*
X106664286Y-123624819D01*
X106950000Y-123624819D02*
X106950000Y-122624819D01*
X106950000Y-122624819D02*
X106854762Y-122767676D01*
X106854762Y-122767676D02*
X106759524Y-122862914D01*
X106759524Y-122862914D02*
X106664286Y-122910533D01*
X158009580Y-103729166D02*
X158057200Y-103776785D01*
X158057200Y-103776785D02*
X158104819Y-103919642D01*
X158104819Y-103919642D02*
X158104819Y-104014880D01*
X158104819Y-104014880D02*
X158057200Y-104157737D01*
X158057200Y-104157737D02*
X157961961Y-104252975D01*
X157961961Y-104252975D02*
X157866723Y-104300594D01*
X157866723Y-104300594D02*
X157676247Y-104348213D01*
X157676247Y-104348213D02*
X157533390Y-104348213D01*
X157533390Y-104348213D02*
X157342914Y-104300594D01*
X157342914Y-104300594D02*
X157247676Y-104252975D01*
X157247676Y-104252975D02*
X157152438Y-104157737D01*
X157152438Y-104157737D02*
X157104819Y-104014880D01*
X157104819Y-104014880D02*
X157104819Y-103919642D01*
X157104819Y-103919642D02*
X157152438Y-103776785D01*
X157152438Y-103776785D02*
X157200057Y-103729166D01*
X157533390Y-103157737D02*
X157485771Y-103252975D01*
X157485771Y-103252975D02*
X157438152Y-103300594D01*
X157438152Y-103300594D02*
X157342914Y-103348213D01*
X157342914Y-103348213D02*
X157295295Y-103348213D01*
X157295295Y-103348213D02*
X157200057Y-103300594D01*
X157200057Y-103300594D02*
X157152438Y-103252975D01*
X157152438Y-103252975D02*
X157104819Y-103157737D01*
X157104819Y-103157737D02*
X157104819Y-102967261D01*
X157104819Y-102967261D02*
X157152438Y-102872023D01*
X157152438Y-102872023D02*
X157200057Y-102824404D01*
X157200057Y-102824404D02*
X157295295Y-102776785D01*
X157295295Y-102776785D02*
X157342914Y-102776785D01*
X157342914Y-102776785D02*
X157438152Y-102824404D01*
X157438152Y-102824404D02*
X157485771Y-102872023D01*
X157485771Y-102872023D02*
X157533390Y-102967261D01*
X157533390Y-102967261D02*
X157533390Y-103157737D01*
X157533390Y-103157737D02*
X157581009Y-103252975D01*
X157581009Y-103252975D02*
X157628628Y-103300594D01*
X157628628Y-103300594D02*
X157723866Y-103348213D01*
X157723866Y-103348213D02*
X157914342Y-103348213D01*
X157914342Y-103348213D02*
X158009580Y-103300594D01*
X158009580Y-103300594D02*
X158057200Y-103252975D01*
X158057200Y-103252975D02*
X158104819Y-103157737D01*
X158104819Y-103157737D02*
X158104819Y-102967261D01*
X158104819Y-102967261D02*
X158057200Y-102872023D01*
X158057200Y-102872023D02*
X158009580Y-102824404D01*
X158009580Y-102824404D02*
X157914342Y-102776785D01*
X157914342Y-102776785D02*
X157723866Y-102776785D01*
X157723866Y-102776785D02*
X157628628Y-102824404D01*
X157628628Y-102824404D02*
X157581009Y-102872023D01*
X157581009Y-102872023D02*
X157533390Y-102967261D01*
X161804819Y-103729166D02*
X161804819Y-104300594D01*
X161804819Y-104014880D02*
X160804819Y-104014880D01*
X160804819Y-104014880D02*
X160947676Y-104110118D01*
X160947676Y-104110118D02*
X161042914Y-104205356D01*
X161042914Y-104205356D02*
X161090533Y-104300594D01*
X161138152Y-103300594D02*
X161804819Y-103300594D01*
X161233390Y-103300594D02*
X161185771Y-103252975D01*
X161185771Y-103252975D02*
X161138152Y-103157737D01*
X161138152Y-103157737D02*
X161138152Y-103014880D01*
X161138152Y-103014880D02*
X161185771Y-102919642D01*
X161185771Y-102919642D02*
X161281009Y-102872023D01*
X161281009Y-102872023D02*
X161804819Y-102872023D01*
X152067319Y-134649404D02*
X152876842Y-134649404D01*
X152876842Y-134649404D02*
X152972080Y-134601785D01*
X152972080Y-134601785D02*
X153019700Y-134554166D01*
X153019700Y-134554166D02*
X153067319Y-134458928D01*
X153067319Y-134458928D02*
X153067319Y-134268452D01*
X153067319Y-134268452D02*
X153019700Y-134173214D01*
X153019700Y-134173214D02*
X152972080Y-134125595D01*
X152972080Y-134125595D02*
X152876842Y-134077976D01*
X152876842Y-134077976D02*
X152067319Y-134077976D01*
X152067319Y-133173214D02*
X152067319Y-133363690D01*
X152067319Y-133363690D02*
X152114938Y-133458928D01*
X152114938Y-133458928D02*
X152162557Y-133506547D01*
X152162557Y-133506547D02*
X152305414Y-133601785D01*
X152305414Y-133601785D02*
X152495890Y-133649404D01*
X152495890Y-133649404D02*
X152876842Y-133649404D01*
X152876842Y-133649404D02*
X152972080Y-133601785D01*
X152972080Y-133601785D02*
X153019700Y-133554166D01*
X153019700Y-133554166D02*
X153067319Y-133458928D01*
X153067319Y-133458928D02*
X153067319Y-133268452D01*
X153067319Y-133268452D02*
X153019700Y-133173214D01*
X153019700Y-133173214D02*
X152972080Y-133125595D01*
X152972080Y-133125595D02*
X152876842Y-133077976D01*
X152876842Y-133077976D02*
X152638747Y-133077976D01*
X152638747Y-133077976D02*
X152543509Y-133125595D01*
X152543509Y-133125595D02*
X152495890Y-133173214D01*
X152495890Y-133173214D02*
X152448271Y-133268452D01*
X152448271Y-133268452D02*
X152448271Y-133458928D01*
X152448271Y-133458928D02*
X152495890Y-133554166D01*
X152495890Y-133554166D02*
X152543509Y-133601785D01*
X152543509Y-133601785D02*
X152638747Y-133649404D01*
%TO.C,C2*%
D14*
X106226248Y-77590000D02*
X107648752Y-77590000D01*
X106226248Y-79410000D02*
X107648752Y-79410000D01*
%TO.C,J3*%
X168080000Y-86880000D02*
X176120000Y-86880000D01*
X168080000Y-89700000D02*
X168080000Y-86880000D01*
X168080000Y-127620000D02*
X168080000Y-90300000D01*
X170200000Y-86880000D02*
X170200000Y-88120000D01*
X170200000Y-91880000D02*
X170200000Y-94457000D01*
X170200000Y-95543000D02*
X170200000Y-99457000D01*
X170200000Y-100543000D02*
X170200000Y-104457000D01*
X170200000Y-105543000D02*
X170200000Y-109457000D01*
X170200000Y-110543000D02*
X170200000Y-114457000D01*
X170200000Y-115543000D02*
X170200000Y-119457000D01*
X170200000Y-120543000D02*
X170200000Y-124457000D01*
X170200000Y-125543000D02*
X170200000Y-127620000D01*
X171500000Y-86880000D02*
X171500000Y-88120000D01*
X171500000Y-91880000D02*
X171500000Y-93188000D01*
X171500000Y-96812000D02*
X171500000Y-98188000D01*
X171500000Y-101812000D02*
X171500000Y-103188000D01*
X171500000Y-106812000D02*
X171500000Y-108188000D01*
X171500000Y-111812000D02*
X171500000Y-113188000D01*
X171500000Y-116812000D02*
X171500000Y-118188000D01*
X171500000Y-121812000D02*
X171500000Y-123188000D01*
X171500000Y-126812000D02*
X171500000Y-127620000D01*
X172500000Y-86880000D02*
X172500000Y-88120000D01*
X172500000Y-91880000D02*
X172500000Y-93188000D01*
X172500000Y-96812000D02*
X172500000Y-98188000D01*
X172500000Y-101812000D02*
X172500000Y-103188000D01*
X172500000Y-106812000D02*
X172500000Y-108188000D01*
X172500000Y-111812000D02*
X172500000Y-113188000D01*
X172500000Y-116812000D02*
X172500000Y-118188000D01*
X172500000Y-121812000D02*
X172500000Y-123188000D01*
X172500000Y-126812000D02*
X172500000Y-127620000D01*
X176120000Y-86880000D02*
X176120000Y-127620000D01*
X176120000Y-127620000D02*
X168080000Y-127620000D01*
X168080000Y-90000000D02*
X167470000Y-90440000D01*
X167470000Y-89560000D01*
X168080000Y-90000000D01*
G36*
X168080000Y-90000000D02*
G01*
X167470000Y-90440000D01*
X167470000Y-89560000D01*
X168080000Y-90000000D01*
G37*
%TO.C,U3*%
X150202500Y-99977500D02*
X150202500Y-101237500D01*
X150202500Y-106797500D02*
X150202500Y-105537500D01*
X153962500Y-99977500D02*
X150202500Y-99977500D01*
X153962500Y-106797500D02*
X150202500Y-106797500D01*
X155482500Y-107027500D02*
X155002500Y-107027500D01*
X155242500Y-106697500D01*
X155482500Y-107027500D01*
G36*
X155482500Y-107027500D02*
G01*
X155002500Y-107027500D01*
X155242500Y-106697500D01*
X155482500Y-107027500D01*
G37*
%TO.C,U7*%
D10*
X90000000Y-82750000D02*
X112900000Y-82750000D01*
X112900000Y-121100000D01*
X90000000Y-121100000D01*
X90000000Y-82750000D01*
%TO.C,U2*%
D14*
X150202500Y-90477500D02*
X150202500Y-91737500D01*
X150202500Y-97297500D02*
X150202500Y-96037500D01*
X153962500Y-90477500D02*
X150202500Y-90477500D01*
X153962500Y-97297500D02*
X150202500Y-97297500D01*
X155482500Y-97527500D02*
X155002500Y-97527500D01*
X155242500Y-97197500D01*
X155482500Y-97527500D01*
G36*
X155482500Y-97527500D02*
G01*
X155002500Y-97527500D01*
X155242500Y-97197500D01*
X155482500Y-97527500D01*
G37*
%TO.C,C9*%
X142590000Y-113273752D02*
X142590000Y-111851248D01*
X144410000Y-113273752D02*
X144410000Y-111851248D01*
%TO.C,C3*%
X143052500Y-85598752D02*
X143052500Y-84176248D01*
X144872500Y-85598752D02*
X144872500Y-84176248D01*
%TO.C,C7*%
X143052500Y-103598752D02*
X143052500Y-102176248D01*
X144872500Y-103598752D02*
X144872500Y-102176248D01*
%TO.C,C1*%
X93788748Y-77527500D02*
X95211252Y-77527500D01*
X93788748Y-79347500D02*
X95211252Y-79347500D01*
%TO.C,C10*%
X158590000Y-113773752D02*
X158590000Y-112351248D01*
X160410000Y-113773752D02*
X160410000Y-112351248D01*
%TO.C,U5*%
X149702500Y-118977500D02*
X149702500Y-120237500D01*
X149702500Y-125797500D02*
X149702500Y-124537500D01*
X153462500Y-118977500D02*
X149702500Y-118977500D01*
X153462500Y-125797500D02*
X149702500Y-125797500D01*
X154982500Y-126027500D02*
X154502500Y-126027500D01*
X154742500Y-125697500D01*
X154982500Y-126027500D01*
G36*
X154982500Y-126027500D02*
G01*
X154502500Y-126027500D01*
X154742500Y-125697500D01*
X154982500Y-126027500D01*
G37*
%TO.C,C13*%
X142590000Y-132273752D02*
X142590000Y-130851248D01*
X144410000Y-132273752D02*
X144410000Y-130851248D01*
%TO.C,R2*%
X95722936Y-124090000D02*
X97177064Y-124090000D01*
X95722936Y-125910000D02*
X97177064Y-125910000D01*
%TO.C,C4*%
X158052500Y-85036252D02*
X158052500Y-83613748D01*
X159872500Y-85036252D02*
X159872500Y-83613748D01*
%TO.C,C11*%
X142590000Y-122211252D02*
X142590000Y-120788748D01*
X144410000Y-122211252D02*
X144410000Y-120788748D01*
%TO.C,L1*%
D10*
X77000000Y-87500000D02*
X87000000Y-87500000D01*
X87000000Y-103500000D01*
X77000000Y-103500000D01*
X77000000Y-87500000D01*
%TO.C,U1*%
D14*
X150165000Y-80865000D02*
X150165000Y-82125000D01*
X150165000Y-87685000D02*
X150165000Y-86425000D01*
X153925000Y-80865000D02*
X150165000Y-80865000D01*
X153925000Y-87685000D02*
X150165000Y-87685000D01*
X155445000Y-87915000D02*
X154965000Y-87915000D01*
X155205000Y-87585000D01*
X155445000Y-87915000D01*
G36*
X155445000Y-87915000D02*
G01*
X154965000Y-87915000D01*
X155205000Y-87585000D01*
X155445000Y-87915000D01*
G37*
%TO.C,C5*%
X142552500Y-93598752D02*
X142552500Y-92176248D01*
X144372500Y-93598752D02*
X144372500Y-92176248D01*
%TO.C,C14*%
X158152500Y-132211252D02*
X158152500Y-130788748D01*
X159972500Y-132211252D02*
X159972500Y-130788748D01*
%TO.C,A1*%
X115247500Y-87950000D02*
X115247500Y-85950000D01*
X115567500Y-83140000D02*
X115567500Y-128860000D01*
X135997500Y-80490000D02*
X118217500Y-80490000D01*
X135997500Y-131510000D02*
X118217500Y-131510000D01*
X138647500Y-83140000D02*
X138647500Y-128860000D01*
X115567500Y-83140000D02*
G75*
G02*
X118217500Y-80490000I2650000J0D01*
G01*
X118217500Y-131510000D02*
G75*
G02*
X115567500Y-128860000I0J2650000D01*
G01*
X135997500Y-80490000D02*
G75*
G02*
X138647500Y-83140000I0J-2650000D01*
G01*
X138647500Y-128860000D02*
G75*
G02*
X135997500Y-131510000I-2650000J0D01*
G01*
%TO.C,C12*%
X158090000Y-123211252D02*
X158090000Y-121788748D01*
X159910000Y-123211252D02*
X159910000Y-121788748D01*
%TO.C,U8*%
D10*
X77160000Y-114131219D02*
X87796100Y-114131219D01*
X87796100Y-129880000D01*
X77160000Y-129880000D01*
X77160000Y-114131219D01*
D13*
X82960000Y-131220000D02*
G75*
G02*
X82760000Y-131220000I-100000J0D01*
G01*
X82760000Y-131220000D02*
G75*
G02*
X82960000Y-131220000I100000J0D01*
G01*
%TO.C,U4*%
D14*
X149990000Y-109490000D02*
X149990000Y-110750000D01*
X149990000Y-116310000D02*
X149990000Y-115050000D01*
X153750000Y-109490000D02*
X149990000Y-109490000D01*
X153750000Y-116310000D02*
X149990000Y-116310000D01*
X155270000Y-116540000D02*
X154790000Y-116540000D01*
X155030000Y-116210000D01*
X155270000Y-116540000D01*
G36*
X155270000Y-116540000D02*
G01*
X154790000Y-116540000D01*
X155030000Y-116210000D01*
X155270000Y-116540000D01*
G37*
%TO.C,C6*%
X158052500Y-93598752D02*
X158052500Y-92176248D01*
X159872500Y-93598752D02*
X159872500Y-92176248D01*
%TO.C,J1*%
X80280000Y-104780000D02*
X87520000Y-104780000D01*
X80280000Y-106700000D02*
X80280000Y-104780000D01*
X80280000Y-112720000D02*
X80280000Y-107300000D01*
X81900000Y-104780000D02*
X81900000Y-112720000D01*
X87520000Y-104780000D02*
X87520000Y-112720000D01*
X87520000Y-112720000D02*
X80280000Y-112720000D01*
X80280000Y-107000000D02*
X79670000Y-107440000D01*
X79670000Y-106560000D01*
X80280000Y-107000000D01*
G36*
X80280000Y-107000000D02*
G01*
X79670000Y-107440000D01*
X79670000Y-106560000D01*
X80280000Y-107000000D01*
G37*
%TO.C,R1*%
X105722936Y-124090000D02*
X107177064Y-124090000D01*
X105722936Y-125910000D02*
X107177064Y-125910000D01*
%TO.C,C8*%
X158590000Y-104273752D02*
X158590000Y-102851248D01*
X160410000Y-104273752D02*
X160410000Y-102851248D01*
%TO.C,U6*%
X149702500Y-128477500D02*
X149702500Y-129737500D01*
X149702500Y-135297500D02*
X149702500Y-134037500D01*
X153462500Y-128477500D02*
X149702500Y-128477500D01*
X153462500Y-135297500D02*
X149702500Y-135297500D01*
X154982500Y-135527500D02*
X154502500Y-135527500D01*
X154742500Y-135197500D01*
X154982500Y-135527500D01*
G36*
X154982500Y-135527500D02*
G01*
X154502500Y-135527500D01*
X154742500Y-135197500D01*
X154982500Y-135527500D01*
G37*
%TD*%
M02*
