M48
; DRILL file KiCad 10.0.0 date 2026-04-06T13:30:42
; FORMAT={-:-/ absolute / metric / decimal}
; #@! TF.CreationDate,2026-04-06T13:30:42-04:00
; #@! TF.GenerationSoftware,Kicad,Pcbnew,10.0.0
; #@! TF.FileFunction,Plated,1,2,PTH
FMAT,2
METRIC
; #@! TA.AperFunction,Plated,PTH,ViaDrill
T1C0.300
; #@! TA.AperFunction,Plated,PTH,ViaDrill
T2C0.400
; #@! TA.AperFunction,Plated,PTH,ComponentDrill
T3C1.000
; #@! TA.AperFunction,Plated,PTH,ComponentDrill
T4C1.200
; #@! TA.AperFunction,Plated,PTH,ComponentDrill
T5C1.300
; #@! TA.AperFunction,Plated,PTH,ComponentDrill
T6C2.500
; #@! TA.AperFunction,Plated,PTH,ComponentDrill
T7C2.540
%
G90
G05
T1
X96.317Y-120.86
X105.993Y-123.289
X119.696Y-132.721
X134.307Y-94.172
X142.392Y-82.717
X144.319Y-117.602
X147.777Y-109.18
X148.714Y-110.353
X148.91Y-106.395
X152.655Y-91.579
X153.228Y-99.928
X154.5Y-138.0
X166.452Y-123.825
X168.0Y-132.056
T2
X85.5Y-85.478
X87.55Y-79.346
T3
X78.76Y-128.5
X79.0Y-99.0
X81.26Y-128.5
X83.76Y-128.5
X85.0Y-91.5
X86.26Y-128.5
X93.0Y-84.25
X93.0Y-86.79
X93.0Y-89.33
X93.0Y-91.87
X93.0Y-94.41
X93.0Y-96.95
X93.0Y-99.49
X93.0Y-102.03
X93.0Y-104.57
X93.0Y-107.11
X93.0Y-109.65
X93.0Y-112.19
X93.0Y-114.73
X93.0Y-117.27
X93.0Y-119.81
X116.947Y-86.95
X116.947Y-89.49
X116.947Y-92.03
X116.947Y-94.57
X116.947Y-97.11
X116.947Y-99.65
X116.947Y-102.19
X116.947Y-104.73
X116.947Y-107.27
X116.947Y-109.81
X116.947Y-112.35
X116.947Y-114.89
X116.947Y-117.43
X116.947Y-119.97
X116.947Y-122.51
X116.947Y-125.05
X120.757Y-130.13
X128.377Y-130.13
X130.917Y-130.13
X133.457Y-130.13
X137.267Y-97.11
X137.267Y-99.65
X137.267Y-102.19
X137.267Y-104.73
X137.267Y-107.27
X137.267Y-109.81
X137.267Y-112.35
X137.267Y-114.89
X137.267Y-117.43
X137.267Y-119.97
X137.267Y-122.51
X137.267Y-125.05
T4
X84.0Y-107.0
X84.0Y-110.5
T5
X172.0Y-90.0
X172.0Y-95.0
X172.0Y-100.0
X172.0Y-105.0
X172.0Y-110.0
X172.0Y-115.0
X172.0Y-120.0
X172.0Y-125.0
T6
X83.0Y-116.5
T7
X110.0Y-85.75
X110.0Y-118.25
M30
