%TF.GenerationSoftware,KiCad,Pcbnew,10.0.0*%
%TF.CreationDate,2026-04-06T13:30:36-04:00*%
%TF.ProjectId,phaser1,70686173-6572-4312-9e6b-696361645f70,1.0*%
%TF.SameCoordinates,Original*%
%TF.FileFunction,Soldermask,Top*%
%TF.FilePolarity,Negative*%
%FSLAX46Y46*%
G04 Gerber Fmt 4.6, Leading zero omitted, Abs format (unit mm)*
G04 Created by KiCad (PCBNEW 10.0.0) date 2026-04-06 13:30:36*
%MOMM*%
%LPD*%
G01*
G04 APERTURE LIST*
G04 Aperture macros list*
%AMRoundRect*
0 Rectangle with rounded corners*
0 $1 Rounding radius*
0 $2 $3 $4 $5 $6 $7 $8 $9 X,Y pos of 4 corners*
0 Add a 4 corners polygon primitive as box body*
4,1,4,$2,$3,$4,$5,$6,$7,$8,$9,$2,$3,0*
0 Add four circle primitives for the rounded corners*
1,1,$1+$1,$2,$3*
1,1,$1+$1,$4,$5*
1,1,$1+$1,$6,$7*
1,1,$1+$1,$8,$9*
0 Add four rect primitives between the rounded corners*
20,1,$1+$1,$2,$3,$4,$5,0*
20,1,$1+$1,$4,$5,$6,$7,0*
20,1,$1+$1,$6,$7,$8,$9,0*
20,1,$1+$1,$8,$9,$2,$3,0*%
G04 Aperture macros list end*
%ADD10RoundRect,0.250000X-0.412500X-0.650000X0.412500X-0.650000X0.412500X0.650000X-0.412500X0.650000X0*%
%ADD11RoundRect,0.250001X-1.149999X1.149999X-1.149999X-1.149999X1.149999X-1.149999X1.149999X1.149999X0*%
%ADD12C,2.800000*%
%ADD13RoundRect,0.375000X0.625000X0.375000X-0.625000X0.375000X-0.625000X-0.375000X0.625000X-0.375000X0*%
%ADD14RoundRect,0.500000X0.500000X1.400000X-0.500000X1.400000X-0.500000X-1.400000X0.500000X-1.400000X0*%
%ADD15R,1.700000X1.700000*%
%ADD16C,1.700000*%
%ADD17C,5.000000*%
%ADD18RoundRect,0.250000X0.650000X-0.412500X0.650000X0.412500X-0.650000X0.412500X-0.650000X-0.412500X0*%
%ADD19RoundRect,0.250000X-0.400000X-0.625000X0.400000X-0.625000X0.400000X0.625000X-0.400000X0.625000X0*%
%ADD20C,3.000000*%
%ADD21RoundRect,0.250000X-1.050000X-0.550000X1.050000X-0.550000X1.050000X0.550000X-1.050000X0.550000X0*%
%ADD22O,2.600000X1.600000*%
%ADD23O,1.600000X2.600000*%
%ADD24RoundRect,0.102000X-0.889000X-0.889000X0.889000X-0.889000X0.889000X0.889000X-0.889000X0.889000X0*%
%ADD25C,1.982000*%
%ADD26C,3.404000*%
%ADD27RoundRect,0.250001X-0.949999X0.949999X-0.949999X-0.949999X0.949999X-0.949999X0.949999X0.949999X0*%
%ADD28C,2.400000*%
G04 APERTURE END LIST*
D10*
%TO.C,C2*%
X105375000Y-78500000D03*
X108500000Y-78500000D03*
%TD*%
D11*
%TO.C,J3*%
X172000000Y-90000000D03*
D12*
X172000000Y-95000000D03*
X172000000Y-100000000D03*
X172000000Y-105000000D03*
X172000000Y-110000000D03*
X172000000Y-115000000D03*
X172000000Y-120000000D03*
X172000000Y-125000000D03*
%TD*%
D13*
%TO.C,U3*%
X155262500Y-105687500D03*
X155262500Y-103387500D03*
X155262500Y-101087500D03*
D14*
X148962500Y-103387500D03*
%TD*%
D15*
%TO.C,U7*%
X93000000Y-84250000D03*
D16*
X93000000Y-86790000D03*
X93000000Y-89330000D03*
X93000000Y-91870000D03*
X93000000Y-94410000D03*
X93000000Y-96950000D03*
X93000000Y-99490000D03*
X93000000Y-102030000D03*
X93000000Y-104570000D03*
X93000000Y-107110000D03*
X93000000Y-109650000D03*
X93000000Y-112190000D03*
X93000000Y-114730000D03*
X93000000Y-117270000D03*
X93000000Y-119810000D03*
D17*
X110000000Y-85750000D03*
X110000000Y-118250000D03*
%TD*%
D13*
%TO.C,U2*%
X155262500Y-96187500D03*
X155262500Y-93887500D03*
X155262500Y-91587500D03*
D14*
X148962500Y-93887500D03*
%TD*%
D18*
%TO.C,C9*%
X143500000Y-114125000D03*
X143500000Y-111000000D03*
%TD*%
%TO.C,C3*%
X143962500Y-86450000D03*
X143962500Y-83325000D03*
%TD*%
%TO.C,C7*%
X143962500Y-104450000D03*
X143962500Y-101325000D03*
%TD*%
D10*
%TO.C,C1*%
X92937500Y-78437500D03*
X96062500Y-78437500D03*
%TD*%
D18*
%TO.C,C10*%
X159500000Y-114625000D03*
X159500000Y-111500000D03*
%TD*%
D13*
%TO.C,U5*%
X154762500Y-124687500D03*
X154762500Y-122387500D03*
X154762500Y-120087500D03*
D14*
X148462500Y-122387500D03*
%TD*%
D18*
%TO.C,C13*%
X143500000Y-133125000D03*
X143500000Y-130000000D03*
%TD*%
D19*
%TO.C,R2*%
X94900000Y-125000000D03*
X98000000Y-125000000D03*
%TD*%
D18*
%TO.C,C4*%
X158962500Y-85887500D03*
X158962500Y-82762500D03*
%TD*%
%TO.C,C11*%
X143500000Y-123062500D03*
X143500000Y-119937500D03*
%TD*%
D20*
%TO.C,L1*%
X85000000Y-91500000D03*
X79000000Y-99000000D03*
%TD*%
D13*
%TO.C,U1*%
X155225000Y-86575000D03*
X155225000Y-84275000D03*
X155225000Y-81975000D03*
D14*
X148925000Y-84275000D03*
%TD*%
D18*
%TO.C,C5*%
X143462500Y-94450000D03*
X143462500Y-91325000D03*
%TD*%
%TO.C,C14*%
X159062500Y-133062500D03*
X159062500Y-129937500D03*
%TD*%
D21*
%TO.C,A1*%
X117247500Y-86950000D03*
D22*
X117247500Y-89490000D03*
X117247500Y-92030000D03*
X117247500Y-94570000D03*
X117247500Y-97110000D03*
X117247500Y-99650000D03*
X117247500Y-102190000D03*
X117247500Y-104730000D03*
X117247500Y-107270000D03*
X117247500Y-109810000D03*
X117247500Y-112350000D03*
X117247500Y-114890000D03*
X117247500Y-117430000D03*
X117247500Y-119970000D03*
X117247500Y-122510000D03*
X117247500Y-125050000D03*
X136967500Y-125050000D03*
X136967500Y-122510000D03*
X136967500Y-119970000D03*
X136967500Y-117430000D03*
X136967500Y-114890000D03*
X136967500Y-112350000D03*
X136967500Y-109810000D03*
X136967500Y-107270000D03*
X136967500Y-104730000D03*
X136967500Y-102190000D03*
X136967500Y-99650000D03*
X136967500Y-97110000D03*
D23*
X120757500Y-129830000D03*
X128377500Y-129830000D03*
X130917500Y-129830000D03*
X133457500Y-129830000D03*
%TD*%
D18*
%TO.C,C12*%
X159000000Y-124062500D03*
X159000000Y-120937500D03*
%TD*%
D24*
%TO.C,U8*%
X78760000Y-128500000D03*
D25*
X81260000Y-128500000D03*
X83760000Y-128500000D03*
X86260000Y-128500000D03*
D26*
X83000000Y-116500000D03*
%TD*%
D13*
%TO.C,U4*%
X155050000Y-115200000D03*
X155050000Y-112900000D03*
X155050000Y-110600000D03*
D14*
X148750000Y-112900000D03*
%TD*%
D18*
%TO.C,C6*%
X158962500Y-94450000D03*
X158962500Y-91325000D03*
%TD*%
D27*
%TO.C,J1*%
X84000000Y-107000000D03*
D28*
X84000000Y-110500000D03*
%TD*%
D19*
%TO.C,R1*%
X104900000Y-125000000D03*
X108000000Y-125000000D03*
%TD*%
D18*
%TO.C,C8*%
X159500000Y-105125000D03*
X159500000Y-102000000D03*
%TD*%
D13*
%TO.C,U6*%
X154762500Y-134187500D03*
X154762500Y-131887500D03*
X154762500Y-129587500D03*
D14*
X148462500Y-131887500D03*
%TD*%
M02*
