M48
; DRILL file KiCad 10.0.0 date 2026-04-06T13:26:43
; FORMAT={-:-/ absolute / metric / decimal}
; #@! TF.CreationDate,2026-04-06T13:26:43-04:00
; #@! TF.GenerationSoftware,Kicad,Pcbnew,10.0.0
; #@! TF.FileFunction,Plated,1,2,PTH
FMAT,2
METRIC
; #@! TA.AperFunction,Plated,PTH,ViaDrill
T1C0.300
; #@! TA.AperFunction,Plated,PTH,ComponentDrill
T2C0.800
; #@! TA.AperFunction,Plated,PTH,ComponentDrill
T3C0.813
; #@! TA.AperFunction,Plated,PTH,ComponentDrill
T4C0.900
; #@! TA.AperFunction,Plated,PTH,ComponentDrill
T5C0.950
; #@! TA.AperFunction,Plated,PTH,ComponentDrill
T6C2.540
%
G90
G05
T1
X52.898Y-92.632
X70.58Y-92.902
X76.474Y-77.896
X82.368Y-125.05
X91.21Y-88.317
T2
X30.42Y-108.05
X40.58Y-108.05
X40.92Y-85.55
X41.92Y-116.55
X51.08Y-85.55
X52.08Y-116.55
X63.26Y-90.7
X63.26Y-103.4
X65.5Y-135.97
X65.5Y-146.13
X65.8Y-90.7
X65.8Y-103.4
X68.34Y-90.7
X68.34Y-103.4
X70.88Y-90.7
X70.88Y-103.4
X73.42Y-90.7
X73.42Y-103.4
X75.96Y-90.7
X75.96Y-103.4
X78.5Y-90.7
X78.5Y-103.4
X81.04Y-90.7
X81.04Y-103.4
X82.64Y-55.55
X83.58Y-90.7
X83.58Y-103.4
X86.12Y-90.7
X86.12Y-103.4
X86.5Y-67.55
X88.66Y-90.7
X88.66Y-103.4
X89.5Y-122.55
X89.5Y-132.71
X91.2Y-90.7
X91.2Y-103.4
X93.74Y-90.7
X93.74Y-103.4
X96.66Y-67.55
X97.88Y-55.55
X108.23Y-89.9
X118.39Y-89.9
T3
X36.19Y-97.46
X36.19Y-102.54
X43.81Y-97.46
X43.81Y-102.54
X46.44Y-72.71
X46.44Y-77.79
X46.44Y-122.21
X46.44Y-127.29
X54.06Y-72.71
X54.06Y-77.79
X54.06Y-122.21
X54.06Y-127.29
X71.19Y-62.46
X71.19Y-67.54
X71.19Y-132.46
X71.19Y-137.54
X78.81Y-62.46
X78.81Y-67.54
X78.81Y-132.46
X78.81Y-137.54
X95.44Y-72.71
X95.44Y-77.79
X95.94Y-122.21
X95.94Y-127.29
X103.06Y-72.71
X103.06Y-77.79
X103.56Y-122.21
X103.56Y-127.29
X106.19Y-97.46
X106.19Y-102.54
X113.81Y-97.46
X113.81Y-102.54
T4
X27.73Y-100.0
X30.27Y-100.0
X41.23Y-67.5
X41.23Y-132.5
X43.77Y-67.5
X43.77Y-132.5
X73.73Y-54.0
X73.73Y-146.0
X76.27Y-54.0
X76.27Y-146.0
X106.23Y-67.5
X106.23Y-132.5
X108.77Y-67.5
X108.77Y-132.5
X119.73Y-100.0
X122.27Y-100.0
T5
X65.355Y-111.1
X65.355Y-113.6
X65.355Y-116.1
X65.355Y-118.6
X76.355Y-111.1
X76.355Y-113.6
X76.355Y-116.1
X76.355Y-118.6
T6
X59.3Y-90.7
X59.3Y-103.4
X97.7Y-90.7
X97.7Y-103.4
M30
