%TF.GenerationSoftware,KiCad,Pcbnew,10.0.0*%
%TF.CreationDate,2026-04-06T13:26:19-04:00*%
%TF.ProjectId,controller,636f6e74-726f-46c6-9c65-722e6b696361,1.0*%
%TF.SameCoordinates,Original*%
%TF.FileFunction,Legend,Bot*%
%TF.FilePolarity,Positive*%
%FSLAX46Y46*%
G04 Gerber Fmt 4.6, Leading zero omitted, Abs format (unit mm)*
G04 Created by KiCad (PCBNEW 10.0.0) date 2026-04-06 13:26:19*
%MOMM*%
%LPD*%
G01*
G04 APERTURE LIST*
%ADD10C,0.150000*%
%ADD11C,0.200000*%
%ADD12C,0.120000*%
G04 APERTURE END LIST*
D10*
X53604173Y-55528796D02*
X53604173Y-54028796D01*
X53604173Y-54028796D02*
X52747030Y-55528796D01*
X52747030Y-55528796D02*
X52747030Y-54028796D01*
X52104172Y-54171653D02*
X52032744Y-54100225D01*
X52032744Y-54100225D02*
X51889887Y-54028796D01*
X51889887Y-54028796D02*
X51532744Y-54028796D01*
X51532744Y-54028796D02*
X51389887Y-54100225D01*
X51389887Y-54100225D02*
X51318458Y-54171653D01*
X51318458Y-54171653D02*
X51247029Y-54314510D01*
X51247029Y-54314510D02*
X51247029Y-54457368D01*
X51247029Y-54457368D02*
X51318458Y-54671653D01*
X51318458Y-54671653D02*
X52175601Y-55528796D01*
X52175601Y-55528796D02*
X51247029Y-55528796D01*
X49747030Y-55528796D02*
X50247030Y-54814510D01*
X50604173Y-55528796D02*
X50604173Y-54028796D01*
X50604173Y-54028796D02*
X50032744Y-54028796D01*
X50032744Y-54028796D02*
X49889887Y-54100225D01*
X49889887Y-54100225D02*
X49818458Y-54171653D01*
X49818458Y-54171653D02*
X49747030Y-54314510D01*
X49747030Y-54314510D02*
X49747030Y-54528796D01*
X49747030Y-54528796D02*
X49818458Y-54671653D01*
X49818458Y-54671653D02*
X49889887Y-54743082D01*
X49889887Y-54743082D02*
X50032744Y-54814510D01*
X50032744Y-54814510D02*
X50604173Y-54814510D01*
X49104173Y-55528796D02*
X49104173Y-54028796D01*
X49104173Y-54028796D02*
X48747030Y-54028796D01*
X48747030Y-54028796D02*
X48532744Y-54100225D01*
X48532744Y-54100225D02*
X48389887Y-54243082D01*
X48389887Y-54243082D02*
X48318458Y-54385939D01*
X48318458Y-54385939D02*
X48247030Y-54671653D01*
X48247030Y-54671653D02*
X48247030Y-54885939D01*
X48247030Y-54885939D02*
X48318458Y-55171653D01*
X48318458Y-55171653D02*
X48389887Y-55314510D01*
X48389887Y-55314510D02*
X48532744Y-55457368D01*
X48532744Y-55457368D02*
X48747030Y-55528796D01*
X48747030Y-55528796D02*
X49104173Y-55528796D01*
X45961316Y-54743082D02*
X46461316Y-54743082D01*
X46461316Y-55528796D02*
X46461316Y-54028796D01*
X46461316Y-54028796D02*
X45747030Y-54028796D01*
X44961316Y-55528796D02*
X45104173Y-55457368D01*
X45104173Y-55457368D02*
X45175602Y-55385939D01*
X45175602Y-55385939D02*
X45247030Y-55243082D01*
X45247030Y-55243082D02*
X45247030Y-54814510D01*
X45247030Y-54814510D02*
X45175602Y-54671653D01*
X45175602Y-54671653D02*
X45104173Y-54600225D01*
X45104173Y-54600225D02*
X44961316Y-54528796D01*
X44961316Y-54528796D02*
X44747030Y-54528796D01*
X44747030Y-54528796D02*
X44604173Y-54600225D01*
X44604173Y-54600225D02*
X44532745Y-54671653D01*
X44532745Y-54671653D02*
X44461316Y-54814510D01*
X44461316Y-54814510D02*
X44461316Y-55243082D01*
X44461316Y-55243082D02*
X44532745Y-55385939D01*
X44532745Y-55385939D02*
X44604173Y-55457368D01*
X44604173Y-55457368D02*
X44747030Y-55528796D01*
X44747030Y-55528796D02*
X44961316Y-55528796D01*
X43175602Y-54528796D02*
X43175602Y-55528796D01*
X43818459Y-54528796D02*
X43818459Y-55314510D01*
X43818459Y-55314510D02*
X43747030Y-55457368D01*
X43747030Y-55457368D02*
X43604173Y-55528796D01*
X43604173Y-55528796D02*
X43389887Y-55528796D01*
X43389887Y-55528796D02*
X43247030Y-55457368D01*
X43247030Y-55457368D02*
X43175602Y-55385939D01*
X42461316Y-55528796D02*
X42461316Y-54528796D01*
X42461316Y-54814510D02*
X42389887Y-54671653D01*
X42389887Y-54671653D02*
X42318459Y-54600225D01*
X42318459Y-54600225D02*
X42175601Y-54528796D01*
X42175601Y-54528796D02*
X42032744Y-54528796D01*
X40461316Y-55457368D02*
X40247031Y-55528796D01*
X40247031Y-55528796D02*
X39889888Y-55528796D01*
X39889888Y-55528796D02*
X39747031Y-55457368D01*
X39747031Y-55457368D02*
X39675602Y-55385939D01*
X39675602Y-55385939D02*
X39604173Y-55243082D01*
X39604173Y-55243082D02*
X39604173Y-55100225D01*
X39604173Y-55100225D02*
X39675602Y-54957368D01*
X39675602Y-54957368D02*
X39747031Y-54885939D01*
X39747031Y-54885939D02*
X39889888Y-54814510D01*
X39889888Y-54814510D02*
X40175602Y-54743082D01*
X40175602Y-54743082D02*
X40318459Y-54671653D01*
X40318459Y-54671653D02*
X40389888Y-54600225D01*
X40389888Y-54600225D02*
X40461316Y-54457368D01*
X40461316Y-54457368D02*
X40461316Y-54314510D01*
X40461316Y-54314510D02*
X40389888Y-54171653D01*
X40389888Y-54171653D02*
X40318459Y-54100225D01*
X40318459Y-54100225D02*
X40175602Y-54028796D01*
X40175602Y-54028796D02*
X39818459Y-54028796D01*
X39818459Y-54028796D02*
X39604173Y-54100225D01*
X38318460Y-54528796D02*
X38318460Y-56028796D01*
X38318460Y-55457368D02*
X38461317Y-55528796D01*
X38461317Y-55528796D02*
X38747031Y-55528796D01*
X38747031Y-55528796D02*
X38889888Y-55457368D01*
X38889888Y-55457368D02*
X38961317Y-55385939D01*
X38961317Y-55385939D02*
X39032745Y-55243082D01*
X39032745Y-55243082D02*
X39032745Y-54814510D01*
X39032745Y-54814510D02*
X38961317Y-54671653D01*
X38961317Y-54671653D02*
X38889888Y-54600225D01*
X38889888Y-54600225D02*
X38747031Y-54528796D01*
X38747031Y-54528796D02*
X38461317Y-54528796D01*
X38461317Y-54528796D02*
X38318460Y-54600225D01*
X36961317Y-54528796D02*
X36961317Y-55528796D01*
X37604174Y-54528796D02*
X37604174Y-55314510D01*
X37604174Y-55314510D02*
X37532745Y-55457368D01*
X37532745Y-55457368D02*
X37389888Y-55528796D01*
X37389888Y-55528796D02*
X37175602Y-55528796D01*
X37175602Y-55528796D02*
X37032745Y-55457368D01*
X37032745Y-55457368D02*
X36961317Y-55385939D01*
X35604174Y-55528796D02*
X35604174Y-54743082D01*
X35604174Y-54743082D02*
X35675602Y-54600225D01*
X35675602Y-54600225D02*
X35818459Y-54528796D01*
X35818459Y-54528796D02*
X36104174Y-54528796D01*
X36104174Y-54528796D02*
X36247031Y-54600225D01*
X35604174Y-55457368D02*
X35747031Y-55528796D01*
X35747031Y-55528796D02*
X36104174Y-55528796D01*
X36104174Y-55528796D02*
X36247031Y-55457368D01*
X36247031Y-55457368D02*
X36318459Y-55314510D01*
X36318459Y-55314510D02*
X36318459Y-55171653D01*
X36318459Y-55171653D02*
X36247031Y-55028796D01*
X36247031Y-55028796D02*
X36104174Y-54957368D01*
X36104174Y-54957368D02*
X35747031Y-54957368D01*
X35747031Y-54957368D02*
X35604174Y-54885939D01*
X34889888Y-55528796D02*
X34889888Y-54528796D01*
X34889888Y-54814510D02*
X34818459Y-54671653D01*
X34818459Y-54671653D02*
X34747031Y-54600225D01*
X34747031Y-54600225D02*
X34604173Y-54528796D01*
X34604173Y-54528796D02*
X34461316Y-54528796D01*
X33389888Y-55457368D02*
X33532745Y-55528796D01*
X33532745Y-55528796D02*
X33818460Y-55528796D01*
X33818460Y-55528796D02*
X33961317Y-55457368D01*
X33961317Y-55457368D02*
X34032745Y-55314510D01*
X34032745Y-55314510D02*
X34032745Y-54743082D01*
X34032745Y-54743082D02*
X33961317Y-54600225D01*
X33961317Y-54600225D02*
X33818460Y-54528796D01*
X33818460Y-54528796D02*
X33532745Y-54528796D01*
X33532745Y-54528796D02*
X33389888Y-54600225D01*
X33389888Y-54600225D02*
X33318460Y-54743082D01*
X33318460Y-54743082D02*
X33318460Y-54885939D01*
X33318460Y-54885939D02*
X34032745Y-55028796D01*
X52889887Y-57943712D02*
X53604173Y-57943712D01*
X53604173Y-57943712D02*
X53604173Y-56443712D01*
X52175601Y-57943712D02*
X52318458Y-57872284D01*
X52318458Y-57872284D02*
X52389887Y-57800855D01*
X52389887Y-57800855D02*
X52461315Y-57657998D01*
X52461315Y-57657998D02*
X52461315Y-57229426D01*
X52461315Y-57229426D02*
X52389887Y-57086569D01*
X52389887Y-57086569D02*
X52318458Y-57015141D01*
X52318458Y-57015141D02*
X52175601Y-56943712D01*
X52175601Y-56943712D02*
X51961315Y-56943712D01*
X51961315Y-56943712D02*
X51818458Y-57015141D01*
X51818458Y-57015141D02*
X51747030Y-57086569D01*
X51747030Y-57086569D02*
X51675601Y-57229426D01*
X51675601Y-57229426D02*
X51675601Y-57657998D01*
X51675601Y-57657998D02*
X51747030Y-57800855D01*
X51747030Y-57800855D02*
X51818458Y-57872284D01*
X51818458Y-57872284D02*
X51961315Y-57943712D01*
X51961315Y-57943712D02*
X52175601Y-57943712D01*
X50175601Y-57943712D02*
X50675601Y-57229426D01*
X51032744Y-57943712D02*
X51032744Y-56443712D01*
X51032744Y-56443712D02*
X50461315Y-56443712D01*
X50461315Y-56443712D02*
X50318458Y-56515141D01*
X50318458Y-56515141D02*
X50247029Y-56586569D01*
X50247029Y-56586569D02*
X50175601Y-56729426D01*
X50175601Y-56729426D02*
X50175601Y-56943712D01*
X50175601Y-56943712D02*
X50247029Y-57086569D01*
X50247029Y-57086569D02*
X50318458Y-57157998D01*
X50318458Y-57157998D02*
X50461315Y-57229426D01*
X50461315Y-57229426D02*
X51032744Y-57229426D01*
X48889887Y-57943712D02*
X48889887Y-57157998D01*
X48889887Y-57157998D02*
X48961315Y-57015141D01*
X48961315Y-57015141D02*
X49104172Y-56943712D01*
X49104172Y-56943712D02*
X49389887Y-56943712D01*
X49389887Y-56943712D02*
X49532744Y-57015141D01*
X48889887Y-57872284D02*
X49032744Y-57943712D01*
X49032744Y-57943712D02*
X49389887Y-57943712D01*
X49389887Y-57943712D02*
X49532744Y-57872284D01*
X49532744Y-57872284D02*
X49604172Y-57729426D01*
X49604172Y-57729426D02*
X49604172Y-57586569D01*
X49604172Y-57586569D02*
X49532744Y-57443712D01*
X49532744Y-57443712D02*
X49389887Y-57372284D01*
X49389887Y-57372284D02*
X49032744Y-57372284D01*
X49032744Y-57372284D02*
X48889887Y-57300855D01*
X46175601Y-57800855D02*
X46247029Y-57872284D01*
X46247029Y-57872284D02*
X46461315Y-57943712D01*
X46461315Y-57943712D02*
X46604172Y-57943712D01*
X46604172Y-57943712D02*
X46818458Y-57872284D01*
X46818458Y-57872284D02*
X46961315Y-57729426D01*
X46961315Y-57729426D02*
X47032744Y-57586569D01*
X47032744Y-57586569D02*
X47104172Y-57300855D01*
X47104172Y-57300855D02*
X47104172Y-57086569D01*
X47104172Y-57086569D02*
X47032744Y-56800855D01*
X47032744Y-56800855D02*
X46961315Y-56657998D01*
X46961315Y-56657998D02*
X46818458Y-56515141D01*
X46818458Y-56515141D02*
X46604172Y-56443712D01*
X46604172Y-56443712D02*
X46461315Y-56443712D01*
X46461315Y-56443712D02*
X46247029Y-56515141D01*
X46247029Y-56515141D02*
X46175601Y-56586569D01*
X45318458Y-57943712D02*
X45461315Y-57872284D01*
X45461315Y-57872284D02*
X45532744Y-57800855D01*
X45532744Y-57800855D02*
X45604172Y-57657998D01*
X45604172Y-57657998D02*
X45604172Y-57229426D01*
X45604172Y-57229426D02*
X45532744Y-57086569D01*
X45532744Y-57086569D02*
X45461315Y-57015141D01*
X45461315Y-57015141D02*
X45318458Y-56943712D01*
X45318458Y-56943712D02*
X45104172Y-56943712D01*
X45104172Y-56943712D02*
X44961315Y-57015141D01*
X44961315Y-57015141D02*
X44889887Y-57086569D01*
X44889887Y-57086569D02*
X44818458Y-57229426D01*
X44818458Y-57229426D02*
X44818458Y-57657998D01*
X44818458Y-57657998D02*
X44889887Y-57800855D01*
X44889887Y-57800855D02*
X44961315Y-57872284D01*
X44961315Y-57872284D02*
X45104172Y-57943712D01*
X45104172Y-57943712D02*
X45318458Y-57943712D01*
X44175601Y-56943712D02*
X44175601Y-57943712D01*
X44175601Y-57086569D02*
X44104172Y-57015141D01*
X44104172Y-57015141D02*
X43961315Y-56943712D01*
X43961315Y-56943712D02*
X43747029Y-56943712D01*
X43747029Y-56943712D02*
X43604172Y-57015141D01*
X43604172Y-57015141D02*
X43532744Y-57157998D01*
X43532744Y-57157998D02*
X43532744Y-57943712D01*
X43032743Y-56943712D02*
X42461315Y-56943712D01*
X42818458Y-56443712D02*
X42818458Y-57729426D01*
X42818458Y-57729426D02*
X42747029Y-57872284D01*
X42747029Y-57872284D02*
X42604172Y-57943712D01*
X42604172Y-57943712D02*
X42461315Y-57943712D01*
X41961315Y-57943712D02*
X41961315Y-56943712D01*
X41961315Y-57229426D02*
X41889886Y-57086569D01*
X41889886Y-57086569D02*
X41818458Y-57015141D01*
X41818458Y-57015141D02*
X41675600Y-56943712D01*
X41675600Y-56943712D02*
X41532743Y-56943712D01*
X40818458Y-57943712D02*
X40961315Y-57872284D01*
X40961315Y-57872284D02*
X41032744Y-57800855D01*
X41032744Y-57800855D02*
X41104172Y-57657998D01*
X41104172Y-57657998D02*
X41104172Y-57229426D01*
X41104172Y-57229426D02*
X41032744Y-57086569D01*
X41032744Y-57086569D02*
X40961315Y-57015141D01*
X40961315Y-57015141D02*
X40818458Y-56943712D01*
X40818458Y-56943712D02*
X40604172Y-56943712D01*
X40604172Y-56943712D02*
X40461315Y-57015141D01*
X40461315Y-57015141D02*
X40389887Y-57086569D01*
X40389887Y-57086569D02*
X40318458Y-57229426D01*
X40318458Y-57229426D02*
X40318458Y-57657998D01*
X40318458Y-57657998D02*
X40389887Y-57800855D01*
X40389887Y-57800855D02*
X40461315Y-57872284D01*
X40461315Y-57872284D02*
X40604172Y-57943712D01*
X40604172Y-57943712D02*
X40818458Y-57943712D01*
X39461315Y-57943712D02*
X39604172Y-57872284D01*
X39604172Y-57872284D02*
X39675601Y-57729426D01*
X39675601Y-57729426D02*
X39675601Y-56443712D01*
X38675601Y-57943712D02*
X38818458Y-57872284D01*
X38818458Y-57872284D02*
X38889887Y-57729426D01*
X38889887Y-57729426D02*
X38889887Y-56443712D01*
X37532744Y-57872284D02*
X37675601Y-57943712D01*
X37675601Y-57943712D02*
X37961316Y-57943712D01*
X37961316Y-57943712D02*
X38104173Y-57872284D01*
X38104173Y-57872284D02*
X38175601Y-57729426D01*
X38175601Y-57729426D02*
X38175601Y-57157998D01*
X38175601Y-57157998D02*
X38104173Y-57015141D01*
X38104173Y-57015141D02*
X37961316Y-56943712D01*
X37961316Y-56943712D02*
X37675601Y-56943712D01*
X37675601Y-56943712D02*
X37532744Y-57015141D01*
X37532744Y-57015141D02*
X37461316Y-57157998D01*
X37461316Y-57157998D02*
X37461316Y-57300855D01*
X37461316Y-57300855D02*
X38175601Y-57443712D01*
X36818459Y-57943712D02*
X36818459Y-56943712D01*
X36818459Y-57229426D02*
X36747030Y-57086569D01*
X36747030Y-57086569D02*
X36675602Y-57015141D01*
X36675602Y-57015141D02*
X36532744Y-56943712D01*
X36532744Y-56943712D02*
X36389887Y-56943712D01*
X53818458Y-58858628D02*
X53318458Y-60358628D01*
X53318458Y-60358628D02*
X52818458Y-58858628D01*
X51747030Y-60287200D02*
X51889887Y-60358628D01*
X51889887Y-60358628D02*
X52175602Y-60358628D01*
X52175602Y-60358628D02*
X52318459Y-60287200D01*
X52318459Y-60287200D02*
X52389887Y-60144342D01*
X52389887Y-60144342D02*
X52389887Y-59572914D01*
X52389887Y-59572914D02*
X52318459Y-59430057D01*
X52318459Y-59430057D02*
X52175602Y-59358628D01*
X52175602Y-59358628D02*
X51889887Y-59358628D01*
X51889887Y-59358628D02*
X51747030Y-59430057D01*
X51747030Y-59430057D02*
X51675602Y-59572914D01*
X51675602Y-59572914D02*
X51675602Y-59715771D01*
X51675602Y-59715771D02*
X52389887Y-59858628D01*
X51032745Y-60358628D02*
X51032745Y-59358628D01*
X51032745Y-59644342D02*
X50961316Y-59501485D01*
X50961316Y-59501485D02*
X50889888Y-59430057D01*
X50889888Y-59430057D02*
X50747030Y-59358628D01*
X50747030Y-59358628D02*
X50604173Y-59358628D01*
X50175602Y-60287200D02*
X50032745Y-60358628D01*
X50032745Y-60358628D02*
X49747031Y-60358628D01*
X49747031Y-60358628D02*
X49604174Y-60287200D01*
X49604174Y-60287200D02*
X49532745Y-60144342D01*
X49532745Y-60144342D02*
X49532745Y-60072914D01*
X49532745Y-60072914D02*
X49604174Y-59930057D01*
X49604174Y-59930057D02*
X49747031Y-59858628D01*
X49747031Y-59858628D02*
X49961317Y-59858628D01*
X49961317Y-59858628D02*
X50104174Y-59787200D01*
X50104174Y-59787200D02*
X50175602Y-59644342D01*
X50175602Y-59644342D02*
X50175602Y-59572914D01*
X50175602Y-59572914D02*
X50104174Y-59430057D01*
X50104174Y-59430057D02*
X49961317Y-59358628D01*
X49961317Y-59358628D02*
X49747031Y-59358628D01*
X49747031Y-59358628D02*
X49604174Y-59430057D01*
X48889888Y-60358628D02*
X48889888Y-59358628D01*
X48889888Y-58858628D02*
X48961316Y-58930057D01*
X48961316Y-58930057D02*
X48889888Y-59001485D01*
X48889888Y-59001485D02*
X48818459Y-58930057D01*
X48818459Y-58930057D02*
X48889888Y-58858628D01*
X48889888Y-58858628D02*
X48889888Y-59001485D01*
X47961316Y-60358628D02*
X48104173Y-60287200D01*
X48104173Y-60287200D02*
X48175602Y-60215771D01*
X48175602Y-60215771D02*
X48247030Y-60072914D01*
X48247030Y-60072914D02*
X48247030Y-59644342D01*
X48247030Y-59644342D02*
X48175602Y-59501485D01*
X48175602Y-59501485D02*
X48104173Y-59430057D01*
X48104173Y-59430057D02*
X47961316Y-59358628D01*
X47961316Y-59358628D02*
X47747030Y-59358628D01*
X47747030Y-59358628D02*
X47604173Y-59430057D01*
X47604173Y-59430057D02*
X47532745Y-59501485D01*
X47532745Y-59501485D02*
X47461316Y-59644342D01*
X47461316Y-59644342D02*
X47461316Y-60072914D01*
X47461316Y-60072914D02*
X47532745Y-60215771D01*
X47532745Y-60215771D02*
X47604173Y-60287200D01*
X47604173Y-60287200D02*
X47747030Y-60358628D01*
X47747030Y-60358628D02*
X47961316Y-60358628D01*
X46818459Y-59358628D02*
X46818459Y-60358628D01*
X46818459Y-59501485D02*
X46747030Y-59430057D01*
X46747030Y-59430057D02*
X46604173Y-59358628D01*
X46604173Y-59358628D02*
X46389887Y-59358628D01*
X46389887Y-59358628D02*
X46247030Y-59430057D01*
X46247030Y-59430057D02*
X46175602Y-59572914D01*
X46175602Y-59572914D02*
X46175602Y-60358628D01*
X43532744Y-60358628D02*
X44389887Y-60358628D01*
X43961316Y-60358628D02*
X43961316Y-58858628D01*
X43961316Y-58858628D02*
X44104173Y-59072914D01*
X44104173Y-59072914D02*
X44247030Y-59215771D01*
X44247030Y-59215771D02*
X44389887Y-59287200D01*
X42889888Y-60215771D02*
X42818459Y-60287200D01*
X42818459Y-60287200D02*
X42889888Y-60358628D01*
X42889888Y-60358628D02*
X42961316Y-60287200D01*
X42961316Y-60287200D02*
X42889888Y-60215771D01*
X42889888Y-60215771D02*
X42889888Y-60358628D01*
X41889887Y-58858628D02*
X41747030Y-58858628D01*
X41747030Y-58858628D02*
X41604173Y-58930057D01*
X41604173Y-58930057D02*
X41532745Y-59001485D01*
X41532745Y-59001485D02*
X41461316Y-59144342D01*
X41461316Y-59144342D02*
X41389887Y-59430057D01*
X41389887Y-59430057D02*
X41389887Y-59787200D01*
X41389887Y-59787200D02*
X41461316Y-60072914D01*
X41461316Y-60072914D02*
X41532745Y-60215771D01*
X41532745Y-60215771D02*
X41604173Y-60287200D01*
X41604173Y-60287200D02*
X41747030Y-60358628D01*
X41747030Y-60358628D02*
X41889887Y-60358628D01*
X41889887Y-60358628D02*
X42032745Y-60287200D01*
X42032745Y-60287200D02*
X42104173Y-60215771D01*
X42104173Y-60215771D02*
X42175602Y-60072914D01*
X42175602Y-60072914D02*
X42247030Y-59787200D01*
X42247030Y-59787200D02*
X42247030Y-59430057D01*
X42247030Y-59430057D02*
X42175602Y-59144342D01*
X42175602Y-59144342D02*
X42104173Y-59001485D01*
X42104173Y-59001485D02*
X42032745Y-58930057D01*
X42032745Y-58930057D02*
X41889887Y-58858628D01*
D11*
X46892231Y-99747219D02*
X46225564Y-99747219D01*
X45939850Y-100794838D02*
X46892231Y-100794838D01*
X46892231Y-100794838D02*
X46892231Y-98794838D01*
X46892231Y-98794838D02*
X45939850Y-98794838D01*
X57392231Y-82294838D02*
X57392231Y-80294838D01*
X57392231Y-80294838D02*
X56249374Y-82294838D01*
X56249374Y-82294838D02*
X56249374Y-80294838D01*
X55296993Y-81247219D02*
X54630326Y-81247219D01*
X54344612Y-82294838D02*
X55296993Y-82294838D01*
X55296993Y-82294838D02*
X55296993Y-80294838D01*
X55296993Y-80294838D02*
X54344612Y-80294838D01*
X59487469Y-119699600D02*
X59201755Y-119794838D01*
X59201755Y-119794838D02*
X58725564Y-119794838D01*
X58725564Y-119794838D02*
X58535088Y-119699600D01*
X58535088Y-119699600D02*
X58439850Y-119604361D01*
X58439850Y-119604361D02*
X58344612Y-119413885D01*
X58344612Y-119413885D02*
X58344612Y-119223409D01*
X58344612Y-119223409D02*
X58439850Y-119032933D01*
X58439850Y-119032933D02*
X58535088Y-118937695D01*
X58535088Y-118937695D02*
X58725564Y-118842457D01*
X58725564Y-118842457D02*
X59106517Y-118747219D01*
X59106517Y-118747219D02*
X59296993Y-118651980D01*
X59296993Y-118651980D02*
X59392231Y-118556742D01*
X59392231Y-118556742D02*
X59487469Y-118366266D01*
X59487469Y-118366266D02*
X59487469Y-118175790D01*
X59487469Y-118175790D02*
X59392231Y-117985314D01*
X59392231Y-117985314D02*
X59296993Y-117890076D01*
X59296993Y-117890076D02*
X59106517Y-117794838D01*
X59106517Y-117794838D02*
X58630326Y-117794838D01*
X58630326Y-117794838D02*
X58344612Y-117890076D01*
X57487469Y-118747219D02*
X56820802Y-118747219D01*
X56535088Y-119794838D02*
X57487469Y-119794838D01*
X57487469Y-119794838D02*
X57487469Y-117794838D01*
X57487469Y-117794838D02*
X56535088Y-117794838D01*
X74392231Y-72794838D02*
X74392231Y-70794838D01*
X74392231Y-70794838D02*
X73249374Y-72794838D01*
X73249374Y-72794838D02*
X73249374Y-70794838D01*
X74487469Y-126939600D02*
X74201755Y-127034838D01*
X74201755Y-127034838D02*
X73725564Y-127034838D01*
X73725564Y-127034838D02*
X73535088Y-126939600D01*
X73535088Y-126939600D02*
X73439850Y-126844361D01*
X73439850Y-126844361D02*
X73344612Y-126653885D01*
X73344612Y-126653885D02*
X73344612Y-126463409D01*
X73344612Y-126463409D02*
X73439850Y-126272933D01*
X73439850Y-126272933D02*
X73535088Y-126177695D01*
X73535088Y-126177695D02*
X73725564Y-126082457D01*
X73725564Y-126082457D02*
X74106517Y-125987219D01*
X74106517Y-125987219D02*
X74296993Y-125891980D01*
X74296993Y-125891980D02*
X74392231Y-125796742D01*
X74392231Y-125796742D02*
X74487469Y-125606266D01*
X74487469Y-125606266D02*
X74487469Y-125415790D01*
X74487469Y-125415790D02*
X74392231Y-125225314D01*
X74392231Y-125225314D02*
X74296993Y-125130076D01*
X74296993Y-125130076D02*
X74106517Y-125034838D01*
X74106517Y-125034838D02*
X73630326Y-125034838D01*
X73630326Y-125034838D02*
X73344612Y-125130076D01*
X92892231Y-82294838D02*
X92892231Y-80294838D01*
X92892231Y-80294838D02*
X91749374Y-82294838D01*
X91749374Y-82294838D02*
X91749374Y-80294838D01*
X90987469Y-80294838D02*
X90511279Y-82294838D01*
X90511279Y-82294838D02*
X90130326Y-80866266D01*
X90130326Y-80866266D02*
X89749374Y-82294838D01*
X89749374Y-82294838D02*
X89273184Y-80294838D01*
X92987469Y-120589600D02*
X92701755Y-120684838D01*
X92701755Y-120684838D02*
X92225564Y-120684838D01*
X92225564Y-120684838D02*
X92035088Y-120589600D01*
X92035088Y-120589600D02*
X91939850Y-120494361D01*
X91939850Y-120494361D02*
X91844612Y-120303885D01*
X91844612Y-120303885D02*
X91844612Y-120113409D01*
X91844612Y-120113409D02*
X91939850Y-119922933D01*
X91939850Y-119922933D02*
X92035088Y-119827695D01*
X92035088Y-119827695D02*
X92225564Y-119732457D01*
X92225564Y-119732457D02*
X92606517Y-119637219D01*
X92606517Y-119637219D02*
X92796993Y-119541980D01*
X92796993Y-119541980D02*
X92892231Y-119446742D01*
X92892231Y-119446742D02*
X92987469Y-119256266D01*
X92987469Y-119256266D02*
X92987469Y-119065790D01*
X92987469Y-119065790D02*
X92892231Y-118875314D01*
X92892231Y-118875314D02*
X92796993Y-118780076D01*
X92796993Y-118780076D02*
X92606517Y-118684838D01*
X92606517Y-118684838D02*
X92130326Y-118684838D01*
X92130326Y-118684838D02*
X91844612Y-118780076D01*
X91177945Y-118684838D02*
X90701755Y-120684838D01*
X90701755Y-120684838D02*
X90320802Y-119256266D01*
X90320802Y-119256266D02*
X89939850Y-120684838D01*
X89939850Y-120684838D02*
X89463660Y-118684838D01*
X102082707Y-97744838D02*
X101606517Y-99744838D01*
X101606517Y-99744838D02*
X101225564Y-98316266D01*
X101225564Y-98316266D02*
X100844612Y-99744838D01*
X100844612Y-99744838D02*
X100368422Y-97744838D01*
D10*
X121738094Y-96494819D02*
X121738094Y-95494819D01*
X121738094Y-95494819D02*
X121499999Y-95494819D01*
X121499999Y-95494819D02*
X121357142Y-95542438D01*
X121357142Y-95542438D02*
X121261904Y-95637676D01*
X121261904Y-95637676D02*
X121214285Y-95732914D01*
X121214285Y-95732914D02*
X121166666Y-95923390D01*
X121166666Y-95923390D02*
X121166666Y-96066247D01*
X121166666Y-96066247D02*
X121214285Y-96256723D01*
X121214285Y-96256723D02*
X121261904Y-96351961D01*
X121261904Y-96351961D02*
X121357142Y-96447200D01*
X121357142Y-96447200D02*
X121499999Y-96494819D01*
X121499999Y-96494819D02*
X121738094Y-96494819D01*
X120833332Y-95494819D02*
X120166666Y-95494819D01*
X120166666Y-95494819D02*
X120595237Y-96494819D01*
X123738095Y-100454819D02*
X124309523Y-100454819D01*
X124023809Y-100454819D02*
X124023809Y-99454819D01*
X124023809Y-99454819D02*
X124119047Y-99597676D01*
X124119047Y-99597676D02*
X124214285Y-99692914D01*
X124214285Y-99692914D02*
X124309523Y-99740533D01*
X123309523Y-99931009D02*
X122547619Y-99931009D01*
X122547619Y-100216723D02*
X123309523Y-100216723D01*
X122071428Y-100454819D02*
X122071428Y-99454819D01*
X121500000Y-100454819D02*
X121928571Y-99883390D01*
X121500000Y-99454819D02*
X122071428Y-100026247D01*
X120357142Y-99550057D02*
X120309523Y-99502438D01*
X120309523Y-99502438D02*
X120214285Y-99454819D01*
X120214285Y-99454819D02*
X119976190Y-99454819D01*
X119976190Y-99454819D02*
X119880952Y-99502438D01*
X119880952Y-99502438D02*
X119833333Y-99550057D01*
X119833333Y-99550057D02*
X119785714Y-99645295D01*
X119785714Y-99645295D02*
X119785714Y-99740533D01*
X119785714Y-99740533D02*
X119833333Y-99883390D01*
X119833333Y-99883390D02*
X120404761Y-100454819D01*
X120404761Y-100454819D02*
X119785714Y-100454819D01*
X119357142Y-99931009D02*
X118595238Y-99931009D01*
X118595238Y-100216723D02*
X119357142Y-100216723D01*
X118166666Y-100169104D02*
X117690476Y-100169104D01*
X118261904Y-100454819D02*
X117928571Y-99454819D01*
X117928571Y-99454819D02*
X117595238Y-100454819D01*
X43238094Y-63994819D02*
X43238094Y-62994819D01*
X43238094Y-62994819D02*
X42999999Y-62994819D01*
X42999999Y-62994819D02*
X42857142Y-63042438D01*
X42857142Y-63042438D02*
X42761904Y-63137676D01*
X42761904Y-63137676D02*
X42714285Y-63232914D01*
X42714285Y-63232914D02*
X42666666Y-63423390D01*
X42666666Y-63423390D02*
X42666666Y-63566247D01*
X42666666Y-63566247D02*
X42714285Y-63756723D01*
X42714285Y-63756723D02*
X42761904Y-63851961D01*
X42761904Y-63851961D02*
X42857142Y-63947200D01*
X42857142Y-63947200D02*
X42999999Y-63994819D01*
X42999999Y-63994819D02*
X43238094Y-63994819D01*
X42285713Y-63090057D02*
X42238094Y-63042438D01*
X42238094Y-63042438D02*
X42142856Y-62994819D01*
X42142856Y-62994819D02*
X41904761Y-62994819D01*
X41904761Y-62994819D02*
X41809523Y-63042438D01*
X41809523Y-63042438D02*
X41761904Y-63090057D01*
X41761904Y-63090057D02*
X41714285Y-63185295D01*
X41714285Y-63185295D02*
X41714285Y-63280533D01*
X41714285Y-63280533D02*
X41761904Y-63423390D01*
X41761904Y-63423390D02*
X42333332Y-63994819D01*
X42333332Y-63994819D02*
X41714285Y-63994819D01*
X45238095Y-67954819D02*
X45809523Y-67954819D01*
X45523809Y-67954819D02*
X45523809Y-66954819D01*
X45523809Y-66954819D02*
X45619047Y-67097676D01*
X45619047Y-67097676D02*
X45714285Y-67192914D01*
X45714285Y-67192914D02*
X45809523Y-67240533D01*
X44809523Y-67431009D02*
X44047619Y-67431009D01*
X44047619Y-67716723D02*
X44809523Y-67716723D01*
X43571428Y-67954819D02*
X43571428Y-66954819D01*
X43000000Y-67954819D02*
X43428571Y-67383390D01*
X43000000Y-66954819D02*
X43571428Y-67526247D01*
X41857142Y-67050057D02*
X41809523Y-67002438D01*
X41809523Y-67002438D02*
X41714285Y-66954819D01*
X41714285Y-66954819D02*
X41476190Y-66954819D01*
X41476190Y-66954819D02*
X41380952Y-67002438D01*
X41380952Y-67002438D02*
X41333333Y-67050057D01*
X41333333Y-67050057D02*
X41285714Y-67145295D01*
X41285714Y-67145295D02*
X41285714Y-67240533D01*
X41285714Y-67240533D02*
X41333333Y-67383390D01*
X41333333Y-67383390D02*
X41904761Y-67954819D01*
X41904761Y-67954819D02*
X41285714Y-67954819D01*
X40857142Y-67431009D02*
X40095238Y-67431009D01*
X40095238Y-67716723D02*
X40857142Y-67716723D01*
X39666666Y-67669104D02*
X39190476Y-67669104D01*
X39761904Y-67954819D02*
X39428571Y-66954819D01*
X39428571Y-66954819D02*
X39095238Y-67954819D01*
X108238094Y-128994819D02*
X108238094Y-127994819D01*
X108238094Y-127994819D02*
X107999999Y-127994819D01*
X107999999Y-127994819D02*
X107857142Y-128042438D01*
X107857142Y-128042438D02*
X107761904Y-128137676D01*
X107761904Y-128137676D02*
X107714285Y-128232914D01*
X107714285Y-128232914D02*
X107666666Y-128423390D01*
X107666666Y-128423390D02*
X107666666Y-128566247D01*
X107666666Y-128566247D02*
X107714285Y-128756723D01*
X107714285Y-128756723D02*
X107761904Y-128851961D01*
X107761904Y-128851961D02*
X107857142Y-128947200D01*
X107857142Y-128947200D02*
X107999999Y-128994819D01*
X107999999Y-128994819D02*
X108238094Y-128994819D01*
X106809523Y-127994819D02*
X106999999Y-127994819D01*
X106999999Y-127994819D02*
X107095237Y-128042438D01*
X107095237Y-128042438D02*
X107142856Y-128090057D01*
X107142856Y-128090057D02*
X107238094Y-128232914D01*
X107238094Y-128232914D02*
X107285713Y-128423390D01*
X107285713Y-128423390D02*
X107285713Y-128804342D01*
X107285713Y-128804342D02*
X107238094Y-128899580D01*
X107238094Y-128899580D02*
X107190475Y-128947200D01*
X107190475Y-128947200D02*
X107095237Y-128994819D01*
X107095237Y-128994819D02*
X106904761Y-128994819D01*
X106904761Y-128994819D02*
X106809523Y-128947200D01*
X106809523Y-128947200D02*
X106761904Y-128899580D01*
X106761904Y-128899580D02*
X106714285Y-128804342D01*
X106714285Y-128804342D02*
X106714285Y-128566247D01*
X106714285Y-128566247D02*
X106761904Y-128471009D01*
X106761904Y-128471009D02*
X106809523Y-128423390D01*
X106809523Y-128423390D02*
X106904761Y-128375771D01*
X106904761Y-128375771D02*
X107095237Y-128375771D01*
X107095237Y-128375771D02*
X107190475Y-128423390D01*
X107190475Y-128423390D02*
X107238094Y-128471009D01*
X107238094Y-128471009D02*
X107285713Y-128566247D01*
X110238095Y-132954819D02*
X110809523Y-132954819D01*
X110523809Y-132954819D02*
X110523809Y-131954819D01*
X110523809Y-131954819D02*
X110619047Y-132097676D01*
X110619047Y-132097676D02*
X110714285Y-132192914D01*
X110714285Y-132192914D02*
X110809523Y-132240533D01*
X109809523Y-132431009D02*
X109047619Y-132431009D01*
X109047619Y-132716723D02*
X109809523Y-132716723D01*
X108571428Y-132954819D02*
X108571428Y-131954819D01*
X108000000Y-132954819D02*
X108428571Y-132383390D01*
X108000000Y-131954819D02*
X108571428Y-132526247D01*
X106857142Y-132050057D02*
X106809523Y-132002438D01*
X106809523Y-132002438D02*
X106714285Y-131954819D01*
X106714285Y-131954819D02*
X106476190Y-131954819D01*
X106476190Y-131954819D02*
X106380952Y-132002438D01*
X106380952Y-132002438D02*
X106333333Y-132050057D01*
X106333333Y-132050057D02*
X106285714Y-132145295D01*
X106285714Y-132145295D02*
X106285714Y-132240533D01*
X106285714Y-132240533D02*
X106333333Y-132383390D01*
X106333333Y-132383390D02*
X106904761Y-132954819D01*
X106904761Y-132954819D02*
X106285714Y-132954819D01*
X105857142Y-132431009D02*
X105095238Y-132431009D01*
X105095238Y-132716723D02*
X105857142Y-132716723D01*
X104666666Y-132669104D02*
X104190476Y-132669104D01*
X104761904Y-132954819D02*
X104428571Y-131954819D01*
X104428571Y-131954819D02*
X104095238Y-132954819D01*
X76333332Y-60787200D02*
X76190475Y-60834819D01*
X76190475Y-60834819D02*
X75952380Y-60834819D01*
X75952380Y-60834819D02*
X75857142Y-60787200D01*
X75857142Y-60787200D02*
X75809523Y-60739580D01*
X75809523Y-60739580D02*
X75761904Y-60644342D01*
X75761904Y-60644342D02*
X75761904Y-60549104D01*
X75761904Y-60549104D02*
X75809523Y-60453866D01*
X75809523Y-60453866D02*
X75857142Y-60406247D01*
X75857142Y-60406247D02*
X75952380Y-60358628D01*
X75952380Y-60358628D02*
X76142856Y-60311009D01*
X76142856Y-60311009D02*
X76238094Y-60263390D01*
X76238094Y-60263390D02*
X76285713Y-60215771D01*
X76285713Y-60215771D02*
X76333332Y-60120533D01*
X76333332Y-60120533D02*
X76333332Y-60025295D01*
X76333332Y-60025295D02*
X76285713Y-59930057D01*
X76285713Y-59930057D02*
X76238094Y-59882438D01*
X76238094Y-59882438D02*
X76142856Y-59834819D01*
X76142856Y-59834819D02*
X75904761Y-59834819D01*
X75904761Y-59834819D02*
X75761904Y-59882438D01*
X75428570Y-59834819D02*
X75190475Y-60834819D01*
X75190475Y-60834819D02*
X74999999Y-60120533D01*
X74999999Y-60120533D02*
X74809523Y-60834819D01*
X74809523Y-60834819D02*
X74571428Y-59834819D01*
X73666666Y-60834819D02*
X74238094Y-60834819D01*
X73952380Y-60834819D02*
X73952380Y-59834819D01*
X73952380Y-59834819D02*
X74047618Y-59977676D01*
X74047618Y-59977676D02*
X74142856Y-60072914D01*
X74142856Y-60072914D02*
X74238094Y-60120533D01*
X100583332Y-71037200D02*
X100440475Y-71084819D01*
X100440475Y-71084819D02*
X100202380Y-71084819D01*
X100202380Y-71084819D02*
X100107142Y-71037200D01*
X100107142Y-71037200D02*
X100059523Y-70989580D01*
X100059523Y-70989580D02*
X100011904Y-70894342D01*
X100011904Y-70894342D02*
X100011904Y-70799104D01*
X100011904Y-70799104D02*
X100059523Y-70703866D01*
X100059523Y-70703866D02*
X100107142Y-70656247D01*
X100107142Y-70656247D02*
X100202380Y-70608628D01*
X100202380Y-70608628D02*
X100392856Y-70561009D01*
X100392856Y-70561009D02*
X100488094Y-70513390D01*
X100488094Y-70513390D02*
X100535713Y-70465771D01*
X100535713Y-70465771D02*
X100583332Y-70370533D01*
X100583332Y-70370533D02*
X100583332Y-70275295D01*
X100583332Y-70275295D02*
X100535713Y-70180057D01*
X100535713Y-70180057D02*
X100488094Y-70132438D01*
X100488094Y-70132438D02*
X100392856Y-70084819D01*
X100392856Y-70084819D02*
X100154761Y-70084819D01*
X100154761Y-70084819D02*
X100011904Y-70132438D01*
X99678570Y-70084819D02*
X99440475Y-71084819D01*
X99440475Y-71084819D02*
X99249999Y-70370533D01*
X99249999Y-70370533D02*
X99059523Y-71084819D01*
X99059523Y-71084819D02*
X98821428Y-70084819D01*
X98297618Y-70513390D02*
X98392856Y-70465771D01*
X98392856Y-70465771D02*
X98440475Y-70418152D01*
X98440475Y-70418152D02*
X98488094Y-70322914D01*
X98488094Y-70322914D02*
X98488094Y-70275295D01*
X98488094Y-70275295D02*
X98440475Y-70180057D01*
X98440475Y-70180057D02*
X98392856Y-70132438D01*
X98392856Y-70132438D02*
X98297618Y-70084819D01*
X98297618Y-70084819D02*
X98107142Y-70084819D01*
X98107142Y-70084819D02*
X98011904Y-70132438D01*
X98011904Y-70132438D02*
X97964285Y-70180057D01*
X97964285Y-70180057D02*
X97916666Y-70275295D01*
X97916666Y-70275295D02*
X97916666Y-70322914D01*
X97916666Y-70322914D02*
X97964285Y-70418152D01*
X97964285Y-70418152D02*
X98011904Y-70465771D01*
X98011904Y-70465771D02*
X98107142Y-70513390D01*
X98107142Y-70513390D02*
X98297618Y-70513390D01*
X98297618Y-70513390D02*
X98392856Y-70561009D01*
X98392856Y-70561009D02*
X98440475Y-70608628D01*
X98440475Y-70608628D02*
X98488094Y-70703866D01*
X98488094Y-70703866D02*
X98488094Y-70894342D01*
X98488094Y-70894342D02*
X98440475Y-70989580D01*
X98440475Y-70989580D02*
X98392856Y-71037200D01*
X98392856Y-71037200D02*
X98297618Y-71084819D01*
X98297618Y-71084819D02*
X98107142Y-71084819D01*
X98107142Y-71084819D02*
X98011904Y-71037200D01*
X98011904Y-71037200D02*
X97964285Y-70989580D01*
X97964285Y-70989580D02*
X97916666Y-70894342D01*
X97916666Y-70894342D02*
X97916666Y-70703866D01*
X97916666Y-70703866D02*
X97964285Y-70608628D01*
X97964285Y-70608628D02*
X98011904Y-70561009D01*
X98011904Y-70561009D02*
X98107142Y-70513390D01*
X111333332Y-95787200D02*
X111190475Y-95834819D01*
X111190475Y-95834819D02*
X110952380Y-95834819D01*
X110952380Y-95834819D02*
X110857142Y-95787200D01*
X110857142Y-95787200D02*
X110809523Y-95739580D01*
X110809523Y-95739580D02*
X110761904Y-95644342D01*
X110761904Y-95644342D02*
X110761904Y-95549104D01*
X110761904Y-95549104D02*
X110809523Y-95453866D01*
X110809523Y-95453866D02*
X110857142Y-95406247D01*
X110857142Y-95406247D02*
X110952380Y-95358628D01*
X110952380Y-95358628D02*
X111142856Y-95311009D01*
X111142856Y-95311009D02*
X111238094Y-95263390D01*
X111238094Y-95263390D02*
X111285713Y-95215771D01*
X111285713Y-95215771D02*
X111333332Y-95120533D01*
X111333332Y-95120533D02*
X111333332Y-95025295D01*
X111333332Y-95025295D02*
X111285713Y-94930057D01*
X111285713Y-94930057D02*
X111238094Y-94882438D01*
X111238094Y-94882438D02*
X111142856Y-94834819D01*
X111142856Y-94834819D02*
X110904761Y-94834819D01*
X110904761Y-94834819D02*
X110761904Y-94882438D01*
X110428570Y-94834819D02*
X110190475Y-95834819D01*
X110190475Y-95834819D02*
X109999999Y-95120533D01*
X109999999Y-95120533D02*
X109809523Y-95834819D01*
X109809523Y-95834819D02*
X109571428Y-94834819D01*
X109285713Y-94834819D02*
X108619047Y-94834819D01*
X108619047Y-94834819D02*
X109047618Y-95834819D01*
X43238094Y-128994819D02*
X43238094Y-127994819D01*
X43238094Y-127994819D02*
X42999999Y-127994819D01*
X42999999Y-127994819D02*
X42857142Y-128042438D01*
X42857142Y-128042438D02*
X42761904Y-128137676D01*
X42761904Y-128137676D02*
X42714285Y-128232914D01*
X42714285Y-128232914D02*
X42666666Y-128423390D01*
X42666666Y-128423390D02*
X42666666Y-128566247D01*
X42666666Y-128566247D02*
X42714285Y-128756723D01*
X42714285Y-128756723D02*
X42761904Y-128851961D01*
X42761904Y-128851961D02*
X42857142Y-128947200D01*
X42857142Y-128947200D02*
X42999999Y-128994819D01*
X42999999Y-128994819D02*
X43238094Y-128994819D01*
X41809523Y-128328152D02*
X41809523Y-128994819D01*
X42047618Y-127947200D02*
X42285713Y-128661485D01*
X42285713Y-128661485D02*
X41666666Y-128661485D01*
X45238095Y-132954819D02*
X45809523Y-132954819D01*
X45523809Y-132954819D02*
X45523809Y-131954819D01*
X45523809Y-131954819D02*
X45619047Y-132097676D01*
X45619047Y-132097676D02*
X45714285Y-132192914D01*
X45714285Y-132192914D02*
X45809523Y-132240533D01*
X44809523Y-132431009D02*
X44047619Y-132431009D01*
X44047619Y-132716723D02*
X44809523Y-132716723D01*
X43571428Y-132954819D02*
X43571428Y-131954819D01*
X43000000Y-132954819D02*
X43428571Y-132383390D01*
X43000000Y-131954819D02*
X43571428Y-132526247D01*
X41857142Y-132050057D02*
X41809523Y-132002438D01*
X41809523Y-132002438D02*
X41714285Y-131954819D01*
X41714285Y-131954819D02*
X41476190Y-131954819D01*
X41476190Y-131954819D02*
X41380952Y-132002438D01*
X41380952Y-132002438D02*
X41333333Y-132050057D01*
X41333333Y-132050057D02*
X41285714Y-132145295D01*
X41285714Y-132145295D02*
X41285714Y-132240533D01*
X41285714Y-132240533D02*
X41333333Y-132383390D01*
X41333333Y-132383390D02*
X41904761Y-132954819D01*
X41904761Y-132954819D02*
X41285714Y-132954819D01*
X40857142Y-132431009D02*
X40095238Y-132431009D01*
X40095238Y-132716723D02*
X40857142Y-132716723D01*
X39666666Y-132669104D02*
X39190476Y-132669104D01*
X39761904Y-132954819D02*
X39428571Y-131954819D01*
X39428571Y-131954819D02*
X39095238Y-132954819D01*
X75738094Y-142494819D02*
X75738094Y-141494819D01*
X75738094Y-141494819D02*
X75499999Y-141494819D01*
X75499999Y-141494819D02*
X75357142Y-141542438D01*
X75357142Y-141542438D02*
X75261904Y-141637676D01*
X75261904Y-141637676D02*
X75214285Y-141732914D01*
X75214285Y-141732914D02*
X75166666Y-141923390D01*
X75166666Y-141923390D02*
X75166666Y-142066247D01*
X75166666Y-142066247D02*
X75214285Y-142256723D01*
X75214285Y-142256723D02*
X75261904Y-142351961D01*
X75261904Y-142351961D02*
X75357142Y-142447200D01*
X75357142Y-142447200D02*
X75499999Y-142494819D01*
X75499999Y-142494819D02*
X75738094Y-142494819D01*
X74261904Y-141494819D02*
X74738094Y-141494819D01*
X74738094Y-141494819D02*
X74785713Y-141971009D01*
X74785713Y-141971009D02*
X74738094Y-141923390D01*
X74738094Y-141923390D02*
X74642856Y-141875771D01*
X74642856Y-141875771D02*
X74404761Y-141875771D01*
X74404761Y-141875771D02*
X74309523Y-141923390D01*
X74309523Y-141923390D02*
X74261904Y-141971009D01*
X74261904Y-141971009D02*
X74214285Y-142066247D01*
X74214285Y-142066247D02*
X74214285Y-142304342D01*
X74214285Y-142304342D02*
X74261904Y-142399580D01*
X74261904Y-142399580D02*
X74309523Y-142447200D01*
X74309523Y-142447200D02*
X74404761Y-142494819D01*
X74404761Y-142494819D02*
X74642856Y-142494819D01*
X74642856Y-142494819D02*
X74738094Y-142447200D01*
X74738094Y-142447200D02*
X74785713Y-142399580D01*
X77738095Y-146454819D02*
X78309523Y-146454819D01*
X78023809Y-146454819D02*
X78023809Y-145454819D01*
X78023809Y-145454819D02*
X78119047Y-145597676D01*
X78119047Y-145597676D02*
X78214285Y-145692914D01*
X78214285Y-145692914D02*
X78309523Y-145740533D01*
X77309523Y-145931009D02*
X76547619Y-145931009D01*
X76547619Y-146216723D02*
X77309523Y-146216723D01*
X76071428Y-146454819D02*
X76071428Y-145454819D01*
X75500000Y-146454819D02*
X75928571Y-145883390D01*
X75500000Y-145454819D02*
X76071428Y-146026247D01*
X74357142Y-145550057D02*
X74309523Y-145502438D01*
X74309523Y-145502438D02*
X74214285Y-145454819D01*
X74214285Y-145454819D02*
X73976190Y-145454819D01*
X73976190Y-145454819D02*
X73880952Y-145502438D01*
X73880952Y-145502438D02*
X73833333Y-145550057D01*
X73833333Y-145550057D02*
X73785714Y-145645295D01*
X73785714Y-145645295D02*
X73785714Y-145740533D01*
X73785714Y-145740533D02*
X73833333Y-145883390D01*
X73833333Y-145883390D02*
X74404761Y-146454819D01*
X74404761Y-146454819D02*
X73785714Y-146454819D01*
X73357142Y-145931009D02*
X72595238Y-145931009D01*
X72595238Y-146216723D02*
X73357142Y-146216723D01*
X72166666Y-146169104D02*
X71690476Y-146169104D01*
X72261904Y-146454819D02*
X71928571Y-145454819D01*
X71928571Y-145454819D02*
X71595238Y-146454819D01*
X29738094Y-96494819D02*
X29738094Y-95494819D01*
X29738094Y-95494819D02*
X29499999Y-95494819D01*
X29499999Y-95494819D02*
X29357142Y-95542438D01*
X29357142Y-95542438D02*
X29261904Y-95637676D01*
X29261904Y-95637676D02*
X29214285Y-95732914D01*
X29214285Y-95732914D02*
X29166666Y-95923390D01*
X29166666Y-95923390D02*
X29166666Y-96066247D01*
X29166666Y-96066247D02*
X29214285Y-96256723D01*
X29214285Y-96256723D02*
X29261904Y-96351961D01*
X29261904Y-96351961D02*
X29357142Y-96447200D01*
X29357142Y-96447200D02*
X29499999Y-96494819D01*
X29499999Y-96494819D02*
X29738094Y-96494819D01*
X28833332Y-95494819D02*
X28214285Y-95494819D01*
X28214285Y-95494819D02*
X28547618Y-95875771D01*
X28547618Y-95875771D02*
X28404761Y-95875771D01*
X28404761Y-95875771D02*
X28309523Y-95923390D01*
X28309523Y-95923390D02*
X28261904Y-95971009D01*
X28261904Y-95971009D02*
X28214285Y-96066247D01*
X28214285Y-96066247D02*
X28214285Y-96304342D01*
X28214285Y-96304342D02*
X28261904Y-96399580D01*
X28261904Y-96399580D02*
X28309523Y-96447200D01*
X28309523Y-96447200D02*
X28404761Y-96494819D01*
X28404761Y-96494819D02*
X28690475Y-96494819D01*
X28690475Y-96494819D02*
X28785713Y-96447200D01*
X28785713Y-96447200D02*
X28833332Y-96399580D01*
X31738095Y-100454819D02*
X32309523Y-100454819D01*
X32023809Y-100454819D02*
X32023809Y-99454819D01*
X32023809Y-99454819D02*
X32119047Y-99597676D01*
X32119047Y-99597676D02*
X32214285Y-99692914D01*
X32214285Y-99692914D02*
X32309523Y-99740533D01*
X31309523Y-99931009D02*
X30547619Y-99931009D01*
X30547619Y-100216723D02*
X31309523Y-100216723D01*
X30071428Y-100454819D02*
X30071428Y-99454819D01*
X29500000Y-100454819D02*
X29928571Y-99883390D01*
X29500000Y-99454819D02*
X30071428Y-100026247D01*
X28357142Y-99550057D02*
X28309523Y-99502438D01*
X28309523Y-99502438D02*
X28214285Y-99454819D01*
X28214285Y-99454819D02*
X27976190Y-99454819D01*
X27976190Y-99454819D02*
X27880952Y-99502438D01*
X27880952Y-99502438D02*
X27833333Y-99550057D01*
X27833333Y-99550057D02*
X27785714Y-99645295D01*
X27785714Y-99645295D02*
X27785714Y-99740533D01*
X27785714Y-99740533D02*
X27833333Y-99883390D01*
X27833333Y-99883390D02*
X28404761Y-100454819D01*
X28404761Y-100454819D02*
X27785714Y-100454819D01*
X27357142Y-99931009D02*
X26595238Y-99931009D01*
X26595238Y-100216723D02*
X27357142Y-100216723D01*
X26166666Y-100169104D02*
X25690476Y-100169104D01*
X26261904Y-100454819D02*
X25928571Y-99454819D01*
X25928571Y-99454819D02*
X25595238Y-100454819D01*
X51583332Y-120537200D02*
X51440475Y-120584819D01*
X51440475Y-120584819D02*
X51202380Y-120584819D01*
X51202380Y-120584819D02*
X51107142Y-120537200D01*
X51107142Y-120537200D02*
X51059523Y-120489580D01*
X51059523Y-120489580D02*
X51011904Y-120394342D01*
X51011904Y-120394342D02*
X51011904Y-120299104D01*
X51011904Y-120299104D02*
X51059523Y-120203866D01*
X51059523Y-120203866D02*
X51107142Y-120156247D01*
X51107142Y-120156247D02*
X51202380Y-120108628D01*
X51202380Y-120108628D02*
X51392856Y-120061009D01*
X51392856Y-120061009D02*
X51488094Y-120013390D01*
X51488094Y-120013390D02*
X51535713Y-119965771D01*
X51535713Y-119965771D02*
X51583332Y-119870533D01*
X51583332Y-119870533D02*
X51583332Y-119775295D01*
X51583332Y-119775295D02*
X51535713Y-119680057D01*
X51535713Y-119680057D02*
X51488094Y-119632438D01*
X51488094Y-119632438D02*
X51392856Y-119584819D01*
X51392856Y-119584819D02*
X51154761Y-119584819D01*
X51154761Y-119584819D02*
X51011904Y-119632438D01*
X50678570Y-119584819D02*
X50440475Y-120584819D01*
X50440475Y-120584819D02*
X50249999Y-119870533D01*
X50249999Y-119870533D02*
X50059523Y-120584819D01*
X50059523Y-120584819D02*
X49821428Y-119584819D01*
X49011904Y-119918152D02*
X49011904Y-120584819D01*
X49249999Y-119537200D02*
X49488094Y-120251485D01*
X49488094Y-120251485D02*
X48869047Y-120251485D01*
X41333332Y-95787200D02*
X41190475Y-95834819D01*
X41190475Y-95834819D02*
X40952380Y-95834819D01*
X40952380Y-95834819D02*
X40857142Y-95787200D01*
X40857142Y-95787200D02*
X40809523Y-95739580D01*
X40809523Y-95739580D02*
X40761904Y-95644342D01*
X40761904Y-95644342D02*
X40761904Y-95549104D01*
X40761904Y-95549104D02*
X40809523Y-95453866D01*
X40809523Y-95453866D02*
X40857142Y-95406247D01*
X40857142Y-95406247D02*
X40952380Y-95358628D01*
X40952380Y-95358628D02*
X41142856Y-95311009D01*
X41142856Y-95311009D02*
X41238094Y-95263390D01*
X41238094Y-95263390D02*
X41285713Y-95215771D01*
X41285713Y-95215771D02*
X41333332Y-95120533D01*
X41333332Y-95120533D02*
X41333332Y-95025295D01*
X41333332Y-95025295D02*
X41285713Y-94930057D01*
X41285713Y-94930057D02*
X41238094Y-94882438D01*
X41238094Y-94882438D02*
X41142856Y-94834819D01*
X41142856Y-94834819D02*
X40904761Y-94834819D01*
X40904761Y-94834819D02*
X40761904Y-94882438D01*
X40428570Y-94834819D02*
X40190475Y-95834819D01*
X40190475Y-95834819D02*
X39999999Y-95120533D01*
X39999999Y-95120533D02*
X39809523Y-95834819D01*
X39809523Y-95834819D02*
X39571428Y-94834819D01*
X39285713Y-94834819D02*
X38666666Y-94834819D01*
X38666666Y-94834819D02*
X38999999Y-95215771D01*
X38999999Y-95215771D02*
X38857142Y-95215771D01*
X38857142Y-95215771D02*
X38761904Y-95263390D01*
X38761904Y-95263390D02*
X38714285Y-95311009D01*
X38714285Y-95311009D02*
X38666666Y-95406247D01*
X38666666Y-95406247D02*
X38666666Y-95644342D01*
X38666666Y-95644342D02*
X38714285Y-95739580D01*
X38714285Y-95739580D02*
X38761904Y-95787200D01*
X38761904Y-95787200D02*
X38857142Y-95834819D01*
X38857142Y-95834819D02*
X39142856Y-95834819D01*
X39142856Y-95834819D02*
X39238094Y-95787200D01*
X39238094Y-95787200D02*
X39285713Y-95739580D01*
X71363094Y-52954819D02*
X71363094Y-51954819D01*
X71363094Y-51954819D02*
X71124999Y-51954819D01*
X71124999Y-51954819D02*
X70982142Y-52002438D01*
X70982142Y-52002438D02*
X70886904Y-52097676D01*
X70886904Y-52097676D02*
X70839285Y-52192914D01*
X70839285Y-52192914D02*
X70791666Y-52383390D01*
X70791666Y-52383390D02*
X70791666Y-52526247D01*
X70791666Y-52526247D02*
X70839285Y-52716723D01*
X70839285Y-52716723D02*
X70886904Y-52811961D01*
X70886904Y-52811961D02*
X70982142Y-52907200D01*
X70982142Y-52907200D02*
X71124999Y-52954819D01*
X71124999Y-52954819D02*
X71363094Y-52954819D01*
X69839285Y-52954819D02*
X70410713Y-52954819D01*
X70124999Y-52954819D02*
X70124999Y-51954819D01*
X70124999Y-51954819D02*
X70220237Y-52097676D01*
X70220237Y-52097676D02*
X70315475Y-52192914D01*
X70315475Y-52192914D02*
X70410713Y-52240533D01*
X77738095Y-54454819D02*
X78309523Y-54454819D01*
X78023809Y-54454819D02*
X78023809Y-53454819D01*
X78023809Y-53454819D02*
X78119047Y-53597676D01*
X78119047Y-53597676D02*
X78214285Y-53692914D01*
X78214285Y-53692914D02*
X78309523Y-53740533D01*
X77309523Y-53931009D02*
X76547619Y-53931009D01*
X76547619Y-54216723D02*
X77309523Y-54216723D01*
X76071428Y-54454819D02*
X76071428Y-53454819D01*
X75500000Y-54454819D02*
X75928571Y-53883390D01*
X75500000Y-53454819D02*
X76071428Y-54026247D01*
X74357142Y-53550057D02*
X74309523Y-53502438D01*
X74309523Y-53502438D02*
X74214285Y-53454819D01*
X74214285Y-53454819D02*
X73976190Y-53454819D01*
X73976190Y-53454819D02*
X73880952Y-53502438D01*
X73880952Y-53502438D02*
X73833333Y-53550057D01*
X73833333Y-53550057D02*
X73785714Y-53645295D01*
X73785714Y-53645295D02*
X73785714Y-53740533D01*
X73785714Y-53740533D02*
X73833333Y-53883390D01*
X73833333Y-53883390D02*
X74404761Y-54454819D01*
X74404761Y-54454819D02*
X73785714Y-54454819D01*
X73357142Y-53931009D02*
X72595238Y-53931009D01*
X72595238Y-54216723D02*
X73357142Y-54216723D01*
X72166666Y-54169104D02*
X71690476Y-54169104D01*
X72261904Y-54454819D02*
X71928571Y-53454819D01*
X71928571Y-53454819D02*
X71595238Y-54454819D01*
X76333332Y-130787200D02*
X76190475Y-130834819D01*
X76190475Y-130834819D02*
X75952380Y-130834819D01*
X75952380Y-130834819D02*
X75857142Y-130787200D01*
X75857142Y-130787200D02*
X75809523Y-130739580D01*
X75809523Y-130739580D02*
X75761904Y-130644342D01*
X75761904Y-130644342D02*
X75761904Y-130549104D01*
X75761904Y-130549104D02*
X75809523Y-130453866D01*
X75809523Y-130453866D02*
X75857142Y-130406247D01*
X75857142Y-130406247D02*
X75952380Y-130358628D01*
X75952380Y-130358628D02*
X76142856Y-130311009D01*
X76142856Y-130311009D02*
X76238094Y-130263390D01*
X76238094Y-130263390D02*
X76285713Y-130215771D01*
X76285713Y-130215771D02*
X76333332Y-130120533D01*
X76333332Y-130120533D02*
X76333332Y-130025295D01*
X76333332Y-130025295D02*
X76285713Y-129930057D01*
X76285713Y-129930057D02*
X76238094Y-129882438D01*
X76238094Y-129882438D02*
X76142856Y-129834819D01*
X76142856Y-129834819D02*
X75904761Y-129834819D01*
X75904761Y-129834819D02*
X75761904Y-129882438D01*
X75428570Y-129834819D02*
X75190475Y-130834819D01*
X75190475Y-130834819D02*
X74999999Y-130120533D01*
X74999999Y-130120533D02*
X74809523Y-130834819D01*
X74809523Y-130834819D02*
X74571428Y-129834819D01*
X73714285Y-129834819D02*
X74190475Y-129834819D01*
X74190475Y-129834819D02*
X74238094Y-130311009D01*
X74238094Y-130311009D02*
X74190475Y-130263390D01*
X74190475Y-130263390D02*
X74095237Y-130215771D01*
X74095237Y-130215771D02*
X73857142Y-130215771D01*
X73857142Y-130215771D02*
X73761904Y-130263390D01*
X73761904Y-130263390D02*
X73714285Y-130311009D01*
X73714285Y-130311009D02*
X73666666Y-130406247D01*
X73666666Y-130406247D02*
X73666666Y-130644342D01*
X73666666Y-130644342D02*
X73714285Y-130739580D01*
X73714285Y-130739580D02*
X73761904Y-130787200D01*
X73761904Y-130787200D02*
X73857142Y-130834819D01*
X73857142Y-130834819D02*
X74095237Y-130834819D01*
X74095237Y-130834819D02*
X74190475Y-130787200D01*
X74190475Y-130787200D02*
X74238094Y-130739580D01*
X108238094Y-63994819D02*
X108238094Y-62994819D01*
X108238094Y-62994819D02*
X107999999Y-62994819D01*
X107999999Y-62994819D02*
X107857142Y-63042438D01*
X107857142Y-63042438D02*
X107761904Y-63137676D01*
X107761904Y-63137676D02*
X107714285Y-63232914D01*
X107714285Y-63232914D02*
X107666666Y-63423390D01*
X107666666Y-63423390D02*
X107666666Y-63566247D01*
X107666666Y-63566247D02*
X107714285Y-63756723D01*
X107714285Y-63756723D02*
X107761904Y-63851961D01*
X107761904Y-63851961D02*
X107857142Y-63947200D01*
X107857142Y-63947200D02*
X107999999Y-63994819D01*
X107999999Y-63994819D02*
X108238094Y-63994819D01*
X107095237Y-63423390D02*
X107190475Y-63375771D01*
X107190475Y-63375771D02*
X107238094Y-63328152D01*
X107238094Y-63328152D02*
X107285713Y-63232914D01*
X107285713Y-63232914D02*
X107285713Y-63185295D01*
X107285713Y-63185295D02*
X107238094Y-63090057D01*
X107238094Y-63090057D02*
X107190475Y-63042438D01*
X107190475Y-63042438D02*
X107095237Y-62994819D01*
X107095237Y-62994819D02*
X106904761Y-62994819D01*
X106904761Y-62994819D02*
X106809523Y-63042438D01*
X106809523Y-63042438D02*
X106761904Y-63090057D01*
X106761904Y-63090057D02*
X106714285Y-63185295D01*
X106714285Y-63185295D02*
X106714285Y-63232914D01*
X106714285Y-63232914D02*
X106761904Y-63328152D01*
X106761904Y-63328152D02*
X106809523Y-63375771D01*
X106809523Y-63375771D02*
X106904761Y-63423390D01*
X106904761Y-63423390D02*
X107095237Y-63423390D01*
X107095237Y-63423390D02*
X107190475Y-63471009D01*
X107190475Y-63471009D02*
X107238094Y-63518628D01*
X107238094Y-63518628D02*
X107285713Y-63613866D01*
X107285713Y-63613866D02*
X107285713Y-63804342D01*
X107285713Y-63804342D02*
X107238094Y-63899580D01*
X107238094Y-63899580D02*
X107190475Y-63947200D01*
X107190475Y-63947200D02*
X107095237Y-63994819D01*
X107095237Y-63994819D02*
X106904761Y-63994819D01*
X106904761Y-63994819D02*
X106809523Y-63947200D01*
X106809523Y-63947200D02*
X106761904Y-63899580D01*
X106761904Y-63899580D02*
X106714285Y-63804342D01*
X106714285Y-63804342D02*
X106714285Y-63613866D01*
X106714285Y-63613866D02*
X106761904Y-63518628D01*
X106761904Y-63518628D02*
X106809523Y-63471009D01*
X106809523Y-63471009D02*
X106904761Y-63423390D01*
X110238095Y-67954819D02*
X110809523Y-67954819D01*
X110523809Y-67954819D02*
X110523809Y-66954819D01*
X110523809Y-66954819D02*
X110619047Y-67097676D01*
X110619047Y-67097676D02*
X110714285Y-67192914D01*
X110714285Y-67192914D02*
X110809523Y-67240533D01*
X109809523Y-67431009D02*
X109047619Y-67431009D01*
X109047619Y-67716723D02*
X109809523Y-67716723D01*
X108571428Y-67954819D02*
X108571428Y-66954819D01*
X108000000Y-67954819D02*
X108428571Y-67383390D01*
X108000000Y-66954819D02*
X108571428Y-67526247D01*
X106857142Y-67050057D02*
X106809523Y-67002438D01*
X106809523Y-67002438D02*
X106714285Y-66954819D01*
X106714285Y-66954819D02*
X106476190Y-66954819D01*
X106476190Y-66954819D02*
X106380952Y-67002438D01*
X106380952Y-67002438D02*
X106333333Y-67050057D01*
X106333333Y-67050057D02*
X106285714Y-67145295D01*
X106285714Y-67145295D02*
X106285714Y-67240533D01*
X106285714Y-67240533D02*
X106333333Y-67383390D01*
X106333333Y-67383390D02*
X106904761Y-67954819D01*
X106904761Y-67954819D02*
X106285714Y-67954819D01*
X105857142Y-67431009D02*
X105095238Y-67431009D01*
X105095238Y-67716723D02*
X105857142Y-67716723D01*
X104666666Y-67669104D02*
X104190476Y-67669104D01*
X104761904Y-67954819D02*
X104428571Y-66954819D01*
X104428571Y-66954819D02*
X104095238Y-67954819D01*
X101083332Y-120537200D02*
X100940475Y-120584819D01*
X100940475Y-120584819D02*
X100702380Y-120584819D01*
X100702380Y-120584819D02*
X100607142Y-120537200D01*
X100607142Y-120537200D02*
X100559523Y-120489580D01*
X100559523Y-120489580D02*
X100511904Y-120394342D01*
X100511904Y-120394342D02*
X100511904Y-120299104D01*
X100511904Y-120299104D02*
X100559523Y-120203866D01*
X100559523Y-120203866D02*
X100607142Y-120156247D01*
X100607142Y-120156247D02*
X100702380Y-120108628D01*
X100702380Y-120108628D02*
X100892856Y-120061009D01*
X100892856Y-120061009D02*
X100988094Y-120013390D01*
X100988094Y-120013390D02*
X101035713Y-119965771D01*
X101035713Y-119965771D02*
X101083332Y-119870533D01*
X101083332Y-119870533D02*
X101083332Y-119775295D01*
X101083332Y-119775295D02*
X101035713Y-119680057D01*
X101035713Y-119680057D02*
X100988094Y-119632438D01*
X100988094Y-119632438D02*
X100892856Y-119584819D01*
X100892856Y-119584819D02*
X100654761Y-119584819D01*
X100654761Y-119584819D02*
X100511904Y-119632438D01*
X100178570Y-119584819D02*
X99940475Y-120584819D01*
X99940475Y-120584819D02*
X99749999Y-119870533D01*
X99749999Y-119870533D02*
X99559523Y-120584819D01*
X99559523Y-120584819D02*
X99321428Y-119584819D01*
X98511904Y-119584819D02*
X98702380Y-119584819D01*
X98702380Y-119584819D02*
X98797618Y-119632438D01*
X98797618Y-119632438D02*
X98845237Y-119680057D01*
X98845237Y-119680057D02*
X98940475Y-119822914D01*
X98940475Y-119822914D02*
X98988094Y-120013390D01*
X98988094Y-120013390D02*
X98988094Y-120394342D01*
X98988094Y-120394342D02*
X98940475Y-120489580D01*
X98940475Y-120489580D02*
X98892856Y-120537200D01*
X98892856Y-120537200D02*
X98797618Y-120584819D01*
X98797618Y-120584819D02*
X98607142Y-120584819D01*
X98607142Y-120584819D02*
X98511904Y-120537200D01*
X98511904Y-120537200D02*
X98464285Y-120489580D01*
X98464285Y-120489580D02*
X98416666Y-120394342D01*
X98416666Y-120394342D02*
X98416666Y-120156247D01*
X98416666Y-120156247D02*
X98464285Y-120061009D01*
X98464285Y-120061009D02*
X98511904Y-120013390D01*
X98511904Y-120013390D02*
X98607142Y-119965771D01*
X98607142Y-119965771D02*
X98797618Y-119965771D01*
X98797618Y-119965771D02*
X98892856Y-120013390D01*
X98892856Y-120013390D02*
X98940475Y-120061009D01*
X98940475Y-120061009D02*
X98988094Y-120156247D01*
X123773332Y-44617200D02*
X123630475Y-44664819D01*
X123630475Y-44664819D02*
X123392380Y-44664819D01*
X123392380Y-44664819D02*
X123297142Y-44617200D01*
X123297142Y-44617200D02*
X123249523Y-44569580D01*
X123249523Y-44569580D02*
X123201904Y-44474342D01*
X123201904Y-44474342D02*
X123201904Y-44379104D01*
X123201904Y-44379104D02*
X123249523Y-44283866D01*
X123249523Y-44283866D02*
X123297142Y-44236247D01*
X123297142Y-44236247D02*
X123392380Y-44188628D01*
X123392380Y-44188628D02*
X123582856Y-44141009D01*
X123582856Y-44141009D02*
X123678094Y-44093390D01*
X123678094Y-44093390D02*
X123725713Y-44045771D01*
X123725713Y-44045771D02*
X123773332Y-43950533D01*
X123773332Y-43950533D02*
X123773332Y-43855295D01*
X123773332Y-43855295D02*
X123725713Y-43760057D01*
X123725713Y-43760057D02*
X123678094Y-43712438D01*
X123678094Y-43712438D02*
X123582856Y-43664819D01*
X123582856Y-43664819D02*
X123344761Y-43664819D01*
X123344761Y-43664819D02*
X123201904Y-43712438D01*
X122868570Y-43664819D02*
X122630475Y-44664819D01*
X122630475Y-44664819D02*
X122439999Y-43950533D01*
X122439999Y-43950533D02*
X122249523Y-44664819D01*
X122249523Y-44664819D02*
X122011428Y-43664819D01*
X121678094Y-43760057D02*
X121630475Y-43712438D01*
X121630475Y-43712438D02*
X121535237Y-43664819D01*
X121535237Y-43664819D02*
X121297142Y-43664819D01*
X121297142Y-43664819D02*
X121201904Y-43712438D01*
X121201904Y-43712438D02*
X121154285Y-43760057D01*
X121154285Y-43760057D02*
X121106666Y-43855295D01*
X121106666Y-43855295D02*
X121106666Y-43950533D01*
X121106666Y-43950533D02*
X121154285Y-44093390D01*
X121154285Y-44093390D02*
X121725713Y-44664819D01*
X121725713Y-44664819D02*
X121106666Y-44664819D01*
%TO.C,D7*%
D12*
X123560000Y-98455000D02*
X123560000Y-101545000D01*
X118010000Y-100000000D02*
G75*
G02*
X123560000Y-98455170I2990000J0D01*
G01*
X123560000Y-101544830D02*
G75*
G02*
X118010000Y-100000000I-2560000J1544830D01*
G01*
X123500000Y-100000000D02*
G75*
G02*
X118500000Y-100000000I-2500000J0D01*
G01*
X118500000Y-100000000D02*
G75*
G02*
X123500000Y-100000000I2500000J0D01*
G01*
%TO.C,D2*%
X45060000Y-65955000D02*
X45060000Y-69045000D01*
X39510000Y-67500000D02*
G75*
G02*
X45060000Y-65955170I2990000J0D01*
G01*
X45060000Y-69044830D02*
G75*
G02*
X39510000Y-67500000I-2560000J1544830D01*
G01*
X45000000Y-67500000D02*
G75*
G02*
X40000000Y-67500000I-2500000J0D01*
G01*
X40000000Y-67500000D02*
G75*
G02*
X45000000Y-67500000I2500000J0D01*
G01*
%TO.C,D6*%
X110060000Y-130955000D02*
X110060000Y-134045000D01*
X104510000Y-132500000D02*
G75*
G02*
X110060000Y-130955170I2990000J0D01*
G01*
X110060000Y-134044830D02*
G75*
G02*
X104510000Y-132500000I-2560000J1544830D01*
G01*
X110000000Y-132500000D02*
G75*
G02*
X105000000Y-132500000I-2500000J0D01*
G01*
X105000000Y-132500000D02*
G75*
G02*
X110000000Y-132500000I2500000J0D01*
G01*
%TO.C,SW1*%
X71190000Y-61190000D02*
X71190000Y-61490000D01*
X71190000Y-63430000D02*
X71190000Y-66570000D01*
X71190000Y-68510000D02*
X71190000Y-68810000D01*
X71190000Y-68810000D02*
X78810000Y-68810000D01*
X78810000Y-61190000D02*
X71190000Y-61190000D01*
X78810000Y-61190000D02*
X78810000Y-61490000D01*
X78810000Y-63430000D02*
X78810000Y-66570000D01*
X78810000Y-68510000D02*
X78810000Y-68810000D01*
X77540000Y-65000000D02*
G75*
G02*
X72460000Y-65000000I-2540000J0D01*
G01*
X72460000Y-65000000D02*
G75*
G02*
X77540000Y-65000000I2540000J0D01*
G01*
%TO.C,SW8*%
X95440000Y-71440000D02*
X95440000Y-71740000D01*
X95440000Y-73680000D02*
X95440000Y-76820000D01*
X95440000Y-78760000D02*
X95440000Y-79060000D01*
X95440000Y-79060000D02*
X103060000Y-79060000D01*
X103060000Y-71440000D02*
X95440000Y-71440000D01*
X103060000Y-71440000D02*
X103060000Y-71740000D01*
X103060000Y-73680000D02*
X103060000Y-76820000D01*
X103060000Y-78760000D02*
X103060000Y-79060000D01*
X101790000Y-75250000D02*
G75*
G02*
X96710000Y-75250000I-2540000J0D01*
G01*
X96710000Y-75250000D02*
G75*
G02*
X101790000Y-75250000I2540000J0D01*
G01*
%TO.C,SW7*%
X106190000Y-96190000D02*
X106190000Y-96490000D01*
X106190000Y-98430000D02*
X106190000Y-101570000D01*
X106190000Y-103510000D02*
X106190000Y-103810000D01*
X106190000Y-103810000D02*
X113810000Y-103810000D01*
X113810000Y-96190000D02*
X106190000Y-96190000D01*
X113810000Y-96190000D02*
X113810000Y-96490000D01*
X113810000Y-98430000D02*
X113810000Y-101570000D01*
X113810000Y-103510000D02*
X113810000Y-103810000D01*
X112540000Y-100000000D02*
G75*
G02*
X107460000Y-100000000I-2540000J0D01*
G01*
X107460000Y-100000000D02*
G75*
G02*
X112540000Y-100000000I2540000J0D01*
G01*
%TO.C,D4*%
X45060000Y-130955000D02*
X45060000Y-134045000D01*
X39510000Y-132500000D02*
G75*
G02*
X45060000Y-130955170I2990000J0D01*
G01*
X45060000Y-134044830D02*
G75*
G02*
X39510000Y-132500000I-2560000J1544830D01*
G01*
X45000000Y-132500000D02*
G75*
G02*
X40000000Y-132500000I-2500000J0D01*
G01*
X40000000Y-132500000D02*
G75*
G02*
X45000000Y-132500000I2500000J0D01*
G01*
%TO.C,D5*%
X77560000Y-144455000D02*
X77560000Y-147545000D01*
X72010000Y-146000000D02*
G75*
G02*
X77560000Y-144455170I2990000J0D01*
G01*
X77560000Y-147544830D02*
G75*
G02*
X72010000Y-146000000I-2560000J1544830D01*
G01*
X77500000Y-146000000D02*
G75*
G02*
X72500000Y-146000000I-2500000J0D01*
G01*
X72500000Y-146000000D02*
G75*
G02*
X77500000Y-146000000I2500000J0D01*
G01*
%TO.C,D3*%
X31560000Y-98455000D02*
X31560000Y-101545000D01*
X26010000Y-100000000D02*
G75*
G02*
X31560000Y-98455170I2990000J0D01*
G01*
X31560000Y-101544830D02*
G75*
G02*
X26010000Y-100000000I-2560000J1544830D01*
G01*
X31500000Y-100000000D02*
G75*
G02*
X26500000Y-100000000I-2500000J0D01*
G01*
X26500000Y-100000000D02*
G75*
G02*
X31500000Y-100000000I2500000J0D01*
G01*
%TO.C,SW4*%
X46440000Y-120940000D02*
X46440000Y-121240000D01*
X46440000Y-123180000D02*
X46440000Y-126320000D01*
X46440000Y-128260000D02*
X46440000Y-128560000D01*
X46440000Y-128560000D02*
X54060000Y-128560000D01*
X54060000Y-120940000D02*
X46440000Y-120940000D01*
X54060000Y-120940000D02*
X54060000Y-121240000D01*
X54060000Y-123180000D02*
X54060000Y-126320000D01*
X54060000Y-128260000D02*
X54060000Y-128560000D01*
X52790000Y-124750000D02*
G75*
G02*
X47710000Y-124750000I-2540000J0D01*
G01*
X47710000Y-124750000D02*
G75*
G02*
X52790000Y-124750000I2540000J0D01*
G01*
%TO.C,SW3*%
X36190000Y-96190000D02*
X36190000Y-96490000D01*
X36190000Y-98430000D02*
X36190000Y-101570000D01*
X36190000Y-103510000D02*
X36190000Y-103810000D01*
X36190000Y-103810000D02*
X43810000Y-103810000D01*
X43810000Y-96190000D02*
X36190000Y-96190000D01*
X43810000Y-96190000D02*
X43810000Y-96490000D01*
X43810000Y-98430000D02*
X43810000Y-101570000D01*
X43810000Y-103510000D02*
X43810000Y-103810000D01*
X42540000Y-100000000D02*
G75*
G02*
X37460000Y-100000000I-2540000J0D01*
G01*
X37460000Y-100000000D02*
G75*
G02*
X42540000Y-100000000I2540000J0D01*
G01*
%TO.C,D1*%
X77560000Y-52455000D02*
X77560000Y-55545000D01*
X72010000Y-54000000D02*
G75*
G02*
X77560000Y-52455170I2990000J0D01*
G01*
X77560000Y-55544830D02*
G75*
G02*
X72010000Y-54000000I-2560000J1544830D01*
G01*
X77500000Y-54000000D02*
G75*
G02*
X72500000Y-54000000I-2500000J0D01*
G01*
X72500000Y-54000000D02*
G75*
G02*
X77500000Y-54000000I2500000J0D01*
G01*
%TO.C,SW5*%
X71190000Y-131190000D02*
X71190000Y-131490000D01*
X71190000Y-133430000D02*
X71190000Y-136570000D01*
X71190000Y-138510000D02*
X71190000Y-138810000D01*
X71190000Y-138810000D02*
X78810000Y-138810000D01*
X78810000Y-131190000D02*
X71190000Y-131190000D01*
X78810000Y-131190000D02*
X78810000Y-131490000D01*
X78810000Y-133430000D02*
X78810000Y-136570000D01*
X78810000Y-138510000D02*
X78810000Y-138810000D01*
X77540000Y-135000000D02*
G75*
G02*
X72460000Y-135000000I-2540000J0D01*
G01*
X72460000Y-135000000D02*
G75*
G02*
X77540000Y-135000000I2540000J0D01*
G01*
%TO.C,D8*%
X110060000Y-65955000D02*
X110060000Y-69045000D01*
X104510000Y-67500000D02*
G75*
G02*
X110060000Y-65955170I2990000J0D01*
G01*
X110060000Y-69044830D02*
G75*
G02*
X104510000Y-67500000I-2560000J1544830D01*
G01*
X110000000Y-67500000D02*
G75*
G02*
X105000000Y-67500000I-2500000J0D01*
G01*
X105000000Y-67500000D02*
G75*
G02*
X110000000Y-67500000I2500000J0D01*
G01*
%TO.C,SW6*%
X95940000Y-120940000D02*
X95940000Y-121240000D01*
X95940000Y-123180000D02*
X95940000Y-126320000D01*
X95940000Y-128260000D02*
X95940000Y-128560000D01*
X95940000Y-128560000D02*
X103560000Y-128560000D01*
X103560000Y-120940000D02*
X95940000Y-120940000D01*
X103560000Y-120940000D02*
X103560000Y-121240000D01*
X103560000Y-123180000D02*
X103560000Y-126320000D01*
X103560000Y-128260000D02*
X103560000Y-128560000D01*
X102290000Y-124750000D02*
G75*
G02*
X97210000Y-124750000I-2540000J0D01*
G01*
X97210000Y-124750000D02*
G75*
G02*
X102290000Y-124750000I2540000J0D01*
G01*
%TO.C,SW2*%
X46440000Y-71440000D02*
X46440000Y-71740000D01*
X46440000Y-73680000D02*
X46440000Y-76820000D01*
X46440000Y-78760000D02*
X46440000Y-79060000D01*
X46440000Y-79060000D02*
X54060000Y-79060000D01*
X54060000Y-71440000D02*
X46440000Y-71440000D01*
X54060000Y-71440000D02*
X54060000Y-71740000D01*
X54060000Y-73680000D02*
X54060000Y-76820000D01*
X54060000Y-78760000D02*
X54060000Y-79060000D01*
X52790000Y-75250000D02*
G75*
G02*
X47710000Y-75250000I-2540000J0D01*
G01*
X47710000Y-75250000D02*
G75*
G02*
X52790000Y-75250000I2540000J0D01*
G01*
%TD*%
M02*
