%TF.GenerationSoftware,KiCad,Pcbnew,10.0.0*%
%TF.CreationDate,2026-04-06T13:26:19-04:00*%
%TF.ProjectId,controller,636f6e74-726f-46c6-9c65-722e6b696361,1.0*%
%TF.SameCoordinates,Original*%
%TF.FileFunction,Soldermask,Top*%
%TF.FilePolarity,Negative*%
%FSLAX46Y46*%
G04 Gerber Fmt 4.6, Leading zero omitted, Abs format (unit mm)*
G04 Created by KiCad (PCBNEW 10.0.0) date 2026-04-06 13:26:19*
%MOMM*%
%LPD*%
G01*
G04 APERTURE LIST*
G04 Aperture macros list*
%AMRoundRect*
0 Rectangle with rounded corners*
0 $1 Rounding radius*
0 $2 $3 $4 $5 $6 $7 $8 $9 X,Y pos of 4 corners*
0 Add a 4 corners polygon primitive as box body*
4,1,4,$2,$3,$4,$5,$6,$7,$8,$9,$2,$3,0*
0 Add four circle primitives for the rounded corners*
1,1,$1+$1,$2,$3*
1,1,$1+$1,$4,$5*
1,1,$1+$1,$6,$7*
1,1,$1+$1,$8,$9*
0 Add four rect primitives between the rounded corners*
20,1,$1+$1,$2,$3,$4,$5,0*
20,1,$1+$1,$4,$5,$6,$7,0*
20,1,$1+$1,$6,$7,$8,$9,0*
20,1,$1+$1,$8,$9,$2,$3,0*%
G04 Aperture macros list end*
%ADD10C,1.600000*%
%ADD11C,1.200000*%
%ADD12RoundRect,0.250000X0.725000X-0.600000X0.725000X0.600000X-0.725000X0.600000X-0.725000X-0.600000X0*%
%ADD13O,1.950000X1.700000*%
%ADD14O,1.200000X2.000000*%
%ADD15C,3.750000*%
%ADD16R,1.800000X1.800000*%
%ADD17C,1.800000*%
%ADD18C,1.397000*%
G04 APERTURE END LIST*
D10*
%TO.C,R1*%
X97880000Y-55550000D03*
X82640000Y-55550000D03*
%TD*%
%TO.C,R3*%
X40580000Y-108050000D03*
X30420000Y-108050000D03*
%TD*%
%TO.C,R2*%
X51080000Y-85550000D03*
X40920000Y-85550000D03*
%TD*%
%TO.C,R7*%
X108230000Y-89900000D03*
X118390000Y-89900000D03*
%TD*%
%TO.C,R6*%
X89500000Y-122550000D03*
X89500000Y-132710000D03*
%TD*%
%TO.C,R5*%
X65500000Y-135970000D03*
X65500000Y-146130000D03*
%TD*%
%TO.C,R4*%
X52080000Y-116550000D03*
X41920000Y-116550000D03*
%TD*%
D11*
%TO.C,J2*%
X78355000Y-120200000D03*
D12*
X76355000Y-118600000D03*
D13*
X76355000Y-116100000D03*
X76355000Y-113600000D03*
X76355000Y-111100000D03*
%TD*%
D14*
%TO.C,U1*%
X63260000Y-103400000D03*
X65800000Y-103400000D03*
X68340000Y-103400000D03*
X70880000Y-103400000D03*
X73420000Y-103400000D03*
X75960000Y-103400000D03*
X78500000Y-103400000D03*
X81040000Y-103400000D03*
X83580000Y-103400000D03*
X86120000Y-103400000D03*
X88660000Y-103400000D03*
X91200000Y-103400000D03*
X93740000Y-103400000D03*
X93740000Y-90700000D03*
X91200000Y-90700000D03*
X88660000Y-90700000D03*
X86120000Y-90700000D03*
X83580000Y-90700000D03*
X81040000Y-90700000D03*
X78500000Y-90700000D03*
X75960000Y-90700000D03*
X73420000Y-90700000D03*
X70880000Y-90700000D03*
X68340000Y-90700000D03*
X65800000Y-90700000D03*
X63260000Y-90700000D03*
D15*
X59300000Y-90700000D03*
X59300000Y-103400000D03*
X97700000Y-103400000D03*
X97700000Y-90700000D03*
%TD*%
D11*
%TO.C,J1*%
X67355000Y-120200000D03*
D12*
X65355000Y-118600000D03*
D13*
X65355000Y-116100000D03*
X65355000Y-113600000D03*
X65355000Y-111100000D03*
%TD*%
D10*
%TO.C,R8*%
X86500000Y-67550000D03*
X96660000Y-67550000D03*
%TD*%
D16*
%TO.C,D7*%
X122270000Y-100000000D03*
D17*
X119730000Y-100000000D03*
%TD*%
D16*
%TO.C,D2*%
X43770000Y-67500000D03*
D17*
X41230000Y-67500000D03*
%TD*%
D16*
%TO.C,D6*%
X108770000Y-132500000D03*
D17*
X106230000Y-132500000D03*
%TD*%
D18*
%TO.C,SW1*%
X78810000Y-62460000D03*
X71190000Y-62460000D03*
X78810000Y-67540000D03*
X71190000Y-67540000D03*
%TD*%
%TO.C,SW8*%
X103060000Y-72710000D03*
X95440000Y-72710000D03*
X103060000Y-77790000D03*
X95440000Y-77790000D03*
%TD*%
%TO.C,SW7*%
X113810000Y-97460000D03*
X106190000Y-97460000D03*
X113810000Y-102540000D03*
X106190000Y-102540000D03*
%TD*%
D16*
%TO.C,D4*%
X43770000Y-132500000D03*
D17*
X41230000Y-132500000D03*
%TD*%
D16*
%TO.C,D5*%
X76270000Y-146000000D03*
D17*
X73730000Y-146000000D03*
%TD*%
D16*
%TO.C,D3*%
X30270000Y-100000000D03*
D17*
X27730000Y-100000000D03*
%TD*%
D18*
%TO.C,SW4*%
X54060000Y-122210000D03*
X46440000Y-122210000D03*
X54060000Y-127290000D03*
X46440000Y-127290000D03*
%TD*%
%TO.C,SW3*%
X43810000Y-97460000D03*
X36190000Y-97460000D03*
X43810000Y-102540000D03*
X36190000Y-102540000D03*
%TD*%
D16*
%TO.C,D1*%
X76270000Y-54000000D03*
D17*
X73730000Y-54000000D03*
%TD*%
D18*
%TO.C,SW5*%
X78810000Y-132460000D03*
X71190000Y-132460000D03*
X78810000Y-137540000D03*
X71190000Y-137540000D03*
%TD*%
D16*
%TO.C,D8*%
X108770000Y-67500000D03*
D17*
X106230000Y-67500000D03*
%TD*%
D18*
%TO.C,SW6*%
X103560000Y-122210000D03*
X95940000Y-122210000D03*
X103560000Y-127290000D03*
X95940000Y-127290000D03*
%TD*%
%TO.C,SW2*%
X54060000Y-72710000D03*
X46440000Y-72710000D03*
X54060000Y-77790000D03*
X46440000Y-77790000D03*
%TD*%
M02*
